<?xml version="1.0" encoding="UTF-8" standalone="no"?>
<!DOCTYPE svg PUBLIC "-//W3C//DTD SVG 1.1//EN"
 "http://www.w3.org/Graphics/SVG/1.1/DTD/svg11.dtd">
<!-- Generated by graphviz version 2.43.0 (0)
 -->
<!-- Title: pastafarianism Pages: 1 -->
<svg width="1002pt" height="116pt"
 viewBox="0.00 0.00 1002.14 116.00" xmlns="http://www.w3.org/2000/svg" xmlns:xlink="http://www.w3.org/1999/xlink">
<g id="graph0" class="graph" transform="scale(1 1) rotate(0) translate(4 112)">
<title>pastafarianism</title>
<polygon fill="white" stroke="transparent" points="-4,4 -4,-112 998.14,-112 998.14,4 -4,4"/>
<!-- root -->
<g id="node1" class="node">
<title>root</title>
<polygon fill="cyan" stroke="black" points="460.02,-82.54 460.02,-97.46 444.21,-108 421.84,-108 406.02,-97.46 406.02,-82.54 421.84,-72 444.21,-72 460.02,-82.54"/>
<text text-anchor="middle" x="433.02" y="-87.8" font-family="Times,serif" font-size="9.00">root</text>
</g>
<!-- Dummy -->
<g id="node2" class="node">
<title>Dummy</title>
<ellipse fill="gray" stroke="black" cx="30.02" cy="-18" rx="30.04" ry="18"/>
<text text-anchor="middle" x="30.02" y="-15.8" font-family="Times,serif" font-size="9.00">Dummy</text>
</g>
<!-- root&#45;&gt;Dummy -->
<g id="edge1" class="edge">
<title>root&#45;&gt;Dummy</title>
<path fill="none" stroke="black" d="M406.02,-87.53C344.93,-83.67 191.85,-71.03 69.02,-36 66.74,-35.35 64.43,-34.6 62.11,-33.78"/>
<polygon fill="black" stroke="black" points="63.33,-30.5 52.74,-30.11 60.78,-37.01 63.33,-30.5"/>
</g>
<!-- Dummy* -->
<g id="node3" class="node">
<title>Dummy*</title>
<ellipse fill="gray" stroke="black" cx="110.02" cy="-18" rx="32.16" ry="18"/>
<text text-anchor="middle" x="110.02" y="-15.8" font-family="Times,serif" font-size="9.00">Dummy*</text>
</g>
<!-- root&#45;&gt;Dummy* -->
<g id="edge2" class="edge">
<title>root&#45;&gt;Dummy*</title>
<path fill="none" stroke="black" d="M405.87,-85.7C355.23,-79.15 243.24,-62.78 152.02,-36 149.42,-35.24 146.76,-34.37 144.11,-33.45"/>
<polygon fill="black" stroke="black" points="145.2,-30.12 134.61,-29.9 142.75,-36.68 145.2,-30.12"/>
</g>
<!-- Dummy** -->
<g id="node4" class="node">
<title>Dummy**</title>
<ellipse fill="gray" stroke="black" cx="196.02" cy="-18" rx="35.44" ry="18"/>
<text text-anchor="middle" x="196.02" y="-15.8" font-family="Times,serif" font-size="9.00">Dummy**</text>
</g>
<!-- root&#45;&gt;Dummy** -->
<g id="edge3" class="edge">
<title>root&#45;&gt;Dummy**</title>
<path fill="none" stroke="black" d="M405.92,-82.47C368.34,-73.22 298.43,-55.25 240.02,-36 237.48,-35.16 234.88,-34.26 232.26,-33.33"/>
<polygon fill="black" stroke="black" points="233.45,-30.04 222.86,-29.86 231.03,-36.61 233.45,-30.04"/>
</g>
<!-- Dummy*** -->
<g id="node5" class="node">
<title>Dummy***</title>
<ellipse fill="gray" stroke="black" cx="287.02" cy="-18" rx="37.56" ry="18"/>
<text text-anchor="middle" x="287.02" y="-15.8" font-family="Times,serif" font-size="9.00">Dummy***</text>
</g>
<!-- root&#45;&gt;Dummy*** -->
<g id="edge4" class="edge">
<title>root&#45;&gt;Dummy***</title>
<path fill="none" stroke="black" d="M411.48,-78.67C387.82,-67.33 349.49,-48.95 321.61,-35.58"/>
<polygon fill="black" stroke="black" points="323.12,-32.43 312.59,-31.26 320.09,-38.74 323.12,-32.43"/>
</g>
<!-- Dummy**** -->
<g id="node6" class="node">
<title>Dummy****</title>
<ellipse fill="gray" stroke="black" cx="383.02" cy="-18" rx="40.33" ry="18"/>
<text text-anchor="middle" x="383.02" y="-15.8" font-family="Times,serif" font-size="9.00">Dummy****</text>
</g>
<!-- root&#45;&gt;Dummy**** -->
<g id="edge5" class="edge">
<title>root&#45;&gt;Dummy****</title>
<path fill="none" stroke="black" d="M421.17,-72.41C415.07,-63.87 407.51,-53.28 400.73,-43.79"/>
<polygon fill="black" stroke="black" points="403.45,-41.57 394.79,-35.47 397.75,-45.64 403.45,-41.57"/>
</g>
<!-- Dummy***** -->
<g id="node7" class="node">
<title>Dummy*****</title>
<ellipse fill="gray" stroke="black" cx="484.02" cy="-18" rx="42.95" ry="18"/>
<text text-anchor="middle" x="484.02" y="-15.8" font-family="Times,serif" font-size="9.00">Dummy*****</text>
</g>
<!-- root&#45;&gt;Dummy***** -->
<g id="edge6" class="edge">
<title>root&#45;&gt;Dummy*****</title>
<path fill="none" stroke="black" d="M445.11,-72.41C451.33,-63.87 459.05,-53.28 465.96,-43.79"/>
<polygon fill="black" stroke="black" points="468.96,-45.61 472.02,-35.47 463.31,-41.49 468.96,-45.61"/>
</g>
<!-- Dummy****** -->
<g id="node8" class="node">
<title>Dummy******</title>
<ellipse fill="gray" stroke="black" cx="590.02" cy="-18" rx="45.72" ry="18"/>
<text text-anchor="middle" x="590.02" y="-15.8" font-family="Times,serif" font-size="9.00">Dummy******</text>
</g>
<!-- root&#45;&gt;Dummy****** -->
<g id="edge7" class="edge">
<title>root&#45;&gt;Dummy******</title>
<path fill="none" stroke="black" d="M455.18,-79.12C480.2,-67.97 521.35,-49.62 551.62,-36.12"/>
<polygon fill="black" stroke="black" points="553.33,-39.19 561.04,-31.92 550.48,-32.8 553.33,-39.19"/>
</g>
<!-- Dummy******* -->
<g id="node9" class="node">
<title>Dummy*******</title>
<ellipse fill="gray" stroke="black" cx="702.02" cy="-18" rx="47.84" ry="18"/>
<text text-anchor="middle" x="702.02" y="-15.8" font-family="Times,serif" font-size="9.00">Dummy*******</text>
</g>
<!-- root&#45;&gt;Dummy******* -->
<g id="edge8" class="edge">
<title>root&#45;&gt;Dummy*******</title>
<path fill="none" stroke="black" d="M460.23,-82.61C500.67,-73.02 578.98,-54.09 645.02,-36 648.62,-35.01 652.34,-33.97 656.07,-32.9"/>
<polygon fill="black" stroke="black" points="657.28,-36.19 665.91,-30.04 655.33,-29.47 657.28,-36.19"/>
</g>
<!-- Dummy******** -->
<g id="node10" class="node">
<title>Dummy********</title>
<ellipse fill="gray" stroke="black" cx="819.02" cy="-18" rx="50.61" ry="18"/>
<text text-anchor="middle" x="819.02" y="-15.8" font-family="Times,serif" font-size="9.00">Dummy********</text>
</g>
<!-- root&#45;&gt;Dummy******** -->
<g id="edge9" class="edge">
<title>root&#45;&gt;Dummy********</title>
<path fill="none" stroke="black" d="M460.27,-85.65C516.5,-78.49 649.31,-60.38 759.02,-36 763.18,-35.08 767.48,-34.03 771.78,-32.93"/>
<polygon fill="black" stroke="black" points="772.98,-36.23 781.74,-30.28 771.18,-29.47 772.98,-36.23"/>
</g>
<!-- Dummy********* -->
<g id="node11" class="node">
<title>Dummy*********</title>
<ellipse fill="gray" stroke="black" cx="941.02" cy="-18" rx="53.23" ry="18"/>
<text text-anchor="middle" x="941.02" y="-15.8" font-family="Times,serif" font-size="9.00">Dummy*********</text>
</g>
<!-- root&#45;&gt;Dummy********* -->
<g id="edge10" class="edge">
<title>root&#45;&gt;Dummy*********</title>
<path fill="none" stroke="black" d="M460.14,-87.2C530.05,-82.24 721.95,-66.69 879.02,-36 883.46,-35.13 888.04,-34.12 892.61,-33.02"/>
<polygon fill="black" stroke="black" points="893.7,-36.35 902.54,-30.51 891.98,-29.57 893.7,-36.35"/>
</g>
</g>
</svg>
