<?xml version="1.0" encoding="UTF-8" standalone="no"?>
<!DOCTYPE svg PUBLIC "-//W3C//DTD SVG 1.1//EN"
 "http://www.w3.org/Graphics/SVG/1.1/DTD/svg11.dtd">
<!-- Generated by graphviz version 2.43.0 (0)
 -->
<!-- Title: pastafarianism Pages: 1 -->
<svg width="1266pt" height="116pt"
 viewBox="0.00 0.00 1266.33 116.00" xmlns="http://www.w3.org/2000/svg" xmlns:xlink="http://www.w3.org/1999/xlink">
<g id="graph0" class="graph" transform="scale(1 1) rotate(0) translate(4 112)">
<title>pastafarianism</title>
<polygon fill="white" stroke="transparent" points="-4,4 -4,-112 1262.33,-112 1262.33,4 -4,4"/>
<!-- root -->
<g id="node1" class="node">
<title>root</title>
<polygon fill="cyan" stroke="black" points="564.02,-82.54 564.02,-97.46 548.21,-108 525.84,-108 510.02,-97.46 510.02,-82.54 525.84,-72 548.21,-72 564.02,-82.54"/>
<text text-anchor="middle" x="537.02" y="-87.8" font-family="Times,serif" font-size="9.00">root</text>
</g>
<!-- Dummy -->
<g id="node2" class="node">
<title>Dummy</title>
<ellipse fill="gray" stroke="black" cx="30.02" cy="-18" rx="30.04" ry="18"/>
<text text-anchor="middle" x="30.02" y="-15.8" font-family="Times,serif" font-size="9.00">Dummy</text>
</g>
<!-- root&#45;&gt;Dummy -->
<g id="edge1" class="edge">
<title>root&#45;&gt;Dummy</title>
<path fill="none" stroke="black" d="M509.85,-88.73C437.1,-87.41 232.31,-79.77 69.02,-36 66.73,-35.39 64.41,-34.66 62.09,-33.86"/>
<polygon fill="black" stroke="black" points="63.3,-30.57 52.71,-30.24 60.78,-37.11 63.3,-30.57"/>
</g>
<!-- Dummy* -->
<g id="node3" class="node">
<title>Dummy*</title>
<ellipse fill="gray" stroke="black" cx="110.02" cy="-18" rx="32.16" ry="18"/>
<text text-anchor="middle" x="110.02" y="-15.8" font-family="Times,serif" font-size="9.00">Dummy*</text>
</g>
<!-- root&#45;&gt;Dummy* -->
<g id="edge2" class="edge">
<title>root&#45;&gt;Dummy*</title>
<path fill="none" stroke="black" d="M509.96,-87.58C446.48,-83.76 283.38,-71.04 152.02,-36 149.4,-35.3 146.73,-34.48 144.06,-33.59"/>
<polygon fill="black" stroke="black" points="145.14,-30.26 134.55,-30.11 142.74,-36.83 145.14,-30.26"/>
</g>
<!-- Dummy** -->
<g id="node4" class="node">
<title>Dummy**</title>
<ellipse fill="gray" stroke="black" cx="196.02" cy="-18" rx="35.44" ry="18"/>
<text text-anchor="middle" x="196.02" y="-15.8" font-family="Times,serif" font-size="9.00">Dummy**</text>
</g>
<!-- root&#45;&gt;Dummy** -->
<g id="edge3" class="edge">
<title>root&#45;&gt;Dummy**</title>
<path fill="none" stroke="black" d="M510.01,-85.95C457.36,-79.61 337.63,-63.29 240.02,-36 237.38,-35.26 234.67,-34.42 231.96,-33.53"/>
<polygon fill="black" stroke="black" points="232.86,-30.13 222.27,-30.09 230.52,-36.73 232.86,-30.13"/>
</g>
<!-- Dummy*** -->
<g id="node5" class="node">
<title>Dummy***</title>
<ellipse fill="gray" stroke="black" cx="287.02" cy="-18" rx="37.56" ry="18"/>
<text text-anchor="middle" x="287.02" y="-15.8" font-family="Times,serif" font-size="9.00">Dummy***</text>
</g>
<!-- root&#45;&gt;Dummy*** -->
<g id="edge4" class="edge">
<title>root&#45;&gt;Dummy***</title>
<path fill="none" stroke="black" d="M509.87,-82.75C470.73,-73.55 396.29,-55.34 334.02,-36 331.13,-35.1 328.16,-34.13 325.17,-33.13"/>
<polygon fill="black" stroke="black" points="326.31,-29.82 315.71,-29.85 324.02,-36.43 326.31,-29.82"/>
</g>
<!-- Dummy**** -->
<g id="node6" class="node">
<title>Dummy****</title>
<ellipse fill="gray" stroke="black" cx="383.02" cy="-18" rx="40.33" ry="18"/>
<text text-anchor="middle" x="383.02" y="-15.8" font-family="Times,serif" font-size="9.00">Dummy****</text>
</g>
<!-- root&#45;&gt;Dummy**** -->
<g id="edge5" class="edge">
<title>root&#45;&gt;Dummy****</title>
<path fill="none" stroke="black" d="M514.96,-78.97C490.04,-67.65 449.11,-49.04 419.44,-35.55"/>
<polygon fill="black" stroke="black" points="420.79,-32.32 410.24,-31.37 417.89,-38.7 420.79,-32.32"/>
</g>
<!-- Dummy***** -->
<g id="node7" class="node">
<title>Dummy*****</title>
<ellipse fill="gray" stroke="black" cx="484.02" cy="-18" rx="42.95" ry="18"/>
<text text-anchor="middle" x="484.02" y="-15.8" font-family="Times,serif" font-size="9.00">Dummy*****</text>
</g>
<!-- root&#45;&gt;Dummy***** -->
<g id="edge6" class="edge">
<title>root&#45;&gt;Dummy*****</title>
<path fill="none" stroke="black" d="M524.46,-72.41C517.93,-63.78 509.81,-53.06 502.57,-43.5"/>
<polygon fill="black" stroke="black" points="505.32,-41.33 496.49,-35.47 499.74,-45.56 505.32,-41.33"/>
</g>
<!-- Dummy****** -->
<g id="node8" class="node">
<title>Dummy******</title>
<ellipse fill="gray" stroke="black" cx="590.02" cy="-18" rx="45.72" ry="18"/>
<text text-anchor="middle" x="590.02" y="-15.8" font-family="Times,serif" font-size="9.00">Dummy******</text>
</g>
<!-- root&#45;&gt;Dummy****** -->
<g id="edge7" class="edge">
<title>root&#45;&gt;Dummy******</title>
<path fill="none" stroke="black" d="M549.58,-72.41C556.12,-63.78 564.23,-53.06 571.47,-43.5"/>
<polygon fill="black" stroke="black" points="574.31,-45.56 577.55,-35.47 568.73,-41.33 574.31,-45.56"/>
</g>
<!-- Dummy******* -->
<g id="node9" class="node">
<title>Dummy*******</title>
<ellipse fill="gray" stroke="black" cx="702.02" cy="-18" rx="47.84" ry="18"/>
<text text-anchor="middle" x="702.02" y="-15.8" font-family="Times,serif" font-size="9.00">Dummy*******</text>
</g>
<!-- root&#45;&gt;Dummy******* -->
<g id="edge8" class="edge">
<title>root&#45;&gt;Dummy*******</title>
<path fill="none" stroke="black" d="M559.62,-79.41C585.93,-68.25 629.89,-49.6 662.02,-35.97"/>
<polygon fill="black" stroke="black" points="663.74,-39.04 671.58,-31.92 661.01,-32.6 663.74,-39.04"/>
</g>
<!-- Dummy******** -->
<g id="node10" class="node">
<title>Dummy********</title>
<ellipse fill="gray" stroke="black" cx="819.02" cy="-18" rx="50.61" ry="18"/>
<text text-anchor="middle" x="819.02" y="-15.8" font-family="Times,serif" font-size="9.00">Dummy********</text>
</g>
<!-- root&#45;&gt;Dummy******** -->
<g id="edge9" class="edge">
<title>root&#45;&gt;Dummy********</title>
<path fill="none" stroke="black" d="M564.11,-82.92C606.02,-73.42 689.05,-54.26 759.02,-36 763.03,-34.95 767.18,-33.84 771.34,-32.71"/>
<polygon fill="black" stroke="black" points="772.29,-36.07 781,-30.03 770.43,-29.33 772.29,-36.07"/>
</g>
<!-- Dummy********* -->
<g id="node11" class="node">
<title>Dummy*********</title>
<ellipse fill="gray" stroke="black" cx="941.02" cy="-18" rx="53.23" ry="18"/>
<text text-anchor="middle" x="941.02" y="-15.8" font-family="Times,serif" font-size="9.00">Dummy*********</text>
</g>
<!-- root&#45;&gt;Dummy********* -->
<g id="edge10" class="edge">
<title>root&#45;&gt;Dummy*********</title>
<path fill="none" stroke="black" d="M564.26,-85.85C622.43,-78.89 762.98,-60.82 879.02,-36 883.38,-35.07 887.88,-34.02 892.38,-32.9"/>
<polygon fill="black" stroke="black" points="893.35,-36.26 902.16,-30.38 891.61,-29.48 893.35,-36.26"/>
</g>
<!-- Dummy********** -->
<g id="node12" class="node">
<title>Dummy**********</title>
<ellipse fill="gray" stroke="black" cx="1068.02" cy="-18" rx="56.01" ry="18"/>
<text text-anchor="middle" x="1068.02" y="-15.8" font-family="Times,serif" font-size="9.00">Dummy**********</text>
</g>
<!-- root&#45;&gt;Dummy********** -->
<g id="edge11" class="edge">
<title>root&#45;&gt;Dummy**********</title>
<path fill="none" stroke="black" d="M564.28,-87.26C636.38,-82.38 837.94,-66.81 1003.02,-36 1007.79,-35.11 1012.72,-34.06 1017.64,-32.93"/>
<polygon fill="black" stroke="black" points="1018.76,-36.26 1027.66,-30.51 1017.11,-29.45 1018.76,-36.26"/>
</g>
<!-- Dummy*********** -->
<g id="node13" class="node">
<title>Dummy***********</title>
<ellipse fill="gray" stroke="black" cx="1200.02" cy="-18" rx="58.13" ry="18"/>
<text text-anchor="middle" x="1200.02" y="-15.8" font-family="Times,serif" font-size="9.00">Dummy***********</text>
</g>
<!-- root&#45;&gt;Dummy*********** -->
<g id="edge12" class="edge">
<title>root&#45;&gt;Dummy***********</title>
<path fill="none" stroke="black" d="M564.25,-88.13C649.03,-85.08 915.66,-73 1133.02,-36 1138.07,-35.14 1143.29,-34.1 1148.5,-32.95"/>
<polygon fill="black" stroke="black" points="1149.47,-36.32 1158.43,-30.65 1147.89,-29.5 1149.47,-36.32"/>
</g>
</g>
</svg>
