<?xml version="1.0" encoding="UTF-8" standalone="no"?>
<!DOCTYPE svg PUBLIC "-//W3C//DTD SVG 1.1//EN"
 "http://www.w3.org/Graphics/SVG/1.1/DTD/svg11.dtd">
<!-- Generated by graphviz version 2.43.0 (0)
 -->
<!-- Title: pastafarianism Pages: 1 -->
<svg width="1553pt" height="116pt"
 viewBox="0.00 0.00 1552.53 116.00" xmlns="http://www.w3.org/2000/svg" xmlns:xlink="http://www.w3.org/1999/xlink">
<g id="graph0" class="graph" transform="scale(1 1) rotate(0) translate(4 112)">
<title>pastafarianism</title>
<polygon fill="white" stroke="transparent" points="-4,4 -4,-112 1548.53,-112 1548.53,4 -4,4"/>
<!-- root -->
<g id="node1" class="node">
<title>root</title>
<polygon fill="cyan" stroke="black" points="673.02,-82.54 673.02,-97.46 657.21,-108 634.84,-108 619.02,-97.46 619.02,-82.54 634.84,-72 657.21,-72 673.02,-82.54"/>
<text text-anchor="middle" x="646.02" y="-87.8" font-family="Times,serif" font-size="9.00">root</text>
</g>
<!-- Dummy -->
<g id="node2" class="node">
<title>Dummy</title>
<ellipse fill="gray" stroke="black" cx="30.02" cy="-18" rx="30.04" ry="18"/>
<text text-anchor="middle" x="30.02" y="-15.8" font-family="Times,serif" font-size="9.00">Dummy</text>
</g>
<!-- root&#45;&gt;Dummy -->
<g id="edge1" class="edge">
<title>root&#45;&gt;Dummy</title>
<path fill="none" stroke="black" d="M618.76,-89.55C535.12,-90.57 275.34,-88.97 69.02,-36 66.58,-35.37 64.1,-34.61 61.63,-33.76"/>
<polygon fill="black" stroke="black" points="62.86,-30.49 52.27,-30.15 60.34,-37.02 62.86,-30.49"/>
</g>
<!-- Dummy* -->
<g id="node3" class="node">
<title>Dummy*</title>
<ellipse fill="gray" stroke="black" cx="110.02" cy="-18" rx="32.16" ry="18"/>
<text text-anchor="middle" x="110.02" y="-15.8" font-family="Times,serif" font-size="9.00">Dummy*</text>
</g>
<!-- root&#45;&gt;Dummy* -->
<g id="edge2" class="edge">
<title>root&#45;&gt;Dummy*</title>
<path fill="none" stroke="black" d="M618.79,-88.71C543.4,-87.36 326.04,-79.65 152.02,-36 149.23,-35.3 146.38,-34.45 143.55,-33.52"/>
<polygon fill="black" stroke="black" points="144.66,-30.2 134.07,-30.06 142.27,-36.77 144.66,-30.2"/>
</g>
<!-- Dummy** -->
<g id="node4" class="node">
<title>Dummy**</title>
<ellipse fill="gray" stroke="black" cx="196.02" cy="-18" rx="35.44" ry="18"/>
<text text-anchor="middle" x="196.02" y="-15.8" font-family="Times,serif" font-size="9.00">Dummy**</text>
</g>
<!-- root&#45;&gt;Dummy** -->
<g id="edge3" class="edge">
<title>root&#45;&gt;Dummy**</title>
<path fill="none" stroke="black" d="M619,-87.7C553.22,-84.07 379.86,-71.6 240.02,-36 237.36,-35.32 234.64,-34.53 231.93,-33.67"/>
<polygon fill="black" stroke="black" points="232.81,-30.27 222.21,-30.29 230.51,-36.88 232.81,-30.27"/>
</g>
<!-- Dummy*** -->
<g id="node5" class="node">
<title>Dummy***</title>
<ellipse fill="gray" stroke="black" cx="287.02" cy="-18" rx="37.56" ry="18"/>
<text text-anchor="middle" x="287.02" y="-15.8" font-family="Times,serif" font-size="9.00">Dummy***</text>
</g>
<!-- root&#45;&gt;Dummy*** -->
<g id="edge4" class="edge">
<title>root&#45;&gt;Dummy***</title>
<path fill="none" stroke="black" d="M618.97,-86.06C564.42,-79.76 437.62,-63.3 334.02,-36 331.01,-35.21 327.93,-34.3 324.84,-33.34"/>
<polygon fill="black" stroke="black" points="325.69,-29.93 315.1,-30.08 323.47,-36.57 325.69,-29.93"/>
</g>
<!-- Dummy**** -->
<g id="node6" class="node">
<title>Dummy****</title>
<ellipse fill="gray" stroke="black" cx="383.02" cy="-18" rx="40.33" ry="18"/>
<text text-anchor="middle" x="383.02" y="-15.8" font-family="Times,serif" font-size="9.00">Dummy****</text>
</g>
<!-- root&#45;&gt;Dummy**** -->
<g id="edge5" class="edge">
<title>root&#45;&gt;Dummy****</title>
<path fill="none" stroke="black" d="M618.78,-83.09C577.92,-74.04 498.44,-55.7 432.02,-36 429.1,-35.13 426.08,-34.2 423.06,-33.22"/>
<polygon fill="black" stroke="black" points="424.06,-29.87 413.46,-30.04 421.86,-36.51 424.06,-29.87"/>
</g>
<!-- Dummy***** -->
<g id="node7" class="node">
<title>Dummy*****</title>
<ellipse fill="gray" stroke="black" cx="484.02" cy="-18" rx="42.95" ry="18"/>
<text text-anchor="middle" x="484.02" y="-15.8" font-family="Times,serif" font-size="9.00">Dummy*****</text>
</g>
<!-- root&#45;&gt;Dummy***** -->
<g id="edge6" class="edge">
<title>root&#45;&gt;Dummy*****</title>
<path fill="none" stroke="black" d="M623.5,-79.27C597.34,-67.96 553.76,-49.13 522.27,-35.53"/>
<polygon fill="black" stroke="black" points="523.48,-32.24 512.91,-31.48 520.71,-38.66 523.48,-32.24"/>
</g>
<!-- Dummy****** -->
<g id="node8" class="node">
<title>Dummy******</title>
<ellipse fill="gray" stroke="black" cx="590.02" cy="-18" rx="45.72" ry="18"/>
<text text-anchor="middle" x="590.02" y="-15.8" font-family="Times,serif" font-size="9.00">Dummy******</text>
</g>
<!-- root&#45;&gt;Dummy****** -->
<g id="edge7" class="edge">
<title>root&#45;&gt;Dummy******</title>
<path fill="none" stroke="black" d="M633.03,-72.76C626.14,-64.14 617.51,-53.36 609.8,-43.73"/>
<polygon fill="black" stroke="black" points="612.31,-41.26 603.33,-35.63 606.84,-45.63 612.31,-41.26"/>
</g>
<!-- Dummy******* -->
<g id="node9" class="node">
<title>Dummy*******</title>
<ellipse fill="gray" stroke="black" cx="702.02" cy="-18" rx="47.84" ry="18"/>
<text text-anchor="middle" x="702.02" y="-15.8" font-family="Times,serif" font-size="9.00">Dummy*******</text>
</g>
<!-- root&#45;&gt;Dummy******* -->
<g id="edge8" class="edge">
<title>root&#45;&gt;Dummy*******</title>
<path fill="none" stroke="black" d="M659.01,-72.76C665.91,-64.14 674.53,-53.36 682.24,-43.73"/>
<polygon fill="black" stroke="black" points="685.2,-45.63 688.72,-35.63 679.74,-41.26 685.2,-45.63"/>
</g>
<!-- Dummy******** -->
<g id="node10" class="node">
<title>Dummy********</title>
<ellipse fill="gray" stroke="black" cx="819.02" cy="-18" rx="50.61" ry="18"/>
<text text-anchor="middle" x="819.02" y="-15.8" font-family="Times,serif" font-size="9.00">Dummy********</text>
</g>
<!-- root&#45;&gt;Dummy******** -->
<g id="edge9" class="edge">
<title>root&#45;&gt;Dummy********</title>
<path fill="none" stroke="black" d="M669,-79.7C696.52,-68.57 743.16,-49.69 777.15,-35.94"/>
<polygon fill="black" stroke="black" points="778.86,-39.03 786.81,-32.03 776.23,-32.54 778.86,-39.03"/>
</g>
<!-- Dummy********* -->
<g id="node11" class="node">
<title>Dummy*********</title>
<ellipse fill="gray" stroke="black" cx="941.02" cy="-18" rx="53.23" ry="18"/>
<text text-anchor="middle" x="941.02" y="-15.8" font-family="Times,serif" font-size="9.00">Dummy*********</text>
</g>
<!-- root&#45;&gt;Dummy********* -->
<g id="edge10" class="edge">
<title>root&#45;&gt;Dummy*********</title>
<path fill="none" stroke="black" d="M673.38,-83.19C717.01,-73.82 804.98,-54.56 879.02,-36 883.1,-34.98 887.32,-33.89 891.56,-32.77"/>
<polygon fill="black" stroke="black" points="892.64,-36.1 901.4,-30.14 890.84,-29.34 892.64,-36.1"/>
</g>
<!-- Dummy********** -->
<g id="node12" class="node">
<title>Dummy**********</title>
<ellipse fill="gray" stroke="black" cx="1068.02" cy="-18" rx="56.01" ry="18"/>
<text text-anchor="middle" x="1068.02" y="-15.8" font-family="Times,serif" font-size="9.00">Dummy**********</text>
</g>
<!-- root&#45;&gt;Dummy********** -->
<g id="edge11" class="edge">
<title>root&#45;&gt;Dummy**********</title>
<path fill="none" stroke="black" d="M673.07,-86C732.9,-79.14 880.86,-60.97 1003.02,-36 1007.7,-35.04 1012.55,-33.96 1017.39,-32.81"/>
<polygon fill="black" stroke="black" points="1018.39,-36.17 1027.27,-30.38 1016.72,-29.37 1018.39,-36.17"/>
</g>
<!-- Dummy*********** -->
<g id="node13" class="node">
<title>Dummy***********</title>
<ellipse fill="gray" stroke="black" cx="1200.02" cy="-18" rx="58.13" ry="18"/>
<text text-anchor="middle" x="1200.02" y="-15.8" font-family="Times,serif" font-size="9.00">Dummy***********</text>
</g>
<!-- root&#45;&gt;Dummy*********** -->
<g id="edge12" class="edge">
<title>root&#45;&gt;Dummy***********</title>
<path fill="none" stroke="black" d="M673.14,-87.39C747.26,-82.69 959.35,-67.32 1133.02,-36 1137.99,-35.1 1143.13,-34.04 1148.26,-32.9"/>
<polygon fill="black" stroke="black" points="1149.11,-36.29 1158.04,-30.61 1147.51,-29.48 1149.11,-36.29"/>
</g>
<!-- Dummy************ -->
<g id="node14" class="node">
<title>Dummy************</title>
<ellipse fill="gray" stroke="black" cx="1338.02" cy="-18" rx="61.4" ry="18"/>
<text text-anchor="middle" x="1338.02" y="-15.8" font-family="Times,serif" font-size="9.00">Dummy************</text>
</g>
<!-- root&#45;&gt;Dummy************ -->
<g id="edge13" class="edge">
<title>root&#45;&gt;Dummy************</title>
<path fill="none" stroke="black" d="M673.13,-88.14C760.03,-85.06 1039.23,-72.78 1267.02,-36 1272.5,-35.12 1278.17,-34.04 1283.82,-32.86"/>
<polygon fill="black" stroke="black" points="1284.9,-36.2 1293.92,-30.64 1283.4,-29.37 1284.9,-36.2"/>
</g>
<!-- Dummy************* -->
<g id="node15" class="node">
<title>Dummy*************</title>
<ellipse fill="gray" stroke="black" cx="1481.02" cy="-18" rx="63.52" ry="18"/>
<text text-anchor="middle" x="1481.02" y="-15.8" font-family="Times,serif" font-size="9.00">Dummy*************</text>
</g>
<!-- root&#45;&gt;Dummy************* -->
<g id="edge14" class="edge">
<title>root&#45;&gt;Dummy*************</title>
<path fill="none" stroke="black" d="M673.19,-88.67C772.19,-87.15 1122.79,-78.85 1408.02,-36 1413.79,-35.13 1419.78,-34.05 1425.74,-32.85"/>
<polygon fill="black" stroke="black" points="1426.62,-36.24 1435.68,-30.74 1425.17,-29.39 1426.62,-36.24"/>
</g>
</g>
</svg>
