<?xml version="1.0" encoding="UTF-8" standalone="no"?>
<!DOCTYPE svg PUBLIC "-//W3C//DTD SVG 1.1//EN"
 "http://www.w3.org/Graphics/SVG/1.1/DTD/svg11.dtd">
<!-- Generated by graphviz version 2.43.0 (0)
 -->
<!-- Title: pastafarianism Pages: 1 -->
<svg width="1703pt" height="116pt"
 viewBox="0.00 0.00 1703.42 116.00" xmlns="http://www.w3.org/2000/svg" xmlns:xlink="http://www.w3.org/1999/xlink">
<g id="graph0" class="graph" transform="scale(1 1) rotate(0) translate(4 112)">
<title>pastafarianism</title>
<polygon fill="white" stroke="transparent" points="-4,4 -4,-112 1699.42,-112 1699.42,4 -4,4"/>
<!-- root -->
<g id="node1" class="node">
<title>root</title>
<polygon fill="cyan" stroke="black" points="729.02,-82.54 729.02,-97.46 713.21,-108 690.84,-108 675.02,-97.46 675.02,-82.54 690.84,-72 713.21,-72 729.02,-82.54"/>
<text text-anchor="middle" x="702.02" y="-87.8" font-family="Times,serif" font-size="9.00">root</text>
</g>
<!-- Dummy -->
<g id="node2" class="node">
<title>Dummy</title>
<ellipse fill="gray" stroke="black" cx="30.02" cy="-18" rx="30.04" ry="18"/>
<text text-anchor="middle" x="30.02" y="-15.8" font-family="Times,serif" font-size="9.00">Dummy</text>
</g>
<!-- root&#45;&gt;Dummy -->
<g id="edge1" class="edge">
<title>root&#45;&gt;Dummy</title>
<path fill="none" stroke="black" d="M674.97,-87.91C569.59,-83.49 186.64,-65.69 69.02,-36 66.58,-35.38 64.09,-34.63 61.62,-33.78"/>
<polygon fill="black" stroke="black" points="62.85,-30.51 52.27,-30.18 60.34,-37.04 62.85,-30.51"/>
</g>
<!-- Dummy* -->
<g id="node3" class="node">
<title>Dummy*</title>
<ellipse fill="gray" stroke="black" cx="110.02" cy="-18" rx="32.16" ry="18"/>
<text text-anchor="middle" x="110.02" y="-15.8" font-family="Times,serif" font-size="9.00">Dummy*</text>
</g>
<!-- root&#45;&gt;Dummy* -->
<g id="edge2" class="edge">
<title>root&#45;&gt;Dummy*</title>
<path fill="none" stroke="black" d="M674.95,-89.13C594.19,-88.93 348.38,-84.12 152.02,-36 149.23,-35.32 146.38,-34.48 143.54,-33.55"/>
<polygon fill="black" stroke="black" points="144.65,-30.23 134.06,-30.11 142.26,-36.81 144.65,-30.23"/>
</g>
<!-- Dummy** -->
<g id="node4" class="node">
<title>Dummy**</title>
<ellipse fill="gray" stroke="black" cx="196.02" cy="-18" rx="35.44" ry="18"/>
<text text-anchor="middle" x="196.02" y="-15.8" font-family="Times,serif" font-size="9.00">Dummy**</text>
</g>
<!-- root&#45;&gt;Dummy** -->
<g id="edge3" class="edge">
<title>root&#45;&gt;Dummy**</title>
<path fill="none" stroke="black" d="M674.78,-88.28C602.75,-85.88 401.71,-75.82 240.02,-36 237.36,-35.34 234.63,-34.57 231.91,-33.71"/>
<polygon fill="black" stroke="black" points="232.79,-30.31 222.2,-30.36 230.51,-36.93 232.79,-30.31"/>
</g>
<!-- Dummy*** -->
<g id="node5" class="node">
<title>Dummy***</title>
<ellipse fill="gray" stroke="black" cx="287.02" cy="-18" rx="37.56" ry="18"/>
<text text-anchor="middle" x="287.02" y="-15.8" font-family="Times,serif" font-size="9.00">Dummy***</text>
</g>
<!-- root&#45;&gt;Dummy*** -->
<g id="edge4" class="edge">
<title>root&#45;&gt;Dummy***</title>
<path fill="none" stroke="black" d="M674.88,-87C613.42,-82.05 459.26,-67.32 334.02,-36 331,-35.25 327.91,-34.37 324.82,-33.42"/>
<polygon fill="black" stroke="black" points="325.66,-30.01 315.07,-30.2 323.46,-36.66 325.66,-30.01"/>
</g>
<!-- Dummy**** -->
<g id="node6" class="node">
<title>Dummy****</title>
<ellipse fill="gray" stroke="black" cx="383.02" cy="-18" rx="40.33" ry="18"/>
<text text-anchor="middle" x="383.02" y="-15.8" font-family="Times,serif" font-size="9.00">Dummy****</text>
</g>
<!-- root&#45;&gt;Dummy**** -->
<g id="edge5" class="edge">
<title>root&#45;&gt;Dummy****</title>
<path fill="none" stroke="black" d="M674.91,-84.97C625.93,-77.4 519.64,-59.67 432.02,-36 429.03,-35.19 425.96,-34.29 422.89,-33.35"/>
<polygon fill="black" stroke="black" points="423.73,-29.94 413.14,-30.19 421.57,-36.6 423.73,-29.94"/>
</g>
<!-- Dummy***** -->
<g id="node7" class="node">
<title>Dummy*****</title>
<ellipse fill="gray" stroke="black" cx="484.02" cy="-18" rx="42.95" ry="18"/>
<text text-anchor="middle" x="484.02" y="-15.8" font-family="Times,serif" font-size="9.00">Dummy*****</text>
</g>
<!-- root&#45;&gt;Dummy***** -->
<g id="edge6" class="edge">
<title>root&#45;&gt;Dummy*****</title>
<path fill="none" stroke="black" d="M676.81,-81.12C644.08,-70.87 585.21,-52.33 535.02,-36 532.1,-35.05 529.08,-34.06 526.05,-33.06"/>
<polygon fill="black" stroke="black" points="526.97,-29.68 516.37,-29.86 524.77,-36.33 526.97,-29.68"/>
</g>
<!-- Dummy****** -->
<g id="node8" class="node">
<title>Dummy******</title>
<ellipse fill="gray" stroke="black" cx="590.02" cy="-18" rx="45.72" ry="18"/>
<text text-anchor="middle" x="590.02" y="-15.8" font-family="Times,serif" font-size="9.00">Dummy******</text>
</g>
<!-- root&#45;&gt;Dummy****** -->
<g id="edge7" class="edge">
<title>root&#45;&gt;Dummy******</title>
<path fill="none" stroke="black" d="M683.02,-77.13C666.35,-66.71 641.77,-51.34 622.06,-39.02"/>
<polygon fill="black" stroke="black" points="623.73,-35.94 613.39,-33.61 620.02,-41.88 623.73,-35.94"/>
</g>
<!-- Dummy******* -->
<g id="node9" class="node">
<title>Dummy*******</title>
<ellipse fill="gray" stroke="black" cx="702.02" cy="-18" rx="47.84" ry="18"/>
<text text-anchor="middle" x="702.02" y="-15.8" font-family="Times,serif" font-size="9.00">Dummy*******</text>
</g>
<!-- root&#45;&gt;Dummy******* -->
<g id="edge8" class="edge">
<title>root&#45;&gt;Dummy*******</title>
<path fill="none" stroke="black" d="M702.02,-71.7C702.02,-63.98 702.02,-54.71 702.02,-46.11"/>
<polygon fill="black" stroke="black" points="705.52,-46.1 702.02,-36.1 698.52,-46.1 705.52,-46.1"/>
</g>
<!-- Dummy******** -->
<g id="node10" class="node">
<title>Dummy********</title>
<ellipse fill="gray" stroke="black" cx="819.02" cy="-18" rx="50.61" ry="18"/>
<text text-anchor="middle" x="819.02" y="-15.8" font-family="Times,serif" font-size="9.00">Dummy********</text>
</g>
<!-- root&#45;&gt;Dummy******** -->
<g id="edge9" class="edge">
<title>root&#45;&gt;Dummy********</title>
<path fill="none" stroke="black" d="M721.61,-77.28C738.95,-66.91 764.63,-51.54 785.28,-39.19"/>
<polygon fill="black" stroke="black" points="787.29,-42.07 794.07,-33.93 783.69,-36.06 787.29,-42.07"/>
</g>
<!-- Dummy********* -->
<g id="node11" class="node">
<title>Dummy*********</title>
<ellipse fill="gray" stroke="black" cx="941.02" cy="-18" rx="53.23" ry="18"/>
<text text-anchor="middle" x="941.02" y="-15.8" font-family="Times,serif" font-size="9.00">Dummy*********</text>
</g>
<!-- root&#45;&gt;Dummy********* -->
<g id="edge10" class="edge">
<title>root&#45;&gt;Dummy*********</title>
<path fill="none" stroke="black" d="M727.6,-81.51C766.89,-70 842.76,-47.78 892.65,-33.17"/>
<polygon fill="black" stroke="black" points="893.64,-36.52 902.26,-30.35 891.68,-29.81 893.64,-36.52"/>
</g>
<!-- Dummy********** -->
<g id="node12" class="node">
<title>Dummy**********</title>
<ellipse fill="gray" stroke="black" cx="1068.02" cy="-18" rx="56.01" ry="18"/>
<text text-anchor="middle" x="1068.02" y="-15.8" font-family="Times,serif" font-size="9.00">Dummy**********</text>
</g>
<!-- root&#45;&gt;Dummy********** -->
<g id="edge11" class="edge">
<title>root&#45;&gt;Dummy**********</title>
<path fill="none" stroke="black" d="M729.15,-84.98C782.08,-76.98 902.71,-57.91 1003.02,-36 1007.62,-35 1012.39,-33.88 1017.16,-32.73"/>
<polygon fill="black" stroke="black" points="1018.03,-36.12 1026.88,-30.3 1016.33,-29.32 1018.03,-36.12"/>
</g>
<!-- Dummy*********** -->
<g id="node13" class="node">
<title>Dummy***********</title>
<ellipse fill="gray" stroke="black" cx="1200.02" cy="-18" rx="58.13" ry="18"/>
<text text-anchor="middle" x="1200.02" y="-15.8" font-family="Times,serif" font-size="9.00">Dummy***********</text>
</g>
<!-- root&#45;&gt;Dummy*********** -->
<g id="edge12" class="edge">
<title>root&#45;&gt;Dummy***********</title>
<path fill="none" stroke="black" d="M729.44,-86.84C797.92,-81.17 981.86,-64.35 1133.02,-36 1137.98,-35.07 1143.12,-33.99 1148.24,-32.83"/>
<polygon fill="black" stroke="black" points="1149.1,-36.22 1158.03,-30.52 1147.49,-29.41 1149.1,-36.22"/>
</g>
<!-- Dummy************ -->
<g id="node14" class="node">
<title>Dummy************</title>
<ellipse fill="gray" stroke="black" cx="1338.02" cy="-18" rx="61.4" ry="18"/>
<text text-anchor="middle" x="1338.02" y="-15.8" font-family="Times,serif" font-size="9.00">Dummy************</text>
</g>
<!-- root&#45;&gt;Dummy************ -->
<g id="edge13" class="edge">
<title>root&#45;&gt;Dummy************</title>
<path fill="none" stroke="black" d="M729.25,-87.81C811.1,-83.96 1061.94,-70 1267.02,-36 1272.49,-35.09 1278.17,-34 1283.82,-32.81"/>
<polygon fill="black" stroke="black" points="1284.9,-36.16 1293.91,-30.58 1283.39,-29.32 1284.9,-36.16"/>
</g>
<!-- Dummy************* -->
<g id="node15" class="node">
<title>Dummy*************</title>
<ellipse fill="gray" stroke="black" cx="1481.02" cy="-18" rx="63.52" ry="18"/>
<text text-anchor="middle" x="1481.02" y="-15.8" font-family="Times,serif" font-size="9.00">Dummy*************</text>
</g>
<!-- root&#45;&gt;Dummy************* -->
<g id="edge14" class="edge">
<title>root&#45;&gt;Dummy*************</title>
<path fill="none" stroke="black" d="M729.12,-88.46C823.4,-86.28 1145.58,-76.16 1408.02,-36 1413.79,-35.12 1419.78,-34.02 1425.73,-32.82"/>
<polygon fill="black" stroke="black" points="1426.62,-36.21 1435.67,-30.7 1425.16,-29.36 1426.62,-36.21"/>
</g>
<!-- Dummy************** -->
<g id="node16" class="node">
<title>Dummy**************</title>
<ellipse fill="gray" stroke="black" cx="1629.02" cy="-18" rx="66.29" ry="18"/>
<text text-anchor="middle" x="1629.02" y="-15.8" font-family="Times,serif" font-size="9.00">Dummy**************</text>
</g>
<!-- root&#45;&gt;Dummy************** -->
<g id="edge15" class="edge">
<title>root&#45;&gt;Dummy**************</title>
<path fill="none" stroke="black" d="M729.04,-88.9C834.93,-88.15 1231.65,-82.26 1554.02,-36 1559.86,-35.16 1565.92,-34.11 1571.95,-32.93"/>
<polygon fill="black" stroke="black" points="1572.94,-36.3 1582.03,-30.87 1571.53,-29.45 1572.94,-36.3"/>
</g>
</g>
</svg>
