<?xml version="1.0" encoding="UTF-8" standalone="no"?>
<!DOCTYPE svg PUBLIC "-//W3C//DTD SVG 1.1//EN"
 "http://www.w3.org/Graphics/SVG/1.1/DTD/svg11.dtd">
<!-- Generated by graphviz version 2.43.0 (0)
 -->
<!-- Title: pastafarianism Pages: 1 -->
<svg width="1859pt" height="116pt"
 viewBox="0.00 0.00 1858.73 116.00" xmlns="http://www.w3.org/2000/svg" xmlns:xlink="http://www.w3.org/1999/xlink">
<g id="graph0" class="graph" transform="scale(1 1) rotate(0) translate(4 112)">
<title>pastafarianism</title>
<polygon fill="white" stroke="transparent" points="-4,4 -4,-112 1854.73,-112 1854.73,4 -4,4"/>
<!-- root -->
<g id="node1" class="node">
<title>root</title>
<polygon fill="cyan" stroke="black" points="787.02,-82.54 787.02,-97.46 771.21,-108 748.84,-108 733.02,-97.46 733.02,-82.54 748.84,-72 771.21,-72 787.02,-82.54"/>
<text text-anchor="middle" x="760.02" y="-87.8" font-family="Times,serif" font-size="9.00">root</text>
</g>
<!-- Dummy -->
<g id="node2" class="node">
<title>Dummy</title>
<ellipse fill="gray" stroke="black" cx="30.02" cy="-18" rx="30.04" ry="18"/>
<text text-anchor="middle" x="30.02" y="-15.8" font-family="Times,serif" font-size="9.00">Dummy</text>
</g>
<!-- root&#45;&gt;Dummy -->
<g id="edge1" class="edge">
<title>root&#45;&gt;Dummy</title>
<path fill="none" stroke="black" d="M732.8,-88.12C621.18,-84.35 198.33,-68.17 69.02,-36 66.58,-35.39 64.09,-34.64 61.62,-33.8"/>
<polygon fill="black" stroke="black" points="62.85,-30.53 52.26,-30.21 60.34,-37.06 62.85,-30.53"/>
</g>
<!-- Dummy* -->
<g id="node3" class="node">
<title>Dummy*</title>
<ellipse fill="gray" stroke="black" cx="110.02" cy="-18" rx="32.16" ry="18"/>
<text text-anchor="middle" x="110.02" y="-15.8" font-family="Times,serif" font-size="9.00">Dummy*</text>
</g>
<!-- root&#45;&gt;Dummy* -->
<g id="edge2" class="edge">
<title>root&#45;&gt;Dummy*</title>
<path fill="none" stroke="black" d="M732.9,-89.48C646.64,-90.4 371.46,-88.72 152.02,-36 149.23,-35.33 146.37,-34.5 143.53,-33.58"/>
<polygon fill="black" stroke="black" points="144.64,-30.26 134.05,-30.15 142.26,-36.84 144.64,-30.26"/>
</g>
<!-- Dummy** -->
<g id="node4" class="node">
<title>Dummy**</title>
<ellipse fill="gray" stroke="black" cx="196.02" cy="-18" rx="35.44" ry="18"/>
<text text-anchor="middle" x="196.02" y="-15.8" font-family="Times,serif" font-size="9.00">Dummy**</text>
</g>
<!-- root&#45;&gt;Dummy** -->
<g id="edge3" class="edge">
<title>root&#45;&gt;Dummy**</title>
<path fill="none" stroke="black" d="M732.81,-88.77C654.89,-87.57 424.68,-80.24 240.02,-36 237.35,-35.36 234.63,-34.6 231.91,-33.75"/>
<polygon fill="black" stroke="black" points="232.78,-30.35 222.18,-30.42 230.51,-36.97 232.78,-30.35"/>
</g>
<!-- Dummy*** -->
<g id="node5" class="node">
<title>Dummy***</title>
<ellipse fill="gray" stroke="black" cx="287.02" cy="-18" rx="37.56" ry="18"/>
<text text-anchor="middle" x="287.02" y="-15.8" font-family="Times,serif" font-size="9.00">Dummy***</text>
</g>
<!-- root&#45;&gt;Dummy*** -->
<g id="edge4" class="edge">
<title>root&#45;&gt;Dummy***</title>
<path fill="none" stroke="black" d="M732.73,-87.72C664.6,-84.06 481.87,-71.46 334.02,-36 331,-35.27 327.9,-34.42 324.81,-33.48"/>
<polygon fill="black" stroke="black" points="325.64,-30.07 315.04,-30.29 323.46,-36.73 325.64,-30.07"/>
</g>
<!-- Dummy**** -->
<g id="node6" class="node">
<title>Dummy****</title>
<ellipse fill="gray" stroke="black" cx="383.02" cy="-18" rx="40.33" ry="18"/>
<text text-anchor="middle" x="383.02" y="-15.8" font-family="Times,serif" font-size="9.00">Dummy****</text>
</g>
<!-- root&#45;&gt;Dummy**** -->
<g id="edge5" class="edge">
<title>root&#45;&gt;Dummy****</title>
<path fill="none" stroke="black" d="M732.91,-86.23C676.36,-80.11 541.93,-63.72 432.02,-36 428.88,-35.21 425.65,-34.3 422.42,-33.33"/>
<polygon fill="black" stroke="black" points="423.42,-29.97 412.83,-30.26 421.29,-36.64 423.42,-29.97"/>
</g>
<!-- Dummy***** -->
<g id="node7" class="node">
<title>Dummy*****</title>
<ellipse fill="gray" stroke="black" cx="484.02" cy="-18" rx="42.95" ry="18"/>
<text text-anchor="middle" x="484.02" y="-15.8" font-family="Times,serif" font-size="9.00">Dummy*****</text>
</g>
<!-- root&#45;&gt;Dummy***** -->
<g id="edge6" class="edge">
<title>root&#45;&gt;Dummy*****</title>
<path fill="none" stroke="black" d="M732.8,-83.42C690.29,-74.52 605.67,-56.05 535.02,-36 531.92,-35.12 528.74,-34.17 525.54,-33.18"/>
<polygon fill="black" stroke="black" points="526.58,-29.84 515.99,-30.15 524.46,-36.51 526.58,-29.84"/>
</g>
<!-- Dummy****** -->
<g id="node8" class="node">
<title>Dummy******</title>
<ellipse fill="gray" stroke="black" cx="590.02" cy="-18" rx="45.72" ry="18"/>
<text text-anchor="middle" x="590.02" y="-15.8" font-family="Times,serif" font-size="9.00">Dummy******</text>
</g>
<!-- root&#45;&gt;Dummy****** -->
<g id="edge7" class="edge">
<title>root&#45;&gt;Dummy******</title>
<path fill="none" stroke="black" d="M737.1,-79.56C709.63,-68.25 663.14,-49.11 629.78,-35.37"/>
<polygon fill="black" stroke="black" points="630.89,-32.04 620.32,-31.47 628.23,-38.52 630.89,-32.04"/>
</g>
<!-- Dummy******* -->
<g id="node9" class="node">
<title>Dummy*******</title>
<ellipse fill="gray" stroke="black" cx="702.02" cy="-18" rx="47.84" ry="18"/>
<text text-anchor="middle" x="702.02" y="-15.8" font-family="Times,serif" font-size="9.00">Dummy*******</text>
</g>
<!-- root&#45;&gt;Dummy******* -->
<g id="edge8" class="edge">
<title>root&#45;&gt;Dummy*******</title>
<path fill="none" stroke="black" d="M746.86,-73.12C739.55,-64.29 730.3,-53.13 722.11,-43.24"/>
<polygon fill="black" stroke="black" points="724.61,-40.77 715.53,-35.31 719.22,-45.24 724.61,-40.77"/>
</g>
<!-- Dummy******** -->
<g id="node10" class="node">
<title>Dummy********</title>
<ellipse fill="gray" stroke="black" cx="819.02" cy="-18" rx="50.61" ry="18"/>
<text text-anchor="middle" x="819.02" y="-15.8" font-family="Times,serif" font-size="9.00">Dummy********</text>
</g>
<!-- root&#45;&gt;Dummy******** -->
<g id="edge9" class="edge">
<title>root&#45;&gt;Dummy********</title>
<path fill="none" stroke="black" d="M773.41,-73.12C780.74,-64.42 789.99,-53.45 798.24,-43.66"/>
<polygon fill="black" stroke="black" points="801.1,-45.7 804.86,-35.8 795.74,-41.19 801.1,-45.7"/>
</g>
<!-- Dummy********* -->
<g id="node11" class="node">
<title>Dummy*********</title>
<ellipse fill="gray" stroke="black" cx="941.02" cy="-18" rx="53.23" ry="18"/>
<text text-anchor="middle" x="941.02" y="-15.8" font-family="Times,serif" font-size="9.00">Dummy*********</text>
</g>
<!-- root&#45;&gt;Dummy********* -->
<g id="edge10" class="edge">
<title>root&#45;&gt;Dummy*********</title>
<path fill="none" stroke="black" d="M783.31,-79.99C812.11,-68.85 861.72,-49.67 897.62,-35.79"/>
<polygon fill="black" stroke="black" points="899.29,-38.89 907.35,-32.02 896.76,-32.36 899.29,-38.89"/>
</g>
<!-- Dummy********** -->
<g id="node12" class="node">
<title>Dummy**********</title>
<ellipse fill="gray" stroke="black" cx="1068.02" cy="-18" rx="56.01" ry="18"/>
<text text-anchor="middle" x="1068.02" y="-15.8" font-family="Times,serif" font-size="9.00">Dummy**********</text>
</g>
<!-- root&#45;&gt;Dummy********** -->
<g id="edge11" class="edge">
<title>root&#45;&gt;Dummy**********</title>
<path fill="none" stroke="black" d="M787.07,-83.48C832.03,-74.22 924.92,-54.72 1003.02,-36 1007.42,-34.95 1011.97,-33.82 1016.53,-32.67"/>
<polygon fill="black" stroke="black" points="1017.65,-36 1026.48,-30.14 1015.92,-29.22 1017.65,-36"/>
</g>
<!-- Dummy*********** -->
<g id="node13" class="node">
<title>Dummy***********</title>
<ellipse fill="gray" stroke="black" cx="1200.02" cy="-18" rx="58.13" ry="18"/>
<text text-anchor="middle" x="1200.02" y="-15.8" font-family="Times,serif" font-size="9.00">Dummy***********</text>
</g>
<!-- root&#45;&gt;Dummy*********** -->
<g id="edge12" class="edge">
<title>root&#45;&gt;Dummy***********</title>
<path fill="none" stroke="black" d="M787.34,-86.14C849.21,-79.43 1004.68,-61.32 1133.02,-36 1137.78,-35.06 1142.7,-34 1147.61,-32.87"/>
<polygon fill="black" stroke="black" points="1148.73,-36.2 1157.65,-30.48 1147.11,-29.39 1148.73,-36.2"/>
</g>
<!-- Dummy************ -->
<g id="node14" class="node">
<title>Dummy************</title>
<ellipse fill="gray" stroke="black" cx="1338.02" cy="-18" rx="61.4" ry="18"/>
<text text-anchor="middle" x="1338.02" y="-15.8" font-family="Times,serif" font-size="9.00">Dummy************</text>
</g>
<!-- root&#45;&gt;Dummy************ -->
<g id="edge13" class="edge">
<title>root&#45;&gt;Dummy************</title>
<path fill="none" stroke="black" d="M787.12,-87.42C863.22,-82.71 1085.15,-67.14 1267.02,-36 1272.49,-35.06 1278.16,-33.95 1283.81,-32.75"/>
<polygon fill="black" stroke="black" points="1284.89,-36.09 1293.89,-30.51 1283.37,-29.26 1284.89,-36.09"/>
</g>
<!-- Dummy************* -->
<g id="node15" class="node">
<title>Dummy*************</title>
<ellipse fill="gray" stroke="black" cx="1481.02" cy="-18" rx="63.52" ry="18"/>
<text text-anchor="middle" x="1481.02" y="-15.8" font-family="Times,serif" font-size="9.00">Dummy*************</text>
</g>
<!-- root&#45;&gt;Dummy************* -->
<g id="edge14" class="edge">
<title>root&#45;&gt;Dummy*************</title>
<path fill="none" stroke="black" d="M787.04,-88.21C876.21,-85.32 1169.09,-73.38 1408.02,-36 1413.79,-35.1 1419.77,-33.99 1425.72,-32.78"/>
<polygon fill="black" stroke="black" points="1426.62,-36.17 1435.66,-30.65 1425.15,-29.32 1426.62,-36.17"/>
</g>
<!-- Dummy************** -->
<g id="node16" class="node">
<title>Dummy**************</title>
<ellipse fill="gray" stroke="black" cx="1629.02" cy="-18" rx="66.29" ry="18"/>
<text text-anchor="middle" x="1629.02" y="-15.8" font-family="Times,serif" font-size="9.00">Dummy**************</text>
</g>
<!-- root&#45;&gt;Dummy************** -->
<g id="edge15" class="edge">
<title>root&#45;&gt;Dummy**************</title>
<path fill="none" stroke="black" d="M787.26,-88.72C888.93,-87.35 1255.66,-79.5 1554.02,-36 1559.86,-35.15 1565.92,-34.08 1571.95,-32.91"/>
<polygon fill="black" stroke="black" points="1572.93,-36.28 1582.02,-30.83 1571.52,-29.42 1572.93,-36.28"/>
</g>
<!-- Dummy*************** -->
<g id="node17" class="node">
<title>Dummy***************</title>
<ellipse fill="gray" stroke="black" cx="1782.02" cy="-18" rx="68.91" ry="18"/>
<text text-anchor="middle" x="1782.02" y="-15.8" font-family="Times,serif" font-size="9.00">Dummy***************</text>
</g>
<!-- root&#45;&gt;Dummy*************** -->
<g id="edge16" class="edge">
<title>root&#45;&gt;Dummy***************</title>
<path fill="none" stroke="black" d="M787.21,-89.04C900.21,-88.9 1343.76,-85.06 1704.02,-36 1710.33,-35.14 1716.89,-34.04 1723.4,-32.82"/>
<polygon fill="black" stroke="black" points="1724.42,-36.18 1733.55,-30.81 1723.06,-29.32 1724.42,-36.18"/>
</g>
</g>
</svg>
