<?xml version="1.0" encoding="UTF-8" standalone="no"?>
<!DOCTYPE svg PUBLIC "-//W3C//DTD SVG 1.1//EN"
 "http://www.w3.org/Graphics/SVG/1.1/DTD/svg11.dtd">
<!-- Generated by graphviz version 2.43.0 (0)
 -->
<!-- Title: pastafarianism Pages: 1 -->
<svg width="2020pt" height="116pt"
 viewBox="0.00 0.00 2019.61 116.00" xmlns="http://www.w3.org/2000/svg" xmlns:xlink="http://www.w3.org/1999/xlink">
<g id="graph0" class="graph" transform="scale(1 1) rotate(0) translate(4 112)">
<title>pastafarianism</title>
<polygon fill="white" stroke="transparent" points="-4,4 -4,-112 2015.61,-112 2015.61,4 -4,4"/>
<!-- root -->
<g id="node1" class="node">
<title>root</title>
<polygon fill="cyan" stroke="black" points="846.02,-82.54 846.02,-97.46 830.21,-108 807.84,-108 792.02,-97.46 792.02,-82.54 807.84,-72 830.21,-72 846.02,-82.54"/>
<text text-anchor="middle" x="819.02" y="-87.8" font-family="Times,serif" font-size="9.00">root</text>
</g>
<!-- Dummy -->
<g id="node2" class="node">
<title>Dummy</title>
<ellipse fill="gray" stroke="black" cx="30.02" cy="-18" rx="30.04" ry="18"/>
<text text-anchor="middle" x="30.02" y="-15.8" font-family="Times,serif" font-size="9.00">Dummy</text>
</g>
<!-- root&#45;&gt;Dummy -->
<g id="edge1" class="edge">
<title>root&#45;&gt;Dummy</title>
<path fill="none" stroke="black" d="M791.89,-88.32C674.57,-85.17 210.37,-70.71 69.02,-36 66.57,-35.4 64.09,-34.66 61.61,-33.82"/>
<polygon fill="black" stroke="black" points="62.84,-30.54 52.25,-30.23 60.34,-37.08 62.84,-30.54"/>
</g>
<!-- Dummy* -->
<g id="node3" class="node">
<title>Dummy*</title>
<ellipse fill="gray" stroke="black" cx="110.02" cy="-18" rx="32.16" ry="18"/>
<text text-anchor="middle" x="110.02" y="-15.8" font-family="Times,serif" font-size="9.00">Dummy*</text>
</g>
<!-- root&#45;&gt;Dummy* -->
<g id="edge2" class="edge">
<title>root&#45;&gt;Dummy*</title>
<path fill="none" stroke="black" d="M791.66,-87.94C682.35,-83.53 276.8,-65.47 152.02,-36 149.22,-35.34 146.37,-34.52 143.53,-33.6"/>
<polygon fill="black" stroke="black" points="144.63,-30.28 134.04,-30.18 142.26,-36.87 144.63,-30.28"/>
</g>
<!-- Dummy** -->
<g id="node4" class="node">
<title>Dummy**</title>
<ellipse fill="gray" stroke="black" cx="196.02" cy="-18" rx="35.44" ry="18"/>
<text text-anchor="middle" x="196.02" y="-15.8" font-family="Times,serif" font-size="9.00">Dummy**</text>
</g>
<!-- root&#45;&gt;Dummy** -->
<g id="edge3" class="edge">
<title>root&#45;&gt;Dummy**</title>
<path fill="none" stroke="black" d="M791.76,-89.16C708.11,-89.11 448.14,-84.73 240.02,-36 237.35,-35.37 234.62,-34.62 231.9,-33.78"/>
<polygon fill="black" stroke="black" points="232.77,-30.38 222.17,-30.47 230.51,-37.01 232.77,-30.38"/>
</g>
<!-- Dummy*** -->
<g id="node5" class="node">
<title>Dummy***</title>
<ellipse fill="gray" stroke="black" cx="287.02" cy="-18" rx="37.56" ry="18"/>
<text text-anchor="middle" x="287.02" y="-15.8" font-family="Times,serif" font-size="9.00">Dummy***</text>
</g>
<!-- root&#45;&gt;Dummy*** -->
<g id="edge4" class="edge">
<title>root&#45;&gt;Dummy***</title>
<path fill="none" stroke="black" d="M791.83,-88.29C717.53,-85.87 505.23,-75.72 334.02,-36 330.99,-35.3 327.89,-34.46 324.79,-33.53"/>
<polygon fill="black" stroke="black" points="325.62,-30.12 315.03,-30.36 323.46,-36.78 325.62,-30.12"/>
</g>
<!-- Dummy**** -->
<g id="node6" class="node">
<title>Dummy****</title>
<ellipse fill="gray" stroke="black" cx="383.02" cy="-18" rx="40.33" ry="18"/>
<text text-anchor="middle" x="383.02" y="-15.8" font-family="Times,serif" font-size="9.00">Dummy****</text>
</g>
<!-- root&#45;&gt;Dummy**** -->
<g id="edge5" class="edge">
<title>root&#45;&gt;Dummy****</title>
<path fill="none" stroke="black" d="M791.94,-87.14C728.37,-82.38 564.91,-67.82 432.02,-36 428.83,-35.23 425.55,-34.34 422.27,-33.37"/>
<polygon fill="black" stroke="black" points="423.13,-29.98 412.54,-30.29 421.02,-36.65 423.13,-29.98"/>
</g>
<!-- Dummy***** -->
<g id="node7" class="node">
<title>Dummy*****</title>
<ellipse fill="gray" stroke="black" cx="484.02" cy="-18" rx="42.95" ry="18"/>
<text text-anchor="middle" x="484.02" y="-15.8" font-family="Times,serif" font-size="9.00">Dummy*****</text>
</g>
<!-- root&#45;&gt;Dummy***** -->
<g id="edge6" class="edge">
<title>root&#45;&gt;Dummy*****</title>
<path fill="none" stroke="black" d="M791.73,-85.18C740.8,-77.78 628.01,-60.05 535.02,-36 531.86,-35.18 528.61,-34.27 525.35,-33.3"/>
<polygon fill="black" stroke="black" points="526.24,-29.92 515.65,-30.29 524.16,-36.6 526.24,-29.92"/>
</g>
<!-- Dummy****** -->
<g id="node8" class="node">
<title>Dummy******</title>
<ellipse fill="gray" stroke="black" cx="590.02" cy="-18" rx="45.72" ry="18"/>
<text text-anchor="middle" x="590.02" y="-15.8" font-family="Times,serif" font-size="9.00">Dummy******</text>
</g>
<!-- root&#45;&gt;Dummy****** -->
<g id="edge7" class="edge">
<title>root&#45;&gt;Dummy******</title>
<path fill="none" stroke="black" d="M793.65,-81.31C759.76,-71.03 697.85,-52.21 645.02,-36 641.52,-34.93 637.89,-33.81 634.25,-32.69"/>
<polygon fill="black" stroke="black" points="635.22,-29.33 624.64,-29.72 633.16,-36.01 635.22,-29.33"/>
</g>
<!-- Dummy******* -->
<g id="node9" class="node">
<title>Dummy*******</title>
<ellipse fill="gray" stroke="black" cx="702.02" cy="-18" rx="47.84" ry="18"/>
<text text-anchor="middle" x="702.02" y="-15.8" font-family="Times,serif" font-size="9.00">Dummy*******</text>
</g>
<!-- root&#45;&gt;Dummy******* -->
<g id="edge8" class="edge">
<title>root&#45;&gt;Dummy*******</title>
<path fill="none" stroke="black" d="M799.44,-77.28C781.99,-66.84 756.07,-51.34 735.36,-38.95"/>
<polygon fill="black" stroke="black" points="736.93,-35.81 726.55,-33.68 733.34,-41.81 736.93,-35.81"/>
</g>
<!-- Dummy******** -->
<g id="node10" class="node">
<title>Dummy********</title>
<ellipse fill="gray" stroke="black" cx="819.02" cy="-18" rx="50.61" ry="18"/>
<text text-anchor="middle" x="819.02" y="-15.8" font-family="Times,serif" font-size="9.00">Dummy********</text>
</g>
<!-- root&#45;&gt;Dummy******** -->
<g id="edge9" class="edge">
<title>root&#45;&gt;Dummy********</title>
<path fill="none" stroke="black" d="M819.02,-71.7C819.02,-63.98 819.02,-54.71 819.02,-46.11"/>
<polygon fill="black" stroke="black" points="822.52,-46.1 819.02,-36.1 815.52,-46.1 822.52,-46.1"/>
</g>
<!-- Dummy********* -->
<g id="node11" class="node">
<title>Dummy*********</title>
<ellipse fill="gray" stroke="black" cx="941.02" cy="-18" rx="53.23" ry="18"/>
<text text-anchor="middle" x="941.02" y="-15.8" font-family="Times,serif" font-size="9.00">Dummy*********</text>
</g>
<!-- root&#45;&gt;Dummy********* -->
<g id="edge10" class="edge">
<title>root&#45;&gt;Dummy*********</title>
<path fill="none" stroke="black" d="M838.9,-77.6C857.17,-67.11 884.67,-51.33 906.53,-38.79"/>
<polygon fill="black" stroke="black" points="908.28,-41.82 915.21,-33.81 904.79,-35.75 908.28,-41.82"/>
</g>
<!-- Dummy********** -->
<g id="node12" class="node">
<title>Dummy**********</title>
<ellipse fill="gray" stroke="black" cx="1068.02" cy="-18" rx="56.01" ry="18"/>
<text text-anchor="middle" x="1068.02" y="-15.8" font-family="Times,serif" font-size="9.00">Dummy**********</text>
</g>
<!-- root&#45;&gt;Dummy********** -->
<g id="edge11" class="edge">
<title>root&#45;&gt;Dummy**********</title>
<path fill="none" stroke="black" d="M845.2,-81.64C885.9,-70.2 965.1,-47.93 1017.28,-33.27"/>
<polygon fill="black" stroke="black" points="1018.33,-36.6 1027.01,-30.53 1016.44,-29.87 1018.33,-36.6"/>
</g>
<!-- Dummy*********** -->
<g id="node13" class="node">
<title>Dummy***********</title>
<ellipse fill="gray" stroke="black" cx="1200.02" cy="-18" rx="58.13" ry="18"/>
<text text-anchor="middle" x="1200.02" y="-15.8" font-family="Times,serif" font-size="9.00">Dummy***********</text>
</g>
<!-- root&#45;&gt;Dummy*********** -->
<g id="edge12" class="edge">
<title>root&#45;&gt;Dummy***********</title>
<path fill="none" stroke="black" d="M846.04,-85.2C900.56,-77.35 1027.54,-58.25 1133.02,-36 1137.69,-35.01 1142.53,-33.93 1147.37,-32.79"/>
<polygon fill="black" stroke="black" points="1148.35,-36.15 1157.25,-30.4 1146.71,-29.35 1148.35,-36.15"/>
</g>
<!-- Dummy************ -->
<g id="node14" class="node">
<title>Dummy************</title>
<ellipse fill="gray" stroke="black" cx="1338.02" cy="-18" rx="61.4" ry="18"/>
<text text-anchor="middle" x="1338.02" y="-15.8" font-family="Times,serif" font-size="9.00">Dummy************</text>
</g>
<!-- root&#45;&gt;Dummy************ -->
<g id="edge13" class="edge">
<title>root&#45;&gt;Dummy************</title>
<path fill="none" stroke="black" d="M846.2,-86.9C916.29,-81.25 1108.76,-64.21 1267.02,-36 1272.4,-35.04 1277.99,-33.92 1283.55,-32.73"/>
<polygon fill="black" stroke="black" points="1284.5,-36.1 1293.5,-30.5 1282.98,-29.27 1284.5,-36.1"/>
</g>
<!-- Dummy************* -->
<g id="node15" class="node">
<title>Dummy*************</title>
<ellipse fill="gray" stroke="black" cx="1481.02" cy="-18" rx="63.52" ry="18"/>
<text text-anchor="middle" x="1481.02" y="-15.8" font-family="Times,serif" font-size="9.00">Dummy*************</text>
</g>
<!-- root&#45;&gt;Dummy************* -->
<g id="edge14" class="edge">
<title>root&#45;&gt;Dummy*************</title>
<path fill="none" stroke="black" d="M846.19,-87.9C930.22,-84.21 1193.12,-70.52 1408.02,-36 1413.7,-35.09 1419.6,-33.98 1425.46,-32.78"/>
<polygon fill="black" stroke="black" points="1426.22,-36.2 1435.26,-30.68 1424.75,-29.35 1426.22,-36.2"/>
</g>
<!-- Dummy************** -->
<g id="node16" class="node">
<title>Dummy**************</title>
<ellipse fill="gray" stroke="black" cx="1629.02" cy="-18" rx="66.29" ry="18"/>
<text text-anchor="middle" x="1629.02" y="-15.8" font-family="Times,serif" font-size="9.00">Dummy**************</text>
</g>
<!-- root&#45;&gt;Dummy************** -->
<g id="edge15" class="edge">
<title>root&#45;&gt;Dummy**************</title>
<path fill="none" stroke="black" d="M846.21,-88.52C943.02,-86.49 1279.73,-76.74 1554.02,-36 1559.86,-35.13 1565.92,-34.06 1571.95,-32.87"/>
<polygon fill="black" stroke="black" points="1572.93,-36.24 1582.02,-30.79 1571.52,-29.39 1572.93,-36.24"/>
</g>
<!-- Dummy*************** -->
<g id="node17" class="node">
<title>Dummy***************</title>
<ellipse fill="gray" stroke="black" cx="1782.02" cy="-18" rx="68.91" ry="18"/>
<text text-anchor="middle" x="1782.02" y="-15.8" font-family="Times,serif" font-size="9.00">Dummy***************</text>
</g>
<!-- root&#45;&gt;Dummy*************** -->
<g id="edge16" class="edge">
<title>root&#45;&gt;Dummy***************</title>
<path fill="none" stroke="black" d="M846.33,-88.9C955.15,-88.18 1368.2,-82.37 1704.02,-36 1710.33,-35.13 1716.88,-34.02 1723.4,-32.8"/>
<polygon fill="black" stroke="black" points="1724.42,-36.16 1733.55,-30.78 1723.06,-29.29 1724.42,-36.16"/>
</g>
<!-- Dummy**************** -->
<g id="node18" class="node">
<title>Dummy****************</title>
<ellipse fill="gray" stroke="black" cx="1940.02" cy="-18" rx="71.68" ry="18"/>
<text text-anchor="middle" x="1940.02" y="-15.8" font-family="Times,serif" font-size="9.00">Dummy****************</text>
</g>
<!-- root&#45;&gt;Dummy**************** -->
<g id="edge17" class="edge">
<title>root&#45;&gt;Dummy****************</title>
<path fill="none" stroke="black" d="M846.11,-89.19C965.84,-89.72 1459.44,-88.42 1860.02,-36 1866.4,-35.17 1873.02,-34.09 1879.6,-32.9"/>
<polygon fill="black" stroke="black" points="1880.71,-36.25 1889.88,-30.93 1879.39,-29.37 1880.71,-36.25"/>
</g>
</g>
</svg>
