<?xml version="1.0" encoding="UTF-8" standalone="no"?>
<!DOCTYPE svg PUBLIC "-//W3C//DTD SVG 1.1//EN"
 "http://www.w3.org/Graphics/SVG/1.1/DTD/svg11.dtd">
<!-- Generated by graphviz version 2.43.0 (0)
 -->
<!-- Title: pastafarianism Pages: 1 -->
<svg width="239pt" height="116pt"
 viewBox="0.00 0.00 239.24 116.00" xmlns="http://www.w3.org/2000/svg" xmlns:xlink="http://www.w3.org/1999/xlink">
<g id="graph0" class="graph" transform="scale(1 1) rotate(0) translate(4 112)">
<title>pastafarianism</title>
<polygon fill="white" stroke="transparent" points="-4,4 -4,-112 235.24,-112 235.24,4 -4,4"/>
<!-- root -->
<g id="node1" class="node">
<title>root</title>
<polygon fill="cyan" stroke="black" points="137.02,-82.54 137.02,-97.46 121.21,-108 98.84,-108 83.02,-97.46 83.02,-82.54 98.84,-72 121.21,-72 137.02,-82.54"/>
<text text-anchor="middle" x="110.02" y="-87.8" font-family="Times,serif" font-size="9.00">root</text>
</g>
<!-- Dummy -->
<g id="node2" class="node">
<title>Dummy</title>
<ellipse fill="gray" stroke="black" cx="30.02" cy="-18" rx="30.04" ry="18"/>
<text text-anchor="middle" x="30.02" y="-15.8" font-family="Times,serif" font-size="9.00">Dummy</text>
</g>
<!-- root&#45;&gt;Dummy -->
<g id="edge1" class="edge">
<title>root&#45;&gt;Dummy</title>
<path fill="none" stroke="black" d="M93.83,-74.83C82.41,-64.84 66.93,-51.29 54.07,-40.04"/>
<polygon fill="black" stroke="black" points="56.29,-37.34 46.46,-33.38 51.68,-42.6 56.29,-37.34"/>
</g>
<!-- Dummy* -->
<g id="node3" class="node">
<title>Dummy*</title>
<ellipse fill="gray" stroke="black" cx="110.02" cy="-18" rx="32.16" ry="18"/>
<text text-anchor="middle" x="110.02" y="-15.8" font-family="Times,serif" font-size="9.00">Dummy*</text>
</g>
<!-- root&#45;&gt;Dummy* -->
<g id="edge2" class="edge">
<title>root&#45;&gt;Dummy*</title>
<path fill="none" stroke="black" d="M110.02,-71.7C110.02,-63.98 110.02,-54.71 110.02,-46.11"/>
<polygon fill="black" stroke="black" points="113.52,-46.1 110.02,-36.1 106.52,-46.1 113.52,-46.1"/>
</g>
<!-- Dummy** -->
<g id="node4" class="node">
<title>Dummy**</title>
<ellipse fill="gray" stroke="black" cx="196.02" cy="-18" rx="35.44" ry="18"/>
<text text-anchor="middle" x="196.02" y="-15.8" font-family="Times,serif" font-size="9.00">Dummy**</text>
</g>
<!-- root&#45;&gt;Dummy** -->
<g id="edge3" class="edge">
<title>root&#45;&gt;Dummy**</title>
<path fill="none" stroke="black" d="M126.6,-75.5C138.93,-65.47 155.97,-51.6 170.09,-40.11"/>
<polygon fill="black" stroke="black" points="172.46,-42.69 178.01,-33.66 168.04,-37.26 172.46,-42.69"/>
</g>
</g>
</svg>
