<?xml version="1.0" encoding="UTF-8" standalone="no"?>
<!DOCTYPE svg PUBLIC "-//W3C//DTD SVG 1.1//EN"
 "http://www.w3.org/Graphics/SVG/1.1/DTD/svg11.dtd">
<!-- Generated by graphviz version 2.43.0 (0)
 -->
<!-- Title: pastafarianism Pages: 1 -->
<svg width="333pt" height="116pt"
 viewBox="0.00 0.00 332.55 116.00" xmlns="http://www.w3.org/2000/svg" xmlns:xlink="http://www.w3.org/1999/xlink">
<g id="graph0" class="graph" transform="scale(1 1) rotate(0) translate(4 112)">
<title>pastafarianism</title>
<polygon fill="white" stroke="transparent" points="-4,4 -4,-112 328.55,-112 328.55,4 -4,4"/>
<!-- root -->
<g id="node1" class="node">
<title>root</title>
<polygon fill="cyan" stroke="black" points="180.02,-82.54 180.02,-97.46 164.21,-108 141.84,-108 126.02,-97.46 126.02,-82.54 141.84,-72 164.21,-72 180.02,-82.54"/>
<text text-anchor="middle" x="153.02" y="-87.8" font-family="Times,serif" font-size="9.00">root</text>
</g>
<!-- Dummy -->
<g id="node2" class="node">
<title>Dummy</title>
<ellipse fill="gray" stroke="black" cx="30.02" cy="-18" rx="30.04" ry="18"/>
<text text-anchor="middle" x="30.02" y="-15.8" font-family="Times,serif" font-size="9.00">Dummy</text>
</g>
<!-- root&#45;&gt;Dummy -->
<g id="edge1" class="edge">
<title>root&#45;&gt;Dummy</title>
<path fill="none" stroke="black" d="M132.99,-77.6C113.24,-66.36 82.83,-49.05 60.16,-36.15"/>
<polygon fill="black" stroke="black" points="61.71,-33.01 51.29,-31.1 58.25,-39.09 61.71,-33.01"/>
</g>
<!-- Dummy* -->
<g id="node3" class="node">
<title>Dummy*</title>
<ellipse fill="gray" stroke="black" cx="110.02" cy="-18" rx="32.16" ry="18"/>
<text text-anchor="middle" x="110.02" y="-15.8" font-family="Times,serif" font-size="9.00">Dummy*</text>
</g>
<!-- root&#45;&gt;Dummy* -->
<g id="edge2" class="edge">
<title>root&#45;&gt;Dummy*</title>
<path fill="none" stroke="black" d="M142.39,-71.7C137.24,-63.32 130.97,-53.1 125.32,-43.9"/>
<polygon fill="black" stroke="black" points="128.16,-41.83 119.94,-35.14 122.19,-45.5 128.16,-41.83"/>
</g>
<!-- Dummy** -->
<g id="node4" class="node">
<title>Dummy**</title>
<ellipse fill="gray" stroke="black" cx="196.02" cy="-18" rx="35.44" ry="18"/>
<text text-anchor="middle" x="196.02" y="-15.8" font-family="Times,serif" font-size="9.00">Dummy**</text>
</g>
<!-- root&#45;&gt;Dummy** -->
<g id="edge3" class="edge">
<title>root&#45;&gt;Dummy**</title>
<path fill="none" stroke="black" d="M163.65,-71.7C168.72,-63.44 174.89,-53.39 180.48,-44.3"/>
<polygon fill="black" stroke="black" points="183.56,-45.98 185.81,-35.62 177.59,-42.31 183.56,-45.98"/>
</g>
<!-- Dummy*** -->
<g id="node5" class="node">
<title>Dummy***</title>
<ellipse fill="gray" stroke="black" cx="287.02" cy="-18" rx="37.56" ry="18"/>
<text text-anchor="middle" x="287.02" y="-15.8" font-family="Times,serif" font-size="9.00">Dummy***</text>
</g>
<!-- root&#45;&gt;Dummy*** -->
<g id="edge4" class="edge">
<title>root&#45;&gt;Dummy***</title>
<path fill="none" stroke="black" d="M173.67,-78.22C194.89,-67.13 228.28,-49.69 253.34,-36.6"/>
<polygon fill="black" stroke="black" points="255.24,-39.55 262.49,-31.82 252,-33.34 255.24,-39.55"/>
</g>
</g>
</svg>
