<?xml version="1.0" encoding="UTF-8" standalone="no"?>
<!DOCTYPE svg PUBLIC "-//W3C//DTD SVG 1.1//EN"
 "http://www.w3.org/Graphics/SVG/1.1/DTD/svg11.dtd">
<!-- Generated by graphviz version 2.43.0 (0)
 -->
<!-- Title: pastafarianism Pages: 1 -->
<svg width="644pt" height="116pt"
 viewBox="0.00 0.00 643.63 116.00" xmlns="http://www.w3.org/2000/svg" xmlns:xlink="http://www.w3.org/1999/xlink">
<g id="graph0" class="graph" transform="scale(1 1) rotate(0) translate(4 112)">
<title>pastafarianism</title>
<polygon fill="white" stroke="transparent" points="-4,4 -4,-112 639.63,-112 639.63,4 -4,4"/>
<!-- root -->
<g id="node1" class="node">
<title>root</title>
<polygon fill="cyan" stroke="black" points="314.02,-82.54 314.02,-97.46 298.21,-108 275.84,-108 260.02,-97.46 260.02,-82.54 275.84,-72 298.21,-72 314.02,-82.54"/>
<text text-anchor="middle" x="287.02" y="-87.8" font-family="Times,serif" font-size="9.00">root</text>
</g>
<!-- Dummy -->
<g id="node2" class="node">
<title>Dummy</title>
<ellipse fill="gray" stroke="black" cx="30.02" cy="-18" rx="30.04" ry="18"/>
<text text-anchor="middle" x="30.02" y="-15.8" font-family="Times,serif" font-size="9.00">Dummy</text>
</g>
<!-- root&#45;&gt;Dummy -->
<g id="edge1" class="edge">
<title>root&#45;&gt;Dummy</title>
<path fill="none" stroke="black" d="M259.75,-83.94C218.05,-75.87 136.2,-58.62 69.02,-36 66.78,-35.24 64.48,-34.41 62.19,-33.53"/>
<polygon fill="black" stroke="black" points="63.44,-30.26 52.86,-29.74 60.81,-36.75 63.44,-30.26"/>
</g>
<!-- Dummy* -->
<g id="node3" class="node">
<title>Dummy*</title>
<ellipse fill="gray" stroke="black" cx="110.02" cy="-18" rx="32.16" ry="18"/>
<text text-anchor="middle" x="110.02" y="-15.8" font-family="Times,serif" font-size="9.00">Dummy*</text>
</g>
<!-- root&#45;&gt;Dummy* -->
<g id="edge2" class="edge">
<title>root&#45;&gt;Dummy*</title>
<path fill="none" stroke="black" d="M263.58,-79.88C236.63,-69.38 191.08,-51.57 152.02,-36 149.66,-35.06 147.22,-34.08 144.76,-33.09"/>
<polygon fill="black" stroke="black" points="145.91,-29.78 135.32,-29.29 143.29,-36.28 145.91,-29.78"/>
</g>
<!-- Dummy** -->
<g id="node4" class="node">
<title>Dummy**</title>
<ellipse fill="gray" stroke="black" cx="196.02" cy="-18" rx="35.44" ry="18"/>
<text text-anchor="middle" x="196.02" y="-15.8" font-family="Times,serif" font-size="9.00">Dummy**</text>
</g>
<!-- root&#45;&gt;Dummy** -->
<g id="edge3" class="edge">
<title>root&#45;&gt;Dummy**</title>
<path fill="none" stroke="black" d="M269.91,-75.83C256.61,-65.61 237.94,-51.24 222.69,-39.51"/>
<polygon fill="black" stroke="black" points="224.69,-36.63 214.63,-33.31 220.42,-42.18 224.69,-36.63"/>
</g>
<!-- Dummy*** -->
<g id="node5" class="node">
<title>Dummy***</title>
<ellipse fill="gray" stroke="black" cx="287.02" cy="-18" rx="37.56" ry="18"/>
<text text-anchor="middle" x="287.02" y="-15.8" font-family="Times,serif" font-size="9.00">Dummy***</text>
</g>
<!-- root&#45;&gt;Dummy*** -->
<g id="edge4" class="edge">
<title>root&#45;&gt;Dummy***</title>
<path fill="none" stroke="black" d="M287.02,-71.7C287.02,-63.98 287.02,-54.71 287.02,-46.11"/>
<polygon fill="black" stroke="black" points="290.52,-46.1 287.02,-36.1 283.52,-46.1 290.52,-46.1"/>
</g>
<!-- Dummy**** -->
<g id="node6" class="node">
<title>Dummy****</title>
<ellipse fill="gray" stroke="black" cx="383.02" cy="-18" rx="40.33" ry="18"/>
<text text-anchor="middle" x="383.02" y="-15.8" font-family="Times,serif" font-size="9.00">Dummy****</text>
</g>
<!-- root&#45;&gt;Dummy**** -->
<g id="edge5" class="edge">
<title>root&#45;&gt;Dummy****</title>
<path fill="none" stroke="black" d="M304.63,-76.16C318.64,-65.94 338.53,-51.44 354.76,-39.61"/>
<polygon fill="black" stroke="black" points="356.85,-42.42 362.87,-33.7 352.73,-36.76 356.85,-42.42"/>
</g>
<!-- Dummy***** -->
<g id="node7" class="node">
<title>Dummy*****</title>
<ellipse fill="gray" stroke="black" cx="484.02" cy="-18" rx="42.95" ry="18"/>
<text text-anchor="middle" x="484.02" y="-15.8" font-family="Times,serif" font-size="9.00">Dummy*****</text>
</g>
<!-- root&#45;&gt;Dummy***** -->
<g id="edge6" class="edge">
<title>root&#45;&gt;Dummy*****</title>
<path fill="none" stroke="black" d="M311.18,-80.42C344.02,-68.75 403.22,-47.71 443.07,-33.55"/>
<polygon fill="black" stroke="black" points="444.26,-36.84 452.51,-30.2 441.91,-30.25 444.26,-36.84"/>
</g>
<!-- Dummy****** -->
<g id="node8" class="node">
<title>Dummy******</title>
<ellipse fill="gray" stroke="black" cx="590.02" cy="-18" rx="45.72" ry="18"/>
<text text-anchor="middle" x="590.02" y="-15.8" font-family="Times,serif" font-size="9.00">Dummy******</text>
</g>
<!-- root&#45;&gt;Dummy****** -->
<g id="edge7" class="edge">
<title>root&#45;&gt;Dummy******</title>
<path fill="none" stroke="black" d="M314.12,-84.11C360.07,-75.62 456.09,-57.04 536.02,-36 539.4,-35.11 542.89,-34.14 546.38,-33.13"/>
<polygon fill="black" stroke="black" points="547.6,-36.42 556.17,-30.2 545.59,-29.71 547.6,-36.42"/>
</g>
</g>
</svg>
