<?xml version="1.0" encoding="UTF-8" standalone="no"?>
<!DOCTYPE svg PUBLIC "-//W3C//DTD SVG 1.1//EN"
 "http://www.w3.org/Graphics/SVG/1.1/DTD/svg11.dtd">
<!-- Generated by graphviz version 2.43.0 (0)
 -->
<!-- Title: pastafarianism Pages: 1 -->
<svg width="1132pt" height="136pt"
 viewBox="0.00 0.00 1132.03 136.00" xmlns="http://www.w3.org/2000/svg" xmlns:xlink="http://www.w3.org/1999/xlink">
<g id="graph0" class="graph" transform="scale(1 1) rotate(0) translate(4 132)">
<title>pastafarianism</title>
<polygon fill="white" stroke="transparent" points="-4,4 -4,-132 1128.03,-132 1128.03,4 -4,4"/>
<!-- root -->
<g id="node1" class="node">
<title>root</title>
<polygon fill="gold" stroke="black" points="566.9,-128 435.06,-128 401.14,-72 532.99,-72 566.9,-128"/>
<text text-anchor="middle" x="484.02" y="-102.8" font-family="Times,serif" font-size="9.00">root</text>
<text text-anchor="middle" x="484.02" y="-92.8" font-family="Times,serif" font-size="9.00">SuccessOnAll</text>
</g>
<!-- Dummy -->
<g id="node2" class="node">
<title>Dummy</title>
<ellipse fill="gray" stroke="black" cx="30.02" cy="-18" rx="30.04" ry="18"/>
<text text-anchor="middle" x="30.02" y="-15.8" font-family="Times,serif" font-size="9.00">Dummy</text>
</g>
<!-- root&#45;&gt;Dummy -->
<g id="edge1" class="edge">
<title>root&#45;&gt;Dummy</title>
<path fill="none" stroke="black" d="M414.18,-93.98C330.73,-86.71 187.53,-70.19 69.02,-36 66.75,-35.34 64.43,-34.58 62.12,-33.76"/>
<polygon fill="black" stroke="black" points="63.34,-30.48 52.75,-30.09 60.78,-37 63.34,-30.48"/>
</g>
<!-- Dummy* -->
<g id="node3" class="node">
<title>Dummy*</title>
<ellipse fill="gray" stroke="black" cx="110.02" cy="-18" rx="32.16" ry="18"/>
<text text-anchor="middle" x="110.02" y="-15.8" font-family="Times,serif" font-size="9.00">Dummy*</text>
</g>
<!-- root&#45;&gt;Dummy* -->
<g id="edge2" class="edge">
<title>root&#45;&gt;Dummy*</title>
<path fill="none" stroke="black" d="M411.49,-89.45C343.57,-79.51 239.68,-61.78 152.02,-36 149.42,-35.24 146.76,-34.37 144.11,-33.44"/>
<polygon fill="black" stroke="black" points="145.2,-30.11 134.61,-29.89 142.75,-36.67 145.2,-30.11"/>
</g>
<!-- Dummy** -->
<g id="node4" class="node">
<title>Dummy**</title>
<ellipse fill="gray" stroke="black" cx="196.02" cy="-18" rx="35.44" ry="18"/>
<text text-anchor="middle" x="196.02" y="-15.8" font-family="Times,serif" font-size="9.00">Dummy**</text>
</g>
<!-- root&#45;&gt;Dummy** -->
<g id="edge3" class="edge">
<title>root&#45;&gt;Dummy**</title>
<path fill="none" stroke="black" d="M406.72,-81.47C358.4,-69.91 295.11,-53.69 240.02,-36 237.48,-35.18 234.87,-34.3 232.25,-33.38"/>
<polygon fill="black" stroke="black" points="233.43,-30.08 222.84,-29.93 231.02,-36.65 233.43,-30.08"/>
</g>
<!-- Dummy*** -->
<g id="node5" class="node">
<title>Dummy***</title>
<ellipse fill="gray" stroke="black" cx="287.02" cy="-18" rx="37.56" ry="18"/>
<text text-anchor="middle" x="287.02" y="-15.8" font-family="Times,serif" font-size="9.00">Dummy***</text>
</g>
<!-- root&#45;&gt;Dummy*** -->
<g id="edge4" class="edge">
<title>root&#45;&gt;Dummy***</title>
<path fill="none" stroke="black" d="M417.33,-71.92C386.25,-59.29 350.44,-44.75 324.23,-34.11"/>
<polygon fill="black" stroke="black" points="325.27,-30.75 314.69,-30.23 322.63,-37.24 325.27,-30.75"/>
</g>
<!-- Dummy**** -->
<g id="node6" class="node">
<title>Dummy****</title>
<ellipse fill="gray" stroke="black" cx="383.02" cy="-18" rx="40.33" ry="18"/>
<text text-anchor="middle" x="383.02" y="-15.8" font-family="Times,serif" font-size="9.00">Dummy****</text>
</g>
<!-- root&#45;&gt;Dummy**** -->
<g id="edge5" class="edge">
<title>root&#45;&gt;Dummy****</title>
<path fill="none" stroke="black" d="M449.83,-71.92C436.81,-61.6 422.17,-50.01 409.92,-40.31"/>
<polygon fill="black" stroke="black" points="411.88,-37.4 401.87,-33.93 407.54,-42.88 411.88,-37.4"/>
</g>
<!-- Dummy***** -->
<g id="node7" class="node">
<title>Dummy*****</title>
<ellipse fill="gray" stroke="black" cx="484.02" cy="-18" rx="42.95" ry="18"/>
<text text-anchor="middle" x="484.02" y="-15.8" font-family="Times,serif" font-size="9.00">Dummy*****</text>
</g>
<!-- root&#45;&gt;Dummy***** -->
<g id="edge6" class="edge">
<title>root&#45;&gt;Dummy*****</title>
<path fill="none" stroke="black" d="M484.02,-71.92C484.02,-63.72 484.02,-54.72 484.02,-46.49"/>
<polygon fill="black" stroke="black" points="487.52,-46.27 484.02,-36.27 480.52,-46.27 487.52,-46.27"/>
</g>
<!-- Dummy****** -->
<g id="node8" class="node">
<title>Dummy******</title>
<ellipse fill="gray" stroke="black" cx="590.02" cy="-18" rx="45.72" ry="18"/>
<text text-anchor="middle" x="590.02" y="-15.8" font-family="Times,serif" font-size="9.00">Dummy******</text>
</g>
<!-- root&#45;&gt;Dummy****** -->
<g id="edge7" class="edge">
<title>root&#45;&gt;Dummy******</title>
<path fill="none" stroke="black" d="M519.91,-71.92C533.51,-61.65 548.79,-50.12 561.61,-40.45"/>
<polygon fill="black" stroke="black" points="563.76,-43.21 569.63,-34.39 559.54,-37.62 563.76,-43.21"/>
</g>
<!-- Dummy******* -->
<g id="node9" class="node">
<title>Dummy*******</title>
<ellipse fill="gray" stroke="black" cx="702.02" cy="-18" rx="47.84" ry="18"/>
<text text-anchor="middle" x="702.02" y="-15.8" font-family="Times,serif" font-size="9.00">Dummy*******</text>
</g>
<!-- root&#45;&gt;Dummy******* -->
<g id="edge8" class="edge">
<title>root&#45;&gt;Dummy*******</title>
<path fill="none" stroke="black" d="M537.63,-79.33C575.2,-65.54 624.72,-47.37 659.56,-34.58"/>
<polygon fill="black" stroke="black" points="660.79,-37.86 668.97,-31.13 658.38,-31.29 660.79,-37.86"/>
</g>
<!-- Dummy******** -->
<g id="node10" class="node">
<title>Dummy********</title>
<ellipse fill="gray" stroke="black" cx="819.02" cy="-18" rx="50.61" ry="18"/>
<text text-anchor="middle" x="819.02" y="-15.8" font-family="Times,serif" font-size="9.00">Dummy********</text>
</g>
<!-- root&#45;&gt;Dummy******** -->
<g id="edge9" class="edge">
<title>root&#45;&gt;Dummy********</title>
<path fill="none" stroke="black" d="M541.9,-86.64C597.7,-74.51 684.41,-55.1 759.02,-36 763.03,-34.97 767.19,-33.87 771.35,-32.75"/>
<polygon fill="black" stroke="black" points="772.3,-36.11 781.01,-30.08 770.44,-29.36 772.3,-36.11"/>
</g>
<!-- Dummy********* -->
<g id="node11" class="node">
<title>Dummy*********</title>
<ellipse fill="gray" stroke="black" cx="941.02" cy="-18" rx="53.23" ry="18"/>
<text text-anchor="middle" x="941.02" y="-15.8" font-family="Times,serif" font-size="9.00">Dummy*********</text>
</g>
<!-- root&#45;&gt;Dummy********* -->
<g id="edge10" class="edge">
<title>root&#45;&gt;Dummy*********</title>
<path fill="none" stroke="black" d="M544.97,-91.39C622.89,-81.17 761.77,-61.35 879.02,-36 883.37,-35.06 887.87,-34 892.37,-32.88"/>
<polygon fill="black" stroke="black" points="893.35,-36.24 902.16,-30.36 891.6,-29.46 893.35,-36.24"/>
</g>
<!-- Dummy********** -->
<g id="node12" class="node">
<title>Dummy**********</title>
<ellipse fill="gray" stroke="black" cx="1068.02" cy="-18" rx="56.01" ry="18"/>
<text text-anchor="middle" x="1068.02" y="-15.8" font-family="Times,serif" font-size="9.00">Dummy**********</text>
</g>
<!-- root&#45;&gt;Dummy********** -->
<g id="edge11" class="edge">
<title>root&#45;&gt;Dummy**********</title>
<path fill="none" stroke="black" d="M546.76,-94.14C644.76,-85.93 839.86,-67.09 1003.02,-36 1007.72,-35.11 1012.57,-34.06 1017.42,-32.94"/>
<polygon fill="black" stroke="black" points="1018.4,-36.3 1027.3,-30.55 1016.76,-29.5 1018.4,-36.3"/>
</g>
</g>
</svg>
