<?xml version="1.0" encoding="UTF-8" standalone="no"?>
<!DOCTYPE svg PUBLIC "-//W3C//DTD SVG 1.1//EN"
 "http://www.w3.org/Graphics/SVG/1.1/DTD/svg11.dtd">
<!-- Generated by graphviz version 2.43.0 (0)
 -->
<!-- Title: pastafarianism Pages: 1 -->
<svg width="1266pt" height="136pt"
 viewBox="0.00 0.00 1266.33 136.00" xmlns="http://www.w3.org/2000/svg" xmlns:xlink="http://www.w3.org/1999/xlink">
<g id="graph0" class="graph" transform="scale(1 1) rotate(0) translate(4 132)">
<title>pastafarianism</title>
<polygon fill="white" stroke="transparent" points="-4,4 -4,-132 1262.33,-132 1262.33,4 -4,4"/>
<!-- root -->
<g id="node1" class="node">
<title>root</title>
<polygon fill="gold" stroke="black" points="619.9,-128 488.06,-128 454.14,-72 585.99,-72 619.9,-128"/>
<text text-anchor="middle" x="537.02" y="-102.8" font-family="Times,serif" font-size="9.00">root</text>
<text text-anchor="middle" x="537.02" y="-92.8" font-family="Times,serif" font-size="9.00">SuccessOnAll</text>
</g>
<!-- Dummy -->
<g id="node2" class="node">
<title>Dummy</title>
<ellipse fill="gray" stroke="black" cx="30.02" cy="-18" rx="30.04" ry="18"/>
<text text-anchor="middle" x="30.02" y="-15.8" font-family="Times,serif" font-size="9.00">Dummy</text>
</g>
<!-- root&#45;&gt;Dummy -->
<g id="edge1" class="edge">
<title>root&#45;&gt;Dummy</title>
<path fill="none" stroke="black" d="M468.4,-95.71C376.12,-89.96 207.6,-74.72 69.02,-36 66.74,-35.36 64.42,-34.62 62.1,-33.8"/>
<polygon fill="black" stroke="black" points="63.32,-30.52 52.73,-30.15 60.78,-37.04 63.32,-30.52"/>
</g>
<!-- Dummy* -->
<g id="node3" class="node">
<title>Dummy*</title>
<ellipse fill="gray" stroke="black" cx="110.02" cy="-18" rx="32.16" ry="18"/>
<text text-anchor="middle" x="110.02" y="-15.8" font-family="Times,serif" font-size="9.00">Dummy*</text>
</g>
<!-- root&#45;&gt;Dummy* -->
<g id="edge2" class="edge">
<title>root&#45;&gt;Dummy*</title>
<path fill="none" stroke="black" d="M466.1,-92.18C388.07,-83.57 259.46,-66.13 152.02,-36 149.41,-35.27 146.75,-34.43 144.09,-33.52"/>
<polygon fill="black" stroke="black" points="145.17,-30.19 134.58,-30 142.74,-36.75 145.17,-30.19"/>
</g>
<!-- Dummy** -->
<g id="node4" class="node">
<title>Dummy**</title>
<ellipse fill="gray" stroke="black" cx="196.02" cy="-18" rx="35.44" ry="18"/>
<text text-anchor="middle" x="196.02" y="-15.8" font-family="Times,serif" font-size="9.00">Dummy**</text>
</g>
<!-- root&#45;&gt;Dummy** -->
<g id="edge3" class="edge">
<title>root&#45;&gt;Dummy**</title>
<path fill="none" stroke="black" d="M462.97,-86.69C402.38,-75.81 314.8,-58.22 240.02,-36 237.46,-35.24 234.84,-34.4 232.21,-33.5"/>
<polygon fill="black" stroke="black" points="233.37,-30.2 222.78,-30.12 231.01,-36.79 233.37,-30.2"/>
</g>
<!-- Dummy*** -->
<g id="node5" class="node">
<title>Dummy***</title>
<ellipse fill="gray" stroke="black" cx="287.02" cy="-18" rx="37.56" ry="18"/>
<text text-anchor="middle" x="287.02" y="-15.8" font-family="Times,serif" font-size="9.00">Dummy***</text>
</g>
<!-- root&#45;&gt;Dummy*** -->
<g id="edge4" class="edge">
<title>root&#45;&gt;Dummy***</title>
<path fill="none" stroke="black" d="M455.75,-74.71C418.52,-63.35 373.9,-49.39 334.02,-36 331.15,-35.04 328.19,-34.02 325.22,-32.98"/>
<polygon fill="black" stroke="black" points="326.38,-29.68 315.78,-29.64 324.04,-36.28 326.38,-29.68"/>
</g>
<!-- Dummy**** -->
<g id="node6" class="node">
<title>Dummy****</title>
<ellipse fill="gray" stroke="black" cx="383.02" cy="-18" rx="40.33" ry="18"/>
<text text-anchor="middle" x="383.02" y="-15.8" font-family="Times,serif" font-size="9.00">Dummy****</text>
</g>
<!-- root&#45;&gt;Dummy**** -->
<g id="edge5" class="edge">
<title>root&#45;&gt;Dummy****</title>
<path fill="none" stroke="black" d="M484.88,-71.92C462.59,-60.33 437.17,-47.13 417.31,-36.81"/>
<polygon fill="black" stroke="black" points="418.81,-33.65 408.32,-32.14 415.58,-39.86 418.81,-33.65"/>
</g>
<!-- Dummy***** -->
<g id="node7" class="node">
<title>Dummy*****</title>
<ellipse fill="gray" stroke="black" cx="484.02" cy="-18" rx="42.95" ry="18"/>
<text text-anchor="middle" x="484.02" y="-15.8" font-family="Times,serif" font-size="9.00">Dummy*****</text>
</g>
<!-- root&#45;&gt;Dummy***** -->
<g id="edge6" class="edge">
<title>root&#45;&gt;Dummy*****</title>
<path fill="none" stroke="black" d="M519.08,-71.92C513.13,-62.94 506.54,-52.99 500.7,-44.17"/>
<polygon fill="black" stroke="black" points="503.59,-42.2 495.15,-35.79 497.75,-46.06 503.59,-42.2"/>
</g>
<!-- Dummy****** -->
<g id="node8" class="node">
<title>Dummy******</title>
<ellipse fill="gray" stroke="black" cx="590.02" cy="-18" rx="45.72" ry="18"/>
<text text-anchor="middle" x="590.02" y="-15.8" font-family="Times,serif" font-size="9.00">Dummy******</text>
</g>
<!-- root&#45;&gt;Dummy****** -->
<g id="edge7" class="edge">
<title>root&#45;&gt;Dummy******</title>
<path fill="none" stroke="black" d="M554.97,-71.92C560.91,-62.94 567.5,-52.99 573.35,-44.17"/>
<polygon fill="black" stroke="black" points="576.29,-46.06 578.9,-35.79 570.45,-42.2 576.29,-46.06"/>
</g>
<!-- Dummy******* -->
<g id="node9" class="node">
<title>Dummy*******</title>
<ellipse fill="gray" stroke="black" cx="702.02" cy="-18" rx="47.84" ry="18"/>
<text text-anchor="middle" x="702.02" y="-15.8" font-family="Times,serif" font-size="9.00">Dummy*******</text>
</g>
<!-- root&#45;&gt;Dummy******* -->
<g id="edge8" class="edge">
<title>root&#45;&gt;Dummy*******</title>
<path fill="none" stroke="black" d="M587.87,-74.34C612.56,-62.37 641.71,-48.24 664.37,-37.25"/>
<polygon fill="black" stroke="black" points="666.19,-40.27 673.66,-32.75 663.13,-33.97 666.19,-40.27"/>
</g>
<!-- Dummy******** -->
<g id="node10" class="node">
<title>Dummy********</title>
<ellipse fill="gray" stroke="black" cx="819.02" cy="-18" rx="50.61" ry="18"/>
<text text-anchor="middle" x="819.02" y="-15.8" font-family="Times,serif" font-size="9.00">Dummy********</text>
</g>
<!-- root&#45;&gt;Dummy******** -->
<g id="edge9" class="edge">
<title>root&#45;&gt;Dummy********</title>
<path fill="none" stroke="black" d="M593.07,-83.1C645.07,-68.35 721.63,-46.63 770.92,-32.65"/>
<polygon fill="black" stroke="black" points="772.03,-35.97 780.7,-29.87 770.12,-29.23 772.03,-35.97"/>
</g>
<!-- Dummy********* -->
<g id="node11" class="node">
<title>Dummy*********</title>
<ellipse fill="gray" stroke="black" cx="941.02" cy="-18" rx="53.23" ry="18"/>
<text text-anchor="middle" x="941.02" y="-15.8" font-family="Times,serif" font-size="9.00">Dummy*********</text>
</g>
<!-- root&#45;&gt;Dummy********* -->
<g id="edge10" class="edge">
<title>root&#45;&gt;Dummy*********</title>
<path fill="none" stroke="black" d="M596.65,-89.6C665.14,-78.44 780.74,-58.48 879.02,-36 883.18,-35.05 887.49,-34 891.79,-32.91"/>
<polygon fill="black" stroke="black" points="893,-36.21 901.79,-30.3 891.23,-29.44 893,-36.21"/>
</g>
<!-- Dummy********** -->
<g id="node12" class="node">
<title>Dummy**********</title>
<ellipse fill="gray" stroke="black" cx="1068.02" cy="-18" rx="56.01" ry="18"/>
<text text-anchor="middle" x="1068.02" y="-15.8" font-family="Times,serif" font-size="9.00">Dummy**********</text>
</g>
<!-- root&#45;&gt;Dummy********** -->
<g id="edge11" class="edge">
<title>root&#45;&gt;Dummy**********</title>
<path fill="none" stroke="black" d="M598.85,-93.06C688.47,-83.9 859.46,-64.37 1003.02,-36 1007.71,-35.07 1012.56,-34.01 1017.41,-32.87"/>
<polygon fill="black" stroke="black" points="1018.4,-36.23 1027.28,-30.46 1016.74,-29.43 1018.4,-36.23"/>
</g>
<!-- Dummy*********** -->
<g id="node13" class="node">
<title>Dummy***********</title>
<ellipse fill="gray" stroke="black" cx="1200.02" cy="-18" rx="58.13" ry="18"/>
<text text-anchor="middle" x="1200.02" y="-15.8" font-family="Times,serif" font-size="9.00">Dummy***********</text>
</g>
<!-- root&#45;&gt;Dummy*********** -->
<g id="edge12" class="edge">
<title>root&#45;&gt;Dummy***********</title>
<path fill="none" stroke="black" d="M600.51,-95.28C709.91,-88.22 940.72,-70.38 1133.02,-36 1137.99,-35.11 1143.13,-34.06 1148.26,-32.91"/>
<polygon fill="black" stroke="black" points="1149.11,-36.31 1158.05,-30.63 1147.51,-29.49 1149.11,-36.31"/>
</g>
</g>
</svg>
