<?xml version="1.0" encoding="UTF-8" standalone="no"?>
<!DOCTYPE svg PUBLIC "-//W3C//DTD SVG 1.1//EN"
 "http://www.w3.org/Graphics/SVG/1.1/DTD/svg11.dtd">
<!-- Generated by graphviz version 2.43.0 (0)
 -->
<!-- Title: pastafarianism Pages: 1 -->
<svg width="2020pt" height="136pt"
 viewBox="0.00 0.00 2019.61 136.00" xmlns="http://www.w3.org/2000/svg" xmlns:xlink="http://www.w3.org/1999/xlink">
<g id="graph0" class="graph" transform="scale(1 1) rotate(0) translate(4 132)">
<title>pastafarianism</title>
<polygon fill="white" stroke="transparent" points="-4,4 -4,-132 2015.61,-132 2015.61,4 -4,4"/>
<!-- root -->
<g id="node1" class="node">
<title>root</title>
<polygon fill="gold" stroke="black" points="901.9,-128 770.06,-128 736.14,-72 867.99,-72 901.9,-128"/>
<text text-anchor="middle" x="819.02" y="-102.8" font-family="Times,serif" font-size="9.00">root</text>
<text text-anchor="middle" x="819.02" y="-92.8" font-family="Times,serif" font-size="9.00">SuccessOnAll</text>
</g>
<!-- Dummy -->
<g id="node2" class="node">
<title>Dummy</title>
<ellipse fill="gray" stroke="black" cx="30.02" cy="-18" rx="30.04" ry="18"/>
<text text-anchor="middle" x="30.02" y="-15.8" font-family="Times,serif" font-size="9.00">Dummy</text>
</g>
<!-- root&#45;&gt;Dummy -->
<g id="edge1" class="edge">
<title>root&#45;&gt;Dummy</title>
<path fill="none" stroke="black" d="M750.66,-96.11C590.94,-88.91 197.13,-68.36 69.02,-36 66.58,-35.38 64.09,-34.63 61.62,-33.78"/>
<polygon fill="black" stroke="black" points="62.86,-30.51 52.27,-30.18 60.34,-37.04 62.86,-30.51"/>
</g>
<!-- Dummy* -->
<g id="node3" class="node">
<title>Dummy*</title>
<ellipse fill="gray" stroke="black" cx="110.02" cy="-18" rx="32.16" ry="18"/>
<text text-anchor="middle" x="110.02" y="-15.8" font-family="Times,serif" font-size="9.00">Dummy*</text>
</g>
<!-- root&#45;&gt;Dummy* -->
<g id="edge2" class="edge">
<title>root&#45;&gt;Dummy*</title>
<path fill="none" stroke="black" d="M752.17,-99.05C630.83,-97.75 367,-88.47 152.02,-36 149.23,-35.32 146.38,-34.48 143.54,-33.56"/>
<polygon fill="black" stroke="black" points="144.65,-30.24 134.06,-30.12 142.26,-36.82 144.65,-30.24"/>
</g>
<!-- Dummy** -->
<g id="node4" class="node">
<title>Dummy**</title>
<ellipse fill="gray" stroke="black" cx="196.02" cy="-18" rx="35.44" ry="18"/>
<text text-anchor="middle" x="196.02" y="-15.8" font-family="Times,serif" font-size="9.00">Dummy**</text>
</g>
<!-- root&#45;&gt;Dummy** -->
<g id="edge3" class="edge">
<title>root&#45;&gt;Dummy**</title>
<path fill="none" stroke="black" d="M751.18,-97.32C642.02,-93.35 421.3,-80.08 240.02,-36 237.35,-35.35 234.63,-34.58 231.91,-33.73"/>
<polygon fill="black" stroke="black" points="232.78,-30.33 222.19,-30.39 230.51,-36.95 232.78,-30.33"/>
</g>
<!-- Dummy*** -->
<g id="node5" class="node">
<title>Dummy***</title>
<ellipse fill="gray" stroke="black" cx="287.02" cy="-18" rx="37.56" ry="18"/>
<text text-anchor="middle" x="287.02" y="-15.8" font-family="Times,serif" font-size="9.00">Dummy***</text>
</g>
<!-- root&#45;&gt;Dummy*** -->
<g id="edge4" class="edge">
<title>root&#45;&gt;Dummy***</title>
<path fill="none" stroke="black" d="M749.89,-94.77C655.02,-87.9 479.66,-71.35 334.02,-36 331,-35.27 327.9,-34.4 324.81,-33.47"/>
<polygon fill="black" stroke="black" points="325.64,-30.06 315.05,-30.26 323.46,-36.71 325.64,-30.06"/>
</g>
<!-- Dummy**** -->
<g id="node6" class="node">
<title>Dummy****</title>
<ellipse fill="gray" stroke="black" cx="383.02" cy="-18" rx="40.33" ry="18"/>
<text text-anchor="middle" x="383.02" y="-15.8" font-family="Times,serif" font-size="9.00">Dummy****</text>
</g>
<!-- root&#45;&gt;Dummy**** -->
<g id="edge5" class="edge">
<title>root&#45;&gt;Dummy****</title>
<path fill="none" stroke="black" d="M747.65,-91.13C669.42,-81.64 540.58,-63.45 432.02,-36 428.88,-35.21 425.65,-34.3 422.42,-33.33"/>
<polygon fill="black" stroke="black" points="423.42,-29.97 412.83,-30.26 421.29,-36.64 423.42,-29.97"/>
</g>
<!-- Dummy***** -->
<g id="node7" class="node">
<title>Dummy*****</title>
<ellipse fill="gray" stroke="black" cx="484.02" cy="-18" rx="42.95" ry="18"/>
<text text-anchor="middle" x="484.02" y="-15.8" font-family="Times,serif" font-size="9.00">Dummy*****</text>
</g>
<!-- root&#45;&gt;Dummy***** -->
<g id="edge6" class="edge">
<title>root&#45;&gt;Dummy*****</title>
<path fill="none" stroke="black" d="M743.46,-84.45C685.93,-72.85 604.99,-55.37 535.02,-36 531.87,-35.13 528.63,-34.18 525.38,-33.19"/>
<polygon fill="black" stroke="black" points="526.29,-29.8 515.7,-30.12 524.18,-36.47 526.29,-29.8"/>
</g>
<!-- Dummy****** -->
<g id="node8" class="node">
<title>Dummy******</title>
<ellipse fill="gray" stroke="black" cx="590.02" cy="-18" rx="45.72" ry="18"/>
<text text-anchor="middle" x="590.02" y="-15.8" font-family="Times,serif" font-size="9.00">Dummy******</text>
</g>
<!-- root&#45;&gt;Dummy****** -->
<g id="edge7" class="edge">
<title>root&#45;&gt;Dummy******</title>
<path fill="none" stroke="black" d="M741.49,-71.92C705.08,-59.19 663.08,-44.52 632.55,-33.86"/>
<polygon fill="black" stroke="black" points="633.66,-30.54 623.07,-30.54 631.35,-37.15 633.66,-30.54"/>
</g>
<!-- Dummy******* -->
<g id="node9" class="node">
<title>Dummy*******</title>
<ellipse fill="gray" stroke="black" cx="702.02" cy="-18" rx="47.84" ry="18"/>
<text text-anchor="middle" x="702.02" y="-15.8" font-family="Times,serif" font-size="9.00">Dummy*******</text>
</g>
<!-- root&#45;&gt;Dummy******* -->
<g id="edge8" class="edge">
<title>root&#45;&gt;Dummy*******</title>
<path fill="none" stroke="black" d="M779.41,-71.92C764.15,-61.48 746.97,-49.73 732.67,-39.96"/>
<polygon fill="black" stroke="black" points="734.42,-36.91 724.19,-34.16 730.47,-42.69 734.42,-36.91"/>
</g>
<!-- Dummy******** -->
<g id="node10" class="node">
<title>Dummy********</title>
<ellipse fill="gray" stroke="black" cx="819.02" cy="-18" rx="50.61" ry="18"/>
<text text-anchor="middle" x="819.02" y="-15.8" font-family="Times,serif" font-size="9.00">Dummy********</text>
</g>
<!-- root&#45;&gt;Dummy******** -->
<g id="edge9" class="edge">
<title>root&#45;&gt;Dummy********</title>
<path fill="none" stroke="black" d="M819.02,-71.92C819.02,-63.72 819.02,-54.72 819.02,-46.49"/>
<polygon fill="black" stroke="black" points="822.52,-46.27 819.02,-36.27 815.52,-46.27 822.52,-46.27"/>
</g>
<!-- Dummy********* -->
<g id="node11" class="node">
<title>Dummy*********</title>
<ellipse fill="gray" stroke="black" cx="941.02" cy="-18" rx="53.23" ry="18"/>
<text text-anchor="middle" x="941.02" y="-15.8" font-family="Times,serif" font-size="9.00">Dummy*********</text>
</g>
<!-- root&#45;&gt;Dummy********* -->
<g id="edge10" class="edge">
<title>root&#45;&gt;Dummy*********</title>
<path fill="none" stroke="black" d="M860.33,-71.92C876.27,-61.46 894.24,-49.68 909.16,-39.89"/>
<polygon fill="black" stroke="black" points="911.11,-42.8 917.55,-34.39 907.27,-36.95 911.11,-42.8"/>
</g>
<!-- Dummy********** -->
<g id="node12" class="node">
<title>Dummy**********</title>
<ellipse fill="gray" stroke="black" cx="1068.02" cy="-18" rx="56.01" ry="18"/>
<text text-anchor="middle" x="1068.02" y="-15.8" font-family="Times,serif" font-size="9.00">Dummy**********</text>
</g>
<!-- root&#45;&gt;Dummy********** -->
<g id="edge11" class="edge">
<title>root&#45;&gt;Dummy**********</title>
<path fill="none" stroke="black" d="M873.97,-81.34C917.73,-67.29 978.36,-47.81 1020.14,-34.38"/>
<polygon fill="black" stroke="black" points="1021.36,-37.67 1029.81,-31.28 1019.22,-31 1021.36,-37.67"/>
</g>
<!-- Dummy*********** -->
<g id="node13" class="node">
<title>Dummy***********</title>
<ellipse fill="gray" stroke="black" cx="1200.02" cy="-18" rx="58.13" ry="18"/>
<text text-anchor="middle" x="1200.02" y="-15.8" font-family="Times,serif" font-size="9.00">Dummy***********</text>
</g>
<!-- root&#45;&gt;Dummy*********** -->
<g id="edge12" class="edge">
<title>root&#45;&gt;Dummy***********</title>
<path fill="none" stroke="black" d="M877.95,-88.1C941.19,-76.18 1044.51,-56.1 1133.02,-36 1137.61,-34.96 1142.36,-33.84 1147.12,-32.69"/>
<polygon fill="black" stroke="black" points="1147.97,-36.08 1156.85,-30.3 1146.3,-29.28 1147.97,-36.08"/>
</g>
<!-- Dummy************ -->
<g id="node14" class="node">
<title>Dummy************</title>
<ellipse fill="gray" stroke="black" cx="1338.02" cy="-18" rx="61.4" ry="18"/>
<text text-anchor="middle" x="1338.02" y="-15.8" font-family="Times,serif" font-size="9.00">Dummy************</text>
</g>
<!-- root&#45;&gt;Dummy************ -->
<g id="edge13" class="edge">
<title>root&#45;&gt;Dummy************</title>
<path fill="none" stroke="black" d="M880.56,-92.23C967.19,-82.27 1129.86,-62 1267.02,-36 1272.39,-34.98 1277.97,-33.82 1283.53,-32.6"/>
<polygon fill="black" stroke="black" points="1284.49,-35.97 1293.47,-30.35 1282.94,-29.15 1284.49,-35.97"/>
</g>
<!-- Dummy************* -->
<g id="node15" class="node">
<title>Dummy*************</title>
<ellipse fill="gray" stroke="black" cx="1481.02" cy="-18" rx="63.52" ry="18"/>
<text text-anchor="middle" x="1481.02" y="-15.8" font-family="Times,serif" font-size="9.00">Dummy*************</text>
</g>
<!-- root&#45;&gt;Dummy************* -->
<g id="edge14" class="edge">
<title>root&#45;&gt;Dummy*************</title>
<path fill="none" stroke="black" d="M882.13,-94.79C990.31,-87.02 1217.9,-68.18 1408.02,-36 1413.69,-35.04 1419.58,-33.9 1425.45,-32.68"/>
<polygon fill="black" stroke="black" points="1426.21,-36.1 1435.24,-30.56 1424.73,-29.26 1426.21,-36.1"/>
</g>
<!-- Dummy************** -->
<g id="node16" class="node">
<title>Dummy**************</title>
<ellipse fill="gray" stroke="black" cx="1629.02" cy="-18" rx="66.29" ry="18"/>
<text text-anchor="middle" x="1629.02" y="-15.8" font-family="Times,serif" font-size="9.00">Dummy**************</text>
</g>
<!-- root&#45;&gt;Dummy************** -->
<g id="edge15" class="edge">
<title>root&#45;&gt;Dummy**************</title>
<path fill="none" stroke="black" d="M883.28,-96.46C1011.48,-90.75 1307.88,-74.26 1554.02,-36 1559.77,-35.11 1565.73,-34.03 1571.67,-32.85"/>
<polygon fill="black" stroke="black" points="1572.52,-36.24 1581.6,-30.78 1571.1,-29.39 1572.52,-36.24"/>
</g>
<!-- Dummy*************** -->
<g id="node17" class="node">
<title>Dummy***************</title>
<ellipse fill="gray" stroke="black" cx="1782.02" cy="-18" rx="68.91" ry="18"/>
<text text-anchor="middle" x="1782.02" y="-15.8" font-family="Times,serif" font-size="9.00">Dummy***************</text>
</g>
<!-- root&#45;&gt;Dummy*************** -->
<g id="edge16" class="edge">
<title>root&#45;&gt;Dummy***************</title>
<path fill="none" stroke="black" d="M883.49,-97.58C1029.99,-93.65 1398.9,-79.88 1704.02,-36 1710.23,-35.11 1716.69,-34 1723.11,-32.78"/>
<polygon fill="black" stroke="black" points="1724,-36.17 1733.12,-30.78 1722.63,-29.3 1724,-36.17"/>
</g>
<!-- Dummy**************** -->
<g id="node18" class="node">
<title>Dummy****************</title>
<ellipse fill="gray" stroke="black" cx="1940.02" cy="-18" rx="71.68" ry="18"/>
<text text-anchor="middle" x="1940.02" y="-15.8" font-family="Times,serif" font-size="9.00">Dummy****************</text>
</g>
<!-- root&#45;&gt;Dummy**************** -->
<g id="edge17" class="edge">
<title>root&#45;&gt;Dummy****************</title>
<path fill="none" stroke="black" d="M884.22,-98.42C1048.66,-96.23 1493.34,-85.77 1860.02,-36 1866.39,-35.14 1873.01,-34.04 1879.6,-32.83"/>
<polygon fill="black" stroke="black" points="1880.71,-36.18 1889.87,-30.85 1879.38,-29.31 1880.71,-36.18"/>
</g>
</g>
</svg>
