<?xml version="1.0" encoding="UTF-8" standalone="no"?>
<!DOCTYPE svg PUBLIC "-//W3C//DTD SVG 1.1//EN"
 "http://www.w3.org/Graphics/SVG/1.1/DTD/svg11.dtd">
<!-- Generated by graphviz version 2.43.0 (0)
 -->
<!-- Title: pastafarianism Pages: 1 -->
<svg width="239pt" height="136pt"
 viewBox="0.00 0.00 239.24 136.00" xmlns="http://www.w3.org/2000/svg" xmlns:xlink="http://www.w3.org/1999/xlink">
<g id="graph0" class="graph" transform="scale(1 1) rotate(0) translate(4 132)">
<title>pastafarianism</title>
<polygon fill="white" stroke="transparent" points="-4,4 -4,-132 235.24,-132 235.24,4 -4,4"/>
<!-- root -->
<g id="node1" class="node">
<title>root</title>
<polygon fill="gold" stroke="black" points="192.9,-128 61.06,-128 27.14,-72 158.99,-72 192.9,-128"/>
<text text-anchor="middle" x="110.02" y="-102.8" font-family="Times,serif" font-size="9.00">root</text>
<text text-anchor="middle" x="110.02" y="-92.8" font-family="Times,serif" font-size="9.00">SuccessOnAll</text>
</g>
<!-- Dummy -->
<g id="node2" class="node">
<title>Dummy</title>
<ellipse fill="gray" stroke="black" cx="30.02" cy="-18" rx="30.04" ry="18"/>
<text text-anchor="middle" x="30.02" y="-15.8" font-family="Times,serif" font-size="9.00">Dummy</text>
</g>
<!-- root&#45;&gt;Dummy -->
<g id="edge1" class="edge">
<title>root&#45;&gt;Dummy</title>
<path fill="none" stroke="black" d="M82.94,-71.92C72.92,-61.9 61.7,-50.68 52.17,-41.15"/>
<polygon fill="black" stroke="black" points="54.5,-38.53 44.95,-33.93 49.55,-43.48 54.5,-38.53"/>
</g>
<!-- Dummy* -->
<g id="node3" class="node">
<title>Dummy*</title>
<ellipse fill="gray" stroke="black" cx="110.02" cy="-18" rx="32.16" ry="18"/>
<text text-anchor="middle" x="110.02" y="-15.8" font-family="Times,serif" font-size="9.00">Dummy*</text>
</g>
<!-- root&#45;&gt;Dummy* -->
<g id="edge2" class="edge">
<title>root&#45;&gt;Dummy*</title>
<path fill="none" stroke="black" d="M110.02,-71.92C110.02,-63.72 110.02,-54.72 110.02,-46.49"/>
<polygon fill="black" stroke="black" points="113.52,-46.27 110.02,-36.27 106.52,-46.27 113.52,-46.27"/>
</g>
<!-- Dummy** -->
<g id="node4" class="node">
<title>Dummy**</title>
<ellipse fill="gray" stroke="black" cx="196.02" cy="-18" rx="35.44" ry="18"/>
<text text-anchor="middle" x="196.02" y="-15.8" font-family="Times,serif" font-size="9.00">Dummy**</text>
</g>
<!-- root&#45;&gt;Dummy** -->
<g id="edge3" class="edge">
<title>root&#45;&gt;Dummy**</title>
<path fill="none" stroke="black" d="M139.14,-71.92C149.86,-61.95 161.86,-50.78 172.07,-41.28"/>
<polygon fill="black" stroke="black" points="174.54,-43.76 179.48,-34.39 169.77,-38.64 174.54,-43.76"/>
</g>
</g>
</svg>
