<?xml version="1.0" encoding="UTF-8" standalone="no"?>
<!DOCTYPE svg PUBLIC "-//W3C//DTD SVG 1.1//EN"
 "http://www.w3.org/Graphics/SVG/1.1/DTD/svg11.dtd">
<!-- Generated by graphviz version 2.43.0 (0)
 -->
<!-- Title: pastafarianism Pages: 1 -->
<svg width="758pt" height="136pt"
 viewBox="0.00 0.00 757.94 136.00" xmlns="http://www.w3.org/2000/svg" xmlns:xlink="http://www.w3.org/1999/xlink">
<g id="graph0" class="graph" transform="scale(1 1) rotate(0) translate(4 132)">
<title>pastafarianism</title>
<polygon fill="white" stroke="transparent" points="-4,4 -4,-132 753.94,-132 753.94,4 -4,4"/>
<!-- root -->
<g id="node1" class="node">
<title>root</title>
<polygon fill="gold" stroke="black" points="417.9,-128 286.06,-128 252.14,-72 383.99,-72 417.9,-128"/>
<text text-anchor="middle" x="335.02" y="-102.8" font-family="Times,serif" font-size="9.00">root</text>
<text text-anchor="middle" x="335.02" y="-92.8" font-family="Times,serif" font-size="9.00">SuccessOnAll</text>
</g>
<!-- Dummy -->
<g id="node2" class="node">
<title>Dummy</title>
<ellipse fill="gray" stroke="black" cx="30.02" cy="-18" rx="30.04" ry="18"/>
<text text-anchor="middle" x="30.02" y="-15.8" font-family="Times,serif" font-size="9.00">Dummy</text>
</g>
<!-- root&#45;&gt;Dummy -->
<g id="edge1" class="edge">
<title>root&#45;&gt;Dummy</title>
<path fill="none" stroke="black" d="M259.78,-84.92C205.96,-73.95 132.17,-57.05 69.02,-36 66.78,-35.25 64.48,-34.42 62.18,-33.55"/>
<polygon fill="black" stroke="black" points="63.44,-30.28 52.85,-29.76 60.8,-36.76 63.44,-30.28"/>
</g>
<!-- Dummy* -->
<g id="node3" class="node">
<title>Dummy*</title>
<ellipse fill="gray" stroke="black" cx="110.02" cy="-18" rx="32.16" ry="18"/>
<text text-anchor="middle" x="110.02" y="-15.8" font-family="Times,serif" font-size="9.00">Dummy*</text>
</g>
<!-- root&#45;&gt;Dummy* -->
<g id="edge2" class="edge">
<title>root&#45;&gt;Dummy*</title>
<path fill="none" stroke="black" d="M253.16,-71.85C221.44,-61.06 184.91,-48.31 152.02,-36 149.64,-35.11 147.18,-34.17 144.72,-33.21"/>
<polygon fill="black" stroke="black" points="145.84,-29.89 135.26,-29.47 143.27,-36.4 145.84,-29.89"/>
</g>
<!-- Dummy** -->
<g id="node4" class="node">
<title>Dummy**</title>
<ellipse fill="gray" stroke="black" cx="196.02" cy="-18" rx="35.44" ry="18"/>
<text text-anchor="middle" x="196.02" y="-15.8" font-family="Times,serif" font-size="9.00">Dummy**</text>
</g>
<!-- root&#45;&gt;Dummy** -->
<g id="edge3" class="edge">
<title>root&#45;&gt;Dummy**</title>
<path fill="none" stroke="black" d="M287.96,-71.92C267.98,-60.41 245.22,-47.31 227.34,-37.03"/>
<polygon fill="black" stroke="black" points="228.89,-33.88 218.48,-31.93 225.4,-39.95 228.89,-33.88"/>
</g>
<!-- Dummy*** -->
<g id="node5" class="node">
<title>Dummy***</title>
<ellipse fill="gray" stroke="black" cx="287.02" cy="-18" rx="37.56" ry="18"/>
<text text-anchor="middle" x="287.02" y="-15.8" font-family="Times,serif" font-size="9.00">Dummy***</text>
</g>
<!-- root&#45;&gt;Dummy*** -->
<g id="edge4" class="edge">
<title>root&#45;&gt;Dummy***</title>
<path fill="none" stroke="black" d="M318.77,-71.92C313.44,-63.03 307.54,-53.2 302.29,-44.44"/>
<polygon fill="black" stroke="black" points="305.25,-42.57 297.1,-35.79 299.24,-46.17 305.25,-42.57"/>
</g>
<!-- Dummy**** -->
<g id="node6" class="node">
<title>Dummy****</title>
<ellipse fill="gray" stroke="black" cx="383.02" cy="-18" rx="40.33" ry="18"/>
<text text-anchor="middle" x="383.02" y="-15.8" font-family="Times,serif" font-size="9.00">Dummy****</text>
</g>
<!-- root&#45;&gt;Dummy**** -->
<g id="edge5" class="edge">
<title>root&#45;&gt;Dummy****</title>
<path fill="none" stroke="black" d="M351.27,-71.92C356.6,-63.03 362.5,-53.2 367.76,-44.44"/>
<polygon fill="black" stroke="black" points="370.8,-46.17 372.95,-35.79 364.8,-42.57 370.8,-46.17"/>
</g>
<!-- Dummy***** -->
<g id="node7" class="node">
<title>Dummy*****</title>
<ellipse fill="gray" stroke="black" cx="484.02" cy="-18" rx="42.95" ry="18"/>
<text text-anchor="middle" x="484.02" y="-15.8" font-family="Times,serif" font-size="9.00">Dummy*****</text>
</g>
<!-- root&#45;&gt;Dummy***** -->
<g id="edge6" class="edge">
<title>root&#45;&gt;Dummy*****</title>
<path fill="none" stroke="black" d="M384.64,-72.36C405.88,-60.96 430.17,-47.91 449.42,-37.58"/>
<polygon fill="black" stroke="black" points="451.28,-40.55 458.43,-32.74 447.97,-34.39 451.28,-40.55"/>
</g>
<!-- Dummy****** -->
<g id="node8" class="node">
<title>Dummy******</title>
<ellipse fill="gray" stroke="black" cx="590.02" cy="-18" rx="45.72" ry="18"/>
<text text-anchor="middle" x="590.02" y="-15.8" font-family="Times,serif" font-size="9.00">Dummy******</text>
</g>
<!-- root&#45;&gt;Dummy****** -->
<g id="edge7" class="edge">
<title>root&#45;&gt;Dummy******</title>
<path fill="none" stroke="black" d="M390.05,-81.77C430.45,-69.12 486.65,-51.51 536.02,-36 539.16,-35.01 542.41,-33.99 545.67,-32.97"/>
<polygon fill="black" stroke="black" points="546.97,-36.23 555.46,-29.89 544.87,-29.55 546.97,-36.23"/>
</g>
<!-- Dummy******* -->
<g id="node9" class="node">
<title>Dummy*******</title>
<ellipse fill="gray" stroke="black" cx="702.02" cy="-18" rx="47.84" ry="18"/>
<text text-anchor="middle" x="702.02" y="-15.8" font-family="Times,serif" font-size="9.00">Dummy*******</text>
</g>
<!-- root&#45;&gt;Dummy******* -->
<g id="edge8" class="edge">
<title>root&#45;&gt;Dummy*******</title>
<path fill="none" stroke="black" d="M394.23,-88.6C456.87,-77.21 558.45,-57.66 645.02,-36 648.8,-35.05 652.71,-34.02 656.62,-32.94"/>
<polygon fill="black" stroke="black" points="657.62,-36.29 666.28,-30.19 655.7,-29.56 657.62,-36.29"/>
</g>
</g>
</svg>
