<?xml version="1.0" encoding="UTF-8" standalone="no"?>
<!DOCTYPE svg PUBLIC "-//W3C//DTD SVG 1.1//EN"
 "http://www.w3.org/Graphics/SVG/1.1/DTD/svg11.dtd">
<!-- Generated by graphviz version 2.43.0 (0)
 -->
<!-- Title: pastafarianism Pages: 1 -->
<svg width="1132pt" height="116pt"
 viewBox="0.00 0.00 1132.03 116.00" xmlns="http://www.w3.org/2000/svg" xmlns:xlink="http://www.w3.org/1999/xlink">
<g id="graph0" class="graph" transform="scale(1 1) rotate(0) translate(4 112)">
<title>pastafarianism</title>
<polygon fill="white" stroke="transparent" points="-4,4 -4,-112 1128.03,-112 1128.03,4 -4,4"/>
<!-- root -->
<g id="node1" class="node">
<title>root</title>
<polygon fill="orange" stroke="black" points="511.02,-108 457.02,-108 457.02,-72 511.02,-72 511.02,-108"/>
<text text-anchor="middle" x="484.02" y="-87.8" font-family="Times,serif" font-size="9.00">Ⓜ root</text>
</g>
<!-- Dummy -->
<g id="node2" class="node">
<title>Dummy</title>
<ellipse fill="gray" stroke="black" cx="30.02" cy="-18" rx="30.04" ry="18"/>
<text text-anchor="middle" x="30.02" y="-15.8" font-family="Times,serif" font-size="9.00">Dummy</text>
</g>
<!-- root&#45;&gt;Dummy -->
<g id="edge1" class="edge">
<title>root&#45;&gt;Dummy</title>
<path fill="none" stroke="black" d="M456.8,-88.18C389.71,-85.61 211.51,-75.29 69.02,-36 66.74,-35.37 64.42,-34.63 62.1,-33.82"/>
<polygon fill="black" stroke="black" points="63.31,-30.54 52.73,-30.18 60.78,-37.06 63.31,-30.54"/>
</g>
<!-- Dummy* -->
<g id="node3" class="node">
<title>Dummy*</title>
<ellipse fill="gray" stroke="black" cx="110.02" cy="-18" rx="32.16" ry="18"/>
<text text-anchor="middle" x="110.02" y="-15.8" font-family="Times,serif" font-size="9.00">Dummy*</text>
</g>
<!-- root&#45;&gt;Dummy* -->
<g id="edge2" class="edge">
<title>root&#45;&gt;Dummy*</title>
<path fill="none" stroke="black" d="M456.9,-86.77C399.69,-81.6 262.8,-66.83 152.02,-36 149.41,-35.27 146.74,-34.44 144.08,-33.53"/>
<polygon fill="black" stroke="black" points="145.17,-30.2 134.57,-30.02 142.74,-36.76 145.17,-30.2"/>
</g>
<!-- Dummy** -->
<g id="node4" class="node">
<title>Dummy**</title>
<ellipse fill="gray" stroke="black" cx="196.02" cy="-18" rx="35.44" ry="18"/>
<text text-anchor="middle" x="196.02" y="-15.8" font-family="Times,serif" font-size="9.00">Dummy**</text>
</g>
<!-- root&#45;&gt;Dummy** -->
<g id="edge3" class="edge">
<title>root&#45;&gt;Dummy**</title>
<path fill="none" stroke="black" d="M456.96,-84.54C411.57,-76.74 317.46,-59.22 240.02,-36 237.46,-35.23 234.84,-34.38 232.22,-33.49"/>
<polygon fill="black" stroke="black" points="233.38,-30.19 222.79,-30.1 231.01,-36.78 233.38,-30.19"/>
</g>
<!-- Dummy*** -->
<g id="node5" class="node">
<title>Dummy***</title>
<ellipse fill="gray" stroke="black" cx="287.02" cy="-18" rx="37.56" ry="18"/>
<text text-anchor="middle" x="287.02" y="-15.8" font-family="Times,serif" font-size="9.00">Dummy***</text>
</g>
<!-- root&#45;&gt;Dummy*** -->
<g id="edge4" class="edge">
<title>root&#45;&gt;Dummy***</title>
<path fill="none" stroke="black" d="M456.9,-79.49C426.84,-68.92 376.93,-51.34 334.02,-36 331.3,-35.03 328.5,-34.02 325.67,-33.01"/>
<polygon fill="black" stroke="black" points="326.69,-29.65 316.09,-29.55 324.31,-36.24 326.69,-29.65"/>
</g>
<!-- Dummy**** -->
<g id="node6" class="node">
<title>Dummy****</title>
<ellipse fill="gray" stroke="black" cx="383.02" cy="-18" rx="40.33" ry="18"/>
<text text-anchor="middle" x="383.02" y="-15.8" font-family="Times,serif" font-size="9.00">Dummy****</text>
</g>
<!-- root&#45;&gt;Dummy**** -->
<g id="edge5" class="edge">
<title>root&#45;&gt;Dummy****</title>
<path fill="none" stroke="black" d="M459.31,-71.88C445.16,-62.06 427.3,-49.69 412.43,-39.38"/>
<polygon fill="black" stroke="black" points="414.27,-36.4 404.06,-33.58 410.29,-42.15 414.27,-36.4"/>
</g>
<!-- Dummy***** -->
<g id="node7" class="node">
<title>Dummy*****</title>
<ellipse fill="gray" stroke="black" cx="484.02" cy="-18" rx="42.95" ry="18"/>
<text text-anchor="middle" x="484.02" y="-15.8" font-family="Times,serif" font-size="9.00">Dummy*****</text>
</g>
<!-- root&#45;&gt;Dummy***** -->
<g id="edge6" class="edge">
<title>root&#45;&gt;Dummy*****</title>
<path fill="none" stroke="black" d="M484.02,-71.7C484.02,-63.98 484.02,-54.71 484.02,-46.11"/>
<polygon fill="black" stroke="black" points="487.52,-46.1 484.02,-36.1 480.52,-46.1 487.52,-46.1"/>
</g>
<!-- Dummy****** -->
<g id="node8" class="node">
<title>Dummy******</title>
<ellipse fill="gray" stroke="black" cx="590.02" cy="-18" rx="45.72" ry="18"/>
<text text-anchor="middle" x="590.02" y="-15.8" font-family="Times,serif" font-size="9.00">Dummy******</text>
</g>
<!-- root&#45;&gt;Dummy****** -->
<g id="edge7" class="edge">
<title>root&#45;&gt;Dummy******</title>
<path fill="none" stroke="black" d="M509.95,-71.88C524.71,-62.13 543.29,-49.86 558.84,-39.59"/>
<polygon fill="black" stroke="black" points="561.18,-42.24 567.59,-33.81 557.32,-36.4 561.18,-42.24"/>
</g>
<!-- Dummy******* -->
<g id="node9" class="node">
<title>Dummy*******</title>
<ellipse fill="gray" stroke="black" cx="702.02" cy="-18" rx="47.84" ry="18"/>
<text text-anchor="middle" x="702.02" y="-15.8" font-family="Times,serif" font-size="9.00">Dummy*******</text>
</g>
<!-- root&#45;&gt;Dummy******* -->
<g id="edge8" class="edge">
<title>root&#45;&gt;Dummy*******</title>
<path fill="none" stroke="black" d="M511.19,-80.28C547.8,-68.52 613.43,-47.45 657.36,-33.34"/>
<polygon fill="black" stroke="black" points="658.48,-36.66 666.93,-30.27 656.34,-29.99 658.48,-36.66"/>
</g>
<!-- Dummy******** -->
<g id="node10" class="node">
<title>Dummy********</title>
<ellipse fill="gray" stroke="black" cx="819.02" cy="-18" rx="50.61" ry="18"/>
<text text-anchor="middle" x="819.02" y="-15.8" font-family="Times,serif" font-size="9.00">Dummy********</text>
</g>
<!-- root&#45;&gt;Dummy******** -->
<g id="edge9" class="edge">
<title>root&#45;&gt;Dummy********</title>
<path fill="none" stroke="black" d="M511.12,-84.57C560.63,-76.3 668.91,-57.41 759.02,-36 763.11,-35.03 767.34,-33.96 771.57,-32.85"/>
<polygon fill="black" stroke="black" points="772.64,-36.18 781.38,-30.2 770.82,-29.43 772.64,-36.18"/>
</g>
<!-- Dummy********* -->
<g id="node11" class="node">
<title>Dummy*********</title>
<ellipse fill="gray" stroke="black" cx="941.02" cy="-18" rx="53.23" ry="18"/>
<text text-anchor="middle" x="941.02" y="-15.8" font-family="Times,serif" font-size="9.00">Dummy*********</text>
</g>
<!-- root&#45;&gt;Dummy********* -->
<g id="edge10" class="edge">
<title>root&#45;&gt;Dummy*********</title>
<path fill="none" stroke="black" d="M511.05,-86.64C575.3,-80.74 742.06,-63.84 879.02,-36 883.45,-35.1 888.02,-34.06 892.59,-32.95"/>
<polygon fill="black" stroke="black" points="893.69,-36.28 902.52,-30.42 891.96,-29.5 893.69,-36.28"/>
</g>
<!-- Dummy********** -->
<g id="node12" class="node">
<title>Dummy**********</title>
<ellipse fill="gray" stroke="black" cx="1068.02" cy="-18" rx="56.01" ry="18"/>
<text text-anchor="middle" x="1068.02" y="-15.8" font-family="Times,serif" font-size="9.00">Dummy**********</text>
</g>
<!-- root&#45;&gt;Dummy********** -->
<g id="edge11" class="edge">
<title>root&#45;&gt;Dummy**********</title>
<path fill="none" stroke="black" d="M511.24,-87.7C588.7,-83.69 816.74,-69.66 1003.02,-36 1007.79,-35.14 1012.73,-34.11 1017.65,-32.99"/>
<polygon fill="black" stroke="black" points="1018.76,-36.32 1027.67,-30.58 1017.13,-29.51 1018.76,-36.32"/>
</g>
</g>
</svg>
