<?xml version="1.0" encoding="UTF-8" standalone="no"?>
<!DOCTYPE svg PUBLIC "-//W3C//DTD SVG 1.1//EN"
 "http://www.w3.org/Graphics/SVG/1.1/DTD/svg11.dtd">
<!-- Generated by graphviz version 2.43.0 (0)
 -->
<!-- Title: pastafarianism Pages: 1 -->
<svg width="1407pt" height="116pt"
 viewBox="0.00 0.00 1407.22 116.00" xmlns="http://www.w3.org/2000/svg" xmlns:xlink="http://www.w3.org/1999/xlink">
<g id="graph0" class="graph" transform="scale(1 1) rotate(0) translate(4 112)">
<title>pastafarianism</title>
<polygon fill="white" stroke="transparent" points="-4,4 -4,-112 1403.22,-112 1403.22,4 -4,4"/>
<!-- root -->
<g id="node1" class="node">
<title>root</title>
<polygon fill="orange" stroke="black" points="617.02,-108 563.02,-108 563.02,-72 617.02,-72 617.02,-108"/>
<text text-anchor="middle" x="590.02" y="-87.8" font-family="Times,serif" font-size="9.00">Ⓜ root</text>
</g>
<!-- Dummy -->
<g id="node2" class="node">
<title>Dummy</title>
<ellipse fill="gray" stroke="black" cx="30.02" cy="-18" rx="30.04" ry="18"/>
<text text-anchor="middle" x="30.02" y="-15.8" font-family="Times,serif" font-size="9.00">Dummy</text>
</g>
<!-- root&#45;&gt;Dummy -->
<g id="edge1" class="edge">
<title>root&#45;&gt;Dummy</title>
<path fill="none" stroke="black" d="M562.94,-89.17C484.88,-89.03 253.28,-84.27 69.02,-36 66.58,-35.36 64.1,-34.59 61.63,-33.73"/>
<polygon fill="black" stroke="black" points="62.87,-30.46 52.28,-30.11 60.34,-36.99 62.87,-30.46"/>
</g>
<!-- Dummy* -->
<g id="node3" class="node">
<title>Dummy*</title>
<ellipse fill="gray" stroke="black" cx="110.02" cy="-18" rx="32.16" ry="18"/>
<text text-anchor="middle" x="110.02" y="-15.8" font-family="Times,serif" font-size="9.00">Dummy*</text>
</g>
<!-- root&#45;&gt;Dummy* -->
<g id="edge2" class="edge">
<title>root&#45;&gt;Dummy*</title>
<path fill="none" stroke="black" d="M562.9,-88.2C493.47,-85.62 304.07,-75.23 152.02,-36 149.4,-35.32 146.72,-34.52 144.05,-33.64"/>
<polygon fill="black" stroke="black" points="145.12,-30.3 134.53,-30.18 142.73,-36.88 145.12,-30.3"/>
</g>
<!-- Dummy** -->
<g id="node4" class="node">
<title>Dummy**</title>
<ellipse fill="gray" stroke="black" cx="196.02" cy="-18" rx="35.44" ry="18"/>
<text text-anchor="middle" x="196.02" y="-15.8" font-family="Times,serif" font-size="9.00">Dummy**</text>
</g>
<!-- root&#45;&gt;Dummy** -->
<g id="edge3" class="edge">
<title>root&#45;&gt;Dummy**</title>
<path fill="none" stroke="black" d="M562.83,-86.92C503.42,-81.93 357.93,-67.3 240.02,-36 237.37,-35.3 234.65,-34.48 231.94,-33.61"/>
<polygon fill="black" stroke="black" points="232.83,-30.21 222.24,-30.2 230.52,-36.81 232.83,-30.21"/>
</g>
<!-- Dummy*** -->
<g id="node5" class="node">
<title>Dummy***</title>
<ellipse fill="gray" stroke="black" cx="287.02" cy="-18" rx="37.56" ry="18"/>
<text text-anchor="middle" x="287.02" y="-15.8" font-family="Times,serif" font-size="9.00">Dummy***</text>
</g>
<!-- root&#45;&gt;Dummy*** -->
<g id="edge4" class="edge">
<title>root&#45;&gt;Dummy***</title>
<path fill="none" stroke="black" d="M562.81,-84.68C515.7,-76.92 416.13,-59.22 334.02,-36 331.11,-35.18 328.12,-34.26 325.13,-33.3"/>
<polygon fill="black" stroke="black" points="326.24,-29.98 315.64,-30.09 323.99,-36.61 326.24,-29.98"/>
</g>
<!-- Dummy**** -->
<g id="node6" class="node">
<title>Dummy****</title>
<ellipse fill="gray" stroke="black" cx="383.02" cy="-18" rx="40.33" ry="18"/>
<text text-anchor="middle" x="383.02" y="-15.8" font-family="Times,serif" font-size="9.00">Dummy****</text>
</g>
<!-- root&#45;&gt;Dummy**** -->
<g id="edge5" class="edge">
<title>root&#45;&gt;Dummy****</title>
<path fill="none" stroke="black" d="M562.87,-79.99C531.37,-69.51 477.89,-51.65 432.02,-36 429.27,-35.06 426.42,-34.09 423.56,-33.1"/>
<polygon fill="black" stroke="black" points="424.44,-29.7 413.85,-29.75 422.16,-36.32 424.44,-29.7"/>
</g>
<!-- Dummy***** -->
<g id="node7" class="node">
<title>Dummy*****</title>
<ellipse fill="gray" stroke="black" cx="484.02" cy="-18" rx="42.95" ry="18"/>
<text text-anchor="middle" x="484.02" y="-15.8" font-family="Times,serif" font-size="9.00">Dummy*****</text>
</g>
<!-- root&#45;&gt;Dummy***** -->
<g id="edge6" class="edge">
<title>root&#45;&gt;Dummy*****</title>
<path fill="none" stroke="black" d="M564.09,-71.88C549.23,-62.06 530.5,-49.69 514.88,-39.38"/>
<polygon fill="black" stroke="black" points="516.38,-36.17 506.1,-33.58 512.52,-42.01 516.38,-36.17"/>
</g>
<!-- Dummy****** -->
<g id="node8" class="node">
<title>Dummy******</title>
<ellipse fill="gray" stroke="black" cx="590.02" cy="-18" rx="45.72" ry="18"/>
<text text-anchor="middle" x="590.02" y="-15.8" font-family="Times,serif" font-size="9.00">Dummy******</text>
</g>
<!-- root&#45;&gt;Dummy****** -->
<g id="edge7" class="edge">
<title>root&#45;&gt;Dummy******</title>
<path fill="none" stroke="black" d="M590.02,-71.7C590.02,-63.98 590.02,-54.71 590.02,-46.11"/>
<polygon fill="black" stroke="black" points="593.52,-46.1 590.02,-36.1 586.52,-46.1 593.52,-46.1"/>
</g>
<!-- Dummy******* -->
<g id="node9" class="node">
<title>Dummy*******</title>
<ellipse fill="gray" stroke="black" cx="702.02" cy="-18" rx="47.84" ry="18"/>
<text text-anchor="middle" x="702.02" y="-15.8" font-family="Times,serif" font-size="9.00">Dummy*******</text>
</g>
<!-- root&#45;&gt;Dummy******* -->
<g id="edge8" class="edge">
<title>root&#45;&gt;Dummy*******</title>
<path fill="none" stroke="black" d="M617.13,-72.05C632.87,-62.22 652.79,-49.77 669.38,-39.4"/>
<polygon fill="black" stroke="black" points="671.58,-42.16 678.2,-33.89 667.87,-36.22 671.58,-42.16"/>
</g>
<!-- Dummy******** -->
<g id="node10" class="node">
<title>Dummy********</title>
<ellipse fill="gray" stroke="black" cx="819.02" cy="-18" rx="50.61" ry="18"/>
<text text-anchor="middle" x="819.02" y="-15.8" font-family="Times,serif" font-size="9.00">Dummy********</text>
</g>
<!-- root&#45;&gt;Dummy******** -->
<g id="edge9" class="edge">
<title>root&#45;&gt;Dummy********</title>
<path fill="none" stroke="black" d="M617.19,-80.7C655.35,-69.03 725.37,-47.63 772.07,-33.35"/>
<polygon fill="black" stroke="black" points="773.12,-36.69 781.66,-30.42 771.07,-30 773.12,-36.69"/>
</g>
<!-- Dummy********* -->
<g id="node11" class="node">
<title>Dummy*********</title>
<ellipse fill="gray" stroke="black" cx="941.02" cy="-18" rx="53.23" ry="18"/>
<text text-anchor="middle" x="941.02" y="-15.8" font-family="Times,serif" font-size="9.00">Dummy*********</text>
</g>
<!-- root&#45;&gt;Dummy********* -->
<g id="edge10" class="edge">
<title>root&#45;&gt;Dummy*********</title>
<path fill="none" stroke="black" d="M617.28,-84.81C668.72,-76.71 783.54,-57.8 879.02,-36 883.18,-35.05 887.49,-34 891.79,-32.91"/>
<polygon fill="black" stroke="black" points="893,-36.21 901.79,-30.31 891.23,-29.44 893,-36.21"/>
</g>
<!-- Dummy********** -->
<g id="node12" class="node">
<title>Dummy**********</title>
<ellipse fill="gray" stroke="black" cx="1068.02" cy="-18" rx="56.01" ry="18"/>
<text text-anchor="middle" x="1068.02" y="-15.8" font-family="Times,serif" font-size="9.00">Dummy**********</text>
</g>
<!-- root&#45;&gt;Dummy********** -->
<g id="edge11" class="edge">
<title>root&#45;&gt;Dummy**********</title>
<path fill="none" stroke="black" d="M617.27,-86.72C683.68,-80.9 858.96,-63.96 1003.02,-36 1007.71,-35.09 1012.57,-34.03 1017.41,-32.91"/>
<polygon fill="black" stroke="black" points="1018.4,-36.27 1027.29,-30.51 1016.75,-29.47 1018.4,-36.27"/>
</g>
<!-- Dummy*********** -->
<g id="node13" class="node">
<title>Dummy***********</title>
<ellipse fill="gray" stroke="black" cx="1200.02" cy="-18" rx="58.13" ry="18"/>
<text text-anchor="middle" x="1200.02" y="-15.8" font-family="Times,serif" font-size="9.00">Dummy***********</text>
</g>
<!-- root&#45;&gt;Dummy*********** -->
<g id="edge12" class="edge">
<title>root&#45;&gt;Dummy***********</title>
<path fill="none" stroke="black" d="M617.05,-87.81C696.64,-83.99 936.84,-70.26 1133.02,-36 1137.99,-35.13 1143.14,-34.09 1148.27,-32.96"/>
<polygon fill="black" stroke="black" points="1149.11,-36.35 1158.06,-30.68 1147.52,-29.54 1149.11,-36.35"/>
</g>
<!-- Dummy************ -->
<g id="node14" class="node">
<title>Dummy************</title>
<ellipse fill="gray" stroke="black" cx="1338.02" cy="-18" rx="61.4" ry="18"/>
<text text-anchor="middle" x="1338.02" y="-15.8" font-family="Times,serif" font-size="9.00">Dummy************</text>
</g>
<!-- root&#45;&gt;Dummy************ -->
<g id="edge13" class="edge">
<title>root&#45;&gt;Dummy************</title>
<path fill="none" stroke="black" d="M617.29,-88.4C709.31,-86.04 1016.65,-75.52 1267.02,-36 1272.72,-35.1 1278.63,-33.98 1284.5,-32.76"/>
<polygon fill="black" stroke="black" points="1285.29,-36.17 1294.3,-30.6 1283.79,-29.33 1285.29,-36.17"/>
</g>
</g>
</svg>
