<?xml version="1.0" encoding="UTF-8" standalone="no"?>
<!DOCTYPE svg PUBLIC "-//W3C//DTD SVG 1.1//EN"
 "http://www.w3.org/Graphics/SVG/1.1/DTD/svg11.dtd">
<!-- Generated by graphviz version 2.43.0 (0)
 -->
<!-- Title: pastafarianism Pages: 1 -->
<svg width="2185pt" height="116pt"
 viewBox="0.00 0.00 2184.92 116.00" xmlns="http://www.w3.org/2000/svg" xmlns:xlink="http://www.w3.org/1999/xlink">
<g id="graph0" class="graph" transform="scale(1 1) rotate(0) translate(4 112)">
<title>pastafarianism</title>
<polygon fill="white" stroke="transparent" points="-4,4 -4,-112 2180.92,-112 2180.92,4 -4,4"/>
<!-- root -->
<g id="node1" class="node">
<title>root</title>
<polygon fill="orange" stroke="black" points="907.02,-108 853.02,-108 853.02,-72 907.02,-72 907.02,-108"/>
<text text-anchor="middle" x="880.02" y="-87.8" font-family="Times,serif" font-size="9.00">Ⓜ root</text>
</g>
<!-- Dummy -->
<g id="node2" class="node">
<title>Dummy</title>
<ellipse fill="gray" stroke="black" cx="30.02" cy="-18" rx="30.04" ry="18"/>
<text text-anchor="middle" x="30.02" y="-15.8" font-family="Times,serif" font-size="9.00">Dummy</text>
</g>
<!-- root&#45;&gt;Dummy -->
<g id="edge1" class="edge">
<title>root&#45;&gt;Dummy</title>
<path fill="none" stroke="black" d="M852.79,-88.48C729.47,-85.93 222.76,-73.32 69.02,-36 66.57,-35.41 64.08,-34.67 61.61,-33.83"/>
<polygon fill="black" stroke="black" points="62.84,-30.56 52.25,-30.26 60.34,-37.1 62.84,-30.56"/>
</g>
<!-- Dummy* -->
<g id="node3" class="node">
<title>Dummy*</title>
<ellipse fill="gray" stroke="black" cx="110.02" cy="-18" rx="32.16" ry="18"/>
<text text-anchor="middle" x="110.02" y="-15.8" font-family="Times,serif" font-size="9.00">Dummy*</text>
</g>
<!-- root&#45;&gt;Dummy* -->
<g id="edge2" class="edge">
<title>root&#45;&gt;Dummy*</title>
<path fill="none" stroke="black" d="M852.94,-88.16C737.89,-84.4 289.33,-67.95 152.02,-36 149.22,-35.35 146.36,-34.54 143.52,-33.62"/>
<polygon fill="black" stroke="black" points="144.63,-30.3 134.03,-30.21 142.26,-36.89 144.63,-30.3"/>
</g>
<!-- Dummy** -->
<g id="node4" class="node">
<title>Dummy**</title>
<ellipse fill="gray" stroke="black" cx="196.02" cy="-18" rx="35.44" ry="18"/>
<text text-anchor="middle" x="196.02" y="-15.8" font-family="Times,serif" font-size="9.00">Dummy**</text>
</g>
<!-- root&#45;&gt;Dummy** -->
<g id="edge3" class="edge">
<title>root&#45;&gt;Dummy**</title>
<path fill="none" stroke="black" d="M852.77,-89.5C763.55,-90.55 472.56,-89.38 240.02,-36 237.18,-35.35 234.27,-34.55 231.38,-33.65"/>
<polygon fill="black" stroke="black" points="232.29,-30.26 221.69,-30.33 230.02,-36.88 232.29,-30.26"/>
</g>
<!-- Dummy*** -->
<g id="node5" class="node">
<title>Dummy***</title>
<ellipse fill="gray" stroke="black" cx="287.02" cy="-18" rx="37.56" ry="18"/>
<text text-anchor="middle" x="287.02" y="-15.8" font-family="Times,serif" font-size="9.00">Dummy***</text>
</g>
<!-- root&#45;&gt;Dummy*** -->
<g id="edge4" class="edge">
<title>root&#45;&gt;Dummy***</title>
<path fill="none" stroke="black" d="M852.94,-88.75C772.7,-87.52 529.58,-80.12 334.02,-36 330.99,-35.32 327.88,-34.49 324.78,-33.57"/>
<polygon fill="black" stroke="black" points="325.61,-30.16 315.01,-30.42 323.45,-36.82 325.61,-30.16"/>
</g>
<!-- Dummy**** -->
<g id="node6" class="node">
<title>Dummy****</title>
<ellipse fill="gray" stroke="black" cx="383.02" cy="-18" rx="40.33" ry="18"/>
<text text-anchor="middle" x="383.02" y="-15.8" font-family="Times,serif" font-size="9.00">Dummy****</text>
</g>
<!-- root&#45;&gt;Dummy**** -->
<g id="edge5" class="edge">
<title>root&#45;&gt;Dummy****</title>
<path fill="none" stroke="black" d="M852.91,-87.83C782.59,-84.37 588.88,-72.04 432.02,-36 428.82,-35.26 425.53,-34.39 422.25,-33.44"/>
<polygon fill="black" stroke="black" points="423.11,-30.04 412.52,-30.38 421.01,-36.72 423.11,-30.04"/>
</g>
<!-- Dummy***** -->
<g id="node7" class="node">
<title>Dummy*****</title>
<ellipse fill="gray" stroke="black" cx="484.02" cy="-18" rx="42.95" ry="18"/>
<text text-anchor="middle" x="484.02" y="-15.8" font-family="Times,serif" font-size="9.00">Dummy*****</text>
</g>
<!-- root&#45;&gt;Dummy***** -->
<g id="edge6" class="edge">
<title>root&#45;&gt;Dummy*****</title>
<path fill="none" stroke="black" d="M852.88,-86.41C794.25,-80.47 651.65,-64.18 535.02,-36 531.8,-35.22 528.49,-34.33 525.18,-33.38"/>
<polygon fill="black" stroke="black" points="525.92,-29.94 515.34,-30.36 523.88,-36.64 525.92,-29.94"/>
</g>
<!-- Dummy****** -->
<g id="node8" class="node">
<title>Dummy******</title>
<ellipse fill="gray" stroke="black" cx="590.02" cy="-18" rx="45.72" ry="18"/>
<text text-anchor="middle" x="590.02" y="-15.8" font-family="Times,serif" font-size="9.00">Dummy******</text>
</g>
<!-- root&#45;&gt;Dummy****** -->
<g id="edge7" class="edge">
<title>root&#45;&gt;Dummy******</title>
<path fill="none" stroke="black" d="M852.71,-83.56C808.73,-74.64 719.58,-55.9 645.02,-36 641.43,-35.04 637.72,-34 634.01,-32.93"/>
<polygon fill="black" stroke="black" points="634.81,-29.52 624.23,-30.03 632.82,-36.23 634.81,-29.52"/>
</g>
<!-- Dummy******* -->
<g id="node9" class="node">
<title>Dummy*******</title>
<ellipse fill="gray" stroke="black" cx="702.02" cy="-18" rx="47.84" ry="18"/>
<text text-anchor="middle" x="702.02" y="-15.8" font-family="Times,serif" font-size="9.00">Dummy*******</text>
</g>
<!-- root&#45;&gt;Dummy******* -->
<g id="edge8" class="edge">
<title>root&#45;&gt;Dummy*******</title>
<path fill="none" stroke="black" d="M852.99,-78.37C823.87,-66.92 777.17,-48.55 743.42,-35.28"/>
<polygon fill="black" stroke="black" points="744.42,-31.91 733.83,-31.51 741.86,-38.43 744.42,-31.91"/>
</g>
<!-- Dummy******** -->
<g id="node10" class="node">
<title>Dummy********</title>
<ellipse fill="gray" stroke="black" cx="819.02" cy="-18" rx="50.61" ry="18"/>
<text text-anchor="middle" x="819.02" y="-15.8" font-family="Times,serif" font-size="9.00">Dummy********</text>
</g>
<!-- root&#45;&gt;Dummy******** -->
<g id="edge9" class="edge">
<title>root&#45;&gt;Dummy********</title>
<path fill="none" stroke="black" d="M864.94,-71.7C857.45,-63.09 848.26,-52.55 840.08,-43.17"/>
<polygon fill="black" stroke="black" points="842.72,-40.86 833.51,-35.62 837.44,-45.46 842.72,-40.86"/>
</g>
<!-- Dummy********* -->
<g id="node11" class="node">
<title>Dummy*********</title>
<ellipse fill="gray" stroke="black" cx="941.02" cy="-18" rx="53.23" ry="18"/>
<text text-anchor="middle" x="941.02" y="-15.8" font-family="Times,serif" font-size="9.00">Dummy*********</text>
</g>
<!-- root&#45;&gt;Dummy********* -->
<g id="edge10" class="edge">
<title>root&#45;&gt;Dummy*********</title>
<path fill="none" stroke="black" d="M895.1,-71.7C902.6,-63.09 911.78,-52.55 919.96,-43.17"/>
<polygon fill="black" stroke="black" points="922.61,-45.46 926.54,-35.62 917.33,-40.86 922.61,-45.46"/>
</g>
<!-- Dummy********** -->
<g id="node12" class="node">
<title>Dummy**********</title>
<ellipse fill="gray" stroke="black" cx="1068.02" cy="-18" rx="56.01" ry="18"/>
<text text-anchor="middle" x="1068.02" y="-15.8" font-family="Times,serif" font-size="9.00">Dummy**********</text>
</g>
<!-- root&#45;&gt;Dummy********** -->
<g id="edge11" class="edge">
<title>root&#45;&gt;Dummy**********</title>
<path fill="none" stroke="black" d="M907.36,-78.82C937.71,-67.52 987.15,-49.11 1023.18,-35.7"/>
<polygon fill="black" stroke="black" points="1024.81,-38.82 1032.96,-32.05 1022.37,-32.26 1024.81,-38.82"/>
</g>
<!-- Dummy*********** -->
<g id="node13" class="node">
<title>Dummy***********</title>
<ellipse fill="gray" stroke="black" cx="1200.02" cy="-18" rx="58.13" ry="18"/>
<text text-anchor="middle" x="1200.02" y="-15.8" font-family="Times,serif" font-size="9.00">Dummy***********</text>
</g>
<!-- root&#45;&gt;Dummy*********** -->
<g id="edge12" class="edge">
<title>root&#45;&gt;Dummy***********</title>
<path fill="none" stroke="black" d="M907.06,-83.72C953.43,-74.59 1051.05,-54.98 1133.02,-36 1137.6,-34.94 1142.35,-33.81 1147.11,-32.64"/>
<polygon fill="black" stroke="black" points="1147.97,-36.04 1156.84,-30.24 1146.29,-29.24 1147.97,-36.04"/>
</g>
<!-- Dummy************ -->
<g id="node14" class="node">
<title>Dummy************</title>
<ellipse fill="gray" stroke="black" cx="1338.02" cy="-18" rx="61.4" ry="18"/>
<text text-anchor="middle" x="1338.02" y="-15.8" font-family="Times,serif" font-size="9.00">Dummy************</text>
</g>
<!-- root&#45;&gt;Dummy************ -->
<g id="edge13" class="edge">
<title>root&#45;&gt;Dummy************</title>
<path fill="none" stroke="black" d="M907.38,-86.19C970.88,-79.48 1133.05,-61.15 1267.02,-36 1272.39,-34.99 1277.97,-33.84 1283.53,-32.62"/>
<polygon fill="black" stroke="black" points="1284.49,-35.99 1293.47,-30.38 1282.95,-29.17 1284.49,-35.99"/>
</g>
<!-- Dummy************* -->
<g id="node15" class="node">
<title>Dummy*************</title>
<ellipse fill="gray" stroke="black" cx="1481.02" cy="-18" rx="63.52" ry="18"/>
<text text-anchor="middle" x="1481.02" y="-15.8" font-family="Times,serif" font-size="9.00">Dummy*************</text>
</g>
<!-- root&#45;&gt;Dummy************* -->
<g id="edge14" class="edge">
<title>root&#45;&gt;Dummy*************</title>
<path fill="none" stroke="black" d="M907.11,-87.52C985.24,-82.97 1217.62,-67.59 1408.02,-36 1413.7,-35.06 1419.59,-33.94 1425.45,-32.72"/>
<polygon fill="black" stroke="black" points="1426.21,-36.14 1435.25,-30.61 1424.74,-29.29 1426.21,-36.14"/>
</g>
<!-- Dummy************** -->
<g id="node16" class="node">
<title>Dummy**************</title>
<ellipse fill="gray" stroke="black" cx="1629.02" cy="-18" rx="66.29" ry="18"/>
<text text-anchor="middle" x="1629.02" y="-15.8" font-family="Times,serif" font-size="9.00">Dummy**************</text>
</g>
<!-- root&#45;&gt;Dummy************** -->
<g id="edge15" class="edge">
<title>root&#45;&gt;Dummy**************</title>
<path fill="none" stroke="black" d="M907.15,-88.27C998.71,-85.52 1304.53,-73.88 1554.02,-36 1559.86,-35.11 1565.91,-34.03 1571.94,-32.84"/>
<polygon fill="black" stroke="black" points="1572.93,-36.2 1582.01,-30.75 1571.51,-29.35 1572.93,-36.2"/>
</g>
<!-- Dummy*************** -->
<g id="node17" class="node">
<title>Dummy***************</title>
<ellipse fill="gray" stroke="black" cx="1782.02" cy="-18" rx="68.91" ry="18"/>
<text text-anchor="middle" x="1782.02" y="-15.8" font-family="Times,serif" font-size="9.00">Dummy***************</text>
</g>
<!-- root&#45;&gt;Dummy*************** -->
<g id="edge16" class="edge">
<title>root&#45;&gt;Dummy***************</title>
<path fill="none" stroke="black" d="M907.2,-88.73C1011.13,-87.4 1393.13,-79.63 1704.02,-36 1710.24,-35.13 1716.69,-34.03 1723.11,-32.82"/>
<polygon fill="black" stroke="black" points="1724,-36.21 1733.13,-30.83 1722.64,-29.35 1724,-36.21"/>
</g>
<!-- Dummy**************** -->
<g id="node18" class="node">
<title>Dummy****************</title>
<ellipse fill="gray" stroke="black" cx="1940.02" cy="-18" rx="71.68" ry="18"/>
<text text-anchor="middle" x="1940.02" y="-15.8" font-family="Times,serif" font-size="9.00">Dummy****************</text>
</g>
<!-- root&#45;&gt;Dummy**************** -->
<g id="edge17" class="edge">
<title>root&#45;&gt;Dummy****************</title>
<path fill="none" stroke="black" d="M907.06,-89.07C1022.4,-89.06 1484.62,-85.73 1860.02,-36 1866.4,-35.16 1873.02,-34.08 1879.6,-32.88"/>
<polygon fill="black" stroke="black" points="1880.71,-36.23 1889.87,-30.9 1879.39,-29.35 1880.71,-36.23"/>
</g>
<!-- Dummy***************** -->
<g id="node19" class="node">
<title>Dummy*****************</title>
<ellipse fill="gray" stroke="black" cx="2103.02" cy="-18" rx="73.8" ry="18"/>
<text text-anchor="middle" x="2103.02" y="-15.8" font-family="Times,serif" font-size="9.00">Dummy*****************</text>
</g>
<!-- root&#45;&gt;Dummy***************** -->
<g id="edge18" class="edge">
<title>root&#45;&gt;Dummy*****************</title>
<path fill="none" stroke="black" d="M907.11,-89.32C1033.63,-90.46 1578.84,-91.75 2021.02,-36 2027.71,-35.16 2034.66,-34.06 2041.57,-32.83"/>
<polygon fill="black" stroke="black" points="2042.43,-36.23 2051.61,-30.95 2041.14,-29.35 2042.43,-36.23"/>
</g>
</g>
</svg>
