<?xml version="1.0" encoding="UTF-8" standalone="no"?>
<!DOCTYPE svg PUBLIC "-//W3C//DTD SVG 1.1//EN"
 "http://www.w3.org/Graphics/SVG/1.1/DTD/svg11.dtd">
<!-- Generated by graphviz version 2.43.0 (0)
 -->
<!-- Title: pastafarianism Pages: 1 -->
<svg width="2357pt" height="116pt"
 viewBox="0.00 0.00 2356.81 116.00" xmlns="http://www.w3.org/2000/svg" xmlns:xlink="http://www.w3.org/1999/xlink">
<g id="graph0" class="graph" transform="scale(1 1) rotate(0) translate(4 112)">
<title>pastafarianism</title>
<polygon fill="white" stroke="transparent" points="-4,4 -4,-112 2352.81,-112 2352.81,4 -4,4"/>
<!-- root -->
<g id="node1" class="node">
<title>root</title>
<polygon fill="orange" stroke="black" points="968.02,-108 914.02,-108 914.02,-72 968.02,-72 968.02,-108"/>
<text text-anchor="middle" x="941.02" y="-87.8" font-family="Times,serif" font-size="9.00">Ⓜ root</text>
</g>
<!-- Dummy -->
<g id="node2" class="node">
<title>Dummy</title>
<ellipse fill="gray" stroke="black" cx="30.02" cy="-18" rx="30.04" ry="18"/>
<text text-anchor="middle" x="30.02" y="-15.8" font-family="Times,serif" font-size="9.00">Dummy</text>
</g>
<!-- root&#45;&gt;Dummy -->
<g id="edge1" class="edge">
<title>root&#45;&gt;Dummy</title>
<path fill="none" stroke="black" d="M913.92,-88.62C785.24,-86.65 235.29,-75.96 69.02,-36 66.57,-35.41 64.08,-34.68 61.61,-33.85"/>
<polygon fill="black" stroke="black" points="62.83,-30.57 52.24,-30.27 60.34,-37.11 62.83,-30.57"/>
</g>
<!-- Dummy* -->
<g id="node3" class="node">
<title>Dummy*</title>
<ellipse fill="gray" stroke="black" cx="110.02" cy="-18" rx="32.16" ry="18"/>
<text text-anchor="middle" x="110.02" y="-15.8" font-family="Times,serif" font-size="9.00">Dummy*</text>
</g>
<!-- root&#45;&gt;Dummy* -->
<g id="edge2" class="edge">
<title>root&#45;&gt;Dummy*</title>
<path fill="none" stroke="black" d="M913.74,-88.33C792.47,-85.15 301.71,-70.39 152.02,-36 149.22,-35.36 146.36,-34.55 143.52,-33.64"/>
<polygon fill="black" stroke="black" points="144.62,-30.32 134.03,-30.23 142.26,-36.91 144.62,-30.32"/>
</g>
<!-- Dummy** -->
<g id="node4" class="node">
<title>Dummy**</title>
<ellipse fill="gray" stroke="black" cx="196.02" cy="-18" rx="35.44" ry="18"/>
<text text-anchor="middle" x="196.02" y="-15.8" font-family="Times,serif" font-size="9.00">Dummy**</text>
</g>
<!-- root&#45;&gt;Dummy** -->
<g id="edge3" class="edge">
<title>root&#45;&gt;Dummy**</title>
<path fill="none" stroke="black" d="M913.83,-88.01C801.32,-83.74 372.02,-65.81 240.02,-36 237.18,-35.36 234.27,-34.56 231.38,-33.68"/>
<polygon fill="black" stroke="black" points="232.28,-30.29 221.69,-30.36 230.02,-36.91 232.28,-30.29"/>
</g>
<!-- Dummy*** -->
<g id="node5" class="node">
<title>Dummy***</title>
<ellipse fill="gray" stroke="black" cx="287.02" cy="-18" rx="37.56" ry="18"/>
<text text-anchor="middle" x="287.02" y="-15.8" font-family="Times,serif" font-size="9.00">Dummy***</text>
</g>
<!-- root&#45;&gt;Dummy*** -->
<g id="edge4" class="edge">
<title>root&#45;&gt;Dummy***</title>
<path fill="none" stroke="black" d="M914.02,-89.12C828.15,-88.99 554.05,-84.53 334.02,-36 330.8,-35.29 327.5,-34.42 324.22,-33.44"/>
<polygon fill="black" stroke="black" points="325.1,-30.05 314.5,-30.29 322.93,-36.71 325.1,-30.05"/>
</g>
<!-- Dummy**** -->
<g id="node6" class="node">
<title>Dummy****</title>
<ellipse fill="gray" stroke="black" cx="383.02" cy="-18" rx="40.33" ry="18"/>
<text text-anchor="middle" x="383.02" y="-15.8" font-family="Times,serif" font-size="9.00">Dummy****</text>
</g>
<!-- root&#45;&gt;Dummy**** -->
<g id="edge5" class="edge">
<title>root&#45;&gt;Dummy****</title>
<path fill="none" stroke="black" d="M913.91,-88.37C837.3,-86.1 613.06,-76.27 432.02,-36 428.81,-35.29 425.52,-34.43 422.24,-33.49"/>
<polygon fill="black" stroke="black" points="423.09,-30.09 412.51,-30.45 421.01,-36.77 423.09,-30.09"/>
</g>
<!-- Dummy***** -->
<g id="node7" class="node">
<title>Dummy*****</title>
<ellipse fill="gray" stroke="black" cx="484.02" cy="-18" rx="42.95" ry="18"/>
<text text-anchor="middle" x="484.02" y="-15.8" font-family="Times,serif" font-size="9.00">Dummy*****</text>
</g>
<!-- root&#45;&gt;Dummy***** -->
<g id="edge6" class="edge">
<title>root&#45;&gt;Dummy*****</title>
<path fill="none" stroke="black" d="M913.62,-87.25C847.7,-82.63 675.31,-68.22 535.02,-36 531.65,-35.22 528.18,-34.32 524.71,-33.33"/>
<polygon fill="black" stroke="black" points="525.62,-29.95 515.04,-30.39 523.59,-36.65 525.62,-29.95"/>
</g>
<!-- Dummy****** -->
<g id="node8" class="node">
<title>Dummy******</title>
<ellipse fill="gray" stroke="black" cx="590.02" cy="-18" rx="45.72" ry="18"/>
<text text-anchor="middle" x="590.02" y="-15.8" font-family="Times,serif" font-size="9.00">Dummy******</text>
</g>
<!-- root&#45;&gt;Dummy****** -->
<g id="edge7" class="edge">
<title>root&#45;&gt;Dummy******</title>
<path fill="none" stroke="black" d="M913.85,-85.27C861.45,-77.84 742.93,-59.8 645.02,-36 641.36,-35.11 637.58,-34.11 633.8,-33.06"/>
<polygon fill="black" stroke="black" points="634.45,-29.6 623.87,-30.18 632.5,-36.33 634.45,-29.6"/>
</g>
<!-- Dummy******* -->
<g id="node9" class="node">
<title>Dummy*******</title>
<ellipse fill="gray" stroke="black" cx="702.02" cy="-18" rx="47.84" ry="18"/>
<text text-anchor="middle" x="702.02" y="-15.8" font-family="Times,serif" font-size="9.00">Dummy*******</text>
</g>
<!-- root&#45;&gt;Dummy******* -->
<g id="edge8" class="edge">
<title>root&#45;&gt;Dummy*******</title>
<path fill="none" stroke="black" d="M913.87,-81.15C878.29,-70.86 813.95,-52.19 759.02,-36 755.44,-34.95 751.74,-33.85 748.02,-32.75"/>
<polygon fill="black" stroke="black" points="748.78,-29.32 738.2,-29.83 746.78,-36.03 748.78,-29.32"/>
</g>
<!-- Dummy******** -->
<g id="node10" class="node">
<title>Dummy********</title>
<ellipse fill="gray" stroke="black" cx="819.02" cy="-18" rx="50.61" ry="18"/>
<text text-anchor="middle" x="819.02" y="-15.8" font-family="Times,serif" font-size="9.00">Dummy********</text>
</g>
<!-- root&#45;&gt;Dummy******** -->
<g id="edge9" class="edge">
<title>root&#45;&gt;Dummy********</title>
<path fill="none" stroke="black" d="M913.95,-73.46C896.13,-63.24 872.65,-49.77 853.5,-38.78"/>
<polygon fill="black" stroke="black" points="855.19,-35.71 844.77,-33.77 851.7,-41.79 855.19,-35.71"/>
</g>
<!-- Dummy********* -->
<g id="node11" class="node">
<title>Dummy*********</title>
<ellipse fill="gray" stroke="black" cx="941.02" cy="-18" rx="53.23" ry="18"/>
<text text-anchor="middle" x="941.02" y="-15.8" font-family="Times,serif" font-size="9.00">Dummy*********</text>
</g>
<!-- root&#45;&gt;Dummy********* -->
<g id="edge10" class="edge">
<title>root&#45;&gt;Dummy*********</title>
<path fill="none" stroke="black" d="M941.02,-71.7C941.02,-63.98 941.02,-54.71 941.02,-46.11"/>
<polygon fill="black" stroke="black" points="944.52,-46.1 941.02,-36.1 937.52,-46.1 944.52,-46.1"/>
</g>
<!-- Dummy********** -->
<g id="node12" class="node">
<title>Dummy**********</title>
<ellipse fill="gray" stroke="black" cx="1068.02" cy="-18" rx="56.01" ry="18"/>
<text text-anchor="middle" x="1068.02" y="-15.8" font-family="Times,serif" font-size="9.00">Dummy**********</text>
</g>
<!-- root&#45;&gt;Dummy********** -->
<g id="edge11" class="edge">
<title>root&#45;&gt;Dummy**********</title>
<path fill="none" stroke="black" d="M968.27,-73.98C986.85,-63.74 1011.66,-50.07 1031.89,-38.92"/>
<polygon fill="black" stroke="black" points="1033.75,-41.88 1040.82,-33.99 1030.38,-35.75 1033.75,-41.88"/>
</g>
<!-- Dummy*********** -->
<g id="node13" class="node">
<title>Dummy***********</title>
<ellipse fill="gray" stroke="black" cx="1200.02" cy="-18" rx="58.13" ry="18"/>
<text text-anchor="middle" x="1200.02" y="-15.8" font-family="Times,serif" font-size="9.00">Dummy***********</text>
</g>
<!-- root&#45;&gt;Dummy*********** -->
<g id="edge12" class="edge">
<title>root&#45;&gt;Dummy***********</title>
<path fill="none" stroke="black" d="M968.25,-81.64C1010.68,-70.17 1093.31,-47.84 1147.58,-33.17"/>
<polygon fill="black" stroke="black" points="1148.63,-36.52 1157.37,-30.53 1146.8,-29.76 1148.63,-36.52"/>
</g>
<!-- Dummy************ -->
<g id="node14" class="node">
<title>Dummy************</title>
<ellipse fill="gray" stroke="black" cx="1338.02" cy="-18" rx="61.4" ry="18"/>
<text text-anchor="middle" x="1338.02" y="-15.8" font-family="Times,serif" font-size="9.00">Dummy************</text>
</g>
<!-- root&#45;&gt;Dummy************ -->
<g id="edge13" class="edge">
<title>root&#45;&gt;Dummy************</title>
<path fill="none" stroke="black" d="M968.19,-85.28C1024.28,-77.44 1156.83,-58.12 1267.02,-36 1272.3,-34.94 1277.79,-33.76 1283.26,-32.54"/>
<polygon fill="black" stroke="black" points="1284.09,-35.94 1293.06,-30.29 1282.53,-29.11 1284.09,-35.94"/>
</g>
<!-- Dummy************* -->
<g id="node15" class="node">
<title>Dummy*************</title>
<ellipse fill="gray" stroke="black" cx="1481.02" cy="-18" rx="63.52" ry="18"/>
<text text-anchor="middle" x="1481.02" y="-15.8" font-family="Times,serif" font-size="9.00">Dummy*************</text>
</g>
<!-- root&#45;&gt;Dummy************* -->
<g id="edge14" class="edge">
<title>root&#45;&gt;Dummy*************</title>
<path fill="none" stroke="black" d="M968.03,-87.04C1039.95,-81.57 1241.98,-64.66 1408.02,-36 1413.69,-35.02 1419.58,-33.87 1425.44,-32.65"/>
<polygon fill="black" stroke="black" points="1426.21,-36.06 1435.24,-30.52 1424.72,-29.22 1426.21,-36.06"/>
</g>
<!-- Dummy************** -->
<g id="node16" class="node">
<title>Dummy**************</title>
<ellipse fill="gray" stroke="black" cx="1629.02" cy="-18" rx="66.29" ry="18"/>
<text text-anchor="middle" x="1629.02" y="-15.8" font-family="Times,serif" font-size="9.00">Dummy**************</text>
</g>
<!-- root&#45;&gt;Dummy************** -->
<g id="edge15" class="edge">
<title>root&#45;&gt;Dummy**************</title>
<path fill="none" stroke="black" d="M968.07,-87.98C1054.13,-84.46 1329.21,-71.03 1554.02,-36 1559.77,-35.1 1565.73,-34.02 1571.67,-32.84"/>
<polygon fill="black" stroke="black" points="1572.52,-36.24 1581.6,-30.78 1571.1,-29.39 1572.52,-36.24"/>
</g>
<!-- Dummy*************** -->
<g id="node17" class="node">
<title>Dummy***************</title>
<ellipse fill="gray" stroke="black" cx="1782.02" cy="-18" rx="68.91" ry="18"/>
<text text-anchor="middle" x="1782.02" y="-15.8" font-family="Times,serif" font-size="9.00">Dummy***************</text>
</g>
<!-- root&#45;&gt;Dummy*************** -->
<g id="edge16" class="edge">
<title>root&#45;&gt;Dummy***************</title>
<path fill="none" stroke="black" d="M968.2,-88.54C1067.27,-86.55 1418.12,-76.86 1704.02,-36 1710.23,-35.11 1716.69,-34.01 1723.11,-32.79"/>
<polygon fill="black" stroke="black" points="1724,-36.18 1733.12,-30.79 1722.63,-29.31 1724,-36.18"/>
</g>
<!-- Dummy**************** -->
<g id="node18" class="node">
<title>Dummy****************</title>
<ellipse fill="gray" stroke="black" cx="1940.02" cy="-18" rx="71.68" ry="18"/>
<text text-anchor="middle" x="1940.02" y="-15.8" font-family="Times,serif" font-size="9.00">Dummy****************</text>
</g>
<!-- root&#45;&gt;Dummy**************** -->
<g id="edge17" class="edge">
<title>root&#45;&gt;Dummy****************</title>
<path fill="none" stroke="black" d="M968.23,-88.93C1079.42,-88.35 1509.98,-83.01 1860.02,-36 1866.39,-35.14 1873.02,-34.06 1879.6,-32.85"/>
<polygon fill="black" stroke="black" points="1880.71,-36.2 1889.87,-30.87 1879.39,-29.33 1880.71,-36.2"/>
</g>
<!-- Dummy***************** -->
<g id="node19" class="node">
<title>Dummy*****************</title>
<ellipse fill="gray" stroke="black" cx="2103.02" cy="-18" rx="73.8" ry="18"/>
<text text-anchor="middle" x="2103.02" y="-15.8" font-family="Times,serif" font-size="9.00">Dummy*****************</text>
</g>
<!-- root&#45;&gt;Dummy***************** -->
<g id="edge18" class="edge">
<title>root&#45;&gt;Dummy*****************</title>
<path fill="none" stroke="black" d="M968.29,-89.22C1091.01,-89.86 1604.35,-89.09 2021.02,-36 2027.71,-35.15 2034.66,-34.05 2041.57,-32.82"/>
<polygon fill="black" stroke="black" points="2042.43,-36.22 2051.61,-30.93 2041.14,-29.34 2042.43,-36.22"/>
</g>
<!-- Dummy****************** -->
<g id="node20" class="node">
<title>Dummy******************</title>
<ellipse fill="gray" stroke="black" cx="2272.02" cy="-18" rx="76.58" ry="18"/>
<text text-anchor="middle" x="2272.02" y="-15.8" font-family="Times,serif" font-size="9.00">Dummy******************</text>
</g>
<!-- root&#45;&gt;Dummy****************** -->
<g id="edge19" class="edge">
<title>root&#45;&gt;Dummy******************</title>
<path fill="none" stroke="black" d="M968.31,-89.38C1101.94,-90.89 1700.54,-93.97 2186.02,-36 2193.19,-35.14 2200.66,-34.02 2208.06,-32.76"/>
<polygon fill="black" stroke="black" points="2208.86,-36.17 2218.09,-30.97 2207.63,-29.28 2208.86,-36.17"/>
</g>
</g>
</svg>
