<?xml version="1.0" encoding="UTF-8" standalone="no"?>
<!DOCTYPE svg PUBLIC "-//W3C//DTD SVG 1.1//EN"
 "http://www.w3.org/Graphics/SVG/1.1/DTD/svg11.dtd">
<!-- Generated by graphviz version 2.43.0 (0)
 -->
<!-- Title: pastafarianism Pages: 1 -->
<svg width="2533pt" height="116pt"
 viewBox="0.00 0.00 2533.12 116.00" xmlns="http://www.w3.org/2000/svg" xmlns:xlink="http://www.w3.org/1999/xlink">
<g id="graph0" class="graph" transform="scale(1 1) rotate(0) translate(4 112)">
<title>pastafarianism</title>
<polygon fill="white" stroke="transparent" points="-4,4 -4,-112 2529.12,-112 2529.12,4 -4,4"/>
<!-- root -->
<g id="node1" class="node">
<title>root</title>
<polygon fill="orange" stroke="black" points="1031.02,-108 977.02,-108 977.02,-72 1031.02,-72 1031.02,-108"/>
<text text-anchor="middle" x="1004.02" y="-87.8" font-family="Times,serif" font-size="9.00">Ⓜ root</text>
</g>
<!-- Dummy -->
<g id="node2" class="node">
<title>Dummy</title>
<ellipse fill="gray" stroke="black" cx="30.02" cy="-18" rx="30.04" ry="18"/>
<text text-anchor="middle" x="30.02" y="-15.8" font-family="Times,serif" font-size="9.00">Dummy</text>
</g>
<!-- root&#45;&gt;Dummy -->
<g id="edge1" class="edge">
<title>root&#45;&gt;Dummy</title>
<path fill="none" stroke="black" d="M976.77,-88.75C842.23,-87.32 248.14,-78.67 69.02,-36 66.57,-35.42 64.08,-34.69 61.6,-33.86"/>
<polygon fill="black" stroke="black" points="62.83,-30.58 52.24,-30.29 60.34,-37.12 62.83,-30.58"/>
</g>
<!-- Dummy* -->
<g id="node3" class="node">
<title>Dummy*</title>
<ellipse fill="gray" stroke="black" cx="110.02" cy="-18" rx="32.16" ry="18"/>
<text text-anchor="middle" x="110.02" y="-15.8" font-family="Times,serif" font-size="9.00">Dummy*</text>
</g>
<!-- root&#45;&gt;Dummy* -->
<g id="edge2" class="edge">
<title>root&#45;&gt;Dummy*</title>
<path fill="none" stroke="black" d="M976.72,-88.48C849.55,-85.89 314.61,-72.93 152.02,-36 149.22,-35.36 146.36,-34.56 143.51,-33.65"/>
<polygon fill="black" stroke="black" points="144.62,-30.33 134.02,-30.26 142.26,-36.92 144.62,-30.33"/>
</g>
<!-- Dummy** -->
<g id="node4" class="node">
<title>Dummy**</title>
<ellipse fill="gray" stroke="black" cx="196.02" cy="-18" rx="35.44" ry="18"/>
<text text-anchor="middle" x="196.02" y="-15.8" font-family="Times,serif" font-size="9.00">Dummy**</text>
</g>
<!-- root&#45;&gt;Dummy** -->
<g id="edge3" class="edge">
<title>root&#45;&gt;Dummy**</title>
<path fill="none" stroke="black" d="M976.82,-88.2C858.12,-84.56 384.89,-68.24 240.02,-36 237.17,-35.37 234.27,-34.58 231.37,-33.7"/>
<polygon fill="black" stroke="black" points="232.28,-30.31 221.68,-30.39 230.02,-36.93 232.28,-30.31"/>
</g>
<!-- Dummy*** -->
<g id="node5" class="node">
<title>Dummy***</title>
<ellipse fill="gray" stroke="black" cx="287.02" cy="-18" rx="37.56" ry="18"/>
<text text-anchor="middle" x="287.02" y="-15.8" font-family="Times,serif" font-size="9.00">Dummy***</text>
</g>
<!-- root&#45;&gt;Dummy*** -->
<g id="edge4" class="edge">
<title>root&#45;&gt;Dummy***</title>
<path fill="none" stroke="black" d="M976.84,-89.44C885.14,-90.37 579.22,-89.03 334.02,-36 330.8,-35.3 327.5,-34.44 324.21,-33.47"/>
<polygon fill="black" stroke="black" points="325.09,-30.08 314.49,-30.33 322.93,-36.74 325.09,-30.08"/>
</g>
<!-- Dummy**** -->
<g id="node6" class="node">
<title>Dummy****</title>
<ellipse fill="gray" stroke="black" cx="383.02" cy="-18" rx="40.33" ry="18"/>
<text text-anchor="middle" x="383.02" y="-15.8" font-family="Times,serif" font-size="9.00">Dummy****</text>
</g>
<!-- root&#45;&gt;Dummy**** -->
<g id="edge5" class="edge">
<title>root&#45;&gt;Dummy****</title>
<path fill="none" stroke="black" d="M976.87,-88.8C894.12,-87.69 638.18,-80.62 432.02,-36 428.81,-35.3 425.52,-34.46 422.23,-33.53"/>
<polygon fill="black" stroke="black" points="423.08,-30.13 412.49,-30.51 421.01,-36.81 423.08,-30.13"/>
</g>
<!-- Dummy***** -->
<g id="node7" class="node">
<title>Dummy*****</title>
<ellipse fill="gray" stroke="black" cx="484.02" cy="-18" rx="42.95" ry="18"/>
<text text-anchor="middle" x="484.02" y="-15.8" font-family="Times,serif" font-size="9.00">Dummy*****</text>
</g>
<!-- root&#45;&gt;Dummy***** -->
<g id="edge6" class="edge">
<title>root&#45;&gt;Dummy*****</title>
<path fill="none" stroke="black" d="M977,-87.92C904.58,-84.61 700.46,-72.5 535.02,-36 531.64,-35.25 528.16,-34.37 524.7,-33.39"/>
<polygon fill="black" stroke="black" points="525.6,-30.01 515.02,-30.48 523.58,-36.71 525.6,-30.01"/>
</g>
<!-- Dummy****** -->
<g id="node8" class="node">
<title>Dummy******</title>
<ellipse fill="gray" stroke="black" cx="590.02" cy="-18" rx="45.72" ry="18"/>
<text text-anchor="middle" x="590.02" y="-15.8" font-family="Times,serif" font-size="9.00">Dummy******</text>
</g>
<!-- root&#45;&gt;Dummy****** -->
<g id="edge7" class="edge">
<title>root&#45;&gt;Dummy******</title>
<path fill="none" stroke="black" d="M976.74,-86.41C916.4,-80.38 767.29,-63.75 645.02,-36 641.18,-35.13 637.23,-34.12 633.28,-33.05"/>
<polygon fill="black" stroke="black" points="634.12,-29.65 623.54,-30.25 632.19,-36.38 634.12,-29.65"/>
</g>
<!-- Dummy******* -->
<g id="node9" class="node">
<title>Dummy*******</title>
<ellipse fill="gray" stroke="black" cx="702.02" cy="-18" rx="47.84" ry="18"/>
<text text-anchor="middle" x="702.02" y="-15.8" font-family="Times,serif" font-size="9.00">Dummy*******</text>
</g>
<!-- root&#45;&gt;Dummy******* -->
<g id="edge8" class="edge">
<title>root&#45;&gt;Dummy*******</title>
<path fill="none" stroke="black" d="M976.67,-83.8C931.23,-74.99 837.42,-56.14 759.02,-36 755.25,-35.03 751.35,-33.98 747.44,-32.89"/>
<polygon fill="black" stroke="black" points="748.36,-29.51 737.78,-30.12 746.44,-36.24 748.36,-29.51"/>
</g>
<!-- Dummy******** -->
<g id="node10" class="node">
<title>Dummy********</title>
<ellipse fill="gray" stroke="black" cx="819.02" cy="-18" rx="50.61" ry="18"/>
<text text-anchor="middle" x="819.02" y="-15.8" font-family="Times,serif" font-size="9.00">Dummy********</text>
</g>
<!-- root&#45;&gt;Dummy******** -->
<g id="edge9" class="edge">
<title>root&#45;&gt;Dummy********</title>
<path fill="none" stroke="black" d="M976.72,-78.67C946.5,-67.23 897.37,-48.65 861.98,-35.25"/>
<polygon fill="black" stroke="black" points="862.98,-31.89 852.39,-31.62 860.5,-38.44 862.98,-31.89"/>
</g>
<!-- Dummy********* -->
<g id="node11" class="node">
<title>Dummy*********</title>
<ellipse fill="gray" stroke="black" cx="941.02" cy="-18" rx="53.23" ry="18"/>
<text text-anchor="middle" x="941.02" y="-15.8" font-family="Times,serif" font-size="9.00">Dummy*********</text>
</g>
<!-- root&#45;&gt;Dummy********* -->
<g id="edge10" class="edge">
<title>root&#45;&gt;Dummy*********</title>
<path fill="none" stroke="black" d="M988.45,-71.7C980.71,-63.09 971.22,-52.55 962.77,-43.17"/>
<polygon fill="black" stroke="black" points="965.27,-40.71 955.98,-35.62 960.07,-45.4 965.27,-40.71"/>
</g>
<!-- Dummy********** -->
<g id="node12" class="node">
<title>Dummy**********</title>
<ellipse fill="gray" stroke="black" cx="1068.02" cy="-18" rx="56.01" ry="18"/>
<text text-anchor="middle" x="1068.02" y="-15.8" font-family="Times,serif" font-size="9.00">Dummy**********</text>
</g>
<!-- root&#45;&gt;Dummy********** -->
<g id="edge11" class="edge">
<title>root&#45;&gt;Dummy**********</title>
<path fill="none" stroke="black" d="M1019.84,-71.7C1027.71,-63.09 1037.34,-52.55 1045.93,-43.17"/>
<polygon fill="black" stroke="black" points="1048.66,-45.36 1052.82,-35.62 1043.49,-40.64 1048.66,-45.36"/>
</g>
<!-- Dummy*********** -->
<g id="node13" class="node">
<title>Dummy***********</title>
<ellipse fill="gray" stroke="black" cx="1200.02" cy="-18" rx="58.13" ry="18"/>
<text text-anchor="middle" x="1200.02" y="-15.8" font-family="Times,serif" font-size="9.00">Dummy***********</text>
</g>
<!-- root&#45;&gt;Dummy*********** -->
<g id="edge12" class="edge">
<title>root&#45;&gt;Dummy***********</title>
<path fill="none" stroke="black" d="M1031.28,-79.27C1062.85,-67.99 1115.4,-49.22 1153.48,-35.62"/>
<polygon fill="black" stroke="black" points="1155.08,-38.77 1163.32,-32.11 1152.73,-32.17 1155.08,-38.77"/>
</g>
<!-- Dummy************ -->
<g id="node14" class="node">
<title>Dummy************</title>
<ellipse fill="gray" stroke="black" cx="1338.02" cy="-18" rx="61.4" ry="18"/>
<text text-anchor="middle" x="1338.02" y="-15.8" font-family="Times,serif" font-size="9.00">Dummy************</text>
</g>
<!-- root&#45;&gt;Dummy************ -->
<g id="edge13" class="edge">
<title>root&#45;&gt;Dummy************</title>
<path fill="none" stroke="black" d="M1031.35,-83.83C1079.21,-74.7 1181.28,-54.9 1267.02,-36 1272.08,-34.89 1277.32,-33.7 1282.57,-32.48"/>
<polygon fill="black" stroke="black" points="1283.69,-35.81 1292.63,-30.13 1282.09,-29 1283.69,-35.81"/>
</g>
<!-- Dummy************* -->
<g id="node15" class="node">
<title>Dummy*************</title>
<ellipse fill="gray" stroke="black" cx="1481.02" cy="-18" rx="63.52" ry="18"/>
<text text-anchor="middle" x="1481.02" y="-15.8" font-family="Times,serif" font-size="9.00">Dummy*************</text>
</g>
<!-- root&#45;&gt;Dummy************* -->
<g id="edge14" class="edge">
<title>root&#45;&gt;Dummy*************</title>
<path fill="none" stroke="black" d="M1031.11,-86.38C1096.33,-79.86 1267.08,-61.59 1408.02,-36 1413.46,-35.01 1419.11,-33.88 1424.74,-32.69"/>
<polygon fill="black" stroke="black" points="1425.8,-36.04 1434.82,-30.48 1424.31,-29.2 1425.8,-36.04"/>
</g>
<!-- Dummy************** -->
<g id="node16" class="node">
<title>Dummy**************</title>
<ellipse fill="gray" stroke="black" cx="1629.02" cy="-18" rx="66.29" ry="18"/>
<text text-anchor="middle" x="1629.02" y="-15.8" font-family="Times,serif" font-size="9.00">Dummy**************</text>
</g>
<!-- root&#45;&gt;Dummy************** -->
<g id="edge15" class="edge">
<title>root&#45;&gt;Dummy**************</title>
<path fill="none" stroke="black" d="M1031.08,-87.61C1111.29,-83.23 1354.66,-68.07 1554.02,-36 1559.76,-35.08 1565.72,-33.97 1571.66,-32.78"/>
<polygon fill="black" stroke="black" points="1572.52,-36.18 1581.59,-30.71 1571.08,-29.33 1572.52,-36.18"/>
</g>
<!-- Dummy*************** -->
<g id="node17" class="node">
<title>Dummy***************</title>
<ellipse fill="gray" stroke="black" cx="1782.02" cy="-18" rx="68.91" ry="18"/>
<text text-anchor="middle" x="1782.02" y="-15.8" font-family="Times,serif" font-size="9.00">Dummy***************</text>
</g>
<!-- root&#45;&gt;Dummy*************** -->
<g id="edge16" class="edge">
<title>root&#45;&gt;Dummy***************</title>
<path fill="none" stroke="black" d="M1031.2,-88.3C1125.02,-85.6 1443.84,-74.02 1704.02,-36 1710.23,-35.09 1716.69,-33.97 1723.1,-32.75"/>
<polygon fill="black" stroke="black" points="1723.99,-36.14 1733.11,-30.75 1722.62,-29.28 1723.99,-36.14"/>
</g>
<!-- Dummy**************** -->
<g id="node18" class="node">
<title>Dummy****************</title>
<ellipse fill="gray" stroke="black" cx="1940.02" cy="-18" rx="71.68" ry="18"/>
<text text-anchor="middle" x="1940.02" y="-15.8" font-family="Times,serif" font-size="9.00">Dummy****************</text>
</g>
<!-- root&#45;&gt;Dummy**************** -->
<g id="edge17" class="edge">
<title>root&#45;&gt;Dummy****************</title>
<path fill="none" stroke="black" d="M1031.15,-88.77C1137.47,-87.58 1535.83,-80.24 1860.02,-36 1866.3,-35.14 1872.82,-34.07 1879.31,-32.88"/>
<polygon fill="black" stroke="black" points="1880.28,-36.26 1889.44,-30.93 1878.95,-29.38 1880.28,-36.26"/>
</g>
<!-- Dummy***************** -->
<g id="node19" class="node">
<title>Dummy*****************</title>
<ellipse fill="gray" stroke="black" cx="2103.02" cy="-18" rx="73.8" ry="18"/>
<text text-anchor="middle" x="2103.02" y="-15.8" font-family="Times,serif" font-size="9.00">Dummy*****************</text>
</g>
<!-- root&#45;&gt;Dummy***************** -->
<g id="edge18" class="edge">
<title>root&#45;&gt;Dummy*****************</title>
<path fill="none" stroke="black" d="M1031.27,-89.1C1149.59,-89.21 1630.43,-86.37 2021.02,-36 2027.61,-35.15 2034.46,-34.06 2041.26,-32.85"/>
<polygon fill="black" stroke="black" points="2041.99,-36.27 2051.17,-30.99 2040.7,-29.39 2041.99,-36.27"/>
</g>
<!-- Dummy****************** -->
<g id="node20" class="node">
<title>Dummy******************</title>
<ellipse fill="gray" stroke="black" cx="2272.02" cy="-18" rx="76.58" ry="18"/>
<text text-anchor="middle" x="2272.02" y="-15.8" font-family="Times,serif" font-size="9.00">Dummy******************</text>
</g>
<!-- root&#45;&gt;Dummy****************** -->
<g id="edge19" class="edge">
<title>root&#45;&gt;Dummy******************</title>
<path fill="none" stroke="black" d="M1031.2,-89.29C1160.57,-90.34 1726.65,-91.38 2186.02,-36 2193.19,-35.14 2200.65,-34.01 2208.06,-32.74"/>
<polygon fill="black" stroke="black" points="2208.86,-36.16 2218.09,-30.95 2207.63,-29.27 2208.86,-36.16"/>
</g>
<!-- Dummy******************* -->
<g id="node21" class="node">
<title>Dummy*******************</title>
<ellipse fill="gray" stroke="black" cx="2446.02" cy="-18" rx="79.19" ry="18"/>
<text text-anchor="middle" x="2446.02" y="-15.8" font-family="Times,serif" font-size="9.00">Dummy*******************</text>
</g>
<!-- root&#45;&gt;Dummy******************* -->
<g id="edge20" class="edge">
<title>root&#45;&gt;Dummy*******************</title>
<path fill="none" stroke="black" d="M1031.15,-88.5C1198.05,-85.34 2087.37,-67.26 2358.02,-36 2365.44,-35.14 2373.17,-34.01 2380.83,-32.74"/>
<polygon fill="black" stroke="black" points="2381.58,-36.16 2390.83,-30.99 2380.37,-29.26 2381.58,-36.16"/>
</g>
</g>
</svg>
