<?xml version="1.0" encoding="UTF-8" standalone="no"?>
<!DOCTYPE svg PUBLIC "-//W3C//DTD SVG 1.1//EN"
 "http://www.w3.org/Graphics/SVG/1.1/DTD/svg11.dtd">
<!-- Generated by graphviz version 2.43.0 (0)
 -->
<!-- Title: pastafarianism Pages: 1 -->
<svg width="239pt" height="116pt"
 viewBox="0.00 0.00 239.24 116.00" xmlns="http://www.w3.org/2000/svg" xmlns:xlink="http://www.w3.org/1999/xlink">
<g id="graph0" class="graph" transform="scale(1 1) rotate(0) translate(4 112)">
<title>pastafarianism</title>
<polygon fill="white" stroke="transparent" points="-4,4 -4,-112 235.24,-112 235.24,4 -4,4"/>
<!-- root -->
<g id="node1" class="node">
<title>root</title>
<polygon fill="orange" stroke="black" points="137.02,-108 83.02,-108 83.02,-72 137.02,-72 137.02,-108"/>
<text text-anchor="middle" x="110.02" y="-87.8" font-family="Times,serif" font-size="9.00">Ⓜ root</text>
</g>
<!-- Dummy -->
<g id="node2" class="node">
<title>Dummy</title>
<ellipse fill="gray" stroke="black" cx="30.02" cy="-18" rx="30.04" ry="18"/>
<text text-anchor="middle" x="30.02" y="-15.8" font-family="Times,serif" font-size="9.00">Dummy</text>
</g>
<!-- root&#45;&gt;Dummy -->
<g id="edge1" class="edge">
<title>root&#45;&gt;Dummy</title>
<path fill="none" stroke="black" d="M90.25,-71.7C79.27,-62.09 65.53,-50.07 53.95,-39.94"/>
<polygon fill="black" stroke="black" points="56.17,-37.23 46.34,-33.28 51.56,-42.5 56.17,-37.23"/>
</g>
<!-- Dummy* -->
<g id="node3" class="node">
<title>Dummy*</title>
<ellipse fill="gray" stroke="black" cx="110.02" cy="-18" rx="32.16" ry="18"/>
<text text-anchor="middle" x="110.02" y="-15.8" font-family="Times,serif" font-size="9.00">Dummy*</text>
</g>
<!-- root&#45;&gt;Dummy* -->
<g id="edge2" class="edge">
<title>root&#45;&gt;Dummy*</title>
<path fill="none" stroke="black" d="M110.02,-71.7C110.02,-63.98 110.02,-54.71 110.02,-46.11"/>
<polygon fill="black" stroke="black" points="113.52,-46.1 110.02,-36.1 106.52,-46.1 113.52,-46.1"/>
</g>
<!-- Dummy** -->
<g id="node4" class="node">
<title>Dummy**</title>
<ellipse fill="gray" stroke="black" cx="196.02" cy="-18" rx="35.44" ry="18"/>
<text text-anchor="middle" x="196.02" y="-15.8" font-family="Times,serif" font-size="9.00">Dummy**</text>
</g>
<!-- root&#45;&gt;Dummy** -->
<g id="edge3" class="edge">
<title>root&#45;&gt;Dummy**</title>
<path fill="none" stroke="black" d="M131.28,-71.7C143.03,-62.13 157.72,-50.17 170.14,-40.07"/>
<polygon fill="black" stroke="black" points="172.37,-42.77 177.92,-33.74 167.95,-37.34 172.37,-42.77"/>
</g>
</g>
</svg>
