<?xml version="1.0" encoding="UTF-8" standalone="no"?>
<!DOCTYPE svg PUBLIC "-//W3C//DTD SVG 1.1//EN"
 "http://www.w3.org/Graphics/SVG/1.1/DTD/svg11.dtd">
<!-- Generated by graphviz version 2.43.0 (0)
 -->
<!-- Title: pastafarianism Pages: 1 -->
<svg width="535pt" height="116pt"
 viewBox="0.00 0.00 534.75 116.00" xmlns="http://www.w3.org/2000/svg" xmlns:xlink="http://www.w3.org/1999/xlink">
<g id="graph0" class="graph" transform="scale(1 1) rotate(0) translate(4 112)">
<title>pastafarianism</title>
<polygon fill="white" stroke="transparent" points="-4,4 -4,-112 530.75,-112 530.75,4 -4,4"/>
<!-- root -->
<g id="node1" class="node">
<title>root</title>
<polygon fill="orange" stroke="black" points="268.02,-108 214.02,-108 214.02,-72 268.02,-72 268.02,-108"/>
<text text-anchor="middle" x="241.02" y="-87.8" font-family="Times,serif" font-size="9.00">Ⓜ root</text>
</g>
<!-- Dummy -->
<g id="node2" class="node">
<title>Dummy</title>
<ellipse fill="gray" stroke="black" cx="30.02" cy="-18" rx="30.04" ry="18"/>
<text text-anchor="middle" x="30.02" y="-15.8" font-family="Times,serif" font-size="9.00">Dummy</text>
</g>
<!-- root&#45;&gt;Dummy -->
<g id="edge1" class="edge">
<title>root&#45;&gt;Dummy</title>
<path fill="none" stroke="black" d="M213.9,-81.66C179.74,-72.18 119.42,-54.68 69.02,-36 66.94,-35.23 64.81,-34.4 62.67,-33.55"/>
<polygon fill="black" stroke="black" points="63.94,-30.28 53.36,-29.68 61.25,-36.75 63.94,-30.28"/>
</g>
<!-- Dummy* -->
<g id="node3" class="node">
<title>Dummy*</title>
<ellipse fill="gray" stroke="black" cx="110.02" cy="-18" rx="32.16" ry="18"/>
<text text-anchor="middle" x="110.02" y="-15.8" font-family="Times,serif" font-size="9.00">Dummy*</text>
</g>
<!-- root&#45;&gt;Dummy* -->
<g id="edge2" class="edge">
<title>root&#45;&gt;Dummy*</title>
<path fill="none" stroke="black" d="M213.88,-74.5C192.89,-63.28 163.8,-47.74 141.74,-35.95"/>
<polygon fill="black" stroke="black" points="143.24,-32.78 132.77,-31.15 139.94,-38.95 143.24,-32.78"/>
</g>
<!-- Dummy** -->
<g id="node4" class="node">
<title>Dummy**</title>
<ellipse fill="gray" stroke="black" cx="196.02" cy="-18" rx="35.44" ry="18"/>
<text text-anchor="middle" x="196.02" y="-15.8" font-family="Times,serif" font-size="9.00">Dummy**</text>
</g>
<!-- root&#45;&gt;Dummy** -->
<g id="edge3" class="edge">
<title>root&#45;&gt;Dummy**</title>
<path fill="none" stroke="black" d="M229.9,-71.7C224.59,-63.44 218.13,-53.39 212.29,-44.3"/>
<polygon fill="black" stroke="black" points="215.06,-42.14 206.71,-35.62 209.17,-45.93 215.06,-42.14"/>
</g>
<!-- Dummy*** -->
<g id="node5" class="node">
<title>Dummy***</title>
<ellipse fill="gray" stroke="black" cx="287.02" cy="-18" rx="37.56" ry="18"/>
<text text-anchor="middle" x="287.02" y="-15.8" font-family="Times,serif" font-size="9.00">Dummy***</text>
</g>
<!-- root&#45;&gt;Dummy*** -->
<g id="edge4" class="edge">
<title>root&#45;&gt;Dummy***</title>
<path fill="none" stroke="black" d="M252.39,-71.7C257.88,-63.35 264.56,-53.18 270.58,-44.02"/>
<polygon fill="black" stroke="black" points="273.53,-45.9 276.1,-35.62 267.68,-42.06 273.53,-45.9"/>
</g>
<!-- Dummy**** -->
<g id="node6" class="node">
<title>Dummy****</title>
<ellipse fill="gray" stroke="black" cx="383.02" cy="-18" rx="40.33" ry="18"/>
<text text-anchor="middle" x="383.02" y="-15.8" font-family="Times,serif" font-size="9.00">Dummy****</text>
</g>
<!-- root&#45;&gt;Dummy**** -->
<g id="edge5" class="edge">
<title>root&#45;&gt;Dummy****</title>
<path fill="none" stroke="black" d="M268.07,-75.67C290.76,-64.48 323.32,-48.43 348,-36.26"/>
<polygon fill="black" stroke="black" points="349.62,-39.37 357.04,-31.81 346.52,-33.09 349.62,-39.37"/>
</g>
<!-- Dummy***** -->
<g id="node7" class="node">
<title>Dummy*****</title>
<ellipse fill="gray" stroke="black" cx="484.02" cy="-18" rx="42.95" ry="18"/>
<text text-anchor="middle" x="484.02" y="-15.8" font-family="Times,serif" font-size="9.00">Dummy*****</text>
</g>
<!-- root&#45;&gt;Dummy***** -->
<g id="edge6" class="edge">
<title>root&#45;&gt;Dummy*****</title>
<path fill="none" stroke="black" d="M268.34,-81.84C305.51,-72 374.04,-53.51 432.02,-36 435.3,-35.01 438.69,-33.96 442.1,-32.89"/>
<polygon fill="black" stroke="black" points="443.18,-36.22 451.64,-29.84 441.05,-29.55 443.18,-36.22"/>
</g>
</g>
</svg>
