<?xml version="1.0" encoding="UTF-8" standalone="no"?>
<!DOCTYPE svg PUBLIC "-//W3C//DTD SVG 1.1//EN"
 "http://www.w3.org/Graphics/SVG/1.1/DTD/svg11.dtd">
<!-- Generated by graphviz version 2.43.0 (0)
 -->
<!-- Title: pastafarianism Pages: 1 -->
<svg width="758pt" height="116pt"
 viewBox="0.00 0.00 757.94 116.00" xmlns="http://www.w3.org/2000/svg" xmlns:xlink="http://www.w3.org/1999/xlink">
<g id="graph0" class="graph" transform="scale(1 1) rotate(0) translate(4 112)">
<title>pastafarianism</title>
<polygon fill="white" stroke="transparent" points="-4,4 -4,-112 753.94,-112 753.94,4 -4,4"/>
<!-- root -->
<g id="node1" class="node">
<title>root</title>
<polygon fill="orange" stroke="black" points="362.02,-108 308.02,-108 308.02,-72 362.02,-72 362.02,-108"/>
<text text-anchor="middle" x="335.02" y="-87.8" font-family="Times,serif" font-size="9.00">Ⓜ root</text>
</g>
<!-- Dummy -->
<g id="node2" class="node">
<title>Dummy</title>
<ellipse fill="gray" stroke="black" cx="30.02" cy="-18" rx="30.04" ry="18"/>
<text text-anchor="middle" x="30.02" y="-15.8" font-family="Times,serif" font-size="9.00">Dummy</text>
</g>
<!-- root&#45;&gt;Dummy -->
<g id="edge1" class="edge">
<title>root&#45;&gt;Dummy</title>
<path fill="none" stroke="black" d="M307.74,-85.53C259.01,-78.91 154.17,-62.7 69.02,-36 66.76,-35.29 64.46,-34.49 62.15,-33.64"/>
<polygon fill="black" stroke="black" points="63.39,-30.37 52.81,-29.9 60.79,-36.87 63.39,-30.37"/>
</g>
<!-- Dummy* -->
<g id="node3" class="node">
<title>Dummy*</title>
<ellipse fill="gray" stroke="black" cx="110.02" cy="-18" rx="32.16" ry="18"/>
<text text-anchor="middle" x="110.02" y="-15.8" font-family="Times,serif" font-size="9.00">Dummy*</text>
</g>
<!-- root&#45;&gt;Dummy* -->
<g id="edge2" class="edge">
<title>root&#45;&gt;Dummy*</title>
<path fill="none" stroke="black" d="M307.77,-82.05C271.78,-72.65 206.57,-54.88 152.02,-36 149.62,-35.17 147.15,-34.27 144.67,-33.35"/>
<polygon fill="black" stroke="black" points="145.77,-30.02 135.18,-29.67 143.24,-36.55 145.77,-30.02"/>
</g>
<!-- Dummy** -->
<g id="node4" class="node">
<title>Dummy**</title>
<ellipse fill="gray" stroke="black" cx="196.02" cy="-18" rx="35.44" ry="18"/>
<text text-anchor="middle" x="196.02" y="-15.8" font-family="Times,serif" font-size="9.00">Dummy**</text>
</g>
<!-- root&#45;&gt;Dummy** -->
<g id="edge3" class="edge">
<title>root&#45;&gt;Dummy**</title>
<path fill="none" stroke="black" d="M307.89,-75.34C285.43,-64.03 253.43,-47.91 229.4,-35.81"/>
<polygon fill="black" stroke="black" points="230.8,-32.6 220.3,-31.22 227.65,-38.85 230.8,-32.6"/>
</g>
<!-- Dummy*** -->
<g id="node5" class="node">
<title>Dummy***</title>
<ellipse fill="gray" stroke="black" cx="287.02" cy="-18" rx="37.56" ry="18"/>
<text text-anchor="middle" x="287.02" y="-15.8" font-family="Times,serif" font-size="9.00">Dummy***</text>
</g>
<!-- root&#45;&gt;Dummy*** -->
<g id="edge4" class="edge">
<title>root&#45;&gt;Dummy***</title>
<path fill="none" stroke="black" d="M323.16,-71.7C317.43,-63.35 310.46,-53.18 304.18,-44.02"/>
<polygon fill="black" stroke="black" points="306.96,-41.89 298.42,-35.62 301.19,-45.85 306.96,-41.89"/>
</g>
<!-- Dummy**** -->
<g id="node6" class="node">
<title>Dummy****</title>
<ellipse fill="gray" stroke="black" cx="383.02" cy="-18" rx="40.33" ry="18"/>
<text text-anchor="middle" x="383.02" y="-15.8" font-family="Times,serif" font-size="9.00">Dummy****</text>
</g>
<!-- root&#45;&gt;Dummy**** -->
<g id="edge5" class="edge">
<title>root&#45;&gt;Dummy****</title>
<path fill="none" stroke="black" d="M346.89,-71.7C352.61,-63.35 359.58,-53.18 365.87,-44.02"/>
<polygon fill="black" stroke="black" points="368.86,-45.85 371.62,-35.62 363.08,-41.89 368.86,-45.85"/>
</g>
<!-- Dummy***** -->
<g id="node7" class="node">
<title>Dummy*****</title>
<ellipse fill="gray" stroke="black" cx="484.02" cy="-18" rx="42.95" ry="18"/>
<text text-anchor="middle" x="484.02" y="-15.8" font-family="Times,serif" font-size="9.00">Dummy*****</text>
</g>
<!-- root&#45;&gt;Dummy***** -->
<g id="edge6" class="edge">
<title>root&#45;&gt;Dummy*****</title>
<path fill="none" stroke="black" d="M362.35,-76.16C386.22,-64.95 421.06,-48.58 447.35,-36.23"/>
<polygon fill="black" stroke="black" points="449.05,-39.3 456.61,-31.88 446.08,-32.96 449.05,-39.3"/>
</g>
<!-- Dummy****** -->
<g id="node8" class="node">
<title>Dummy******</title>
<ellipse fill="gray" stroke="black" cx="590.02" cy="-18" rx="45.72" ry="18"/>
<text text-anchor="middle" x="590.02" y="-15.8" font-family="Times,serif" font-size="9.00">Dummy******</text>
</g>
<!-- root&#45;&gt;Dummy****** -->
<g id="edge7" class="edge">
<title>root&#45;&gt;Dummy******</title>
<path fill="none" stroke="black" d="M362.12,-82.29C400.83,-72.6 474.14,-53.89 536.02,-36 539.33,-35.04 542.75,-34.03 546.18,-32.99"/>
<polygon fill="black" stroke="black" points="547.28,-36.32 555.82,-30.04 545.23,-29.62 547.28,-36.32"/>
</g>
<!-- Dummy******* -->
<g id="node9" class="node">
<title>Dummy*******</title>
<ellipse fill="gray" stroke="black" cx="702.02" cy="-18" rx="47.84" ry="18"/>
<text text-anchor="middle" x="702.02" y="-15.8" font-family="Times,serif" font-size="9.00">Dummy*******</text>
</g>
<!-- root&#45;&gt;Dummy******* -->
<g id="edge8" class="edge">
<title>root&#45;&gt;Dummy*******</title>
<path fill="none" stroke="black" d="M362.19,-85.48C416.39,-78.21 541.61,-60.17 645.02,-36 648.87,-35.1 652.84,-34.09 656.82,-33.02"/>
<polygon fill="black" stroke="black" points="657.94,-36.34 666.62,-30.28 656.05,-29.6 657.94,-36.34"/>
</g>
</g>
</svg>
