<?xml version="1.0" encoding="UTF-8" standalone="no"?>
<!DOCTYPE svg PUBLIC "-//W3C//DTD SVG 1.1//EN"
 "http://www.w3.org/Graphics/SVG/1.1/DTD/svg11.dtd">
<!-- Generated by graphviz version 2.43.0 (0)
 -->
<!-- Title: pastafarianism Pages: 1 -->
<svg width="878pt" height="116pt"
 viewBox="0.00 0.00 877.83 116.00" xmlns="http://www.w3.org/2000/svg" xmlns:xlink="http://www.w3.org/1999/xlink">
<g id="graph0" class="graph" transform="scale(1 1) rotate(0) translate(4 112)">
<title>pastafarianism</title>
<polygon fill="white" stroke="transparent" points="-4,4 -4,-112 873.83,-112 873.83,4 -4,4"/>
<!-- root -->
<g id="node1" class="node">
<title>root</title>
<polygon fill="orange" stroke="black" points="410.02,-108 356.02,-108 356.02,-72 410.02,-72 410.02,-108"/>
<text text-anchor="middle" x="383.02" y="-87.8" font-family="Times,serif" font-size="9.00">Ⓜ root</text>
</g>
<!-- Dummy -->
<g id="node2" class="node">
<title>Dummy</title>
<ellipse fill="gray" stroke="black" cx="30.02" cy="-18" rx="30.04" ry="18"/>
<text text-anchor="middle" x="30.02" y="-15.8" font-family="Times,serif" font-size="9.00">Dummy</text>
</g>
<!-- root&#45;&gt;Dummy -->
<g id="edge1" class="edge">
<title>root&#45;&gt;Dummy</title>
<path fill="none" stroke="black" d="M355.63,-86.64C300.45,-81.4 172.35,-66.74 69.02,-36 66.75,-35.32 64.44,-34.55 62.13,-33.72"/>
<polygon fill="black" stroke="black" points="63.36,-30.44 52.77,-30.02 60.79,-36.95 63.36,-30.44"/>
</g>
<!-- Dummy* -->
<g id="node3" class="node">
<title>Dummy*</title>
<ellipse fill="gray" stroke="black" cx="110.02" cy="-18" rx="32.16" ry="18"/>
<text text-anchor="middle" x="110.02" y="-15.8" font-family="Times,serif" font-size="9.00">Dummy*</text>
</g>
<!-- root&#45;&gt;Dummy* -->
<g id="edge2" class="edge">
<title>root&#45;&gt;Dummy*</title>
<path fill="none" stroke="black" d="M355.97,-84.24C312.45,-76.27 224.43,-58.8 152.02,-36 149.44,-35.19 146.79,-34.28 144.14,-33.33"/>
<polygon fill="black" stroke="black" points="145.25,-30.01 134.66,-29.73 142.76,-36.55 145.25,-30.01"/>
</g>
<!-- Dummy** -->
<g id="node4" class="node">
<title>Dummy**</title>
<ellipse fill="gray" stroke="black" cx="196.02" cy="-18" rx="35.44" ry="18"/>
<text text-anchor="middle" x="196.02" y="-15.8" font-family="Times,serif" font-size="9.00">Dummy**</text>
</g>
<!-- root&#45;&gt;Dummy** -->
<g id="edge3" class="edge">
<title>root&#45;&gt;Dummy**</title>
<path fill="none" stroke="black" d="M355.83,-79.05C327.03,-68.48 280.26,-51.23 240.02,-36 237.68,-35.11 235.26,-34.19 232.83,-33.26"/>
<polygon fill="black" stroke="black" points="234.05,-29.98 223.46,-29.67 231.54,-36.52 234.05,-29.98"/>
</g>
<!-- Dummy*** -->
<g id="node5" class="node">
<title>Dummy***</title>
<ellipse fill="gray" stroke="black" cx="287.02" cy="-18" rx="37.56" ry="18"/>
<text text-anchor="middle" x="287.02" y="-15.8" font-family="Times,serif" font-size="9.00">Dummy***</text>
</g>
<!-- root&#45;&gt;Dummy*** -->
<g id="edge4" class="edge">
<title>root&#45;&gt;Dummy***</title>
<path fill="none" stroke="black" d="M359.29,-71.7C345.96,-61.97 329.23,-49.78 315.23,-39.57"/>
<polygon fill="black" stroke="black" points="317.06,-36.57 306.92,-33.51 312.94,-42.23 317.06,-36.57"/>
</g>
<!-- Dummy**** -->
<g id="node6" class="node">
<title>Dummy****</title>
<ellipse fill="gray" stroke="black" cx="383.02" cy="-18" rx="40.33" ry="18"/>
<text text-anchor="middle" x="383.02" y="-15.8" font-family="Times,serif" font-size="9.00">Dummy****</text>
</g>
<!-- root&#45;&gt;Dummy**** -->
<g id="edge5" class="edge">
<title>root&#45;&gt;Dummy****</title>
<path fill="none" stroke="black" d="M383.02,-71.7C383.02,-63.98 383.02,-54.71 383.02,-46.11"/>
<polygon fill="black" stroke="black" points="386.52,-46.1 383.02,-36.1 379.52,-46.1 386.52,-46.1"/>
</g>
<!-- Dummy***** -->
<g id="node7" class="node">
<title>Dummy*****</title>
<ellipse fill="gray" stroke="black" cx="484.02" cy="-18" rx="42.95" ry="18"/>
<text text-anchor="middle" x="484.02" y="-15.8" font-family="Times,serif" font-size="9.00">Dummy*****</text>
</g>
<!-- root&#45;&gt;Dummy***** -->
<g id="edge6" class="edge">
<title>root&#45;&gt;Dummy*****</title>
<path fill="none" stroke="black" d="M407.73,-71.88C421.79,-62.13 439.5,-49.86 454.31,-39.59"/>
<polygon fill="black" stroke="black" points="456.42,-42.39 462.65,-33.81 452.44,-36.63 456.42,-42.39"/>
</g>
<!-- Dummy****** -->
<g id="node8" class="node">
<title>Dummy******</title>
<ellipse fill="gray" stroke="black" cx="590.02" cy="-18" rx="45.72" ry="18"/>
<text text-anchor="middle" x="590.02" y="-15.8" font-family="Times,serif" font-size="9.00">Dummy******</text>
</g>
<!-- root&#45;&gt;Dummy****** -->
<g id="edge7" class="edge">
<title>root&#45;&gt;Dummy******</title>
<path fill="none" stroke="black" d="M410.08,-79.85C444.88,-68.08 505.73,-47.5 546.93,-33.57"/>
<polygon fill="black" stroke="black" points="548.09,-36.88 556.44,-30.36 545.84,-30.25 548.09,-36.88"/>
</g>
<!-- Dummy******* -->
<g id="node9" class="node">
<title>Dummy*******</title>
<ellipse fill="gray" stroke="black" cx="702.02" cy="-18" rx="47.84" ry="18"/>
<text text-anchor="middle" x="702.02" y="-15.8" font-family="Times,serif" font-size="9.00">Dummy*******</text>
</g>
<!-- root&#45;&gt;Dummy******* -->
<g id="edge8" class="edge">
<title>root&#45;&gt;Dummy*******</title>
<path fill="none" stroke="black" d="M410.36,-84.31C458.21,-75.91 560.15,-57.19 645.02,-36 648.8,-35.06 652.71,-34.02 656.62,-32.94"/>
<polygon fill="black" stroke="black" points="657.62,-36.3 666.28,-30.2 655.7,-29.56 657.62,-36.3"/>
</g>
<!-- Dummy******** -->
<g id="node10" class="node">
<title>Dummy********</title>
<ellipse fill="gray" stroke="black" cx="819.02" cy="-18" rx="50.61" ry="18"/>
<text text-anchor="middle" x="819.02" y="-15.8" font-family="Times,serif" font-size="9.00">Dummy********</text>
</g>
<!-- root&#45;&gt;Dummy******** -->
<g id="edge9" class="edge">
<title>root&#45;&gt;Dummy********</title>
<path fill="none" stroke="black" d="M410.14,-86.46C472.31,-80.35 629.7,-63.3 759.02,-36 763.19,-35.12 767.5,-34.11 771.8,-33.03"/>
<polygon fill="black" stroke="black" points="772.99,-36.33 781.77,-30.4 771.21,-29.56 772.99,-36.33"/>
</g>
</g>
</svg>
