<?xml version="1.0" encoding="UTF-8" standalone="no"?>
<!DOCTYPE svg PUBLIC "-//W3C//DTD SVG 1.1//EN"
 "http://www.w3.org/Graphics/SVG/1.1/DTD/svg11.dtd">
<!-- Generated by graphviz version 2.43.0 (0)
 -->
<!-- Title: pastafarianism Pages: 1 -->
<svg width="354pt" height="228pt"
 viewBox="0.00 0.00 353.55 228.00" xmlns="http://www.w3.org/2000/svg" xmlns:xlink="http://www.w3.org/1999/xlink">
<g id="graph0" class="graph" transform="scale(1 1) rotate(0) translate(4 224)">
<title>pastafarianism</title>
<polygon fill="white" stroke="transparent" points="-4,4 -4,-224 349.55,-224 349.55,4 -4,4"/>
<!-- node1 -->
<g id="node1" class="node">
<title>node1</title>
<polygon fill="gold" stroke="black" points="245.9,-220 114.06,-220 80.14,-164 211.99,-164 245.9,-220"/>
<text text-anchor="middle" x="163.02" y="-194.8" font-family="Times,serif" font-size="9.00">node1</text>
<text text-anchor="middle" x="163.02" y="-184.8" font-family="Times,serif" font-size="9.00">SuccessOnAll</text>
</g>
<!-- node2 -->
<g id="node2" class="node">
<title>node2</title>
<polygon fill="orange" stroke="black" points="127.52,-118 70.52,-118 70.52,-82 127.52,-82 127.52,-118"/>
<text text-anchor="middle" x="99.02" y="-97.8" font-family="Times,serif" font-size="9.00">Ⓜ node2</text>
</g>
<!-- node1&#45;&gt;node2 -->
<g id="edge1" class="edge">
<title>node1&#45;&gt;node2</title>
<path fill="none" stroke="black" d="M143.82,-164C135.37,-152.11 125.49,-138.23 117.17,-126.52"/>
<polygon fill="black" stroke="black" points="119.8,-124.18 111.15,-118.06 114.1,-128.24 119.8,-124.18"/>
</g>
<!-- node5 -->
<g id="node5" class="node">
<title>node5</title>
<polygon fill="gold" stroke="black" points="310.9,-128 179.06,-128 145.14,-72 276.99,-72 310.9,-128"/>
<text text-anchor="middle" x="228.02" y="-102.8" font-family="Times,serif" font-size="9.00">node5</text>
<text text-anchor="middle" x="228.02" y="-92.8" font-family="Times,serif" font-size="9.00">SuccessOnAll</text>
</g>
<!-- node1&#45;&gt;node5 -->
<g id="edge4" class="edge">
<title>node1&#45;&gt;node5</title>
<path fill="none" stroke="black" d="M182.52,-164C188.77,-155.36 195.77,-145.65 202.38,-136.5"/>
<polygon fill="black" stroke="black" points="205.29,-138.45 208.31,-128.29 199.62,-134.35 205.29,-138.45"/>
</g>
<!-- Dummy -->
<g id="node3" class="node">
<title>Dummy</title>
<ellipse fill="gray" stroke="black" cx="30.02" cy="-18" rx="30.04" ry="18"/>
<text text-anchor="middle" x="30.02" y="-15.8" font-family="Times,serif" font-size="9.00">Dummy</text>
</g>
<!-- node2&#45;&gt;Dummy -->
<g id="edge2" class="edge">
<title>node2&#45;&gt;Dummy</title>
<path fill="none" stroke="black" d="M84.05,-81.64C74.1,-70.11 60.92,-54.82 50.07,-42.24"/>
<polygon fill="black" stroke="black" points="52.51,-39.72 43.33,-34.43 47.21,-44.29 52.51,-39.72"/>
</g>
<!-- Dummy* -->
<g id="node4" class="node">
<title>Dummy*</title>
<ellipse fill="gray" stroke="black" cx="110.02" cy="-18" rx="32.16" ry="18"/>
<text text-anchor="middle" x="110.02" y="-15.8" font-family="Times,serif" font-size="9.00">Dummy*</text>
</g>
<!-- node2&#45;&gt;Dummy* -->
<g id="edge3" class="edge">
<title>node2&#45;&gt;Dummy*</title>
<path fill="none" stroke="black" d="M101.41,-81.64C102.83,-71.3 104.67,-57.94 106.28,-46.22"/>
<polygon fill="black" stroke="black" points="109.78,-46.43 107.68,-36.05 102.85,-45.48 109.78,-46.43"/>
</g>
<!-- Dummy** -->
<g id="node6" class="node">
<title>Dummy**</title>
<ellipse fill="gray" stroke="black" cx="217.02" cy="-18" rx="35.44" ry="18"/>
<text text-anchor="middle" x="217.02" y="-15.8" font-family="Times,serif" font-size="9.00">Dummy**</text>
</g>
<!-- node5&#45;&gt;Dummy** -->
<g id="edge5" class="edge">
<title>node5&#45;&gt;Dummy**</title>
<path fill="none" stroke="black" d="M224.3,-71.92C223.16,-63.63 221.91,-54.51 220.76,-46.22"/>
<polygon fill="black" stroke="black" points="224.23,-45.7 219.4,-36.27 217.29,-46.66 224.23,-45.7"/>
</g>
<!-- Dummy*** -->
<g id="node7" class="node">
<title>Dummy***</title>
<ellipse fill="gray" stroke="black" cx="308.02" cy="-18" rx="37.56" ry="18"/>
<text text-anchor="middle" x="308.02" y="-15.8" font-family="Times,serif" font-size="9.00">Dummy***</text>
</g>
<!-- node5&#45;&gt;Dummy*** -->
<g id="edge6" class="edge">
<title>node5&#45;&gt;Dummy***</title>
<path fill="none" stroke="black" d="M255.11,-71.92C264.84,-62.19 275.71,-51.32 285.05,-41.97"/>
<polygon fill="black" stroke="black" points="287.57,-44.4 292.17,-34.85 282.62,-39.45 287.57,-44.4"/>
</g>
</g>
</svg>
