<?xml version="1.0" encoding="UTF-8" standalone="no"?>
<!DOCTYPE svg PUBLIC "-//W3C//DTD SVG 1.1//EN"
 "http://www.w3.org/Graphics/SVG/1.1/DTD/svg11.dtd">
<!-- Generated by graphviz version 2.43.0 (0)
 -->
<!-- Title: pastafarianism Pages: 1 -->
<svg width="758pt" height="320pt"
 viewBox="0.00 0.00 757.94 320.00" xmlns="http://www.w3.org/2000/svg" xmlns:xlink="http://www.w3.org/1999/xlink">
<g id="graph0" class="graph" transform="scale(1 1) rotate(0) translate(4 316)">
<title>pastafarianism</title>
<polygon fill="white" stroke="transparent" points="-4,4 -4,-316 753.94,-316 753.94,4 -4,4"/>
<!-- node1 -->
<g id="node1" class="node">
<title>node1</title>
<polygon fill="gold" stroke="black" points="400.9,-312 269.06,-312 235.14,-256 366.99,-256 400.9,-312"/>
<text text-anchor="middle" x="318.02" y="-286.8" font-family="Times,serif" font-size="9.00">node1</text>
<text text-anchor="middle" x="318.02" y="-276.8" font-family="Times,serif" font-size="9.00">SuccessOnAll</text>
</g>
<!-- node2 -->
<g id="node2" class="node">
<title>node2</title>
<polygon fill="orange" stroke="black" points="274.52,-210 217.52,-210 217.52,-174 274.52,-174 274.52,-210"/>
<text text-anchor="middle" x="246.02" y="-189.8" font-family="Times,serif" font-size="9.00">Ⓜ node2</text>
</g>
<!-- node1&#45;&gt;node2 -->
<g id="edge1" class="edge">
<title>node1&#45;&gt;node2</title>
<path fill="none" stroke="black" d="M296.42,-256C286.82,-244 275.59,-229.95 266.16,-218.18"/>
<polygon fill="black" stroke="black" points="268.65,-215.68 259.67,-210.06 263.18,-220.06 268.65,-215.68"/>
</g>
<!-- node9 -->
<g id="node9" class="node">
<title>node9</title>
<polygon fill="gold" stroke="black" points="502.9,-220 371.06,-220 337.14,-164 468.99,-164 502.9,-220"/>
<text text-anchor="middle" x="420.02" y="-194.8" font-family="Times,serif" font-size="9.00">node9</text>
<text text-anchor="middle" x="420.02" y="-184.8" font-family="Times,serif" font-size="9.00">SuccessOnAll</text>
</g>
<!-- node1&#45;&gt;node9 -->
<g id="edge8" class="edge">
<title>node1&#45;&gt;node9</title>
<path fill="none" stroke="black" d="M348.63,-256C358.92,-246.91 370.54,-236.66 381.37,-227.1"/>
<polygon fill="black" stroke="black" points="383.91,-229.54 389.09,-220.29 379.27,-224.29 383.91,-229.54"/>
</g>
<!-- node3 -->
<g id="node3" class="node">
<title>node3</title>
<polygon fill="gold" stroke="black" points="192.9,-128 61.06,-128 27.14,-72 158.99,-72 192.9,-128"/>
<text text-anchor="middle" x="110.02" y="-102.8" font-family="Times,serif" font-size="9.00">node3</text>
<text text-anchor="middle" x="110.02" y="-92.8" font-family="Times,serif" font-size="9.00">SuccessOnAll</text>
</g>
<!-- node2&#45;&gt;node3 -->
<g id="edge2" class="edge">
<title>node2&#45;&gt;node3</title>
<path fill="none" stroke="black" d="M220.12,-173.86C203.06,-162.57 180.17,-147.42 159.68,-133.86"/>
<polygon fill="black" stroke="black" points="161.34,-130.76 151.07,-128.16 157.48,-136.6 161.34,-130.76"/>
</g>
<!-- node6 -->
<g id="node6" class="node">
<title>node6</title>
<polygon fill="orange" stroke="black" points="274.52,-118 217.52,-118 217.52,-82 274.52,-82 274.52,-118"/>
<text text-anchor="middle" x="246.02" y="-97.8" font-family="Times,serif" font-size="9.00">Ⓜ node6</text>
</g>
<!-- node2&#45;&gt;node6 -->
<g id="edge5" class="edge">
<title>node2&#45;&gt;node6</title>
<path fill="none" stroke="black" d="M246.02,-173.65C246.02,-160.82 246.02,-143.11 246.02,-128.38"/>
<polygon fill="black" stroke="black" points="249.52,-128.3 246.02,-118.3 242.52,-128.3 249.52,-128.3"/>
</g>
<!-- Dummy -->
<g id="node4" class="node">
<title>Dummy</title>
<ellipse fill="gray" stroke="black" cx="30.02" cy="-18" rx="30.04" ry="18"/>
<text text-anchor="middle" x="30.02" y="-15.8" font-family="Times,serif" font-size="9.00">Dummy</text>
</g>
<!-- node3&#45;&gt;Dummy -->
<g id="edge3" class="edge">
<title>node3&#45;&gt;Dummy</title>
<path fill="none" stroke="black" d="M82.94,-71.92C72.92,-61.9 61.7,-50.68 52.17,-41.15"/>
<polygon fill="black" stroke="black" points="54.5,-38.53 44.95,-33.93 49.55,-43.48 54.5,-38.53"/>
</g>
<!-- Dummy* -->
<g id="node5" class="node">
<title>Dummy*</title>
<ellipse fill="gray" stroke="black" cx="110.02" cy="-18" rx="32.16" ry="18"/>
<text text-anchor="middle" x="110.02" y="-15.8" font-family="Times,serif" font-size="9.00">Dummy*</text>
</g>
<!-- node3&#45;&gt;Dummy* -->
<g id="edge4" class="edge">
<title>node3&#45;&gt;Dummy*</title>
<path fill="none" stroke="black" d="M110.02,-71.92C110.02,-63.72 110.02,-54.72 110.02,-46.49"/>
<polygon fill="black" stroke="black" points="113.52,-46.27 110.02,-36.27 106.52,-46.27 113.52,-46.27"/>
</g>
<!-- Dummy** -->
<g id="node7" class="node">
<title>Dummy**</title>
<ellipse fill="gray" stroke="black" cx="196.02" cy="-18" rx="35.44" ry="18"/>
<text text-anchor="middle" x="196.02" y="-15.8" font-family="Times,serif" font-size="9.00">Dummy**</text>
</g>
<!-- node6&#45;&gt;Dummy** -->
<g id="edge6" class="edge">
<title>node6&#45;&gt;Dummy**</title>
<path fill="none" stroke="black" d="M235.17,-81.64C228.35,-70.73 219.44,-56.46 211.84,-44.3"/>
<polygon fill="black" stroke="black" points="214.61,-42.13 206.34,-35.5 208.67,-45.84 214.61,-42.13"/>
</g>
<!-- Dummy*** -->
<g id="node8" class="node">
<title>Dummy***</title>
<ellipse fill="gray" stroke="black" cx="287.02" cy="-18" rx="37.56" ry="18"/>
<text text-anchor="middle" x="287.02" y="-15.8" font-family="Times,serif" font-size="9.00">Dummy***</text>
</g>
<!-- node6&#45;&gt;Dummy*** -->
<g id="edge7" class="edge">
<title>node6&#45;&gt;Dummy***</title>
<path fill="none" stroke="black" d="M254.92,-81.64C260.42,-70.91 267.58,-56.93 273.75,-44.9"/>
<polygon fill="black" stroke="black" points="276.98,-46.27 278.42,-35.78 270.75,-43.08 276.98,-46.27"/>
</g>
<!-- node10 -->
<g id="node10" class="node">
<title>node10</title>
<polygon fill="orange" stroke="black" points="451.52,-118 388.52,-118 388.52,-82 451.52,-82 451.52,-118"/>
<text text-anchor="middle" x="420.02" y="-97.8" font-family="Times,serif" font-size="9.00">Ⓜ node10</text>
</g>
<!-- node9&#45;&gt;node10 -->
<g id="edge9" class="edge">
<title>node9&#45;&gt;node10</title>
<path fill="none" stroke="black" d="M420.02,-164C420.02,-152.7 420.02,-139.58 420.02,-128.26"/>
<polygon fill="black" stroke="black" points="423.52,-128.06 420.02,-118.06 416.52,-128.06 423.52,-128.06"/>
</g>
<!-- node13 -->
<g id="node13" class="node">
<title>node13</title>
<polygon fill="gold" stroke="black" points="672.9,-128 541.06,-128 507.14,-72 638.99,-72 672.9,-128"/>
<text text-anchor="middle" x="590.02" y="-102.8" font-family="Times,serif" font-size="9.00">node13</text>
<text text-anchor="middle" x="590.02" y="-92.8" font-family="Times,serif" font-size="9.00">SuccessOnAll</text>
</g>
<!-- node9&#45;&gt;node13 -->
<g id="edge12" class="edge">
<title>node9&#45;&gt;node13</title>
<path fill="none" stroke="black" d="M469.65,-164.73C488.94,-154.51 511.19,-142.73 531.28,-132.1"/>
<polygon fill="black" stroke="black" points="533.13,-135.08 540.33,-127.31 529.86,-128.89 533.13,-135.08"/>
</g>
<!-- Dummy**** -->
<g id="node11" class="node">
<title>Dummy****</title>
<ellipse fill="gray" stroke="black" cx="383.02" cy="-18" rx="40.33" ry="18"/>
<text text-anchor="middle" x="383.02" y="-15.8" font-family="Times,serif" font-size="9.00">Dummy****</text>
</g>
<!-- node10&#45;&gt;Dummy**** -->
<g id="edge10" class="edge">
<title>node10&#45;&gt;Dummy****</title>
<path fill="none" stroke="black" d="M411.99,-81.64C407.03,-70.91 400.57,-56.93 395,-44.9"/>
<polygon fill="black" stroke="black" points="398.16,-43.38 390.78,-35.78 391.8,-46.32 398.16,-43.38"/>
</g>
<!-- Dummy***** -->
<g id="node12" class="node">
<title>Dummy*****</title>
<ellipse fill="gray" stroke="black" cx="484.02" cy="-18" rx="42.95" ry="18"/>
<text text-anchor="middle" x="484.02" y="-15.8" font-family="Times,serif" font-size="9.00">Dummy*****</text>
</g>
<!-- node10&#45;&gt;Dummy***** -->
<g id="edge11" class="edge">
<title>node10&#45;&gt;Dummy*****</title>
<path fill="none" stroke="black" d="M433.91,-81.64C442.87,-70.44 454.66,-55.71 464.55,-43.34"/>
<polygon fill="black" stroke="black" points="467.52,-45.23 471.03,-35.23 462.05,-40.86 467.52,-45.23"/>
</g>
<!-- Dummy****** -->
<g id="node14" class="node">
<title>Dummy******</title>
<ellipse fill="gray" stroke="black" cx="590.02" cy="-18" rx="45.72" ry="18"/>
<text text-anchor="middle" x="590.02" y="-15.8" font-family="Times,serif" font-size="9.00">Dummy******</text>
</g>
<!-- node13&#45;&gt;Dummy****** -->
<g id="edge13" class="edge">
<title>node13&#45;&gt;Dummy******</title>
<path fill="none" stroke="black" d="M590.02,-71.92C590.02,-63.72 590.02,-54.72 590.02,-46.49"/>
<polygon fill="black" stroke="black" points="593.52,-46.27 590.02,-36.27 586.52,-46.27 593.52,-46.27"/>
</g>
<!-- Dummy******* -->
<g id="node15" class="node">
<title>Dummy*******</title>
<ellipse fill="gray" stroke="black" cx="702.02" cy="-18" rx="47.84" ry="18"/>
<text text-anchor="middle" x="702.02" y="-15.8" font-family="Times,serif" font-size="9.00">Dummy*******</text>
</g>
<!-- node13&#45;&gt;Dummy******* -->
<g id="edge14" class="edge">
<title>node13&#45;&gt;Dummy*******</title>
<path fill="none" stroke="black" d="M627.94,-71.92C642.41,-61.58 658.69,-49.95 672.29,-40.24"/>
<polygon fill="black" stroke="black" points="674.7,-42.82 680.8,-34.16 670.63,-37.12 674.7,-42.82"/>
</g>
</g>
</svg>
