<?xml version="1.0" encoding="UTF-8" standalone="no"?>
<!DOCTYPE svg PUBLIC "-//W3C//DTD SVG 1.1//EN"
 "http://www.w3.org/Graphics/SVG/1.1/DTD/svg11.dtd">
<!-- Generated by graphviz version 2.43.0 (0)
 -->
<!-- Title: pastafarianism Pages: 1 -->
<svg width="1859pt" height="412pt"
 viewBox="0.00 0.00 1858.73 412.00" xmlns="http://www.w3.org/2000/svg" xmlns:xlink="http://www.w3.org/1999/xlink">
<g id="graph0" class="graph" transform="scale(1 1) rotate(0) translate(4 408)">
<title>pastafarianism</title>
<polygon fill="white" stroke="transparent" points="-4,4 -4,-408 1854.73,-408 1854.73,4 -4,4"/>
<!-- node1 -->
<g id="node1" class="node">
<title>node1</title>
<polygon fill="gold" stroke="black" points="852.9,-404 721.06,-404 687.14,-348 818.99,-348 852.9,-404"/>
<text text-anchor="middle" x="770.02" y="-378.8" font-family="Times,serif" font-size="9.00">⚡ node1</text>
<text text-anchor="middle" x="770.02" y="-368.8" font-family="Times,serif" font-size="9.00">SuccessOnAll</text>
</g>
<!-- node2 -->
<g id="node2" class="node">
<title>node2</title>
<polygon fill="orange" stroke="black" points="572.52,-302 515.52,-302 515.52,-266 572.52,-266 572.52,-302"/>
<text text-anchor="middle" x="544.02" y="-281.8" font-family="Times,serif" font-size="9.00">Ⓜ node2</text>
</g>
<!-- node1&#45;&gt;node2 -->
<g id="edge1" class="edge">
<title>node1&#45;&gt;node2</title>
<path fill="none" stroke="black" d="M702.21,-348C662.98,-332.37 615.04,-313.28 582.28,-300.24"/>
<polygon fill="black" stroke="black" points="583.22,-296.84 572.63,-296.39 580.63,-303.35 583.22,-296.84"/>
</g>
<!-- node17 -->
<g id="node17" class="node">
<title>node17</title>
<polygon fill="gold" stroke="black" points="1086.9,-312 955.06,-312 921.14,-256 1052.99,-256 1086.9,-312"/>
<text text-anchor="middle" x="1004.02" y="-286.8" font-family="Times,serif" font-size="9.00">⚡ node17</text>
<text text-anchor="middle" x="1004.02" y="-276.8" font-family="Times,serif" font-size="9.00">SuccessOnAll</text>
</g>
<!-- node1&#45;&gt;node17 -->
<g id="edge16" class="edge">
<title>node1&#45;&gt;node17</title>
<path fill="none" stroke="black" d="M823.12,-354.58C858.15,-341.1 904.21,-323.39 941.08,-309.21"/>
<polygon fill="black" stroke="black" points="942.65,-312.35 950.73,-305.5 940.14,-305.82 942.65,-312.35"/>
</g>
<!-- node3 -->
<g id="node3" class="node">
<title>node3</title>
<polygon fill="gold" stroke="black" points="345.9,-220 214.06,-220 180.14,-164 311.99,-164 345.9,-220"/>
<text text-anchor="middle" x="263.02" y="-194.8" font-family="Times,serif" font-size="9.00">⚡ node3</text>
<text text-anchor="middle" x="263.02" y="-184.8" font-family="Times,serif" font-size="9.00">SuccessOnAll</text>
</g>
<!-- node2&#45;&gt;node3 -->
<g id="edge2" class="edge">
<title>node2&#45;&gt;node3</title>
<path fill="none" stroke="black" d="M515.27,-273.79C477.99,-261.85 411.18,-240.45 355.68,-222.68"/>
<polygon fill="black" stroke="black" points="356.41,-219.23 345.81,-219.52 354.27,-225.9 356.41,-219.23"/>
</g>
<!-- node10 -->
<g id="node10" class="node">
<title>node10</title>
<polygon fill="orange" stroke="black" points="575.52,-210 512.52,-210 512.52,-174 575.52,-174 575.52,-210"/>
<text text-anchor="middle" x="544.02" y="-189.8" font-family="Times,serif" font-size="9.00">Ⓜ node10</text>
</g>
<!-- node2&#45;&gt;node10 -->
<g id="edge9" class="edge">
<title>node2&#45;&gt;node10</title>
<path fill="none" stroke="black" d="M544.02,-265.65C544.02,-252.82 544.02,-235.11 544.02,-220.38"/>
<polygon fill="black" stroke="black" points="547.52,-220.3 544.02,-210.3 540.52,-220.3 547.52,-220.3"/>
</g>
<!-- node4 -->
<g id="node4" class="node">
<title>node4</title>
<polygon fill="orange" stroke="black" points="138.52,-118 81.52,-118 81.52,-82 138.52,-82 138.52,-118"/>
<text text-anchor="middle" x="110.02" y="-97.8" font-family="Times,serif" font-size="9.00">Ⓜ node4</text>
</g>
<!-- node3&#45;&gt;node4 -->
<g id="edge3" class="edge">
<title>node3&#45;&gt;node4</title>
<path fill="none" stroke="black" d="M217.12,-164C194.78,-150.86 168.28,-135.27 147.23,-122.89"/>
<polygon fill="black" stroke="black" points="148.96,-119.84 138.57,-117.79 145.41,-125.88 148.96,-119.84"/>
</g>
<!-- node7 -->
<g id="node7" class="node">
<title>node7</title>
<polygon fill="gold" stroke="black" points="345.9,-128 214.06,-128 180.14,-72 311.99,-72 345.9,-128"/>
<text text-anchor="middle" x="263.02" y="-102.8" font-family="Times,serif" font-size="9.00">⚡ node7</text>
<text text-anchor="middle" x="263.02" y="-92.8" font-family="Times,serif" font-size="9.00">SuccessOnAll</text>
</g>
<!-- node3&#45;&gt;node7 -->
<g id="edge6" class="edge">
<title>node3&#45;&gt;node7</title>
<path fill="none" stroke="black" d="M263.02,-164C263.02,-155.97 263.02,-147.03 263.02,-138.47"/>
<polygon fill="black" stroke="black" points="266.52,-138.29 263.02,-128.29 259.52,-138.3 266.52,-138.29"/>
</g>
<!-- Dummy -->
<g id="node5" class="node">
<title>Dummy</title>
<ellipse fill="gray" stroke="black" cx="30.02" cy="-18" rx="30.04" ry="18"/>
<text text-anchor="middle" x="30.02" y="-15.8" font-family="Times,serif" font-size="9.00">Dummy</text>
</g>
<!-- node4&#45;&gt;Dummy -->
<g id="edge4" class="edge">
<title>node4&#45;&gt;Dummy</title>
<path fill="none" stroke="black" d="M92.66,-81.64C80.75,-69.73 64.85,-53.83 52.05,-41.03"/>
<polygon fill="black" stroke="black" points="54.47,-38.5 44.93,-33.91 49.52,-43.45 54.47,-38.5"/>
</g>
<!-- Dummy* -->
<g id="node6" class="node">
<title>Dummy*</title>
<ellipse fill="gray" stroke="black" cx="110.02" cy="-18" rx="32.16" ry="18"/>
<text text-anchor="middle" x="110.02" y="-15.8" font-family="Times,serif" font-size="9.00">Dummy*</text>
</g>
<!-- node4&#45;&gt;Dummy* -->
<g id="edge5" class="edge">
<title>node4&#45;&gt;Dummy*</title>
<path fill="none" stroke="black" d="M110.02,-81.64C110.02,-71.3 110.02,-57.94 110.02,-46.22"/>
<polygon fill="black" stroke="black" points="113.52,-46.05 110.02,-36.05 106.52,-46.05 113.52,-46.05"/>
</g>
<!-- Dummy** -->
<g id="node8" class="node">
<title>Dummy**</title>
<ellipse fill="gray" stroke="black" cx="196.02" cy="-18" rx="35.44" ry="18"/>
<text text-anchor="middle" x="196.02" y="-15.8" font-family="Times,serif" font-size="9.00">Dummy**</text>
</g>
<!-- node7&#45;&gt;Dummy** -->
<g id="edge7" class="edge">
<title>node7&#45;&gt;Dummy**</title>
<path fill="none" stroke="black" d="M240.34,-71.92C232.35,-62.38 223.45,-51.75 215.73,-42.53"/>
<polygon fill="black" stroke="black" points="218.4,-40.27 209.3,-34.85 213.04,-44.77 218.4,-40.27"/>
</g>
<!-- Dummy*** -->
<g id="node9" class="node">
<title>Dummy***</title>
<ellipse fill="gray" stroke="black" cx="287.02" cy="-18" rx="37.56" ry="18"/>
<text text-anchor="middle" x="287.02" y="-15.8" font-family="Times,serif" font-size="9.00">Dummy***</text>
</g>
<!-- node7&#45;&gt;Dummy*** -->
<g id="edge8" class="edge">
<title>node7&#45;&gt;Dummy***</title>
<path fill="none" stroke="black" d="M271.15,-71.92C273.66,-63.54 276.43,-54.31 278.94,-45.94"/>
<polygon fill="black" stroke="black" points="282.32,-46.86 281.84,-36.27 275.61,-44.85 282.32,-46.86"/>
</g>
<!-- node11 -->
<g id="node11" class="node">
<title>node11</title>
<polygon fill="gold" stroke="black" points="560.9,-128 429.06,-128 395.14,-72 526.99,-72 560.9,-128"/>
<text text-anchor="middle" x="478.02" y="-102.8" font-family="Times,serif" font-size="9.00">⚡ node11</text>
<text text-anchor="middle" x="478.02" y="-92.8" font-family="Times,serif" font-size="9.00">SuccessOnAll</text>
</g>
<!-- node10&#45;&gt;node11 -->
<g id="edge10" class="edge">
<title>node10&#45;&gt;node11</title>
<path fill="none" stroke="black" d="M531.3,-173.65C523.55,-163.09 513.38,-149.21 504,-136.42"/>
<polygon fill="black" stroke="black" points="506.72,-134.21 497.98,-128.22 501.07,-138.35 506.72,-134.21"/>
</g>
<!-- node14 -->
<g id="node14" class="node">
<title>node14</title>
<polygon fill="orange" stroke="black" points="641.52,-118 578.52,-118 578.52,-82 641.52,-82 641.52,-118"/>
<text text-anchor="middle" x="610.02" y="-97.8" font-family="Times,serif" font-size="9.00">Ⓜ node14</text>
</g>
<!-- node10&#45;&gt;node14 -->
<g id="edge13" class="edge">
<title>node10&#45;&gt;node14</title>
<path fill="none" stroke="black" d="M556.75,-173.65C566.52,-160.32 580.16,-141.72 591.19,-126.68"/>
<polygon fill="black" stroke="black" points="594.24,-128.43 597.34,-118.3 588.6,-124.29 594.24,-128.43"/>
</g>
<!-- Dummy**** -->
<g id="node12" class="node">
<title>Dummy****</title>
<ellipse fill="gray" stroke="black" cx="383.02" cy="-18" rx="40.33" ry="18"/>
<text text-anchor="middle" x="383.02" y="-15.8" font-family="Times,serif" font-size="9.00">Dummy****</text>
</g>
<!-- node11&#45;&gt;Dummy**** -->
<g id="edge11" class="edge">
<title>node11&#45;&gt;Dummy****</title>
<path fill="none" stroke="black" d="M445.86,-71.92C433.82,-61.78 420.3,-50.39 408.9,-40.79"/>
<polygon fill="black" stroke="black" points="410.93,-37.92 401.02,-34.16 406.42,-43.28 410.93,-37.92"/>
</g>
<!-- Dummy***** -->
<g id="node13" class="node">
<title>Dummy*****</title>
<ellipse fill="gray" stroke="black" cx="484.02" cy="-18" rx="42.95" ry="18"/>
<text text-anchor="middle" x="484.02" y="-15.8" font-family="Times,serif" font-size="9.00">Dummy*****</text>
</g>
<!-- node11&#45;&gt;Dummy***** -->
<g id="edge12" class="edge">
<title>node11&#45;&gt;Dummy*****</title>
<path fill="none" stroke="black" d="M480.05,-71.92C480.67,-63.72 481.34,-54.72 481.96,-46.49"/>
<polygon fill="black" stroke="black" points="485.47,-46.51 482.73,-36.27 478.49,-45.98 485.47,-46.51"/>
</g>
<!-- Dummy****** -->
<g id="node15" class="node">
<title>Dummy******</title>
<ellipse fill="gray" stroke="black" cx="590.02" cy="-18" rx="45.72" ry="18"/>
<text text-anchor="middle" x="590.02" y="-15.8" font-family="Times,serif" font-size="9.00">Dummy******</text>
</g>
<!-- node14&#45;&gt;Dummy****** -->
<g id="edge14" class="edge">
<title>node14&#45;&gt;Dummy******</title>
<path fill="none" stroke="black" d="M605.68,-81.64C603.07,-71.19 599.69,-57.67 596.74,-45.86"/>
<polygon fill="black" stroke="black" points="600.11,-44.9 594.28,-36.05 593.31,-46.6 600.11,-44.9"/>
</g>
<!-- Dummy******* -->
<g id="node16" class="node">
<title>Dummy*******</title>
<ellipse fill="gray" stroke="black" cx="702.02" cy="-18" rx="47.84" ry="18"/>
<text text-anchor="middle" x="702.02" y="-15.8" font-family="Times,serif" font-size="9.00">Dummy*******</text>
</g>
<!-- node14&#45;&gt;Dummy******* -->
<g id="edge15" class="edge">
<title>node14&#45;&gt;Dummy*******</title>
<path fill="none" stroke="black" d="M629.98,-81.64C643.54,-69.85 661.59,-54.16 676.24,-41.42"/>
<polygon fill="black" stroke="black" points="678.72,-43.9 683.97,-34.7 674.13,-38.62 678.72,-43.9"/>
</g>
<!-- node18 -->
<g id="node18" class="node">
<title>node18</title>
<polygon fill="orange" stroke="black" points="1035.52,-210 972.52,-210 972.52,-174 1035.52,-174 1035.52,-210"/>
<text text-anchor="middle" x="1004.02" y="-189.8" font-family="Times,serif" font-size="9.00">Ⓜ node18</text>
</g>
<!-- node17&#45;&gt;node18 -->
<g id="edge17" class="edge">
<title>node17&#45;&gt;node18</title>
<path fill="none" stroke="black" d="M1004.02,-256C1004.02,-244.7 1004.02,-231.58 1004.02,-220.26"/>
<polygon fill="black" stroke="black" points="1007.52,-220.06 1004.02,-210.06 1000.52,-220.06 1007.52,-220.06"/>
</g>
<!-- node25 -->
<g id="node25" class="node">
<title>node25</title>
<polygon fill="gold" stroke="black" points="1491.9,-220 1360.06,-220 1326.14,-164 1457.99,-164 1491.9,-220"/>
<text text-anchor="middle" x="1409.02" y="-194.8" font-family="Times,serif" font-size="9.00">⚡ node25</text>
<text text-anchor="middle" x="1409.02" y="-184.8" font-family="Times,serif" font-size="9.00">SuccessOnAll</text>
</g>
<!-- node17&#45;&gt;node25 -->
<g id="edge24" class="edge">
<title>node17&#45;&gt;node25</title>
<path fill="none" stroke="black" d="M1061.62,-270.2C1135.44,-253.8 1263.22,-225.4 1341.53,-208"/>
<polygon fill="black" stroke="black" points="1342.29,-211.41 1351.3,-205.83 1340.78,-204.58 1342.29,-211.41"/>
</g>
<!-- node19 -->
<g id="node19" class="node">
<title>node19</title>
<polygon fill="gold" stroke="black" points="1020.9,-128 889.06,-128 855.14,-72 986.99,-72 1020.9,-128"/>
<text text-anchor="middle" x="938.02" y="-102.8" font-family="Times,serif" font-size="9.00">⚡ node19</text>
<text text-anchor="middle" x="938.02" y="-92.8" font-family="Times,serif" font-size="9.00">SuccessOnAll</text>
</g>
<!-- node18&#45;&gt;node19 -->
<g id="edge18" class="edge">
<title>node18&#45;&gt;node19</title>
<path fill="none" stroke="black" d="M991.3,-173.65C983.55,-163.09 973.38,-149.21 964,-136.42"/>
<polygon fill="black" stroke="black" points="966.72,-134.21 957.98,-128.22 961.07,-138.35 966.72,-134.21"/>
</g>
<!-- node22 -->
<g id="node22" class="node">
<title>node22</title>
<polygon fill="orange" stroke="black" points="1101.52,-118 1038.52,-118 1038.52,-82 1101.52,-82 1101.52,-118"/>
<text text-anchor="middle" x="1070.02" y="-97.8" font-family="Times,serif" font-size="9.00">Ⓜ node22</text>
</g>
<!-- node18&#45;&gt;node22 -->
<g id="edge21" class="edge">
<title>node18&#45;&gt;node22</title>
<path fill="none" stroke="black" d="M1016.75,-173.65C1026.52,-160.32 1040.16,-141.72 1051.19,-126.68"/>
<polygon fill="black" stroke="black" points="1054.24,-128.43 1057.34,-118.3 1048.6,-124.29 1054.24,-128.43"/>
</g>
<!-- Dummy******** -->
<g id="node20" class="node">
<title>Dummy********</title>
<ellipse fill="gray" stroke="black" cx="819.02" cy="-18" rx="50.61" ry="18"/>
<text text-anchor="middle" x="819.02" y="-15.8" font-family="Times,serif" font-size="9.00">Dummy********</text>
</g>
<!-- node19&#45;&gt;Dummy******** -->
<g id="edge19" class="edge">
<title>node19&#45;&gt;Dummy********</title>
<path fill="none" stroke="black" d="M897.73,-71.92C882.21,-61.48 864.73,-49.73 850.2,-39.96"/>
<polygon fill="black" stroke="black" points="851.82,-36.83 841.57,-34.16 847.92,-42.64 851.82,-36.83"/>
</g>
<!-- Dummy********* -->
<g id="node21" class="node">
<title>Dummy*********</title>
<ellipse fill="gray" stroke="black" cx="941.02" cy="-18" rx="53.23" ry="18"/>
<text text-anchor="middle" x="941.02" y="-15.8" font-family="Times,serif" font-size="9.00">Dummy*********</text>
</g>
<!-- node19&#45;&gt;Dummy********* -->
<g id="edge20" class="edge">
<title>node19&#45;&gt;Dummy*********</title>
<path fill="none" stroke="black" d="M939.04,-71.92C939.35,-63.72 939.68,-54.72 939.99,-46.49"/>
<polygon fill="black" stroke="black" points="943.5,-46.4 940.37,-36.27 936.5,-46.13 943.5,-46.4"/>
</g>
<!-- Dummy********** -->
<g id="node23" class="node">
<title>Dummy**********</title>
<ellipse fill="gray" stroke="black" cx="1068.02" cy="-18" rx="56.01" ry="18"/>
<text text-anchor="middle" x="1068.02" y="-15.8" font-family="Times,serif" font-size="9.00">Dummy**********</text>
</g>
<!-- node22&#45;&gt;Dummy********** -->
<g id="edge22" class="edge">
<title>node22&#45;&gt;Dummy**********</title>
<path fill="none" stroke="black" d="M1069.59,-81.64C1069.33,-71.3 1069,-57.94 1068.7,-46.22"/>
<polygon fill="black" stroke="black" points="1072.2,-45.96 1068.45,-36.05 1065.2,-46.13 1072.2,-45.96"/>
</g>
<!-- Dummy*********** -->
<g id="node24" class="node">
<title>Dummy***********</title>
<ellipse fill="gray" stroke="black" cx="1200.02" cy="-18" rx="58.13" ry="18"/>
<text text-anchor="middle" x="1200.02" y="-15.8" font-family="Times,serif" font-size="9.00">Dummy***********</text>
</g>
<!-- node22&#45;&gt;Dummy*********** -->
<g id="edge23" class="edge">
<title>node22&#45;&gt;Dummy***********</title>
<path fill="none" stroke="black" d="M1097.91,-81.84C1117.89,-69.55 1144.89,-52.92 1166.12,-39.86"/>
<polygon fill="black" stroke="black" points="1168.14,-42.73 1174.82,-34.51 1164.47,-36.77 1168.14,-42.73"/>
</g>
<!-- node26 -->
<g id="node26" class="node">
<title>node26</title>
<polygon fill="orange" stroke="black" points="1440.52,-118 1377.52,-118 1377.52,-82 1440.52,-82 1440.52,-118"/>
<text text-anchor="middle" x="1409.02" y="-97.8" font-family="Times,serif" font-size="9.00">Ⓜ node26</text>
</g>
<!-- node25&#45;&gt;node26 -->
<g id="edge25" class="edge">
<title>node25&#45;&gt;node26</title>
<path fill="none" stroke="black" d="M1409.02,-164C1409.02,-152.7 1409.02,-139.58 1409.02,-128.26"/>
<polygon fill="black" stroke="black" points="1412.52,-128.06 1409.02,-118.06 1405.52,-128.06 1412.52,-128.06"/>
</g>
<!-- node29 -->
<g id="node29" class="node">
<title>node29</title>
<polygon fill="gold" stroke="black" points="1711.9,-128 1580.06,-128 1546.14,-72 1677.99,-72 1711.9,-128"/>
<text text-anchor="middle" x="1629.02" y="-102.8" font-family="Times,serif" font-size="9.00">⚡ node29</text>
<text text-anchor="middle" x="1629.02" y="-92.8" font-family="Times,serif" font-size="9.00">SuccessOnAll</text>
</g>
<!-- node25&#45;&gt;node29 -->
<g id="edge28" class="edge">
<title>node25&#45;&gt;node29</title>
<path fill="none" stroke="black" d="M1461.44,-169.56C1493.13,-156.59 1533.71,-139.99 1567,-126.37"/>
<polygon fill="black" stroke="black" points="1568.7,-129.46 1576.63,-122.43 1566.05,-122.98 1568.7,-129.46"/>
</g>
<!-- Dummy************ -->
<g id="node27" class="node">
<title>Dummy************</title>
<ellipse fill="gray" stroke="black" cx="1338.02" cy="-18" rx="61.4" ry="18"/>
<text text-anchor="middle" x="1338.02" y="-15.8" font-family="Times,serif" font-size="9.00">Dummy************</text>
</g>
<!-- node26&#45;&gt;Dummy************ -->
<g id="edge26" class="edge">
<title>node26&#45;&gt;Dummy************</title>
<path fill="none" stroke="black" d="M1393.62,-81.64C1383.65,-70.41 1370.52,-55.62 1359.53,-43.24"/>
<polygon fill="black" stroke="black" points="1361.93,-40.66 1352.67,-35.5 1356.69,-45.31 1361.93,-40.66"/>
</g>
<!-- Dummy************* -->
<g id="node28" class="node">
<title>Dummy*************</title>
<ellipse fill="gray" stroke="black" cx="1481.02" cy="-18" rx="63.52" ry="18"/>
<text text-anchor="middle" x="1481.02" y="-15.8" font-family="Times,serif" font-size="9.00">Dummy*************</text>
</g>
<!-- node26&#45;&gt;Dummy************* -->
<g id="edge27" class="edge">
<title>node26&#45;&gt;Dummy*************</title>
<path fill="none" stroke="black" d="M1424.65,-81.64C1434.76,-70.41 1448.06,-55.62 1459.21,-43.24"/>
<polygon fill="black" stroke="black" points="1462.08,-45.28 1466.17,-35.5 1456.88,-40.6 1462.08,-45.28"/>
</g>
<!-- Dummy************** -->
<g id="node30" class="node">
<title>Dummy**************</title>
<ellipse fill="gray" stroke="black" cx="1629.02" cy="-18" rx="66.29" ry="18"/>
<text text-anchor="middle" x="1629.02" y="-15.8" font-family="Times,serif" font-size="9.00">Dummy**************</text>
</g>
<!-- node29&#45;&gt;Dummy************** -->
<g id="edge29" class="edge">
<title>node29&#45;&gt;Dummy**************</title>
<path fill="none" stroke="black" d="M1629.02,-71.92C1629.02,-63.72 1629.02,-54.72 1629.02,-46.49"/>
<polygon fill="black" stroke="black" points="1632.52,-46.27 1629.02,-36.27 1625.52,-46.27 1632.52,-46.27"/>
</g>
<!-- Dummy*************** -->
<g id="node31" class="node">
<title>Dummy***************</title>
<ellipse fill="gray" stroke="black" cx="1782.02" cy="-18" rx="68.91" ry="18"/>
<text text-anchor="middle" x="1782.02" y="-15.8" font-family="Times,serif" font-size="9.00">Dummy***************</text>
</g>
<!-- node29&#45;&gt;Dummy*************** -->
<g id="edge30" class="edge">
<title>node29&#45;&gt;Dummy***************</title>
<path fill="none" stroke="black" d="M1678.7,-73.03C1699.79,-62 1723.99,-49.34 1743.67,-39.05"/>
<polygon fill="black" stroke="black" points="1745.41,-42.09 1752.65,-34.36 1742.17,-35.89 1745.41,-42.09"/>
</g>
</g>
</svg>
