<?xml version="1.0" encoding="UTF-8" standalone="no"?>
<!DOCTYPE svg PUBLIC "-//W3C//DTD SVG 1.1//EN"
 "http://www.w3.org/Graphics/SVG/1.1/DTD/svg11.dtd">
<!-- Generated by graphviz version 2.43.0 (0)
 -->
<!-- Title: pastafarianism Pages: 1 -->
<svg width="658pt" height="588pt"
 viewBox="0.00 0.00 658.13 588.00" xmlns="http://www.w3.org/2000/svg" xmlns:xlink="http://www.w3.org/1999/xlink">
<g id="graph0" class="graph" transform="scale(1 1) rotate(0) translate(4 584)">
<title>pastafarianism</title>
<polygon fill="white" stroke="transparent" points="-4,4 -4,-584 654.13,-584 654.13,4 -4,4"/>
<!-- BlueROV -->
<g id="node1" class="node">
<title>BlueROV</title>
<polygon fill="gold" stroke="black" points="241.48,-580 109.64,-580 75.72,-524 207.56,-524 241.48,-580"/>
<text text-anchor="middle" x="158.6" y="-554.8" font-family="Times,serif" font-size="9.00">⚡ BlueROV</text>
<text text-anchor="middle" x="158.6" y="-544.8" font-family="Times,serif" font-size="9.00">SuccessOnAll</text>
</g>
<!-- am_task -->
<g id="node2" class="node">
<title>am_task</title>
<ellipse fill="gray" stroke="black" cx="30.6" cy="-470" rx="30.7" ry="18"/>
<text text-anchor="middle" x="30.6" y="-467.8" font-family="Times,serif" font-size="9.00">am_task</text>
</g>
<!-- BlueROV&#45;&gt;am_task -->
<g id="edge1" class="edge">
<title>BlueROV&#45;&gt;am_task</title>
<path fill="none" stroke="black" d="M115.26,-523.92C96.91,-512.44 76.01,-499.38 59.57,-489.1"/>
<polygon fill="black" stroke="black" points="61.27,-486.04 50.93,-483.71 57.56,-491.98 61.27,-486.04"/>
</g>
<!-- battery_management_task -->
<g id="node3" class="node">
<title>battery_management_task</title>
<ellipse fill="gray" stroke="black" cx="158.6" cy="-470" rx="79.19" ry="18"/>
<text text-anchor="middle" x="158.6" y="-467.8" font-family="Times,serif" font-size="9.00">battery_management_task</text>
</g>
<!-- BlueROV&#45;&gt;battery_management_task -->
<g id="edge2" class="edge">
<title>BlueROV&#45;&gt;battery_management_task</title>
<path fill="none" stroke="black" d="M158.6,-523.92C158.6,-515.72 158.6,-506.72 158.6,-498.49"/>
<polygon fill="black" stroke="black" points="162.1,-498.27 158.6,-488.27 155.1,-498.27 162.1,-498.27"/>
</g>
<!-- priorities -->
<g id="node4" class="node">
<title>priorities</title>
<polygon fill="cyan" stroke="black" points="329.34,-462.54 329.34,-477.46 307.82,-488 277.38,-488 255.86,-477.46 255.86,-462.54 277.38,-452 307.82,-452 329.34,-462.54"/>
<text text-anchor="middle" x="292.6" y="-467.8" font-family="Times,serif" font-size="9.00">priorities</text>
</g>
<!-- BlueROV&#45;&gt;priorities -->
<g id="edge3" class="edge">
<title>BlueROV&#45;&gt;priorities</title>
<path fill="none" stroke="black" d="M203.97,-523.92C222.67,-512.75 243.9,-500.07 260.89,-489.93"/>
<polygon fill="black" stroke="black" points="263.06,-492.71 269.85,-484.58 259.47,-486.7 263.06,-492.71"/>
</g>
<!-- battery_check_SIF -->
<g id="node5" class="node">
<title>battery_check_SIF</title>
<ellipse fill="ghostwhite" stroke="black" cx="199.6" cy="-398" rx="58.78" ry="18"/>
<text text-anchor="middle" x="199.6" y="-395.8" font-family="Times,serif" font-size="9.00">battery_check_SIF</text>
</g>
<!-- priorities&#45;&gt;battery_check_SIF -->
<g id="edge4" class="edge">
<title>priorities&#45;&gt;battery_check_SIF</title>
<path fill="none" stroke="black" d="M272.88,-454.15C260.13,-444.56 243.31,-431.9 229,-421.13"/>
<polygon fill="black" stroke="black" points="231.01,-418.26 220.91,-415.04 226.8,-423.85 231.01,-418.26"/>
</g>
<!-- waypoint_mission -->
<g id="node9" class="node">
<title>waypoint_mission</title>
<polygon fill="orange" stroke="black" points="440.6,-416 330.6,-416 330.6,-380 440.6,-380 440.6,-416"/>
<text text-anchor="middle" x="385.6" y="-395.8" font-family="Times,serif" font-size="9.00">Ⓜ waypoint_mission</text>
</g>
<!-- priorities&#45;&gt;waypoint_mission -->
<g id="edge8" class="edge">
<title>priorities&#45;&gt;waypoint_mission</title>
<path fill="none" stroke="black" d="M312.32,-454.15C324.6,-444.92 340.65,-432.83 354.6,-422.33"/>
<polygon fill="black" stroke="black" points="357.08,-424.85 362.96,-416.04 352.87,-419.26 357.08,-424.85"/>
</g>
<!-- battery_check -->
<g id="node6" class="node">
<title>battery_check</title>
<polygon fill="cyan" stroke="black" points="197.09,-308.54 197.09,-323.46 166.93,-334 124.27,-334 94.11,-323.46 94.11,-308.54 124.27,-298 166.93,-298 197.09,-308.54"/>
<text text-anchor="middle" x="145.6" y="-313.8" font-family="Times,serif" font-size="9.00">battery_check</text>
</g>
<!-- battery_check_SIF&#45;&gt;battery_check -->
<g id="edge5" class="edge">
<title>battery_check_SIF&#45;&gt;battery_check</title>
<path fill="none" stroke="black" d="M188.15,-380.03C180.82,-369.18 171.18,-354.9 162.93,-342.68"/>
<polygon fill="black" stroke="black" points="165.72,-340.55 157.22,-334.22 159.92,-344.46 165.72,-340.55"/>
</g>
<!-- battery_low_fs -->
<g id="node7" class="node">
<title>battery_low_fs</title>
<ellipse fill="gray" stroke="black" cx="97.6" cy="-234" rx="47.84" ry="18"/>
<text text-anchor="middle" x="97.6" y="-231.8" font-family="Times,serif" font-size="9.00">battery_low_fs</text>
</g>
<!-- battery_check&#45;&gt;battery_low_fs -->
<g id="edge6" class="edge">
<title>battery_check&#45;&gt;battery_low_fs</title>
<path fill="none" stroke="black" d="M135.18,-297.64C128.68,-286.8 120.19,-272.65 112.93,-260.55"/>
<polygon fill="black" stroke="black" points="115.81,-258.55 107.67,-251.78 109.81,-262.15 115.81,-258.55"/>
</g>
<!-- surface_task -->
<g id="node8" class="node">
<title>surface_task</title>
<ellipse fill="gray" stroke="black" cx="206.6" cy="-234" rx="42.95" ry="18"/>
<text text-anchor="middle" x="206.6" y="-231.8" font-family="Times,serif" font-size="9.00">surface_task</text>
</g>
<!-- battery_check&#45;&gt;surface_task -->
<g id="edge7" class="edge">
<title>battery_check&#45;&gt;surface_task</title>
<path fill="none" stroke="black" d="M158.84,-297.64C167.38,-286.44 178.61,-271.71 188.04,-259.34"/>
<polygon fill="black" stroke="black" points="190.94,-261.31 194.22,-251.23 185.37,-257.06 190.94,-261.31"/>
</g>
<!-- assurance_monitor_functions -->
<g id="node10" class="node">
<title>assurance_monitor_functions</title>
<polygon fill="gold" stroke="black" points="556.73,-344 284.5,-344 214.47,-288 486.7,-288 556.73,-344"/>
<text text-anchor="middle" x="385.6" y="-318.8" font-family="Times,serif" font-size="9.00">⚡ assurance_monitor_functions</text>
<text text-anchor="middle" x="385.6" y="-308.8" font-family="Times,serif" font-size="9.00">SuccessOnAll</text>
</g>
<!-- waypoint_mission&#45;&gt;assurance_monitor_functions -->
<g id="edge9" class="edge">
<title>waypoint_mission&#45;&gt;assurance_monitor_functions</title>
<path fill="none" stroke="black" d="M385.6,-379.64C385.6,-372.18 385.6,-363.14 385.6,-354.29"/>
<polygon fill="black" stroke="black" points="389.1,-354.08 385.6,-344.08 382.1,-354.08 389.1,-354.08"/>
</g>
<!-- loiter_task -->
<g id="node18" class="node">
<title>loiter_task</title>
<ellipse fill="gray" stroke="black" cx="612.6" cy="-316" rx="37.56" ry="18"/>
<text text-anchor="middle" x="612.6" y="-313.8" font-family="Times,serif" font-size="9.00">loiter_task</text>
</g>
<!-- waypoint_mission&#45;&gt;loiter_task -->
<g id="edge17" class="edge">
<title>waypoint_mission&#45;&gt;loiter_task</title>
<path fill="none" stroke="black" d="M440.72,-384.36C476.96,-375.18 525.01,-361.35 565.6,-344 571.03,-341.68 576.63,-338.87 581.98,-335.96"/>
<polygon fill="black" stroke="black" points="583.71,-339 590.68,-331.02 580.26,-332.91 583.71,-339"/>
</g>
<!-- waypoint_task -->
<g id="node11" class="node">
<title>waypoint_task</title>
<ellipse fill="gray" stroke="black" cx="349.6" cy="-234" rx="47.19" ry="18"/>
<text text-anchor="middle" x="349.6" y="-231.8" font-family="Times,serif" font-size="9.00">waypoint_task</text>
</g>
<!-- assurance_monitor_functions&#45;&gt;waypoint_task -->
<g id="edge10" class="edge">
<title>assurance_monitor_functions&#45;&gt;waypoint_task</title>
<path fill="none" stroke="black" d="M373.41,-287.92C369.5,-279.22 365.18,-269.61 361.3,-261"/>
<polygon fill="black" stroke="black" points="364.45,-259.48 357.16,-251.79 358.07,-262.35 364.45,-259.48"/>
</g>
<!-- am_speed_cmd -->
<g id="node12" class="node">
<title>am_speed_cmd</title>
<polygon fill="cyan" stroke="black" points="522.59,-226.54 522.59,-241.46 490.96,-252 446.24,-252 414.61,-241.46 414.61,-226.54 446.24,-216 490.96,-216 522.59,-226.54"/>
<text text-anchor="middle" x="468.6" y="-231.8" font-family="Times,serif" font-size="9.00">am_speed_cmd</text>
</g>
<!-- assurance_monitor_functions&#45;&gt;am_speed_cmd -->
<g id="edge11" class="edge">
<title>assurance_monitor_functions&#45;&gt;am_speed_cmd</title>
<path fill="none" stroke="black" d="M413.7,-287.92C423.35,-278.62 434.08,-268.27 443.48,-259.22"/>
<polygon fill="black" stroke="black" points="445.91,-261.73 450.68,-252.27 441.05,-256.69 445.91,-261.73"/>
</g>
<!-- am_speed_check_SIF -->
<g id="node13" class="node">
<title>am_speed_check_SIF</title>
<ellipse fill="ghostwhite" stroke="black" cx="400.6" cy="-162" rx="65.48" ry="18"/>
<text text-anchor="middle" x="400.6" y="-159.8" font-family="Times,serif" font-size="9.00">am_speed_check_SIF</text>
</g>
<!-- am_speed_cmd&#45;&gt;am_speed_check_SIF -->
<g id="edge12" class="edge">
<title>am_speed_cmd&#45;&gt;am_speed_check_SIF</title>
<path fill="none" stroke="black" d="M451.79,-215.7C443.35,-207.01 432.99,-196.34 423.8,-186.89"/>
<polygon fill="black" stroke="black" points="426.23,-184.36 416.75,-179.62 421.2,-189.23 426.23,-184.36"/>
</g>
<!-- speed_max_task -->
<g id="node17" class="node">
<title>speed_max_task</title>
<ellipse fill="gray" stroke="black" cx="535.6" cy="-162" rx="51.92" ry="18"/>
<text text-anchor="middle" x="535.6" y="-159.8" font-family="Times,serif" font-size="9.00">speed_max_task</text>
</g>
<!-- am_speed_cmd&#45;&gt;speed_max_task -->
<g id="edge16" class="edge">
<title>am_speed_cmd&#45;&gt;speed_max_task</title>
<path fill="none" stroke="black" d="M485.16,-215.7C493.48,-207.01 503.69,-196.34 512.74,-186.89"/>
<polygon fill="black" stroke="black" points="515.3,-189.27 519.69,-179.62 510.25,-184.43 515.3,-189.27"/>
</g>
<!-- am_speed_check -->
<g id="node14" class="node">
<title>am_speed_check</title>
<polygon fill="cyan" stroke="black" points="458.83,-82.54 458.83,-97.46 424.72,-108 376.48,-108 342.36,-97.46 342.36,-82.54 376.48,-72 424.72,-72 458.83,-82.54"/>
<text text-anchor="middle" x="400.6" y="-87.8" font-family="Times,serif" font-size="9.00">am_speed_check</text>
</g>
<!-- am_speed_check_SIF&#45;&gt;am_speed_check -->
<g id="edge13" class="edge">
<title>am_speed_check_SIF&#45;&gt;am_speed_check</title>
<path fill="none" stroke="black" d="M400.6,-143.7C400.6,-135.98 400.6,-126.71 400.6,-118.11"/>
<polygon fill="black" stroke="black" points="404.1,-118.1 400.6,-108.1 397.1,-118.1 404.1,-118.1"/>
</g>
<!-- check_am -->
<g id="node15" class="node">
<title>check_am</title>
<ellipse fill="gray" stroke="black" cx="348.6" cy="-18" rx="35.59" ry="18"/>
<text text-anchor="middle" x="348.6" y="-15.8" font-family="Times,serif" font-size="9.00">check_am</text>
</g>
<!-- am_speed_check&#45;&gt;check_am -->
<g id="edge14" class="edge">
<title>am_speed_check&#45;&gt;check_am</title>
<path fill="none" stroke="black" d="M387.75,-71.7C381.39,-63.14 373.61,-52.67 366.67,-43.33"/>
<polygon fill="black" stroke="black" points="369.37,-41.08 360.59,-35.14 363.75,-45.26 369.37,-41.08"/>
</g>
<!-- speed_min_task -->
<g id="node16" class="node">
<title>speed_min_task</title>
<ellipse fill="gray" stroke="black" cx="453.6" cy="-18" rx="51.27" ry="18"/>
<text text-anchor="middle" x="453.6" y="-15.8" font-family="Times,serif" font-size="9.00">speed_min_task</text>
</g>
<!-- am_speed_check&#45;&gt;speed_min_task -->
<g id="edge15" class="edge">
<title>am_speed_check&#45;&gt;speed_min_task</title>
<path fill="none" stroke="black" d="M413.7,-71.7C420.08,-63.27 427.88,-52.97 434.87,-43.73"/>
<polygon fill="black" stroke="black" points="437.77,-45.71 441.01,-35.62 432.19,-41.48 437.77,-45.71"/>
</g>
</g>
</svg>
