<?xml version="1.0" encoding="UTF-8" standalone="no"?>
<!DOCTYPE svg PUBLIC "-//W3C//DTD SVG 1.1//EN"
 "http://www.w3.org/Graphics/SVG/1.1/DTD/svg11.dtd">
<!-- Generated by graphviz version 2.43.0 (0)
 -->
<!-- Title: pastafarianism Pages: 1 -->
<svg width="174pt" height="136pt"
 viewBox="0.00 0.00 173.88 136.00" xmlns="http://www.w3.org/2000/svg" xmlns:xlink="http://www.w3.org/1999/xlink">
<g id="graph0" class="graph" transform="scale(1 1) rotate(0) translate(4 132)">
<title>pastafarianism</title>
<polygon fill="white" stroke="transparent" points="-4,4 -4,-132 169.88,-132 169.88,4 -4,4"/>
<!-- node1 -->
<g id="node1" class="node">
<title>node1</title>
<polygon fill="gold" stroke="black" points="165.82,-128 33.98,-128 0.06,-72 131.9,-72 165.82,-128"/>
<text text-anchor="middle" x="82.94" y="-102.8" font-family="Times,serif" font-size="9.00">⚡ node1</text>
<text text-anchor="middle" x="82.94" y="-92.8" font-family="Times,serif" font-size="9.00">SuccessOnAll</text>
</g>
<!-- Dummy -->
<g id="node2" class="node">
<title>Dummy</title>
<ellipse fill="gray" stroke="black" cx="42.94" cy="-18" rx="30.04" ry="18"/>
<text text-anchor="middle" x="42.94" y="-15.8" font-family="Times,serif" font-size="9.00">Dummy</text>
</g>
<!-- node1&#45;&gt;Dummy -->
<g id="edge1" class="edge">
<title>node1&#45;&gt;Dummy</title>
<path fill="none" stroke="black" d="M69.4,-71.92C65.05,-63.22 60.25,-53.61 55.94,-45"/>
<polygon fill="black" stroke="black" points="58.94,-43.17 51.34,-35.79 52.68,-46.3 58.94,-43.17"/>
</g>
<!-- Dummy* -->
<g id="node3" class="node">
<title>Dummy*</title>
<ellipse fill="gray" stroke="black" cx="122.94" cy="-18" rx="32.16" ry="18"/>
<text text-anchor="middle" x="122.94" y="-15.8" font-family="Times,serif" font-size="9.00">Dummy*</text>
</g>
<!-- node1&#45;&gt;Dummy* -->
<g id="edge2" class="edge">
<title>node1&#45;&gt;Dummy*</title>
<path fill="none" stroke="black" d="M96.48,-71.92C100.83,-63.22 105.63,-53.61 109.94,-45"/>
<polygon fill="black" stroke="black" points="113.2,-46.3 114.54,-35.79 106.94,-43.17 113.2,-46.3"/>
</g>
</g>
</svg>
