<?xml version="1.0" encoding="UTF-8" standalone="no"?>
<!DOCTYPE svg PUBLIC "-//W3C//DTD SVG 1.1//EN"
 "http://www.w3.org/Graphics/SVG/1.1/DTD/svg11.dtd">
<!-- Generated by graphviz version 2.43.0 (0)
 -->
<!-- Title: pastafarianism Pages: 1 -->
<svg width="1859pt" height="412pt"
 viewBox="0.00 0.00 1858.73 412.00" xmlns="http://www.w3.org/2000/svg" xmlns:xlink="http://www.w3.org/1999/xlink">
<g id="graph0" class="graph" transform="scale(1 1) rotate(0) translate(4 408)">
<title>pastafarianism</title>
<polygon fill="white" stroke="transparent" points="-4,4 -4,-408 1854.73,-408 1854.73,4 -4,4"/>
<!-- node1 -->
<g id="node1" class="node">
<title>node1</title>
<polygon fill="gold" stroke="black" points="851.9,-404 720.06,-404 686.14,-348 817.99,-348 851.9,-404"/>
<text text-anchor="middle" x="769.02" y="-378.8" font-family="Times,serif" font-size="9.00">⚡ node1</text>
<text text-anchor="middle" x="769.02" y="-368.8" font-family="Times,serif" font-size="9.00">SuccessOnAll</text>
</g>
<!-- node2 -->
<g id="node2" class="node">
<title>node2</title>
<polygon fill="cyan" stroke="black" points="572.27,-276.54 572.27,-291.46 555.72,-302 532.32,-302 515.78,-291.46 515.78,-276.54 532.32,-266 555.72,-266 572.27,-276.54"/>
<text text-anchor="middle" x="544.02" y="-281.8" font-family="Times,serif" font-size="9.00">node2</text>
</g>
<!-- node1&#45;&gt;node2 -->
<g id="edge1" class="edge">
<title>node1&#45;&gt;node2</title>
<path fill="none" stroke="black" d="M701.51,-348C660.46,-331.57 609.83,-311.32 577.24,-298.29"/>
<polygon fill="black" stroke="black" points="578.32,-294.95 567.74,-294.49 575.72,-301.45 578.32,-294.95"/>
</g>
<!-- node17 -->
<g id="node17" class="node">
<title>node17</title>
<polygon fill="gold" stroke="black" points="1086.9,-312 955.06,-312 921.14,-256 1052.99,-256 1086.9,-312"/>
<text text-anchor="middle" x="1004.02" y="-286.8" font-family="Times,serif" font-size="9.00">⚡ node17</text>
<text text-anchor="middle" x="1004.02" y="-276.8" font-family="Times,serif" font-size="9.00">SuccessOnAll</text>
</g>
<!-- node1&#45;&gt;node17 -->
<g id="edge16" class="edge">
<title>node1&#45;&gt;node17</title>
<path fill="none" stroke="black" d="M822.05,-354.69C857.35,-341.17 903.88,-323.35 941.05,-309.12"/>
<polygon fill="black" stroke="black" points="942.69,-312.24 950.78,-305.39 940.19,-305.7 942.69,-312.24"/>
</g>
<!-- node3 -->
<g id="node3" class="node">
<title>node3</title>
<polygon fill="gold" stroke="black" points="345.9,-220 214.06,-220 180.14,-164 311.99,-164 345.9,-220"/>
<text text-anchor="middle" x="263.02" y="-194.8" font-family="Times,serif" font-size="9.00">⚡ node3</text>
<text text-anchor="middle" x="263.02" y="-184.8" font-family="Times,serif" font-size="9.00">SuccessOnAll</text>
</g>
<!-- node2&#45;&gt;node3 -->
<g id="edge2" class="edge">
<title>node2&#45;&gt;node3</title>
<path fill="none" stroke="black" d="M518.09,-274.69C481.42,-262.95 412.54,-240.89 355.59,-222.65"/>
<polygon fill="black" stroke="black" points="356.43,-219.24 345.84,-219.52 354.29,-225.91 356.43,-219.24"/>
</g>
<!-- node10 -->
<g id="node10" class="node">
<title>node10</title>
<polygon fill="cyan" stroke="black" points="575.76,-184.54 575.76,-199.46 557.17,-210 530.87,-210 512.28,-199.46 512.28,-184.54 530.87,-174 557.17,-174 575.76,-184.54"/>
<text text-anchor="middle" x="544.02" y="-189.8" font-family="Times,serif" font-size="9.00">node10</text>
</g>
<!-- node2&#45;&gt;node10 -->
<g id="edge9" class="edge">
<title>node2&#45;&gt;node10</title>
<path fill="none" stroke="black" d="M544.02,-265.65C544.02,-252.82 544.02,-235.11 544.02,-220.38"/>
<polygon fill="black" stroke="black" points="547.52,-220.3 544.02,-210.3 540.52,-220.3 547.52,-220.3"/>
</g>
<!-- node4 -->
<g id="node4" class="node">
<title>node4</title>
<polygon fill="cyan" stroke="black" points="138.27,-92.54 138.27,-107.46 121.72,-118 98.32,-118 81.78,-107.46 81.78,-92.54 98.32,-82 121.72,-82 138.27,-92.54"/>
<text text-anchor="middle" x="110.02" y="-97.8" font-family="Times,serif" font-size="9.00">node4</text>
</g>
<!-- node3&#45;&gt;node4 -->
<g id="edge3" class="edge">
<title>node3&#45;&gt;node4</title>
<path fill="none" stroke="black" d="M217.12,-164C191.7,-149.05 160.89,-130.92 138.85,-117.96"/>
<polygon fill="black" stroke="black" points="140.38,-114.8 129.99,-112.74 136.83,-120.83 140.38,-114.8"/>
</g>
<!-- node7 -->
<g id="node7" class="node">
<title>node7</title>
<polygon fill="gold" stroke="black" points="345.9,-128 214.06,-128 180.14,-72 311.99,-72 345.9,-128"/>
<text text-anchor="middle" x="263.02" y="-102.8" font-family="Times,serif" font-size="9.00">⚡ node7</text>
<text text-anchor="middle" x="263.02" y="-92.8" font-family="Times,serif" font-size="9.00">SuccessOnAll</text>
</g>
<!-- node3&#45;&gt;node7 -->
<g id="edge6" class="edge">
<title>node3&#45;&gt;node7</title>
<path fill="none" stroke="black" d="M263.02,-164C263.02,-155.97 263.02,-147.03 263.02,-138.47"/>
<polygon fill="black" stroke="black" points="266.52,-138.29 263.02,-128.29 259.52,-138.3 266.52,-138.29"/>
</g>
<!-- Dummy -->
<g id="node5" class="node">
<title>Dummy</title>
<ellipse fill="gray" stroke="black" cx="30.02" cy="-18" rx="30.04" ry="18"/>
<text text-anchor="middle" x="30.02" y="-15.8" font-family="Times,serif" font-size="9.00">Dummy</text>
</g>
<!-- node4&#45;&gt;Dummy -->
<g id="edge4" class="edge">
<title>node4&#45;&gt;Dummy</title>
<path fill="none" stroke="black" d="M94.97,-83.95C82.83,-71.81 65.58,-54.55 51.9,-40.88"/>
<polygon fill="black" stroke="black" points="54.28,-38.31 44.73,-33.71 49.33,-43.26 54.28,-38.31"/>
</g>
<!-- Dummy* -->
<g id="node6" class="node">
<title>Dummy*</title>
<ellipse fill="gray" stroke="black" cx="110.02" cy="-18" rx="32.16" ry="18"/>
<text text-anchor="middle" x="110.02" y="-15.8" font-family="Times,serif" font-size="9.00">Dummy*</text>
</g>
<!-- node4&#45;&gt;Dummy* -->
<g id="edge5" class="edge">
<title>node4&#45;&gt;Dummy*</title>
<path fill="none" stroke="black" d="M110.02,-81.64C110.02,-71.3 110.02,-57.94 110.02,-46.22"/>
<polygon fill="black" stroke="black" points="113.52,-46.05 110.02,-36.05 106.52,-46.05 113.52,-46.05"/>
</g>
<!-- Dummy** -->
<g id="node8" class="node">
<title>Dummy**</title>
<ellipse fill="gray" stroke="black" cx="196.02" cy="-18" rx="35.44" ry="18"/>
<text text-anchor="middle" x="196.02" y="-15.8" font-family="Times,serif" font-size="9.00">Dummy**</text>
</g>
<!-- node7&#45;&gt;Dummy** -->
<g id="edge7" class="edge">
<title>node7&#45;&gt;Dummy**</title>
<path fill="none" stroke="black" d="M240.34,-71.92C232.35,-62.38 223.45,-51.75 215.73,-42.53"/>
<polygon fill="black" stroke="black" points="218.4,-40.27 209.3,-34.85 213.04,-44.77 218.4,-40.27"/>
</g>
<!-- Dummy*** -->
<g id="node9" class="node">
<title>Dummy***</title>
<ellipse fill="gray" stroke="black" cx="287.02" cy="-18" rx="37.56" ry="18"/>
<text text-anchor="middle" x="287.02" y="-15.8" font-family="Times,serif" font-size="9.00">Dummy***</text>
</g>
<!-- node7&#45;&gt;Dummy*** -->
<g id="edge8" class="edge">
<title>node7&#45;&gt;Dummy***</title>
<path fill="none" stroke="black" d="M271.15,-71.92C273.66,-63.54 276.43,-54.31 278.94,-45.94"/>
<polygon fill="black" stroke="black" points="282.32,-46.86 281.84,-36.27 275.61,-44.85 282.32,-46.86"/>
</g>
<!-- node11 -->
<g id="node11" class="node">
<title>node11</title>
<polygon fill="gold" stroke="black" points="560.9,-128 429.06,-128 395.14,-72 526.99,-72 560.9,-128"/>
<text text-anchor="middle" x="478.02" y="-102.8" font-family="Times,serif" font-size="9.00">⚡ node11</text>
<text text-anchor="middle" x="478.02" y="-92.8" font-family="Times,serif" font-size="9.00">SuccessOnAll</text>
</g>
<!-- node10&#45;&gt;node11 -->
<g id="edge10" class="edge">
<title>node10&#45;&gt;node11</title>
<path fill="none" stroke="black" d="M531.3,-173.65C523.55,-163.09 513.38,-149.21 504,-136.42"/>
<polygon fill="black" stroke="black" points="506.72,-134.21 497.98,-128.22 501.07,-138.35 506.72,-134.21"/>
</g>
<!-- node14 -->
<g id="node14" class="node">
<title>node14</title>
<polygon fill="cyan" stroke="black" points="642.76,-92.54 642.76,-107.46 624.17,-118 597.87,-118 579.28,-107.46 579.28,-92.54 597.87,-82 624.17,-82 642.76,-92.54"/>
<text text-anchor="middle" x="611.02" y="-97.8" font-family="Times,serif" font-size="9.00">node14</text>
</g>
<!-- node10&#45;&gt;node14 -->
<g id="edge13" class="edge">
<title>node10&#45;&gt;node14</title>
<path fill="none" stroke="black" d="M556.94,-173.65C566.86,-160.32 580.71,-141.72 591.91,-126.68"/>
<polygon fill="black" stroke="black" points="594.98,-128.41 598.14,-118.3 589.36,-124.23 594.98,-128.41"/>
</g>
<!-- Dummy**** -->
<g id="node12" class="node">
<title>Dummy****</title>
<ellipse fill="gray" stroke="black" cx="383.02" cy="-18" rx="40.33" ry="18"/>
<text text-anchor="middle" x="383.02" y="-15.8" font-family="Times,serif" font-size="9.00">Dummy****</text>
</g>
<!-- node11&#45;&gt;Dummy**** -->
<g id="edge11" class="edge">
<title>node11&#45;&gt;Dummy****</title>
<path fill="none" stroke="black" d="M445.86,-71.92C433.82,-61.78 420.3,-50.39 408.9,-40.79"/>
<polygon fill="black" stroke="black" points="410.93,-37.92 401.02,-34.16 406.42,-43.28 410.93,-37.92"/>
</g>
<!-- Dummy***** -->
<g id="node13" class="node">
<title>Dummy*****</title>
<ellipse fill="gray" stroke="black" cx="484.02" cy="-18" rx="42.95" ry="18"/>
<text text-anchor="middle" x="484.02" y="-15.8" font-family="Times,serif" font-size="9.00">Dummy*****</text>
</g>
<!-- node11&#45;&gt;Dummy***** -->
<g id="edge12" class="edge">
<title>node11&#45;&gt;Dummy*****</title>
<path fill="none" stroke="black" d="M480.05,-71.92C480.67,-63.72 481.34,-54.72 481.96,-46.49"/>
<polygon fill="black" stroke="black" points="485.47,-46.51 482.73,-36.27 478.49,-45.98 485.47,-46.51"/>
</g>
<!-- Dummy****** -->
<g id="node15" class="node">
<title>Dummy******</title>
<ellipse fill="gray" stroke="black" cx="590.02" cy="-18" rx="45.72" ry="18"/>
<text text-anchor="middle" x="590.02" y="-15.8" font-family="Times,serif" font-size="9.00">Dummy******</text>
</g>
<!-- node14&#45;&gt;Dummy****** -->
<g id="edge14" class="edge">
<title>node14&#45;&gt;Dummy******</title>
<path fill="none" stroke="black" d="M606.47,-81.64C603.72,-71.19 600.17,-57.67 597.07,-45.86"/>
<polygon fill="black" stroke="black" points="600.42,-44.83 594.5,-36.05 593.65,-46.61 600.42,-44.83"/>
</g>
<!-- Dummy******* -->
<g id="node16" class="node">
<title>Dummy*******</title>
<ellipse fill="gray" stroke="black" cx="702.02" cy="-18" rx="47.84" ry="18"/>
<text text-anchor="middle" x="702.02" y="-15.8" font-family="Times,serif" font-size="9.00">Dummy*******</text>
</g>
<!-- node14&#45;&gt;Dummy******* -->
<g id="edge15" class="edge">
<title>node14&#45;&gt;Dummy*******</title>
<path fill="none" stroke="black" d="M628.14,-83.95C641.73,-72 660.95,-55.11 676.38,-41.55"/>
<polygon fill="black" stroke="black" points="678.85,-44.03 684.05,-34.8 674.23,-38.77 678.85,-44.03"/>
</g>
<!-- node18 -->
<g id="node18" class="node">
<title>node18</title>
<polygon fill="cyan" stroke="black" points="1035.76,-184.54 1035.76,-199.46 1017.17,-210 990.87,-210 972.28,-199.46 972.28,-184.54 990.87,-174 1017.17,-174 1035.76,-184.54"/>
<text text-anchor="middle" x="1004.02" y="-189.8" font-family="Times,serif" font-size="9.00">node18</text>
</g>
<!-- node17&#45;&gt;node18 -->
<g id="edge17" class="edge">
<title>node17&#45;&gt;node18</title>
<path fill="none" stroke="black" d="M1004.02,-256C1004.02,-244.7 1004.02,-231.58 1004.02,-220.26"/>
<polygon fill="black" stroke="black" points="1007.52,-220.06 1004.02,-210.06 1000.52,-220.06 1007.52,-220.06"/>
</g>
<!-- node25 -->
<g id="node25" class="node">
<title>node25</title>
<polygon fill="gold" stroke="black" points="1491.9,-220 1360.06,-220 1326.14,-164 1457.99,-164 1491.9,-220"/>
<text text-anchor="middle" x="1409.02" y="-194.8" font-family="Times,serif" font-size="9.00">⚡ node25</text>
<text text-anchor="middle" x="1409.02" y="-184.8" font-family="Times,serif" font-size="9.00">SuccessOnAll</text>
</g>
<!-- node17&#45;&gt;node25 -->
<g id="edge24" class="edge">
<title>node17&#45;&gt;node25</title>
<path fill="none" stroke="black" d="M1061.62,-270.2C1135.44,-253.8 1263.22,-225.4 1341.53,-208"/>
<polygon fill="black" stroke="black" points="1342.29,-211.41 1351.3,-205.83 1340.78,-204.58 1342.29,-211.41"/>
</g>
<!-- node19 -->
<g id="node19" class="node">
<title>node19</title>
<polygon fill="gold" stroke="black" points="1020.9,-128 889.06,-128 855.14,-72 986.99,-72 1020.9,-128"/>
<text text-anchor="middle" x="938.02" y="-102.8" font-family="Times,serif" font-size="9.00">⚡ node19</text>
<text text-anchor="middle" x="938.02" y="-92.8" font-family="Times,serif" font-size="9.00">SuccessOnAll</text>
</g>
<!-- node18&#45;&gt;node19 -->
<g id="edge18" class="edge">
<title>node18&#45;&gt;node19</title>
<path fill="none" stroke="black" d="M991.3,-173.65C983.55,-163.09 973.38,-149.21 964,-136.42"/>
<polygon fill="black" stroke="black" points="966.72,-134.21 957.98,-128.22 961.07,-138.35 966.72,-134.21"/>
</g>
<!-- node22 -->
<g id="node22" class="node">
<title>node22</title>
<polygon fill="cyan" stroke="black" points="1102.76,-92.54 1102.76,-107.46 1084.17,-118 1057.87,-118 1039.28,-107.46 1039.28,-92.54 1057.87,-82 1084.17,-82 1102.76,-92.54"/>
<text text-anchor="middle" x="1071.02" y="-97.8" font-family="Times,serif" font-size="9.00">node22</text>
</g>
<!-- node18&#45;&gt;node22 -->
<g id="edge21" class="edge">
<title>node18&#45;&gt;node22</title>
<path fill="none" stroke="black" d="M1016.94,-173.65C1026.86,-160.32 1040.71,-141.72 1051.91,-126.68"/>
<polygon fill="black" stroke="black" points="1054.98,-128.41 1058.14,-118.3 1049.36,-124.23 1054.98,-128.41"/>
</g>
<!-- Dummy******** -->
<g id="node20" class="node">
<title>Dummy********</title>
<ellipse fill="gray" stroke="black" cx="819.02" cy="-18" rx="50.61" ry="18"/>
<text text-anchor="middle" x="819.02" y="-15.8" font-family="Times,serif" font-size="9.00">Dummy********</text>
</g>
<!-- node19&#45;&gt;Dummy******** -->
<g id="edge19" class="edge">
<title>node19&#45;&gt;Dummy********</title>
<path fill="none" stroke="black" d="M897.73,-71.92C882.21,-61.48 864.73,-49.73 850.2,-39.96"/>
<polygon fill="black" stroke="black" points="851.82,-36.83 841.57,-34.16 847.92,-42.64 851.82,-36.83"/>
</g>
<!-- Dummy********* -->
<g id="node21" class="node">
<title>Dummy*********</title>
<ellipse fill="gray" stroke="black" cx="941.02" cy="-18" rx="53.23" ry="18"/>
<text text-anchor="middle" x="941.02" y="-15.8" font-family="Times,serif" font-size="9.00">Dummy*********</text>
</g>
<!-- node19&#45;&gt;Dummy********* -->
<g id="edge20" class="edge">
<title>node19&#45;&gt;Dummy*********</title>
<path fill="none" stroke="black" d="M939.04,-71.92C939.35,-63.72 939.68,-54.72 939.99,-46.49"/>
<polygon fill="black" stroke="black" points="943.5,-46.4 940.37,-36.27 936.5,-46.13 943.5,-46.4"/>
</g>
<!-- Dummy********** -->
<g id="node23" class="node">
<title>Dummy**********</title>
<ellipse fill="gray" stroke="black" cx="1068.02" cy="-18" rx="56.01" ry="18"/>
<text text-anchor="middle" x="1068.02" y="-15.8" font-family="Times,serif" font-size="9.00">Dummy**********</text>
</g>
<!-- node22&#45;&gt;Dummy********** -->
<g id="edge22" class="edge">
<title>node22&#45;&gt;Dummy**********</title>
<path fill="none" stroke="black" d="M1070.37,-81.64C1069.98,-71.3 1069.48,-57.94 1069.04,-46.22"/>
<polygon fill="black" stroke="black" points="1072.53,-45.91 1068.66,-36.05 1065.54,-46.17 1072.53,-45.91"/>
</g>
<!-- Dummy*********** -->
<g id="node24" class="node">
<title>Dummy***********</title>
<ellipse fill="gray" stroke="black" cx="1200.02" cy="-18" rx="58.13" ry="18"/>
<text text-anchor="middle" x="1200.02" y="-15.8" font-family="Times,serif" font-size="9.00">Dummy***********</text>
</g>
<!-- node22&#45;&gt;Dummy*********** -->
<g id="edge23" class="edge">
<title>node22&#45;&gt;Dummy***********</title>
<path fill="none" stroke="black" d="M1091.75,-86.15C1111.83,-73.69 1142.63,-54.59 1166.26,-39.94"/>
<polygon fill="black" stroke="black" points="1168.27,-42.81 1174.92,-34.57 1164.58,-36.86 1168.27,-42.81"/>
</g>
<!-- node26 -->
<g id="node26" class="node">
<title>node26</title>
<polygon fill="cyan" stroke="black" points="1440.76,-92.54 1440.76,-107.46 1422.17,-118 1395.87,-118 1377.28,-107.46 1377.28,-92.54 1395.87,-82 1422.17,-82 1440.76,-92.54"/>
<text text-anchor="middle" x="1409.02" y="-97.8" font-family="Times,serif" font-size="9.00">node26</text>
</g>
<!-- node25&#45;&gt;node26 -->
<g id="edge25" class="edge">
<title>node25&#45;&gt;node26</title>
<path fill="none" stroke="black" d="M1409.02,-164C1409.02,-152.7 1409.02,-139.58 1409.02,-128.26"/>
<polygon fill="black" stroke="black" points="1412.52,-128.06 1409.02,-118.06 1405.52,-128.06 1412.52,-128.06"/>
</g>
<!-- node29 -->
<g id="node29" class="node">
<title>node29</title>
<polygon fill="gold" stroke="black" points="1711.9,-128 1580.06,-128 1546.14,-72 1677.99,-72 1711.9,-128"/>
<text text-anchor="middle" x="1629.02" y="-102.8" font-family="Times,serif" font-size="9.00">⚡ node29</text>
<text text-anchor="middle" x="1629.02" y="-92.8" font-family="Times,serif" font-size="9.00">SuccessOnAll</text>
</g>
<!-- node25&#45;&gt;node29 -->
<g id="edge28" class="edge">
<title>node25&#45;&gt;node29</title>
<path fill="none" stroke="black" d="M1461.44,-169.56C1493.13,-156.59 1533.71,-139.99 1567,-126.37"/>
<polygon fill="black" stroke="black" points="1568.7,-129.46 1576.63,-122.43 1566.05,-122.98 1568.7,-129.46"/>
</g>
<!-- Dummy************ -->
<g id="node27" class="node">
<title>Dummy************</title>
<ellipse fill="gray" stroke="black" cx="1338.02" cy="-18" rx="61.4" ry="18"/>
<text text-anchor="middle" x="1338.02" y="-15.8" font-family="Times,serif" font-size="9.00">Dummy************</text>
</g>
<!-- node26&#45;&gt;Dummy************ -->
<g id="edge26" class="edge">
<title>node26&#45;&gt;Dummy************</title>
<path fill="none" stroke="black" d="M1394.31,-82.42C1384.22,-71.05 1370.67,-55.78 1359.39,-43.08"/>
<polygon fill="black" stroke="black" points="1361.97,-40.71 1352.71,-35.55 1356.73,-45.36 1361.97,-40.71"/>
</g>
<!-- Dummy************* -->
<g id="node28" class="node">
<title>Dummy*************</title>
<ellipse fill="gray" stroke="black" cx="1481.02" cy="-18" rx="63.52" ry="18"/>
<text text-anchor="middle" x="1481.02" y="-15.8" font-family="Times,serif" font-size="9.00">Dummy*************</text>
</g>
<!-- node26&#45;&gt;Dummy************* -->
<g id="edge27" class="edge">
<title>node26&#45;&gt;Dummy*************</title>
<path fill="none" stroke="black" d="M1423.94,-82.42C1434.17,-71.05 1447.92,-55.78 1459.35,-43.08"/>
<polygon fill="black" stroke="black" points="1462.03,-45.33 1466.12,-35.55 1456.83,-40.65 1462.03,-45.33"/>
</g>
<!-- Dummy************** -->
<g id="node30" class="node">
<title>Dummy**************</title>
<ellipse fill="gray" stroke="black" cx="1629.02" cy="-18" rx="66.29" ry="18"/>
<text text-anchor="middle" x="1629.02" y="-15.8" font-family="Times,serif" font-size="9.00">Dummy**************</text>
</g>
<!-- node29&#45;&gt;Dummy************** -->
<g id="edge29" class="edge">
<title>node29&#45;&gt;Dummy**************</title>
<path fill="none" stroke="black" d="M1629.02,-71.92C1629.02,-63.72 1629.02,-54.72 1629.02,-46.49"/>
<polygon fill="black" stroke="black" points="1632.52,-46.27 1629.02,-36.27 1625.52,-46.27 1632.52,-46.27"/>
</g>
<!-- Dummy*************** -->
<g id="node31" class="node">
<title>Dummy***************</title>
<ellipse fill="gray" stroke="black" cx="1782.02" cy="-18" rx="68.91" ry="18"/>
<text text-anchor="middle" x="1782.02" y="-15.8" font-family="Times,serif" font-size="9.00">Dummy***************</text>
</g>
<!-- node29&#45;&gt;Dummy*************** -->
<g id="edge30" class="edge">
<title>node29&#45;&gt;Dummy***************</title>
<path fill="none" stroke="black" d="M1678.7,-73.03C1699.79,-62 1723.99,-49.34 1743.67,-39.05"/>
<polygon fill="black" stroke="black" points="1745.41,-42.09 1752.65,-34.36 1742.17,-35.89 1745.41,-42.09"/>
</g>
</g>
</svg>
