<?xml version="1.0" encoding="UTF-8" standalone="no"?>
<!DOCTYPE svg PUBLIC "-//W3C//DTD SVG 1.1//EN"
 "http://www.w3.org/Graphics/SVG/1.1/DTD/svg11.dtd">
<!-- Generated by graphviz version 2.43.0 (0)
 -->
<!-- Title: pastafarianism Pages: 1 -->
<svg width="1862pt" height="372pt"
 viewBox="0.00 0.00 1861.73 372.00" xmlns="http://www.w3.org/2000/svg" xmlns:xlink="http://www.w3.org/1999/xlink">
<g id="graph0" class="graph" transform="scale(1 1) rotate(0) translate(4 368)">
<title>pastafarianism</title>
<polygon fill="white" stroke="transparent" points="-4,4 -4,-368 1857.73,-368 1857.73,4 -4,4"/>
<!-- node1 -->
<g id="node1" class="node">
<title>node1</title>
<polygon fill="orange" stroke="black" points="829.52,-364 772.52,-364 772.52,-328 829.52,-328 829.52,-364"/>
<text text-anchor="middle" x="801.02" y="-343.8" font-family="Times,serif" font-size="9.00">Ⓜ node1</text>
</g>
<!-- node2 -->
<g id="node2" class="node">
<title>node2</title>
<polygon fill="gold" stroke="black" points="655.9,-292 524.06,-292 490.14,-236 621.99,-236 655.9,-292"/>
<text text-anchor="middle" x="573.02" y="-266.8" font-family="Times,serif" font-size="9.00">node2</text>
<text text-anchor="middle" x="573.02" y="-256.8" font-family="Times,serif" font-size="9.00">SuccessOnAll</text>
</g>
<!-- node1&#45;&gt;node2 -->
<g id="edge1" class="edge">
<title>node1&#45;&gt;node2</title>
<path fill="none" stroke="black" d="M772.15,-334.87C743.86,-324.94 699.32,-309.32 659.54,-295.36"/>
<polygon fill="black" stroke="black" points="660.67,-292.04 650.07,-292.03 658.35,-298.65 660.67,-292.04"/>
</g>
<!-- node17 -->
<g id="node17" class="node">
<title>node17</title>
<polygon fill="gold" stroke="black" points="1090.9,-292 959.06,-292 925.14,-236 1056.99,-236 1090.9,-292"/>
<text text-anchor="middle" x="1008.02" y="-266.8" font-family="Times,serif" font-size="9.00">node17</text>
<text text-anchor="middle" x="1008.02" y="-256.8" font-family="Times,serif" font-size="9.00">SuccessOnAll</text>
</g>
<!-- node1&#45;&gt;node17 -->
<g id="edge16" class="edge">
<title>node1&#45;&gt;node17</title>
<path fill="none" stroke="black" d="M829.8,-333.88C859.5,-322.4 906.78,-304.13 945.18,-289.29"/>
<polygon fill="black" stroke="black" points="946.67,-292.47 954.73,-285.6 944.14,-285.94 946.67,-292.47"/>
</g>
<!-- node3 -->
<g id="node3" class="node">
<title>node3</title>
<polygon fill="orange" stroke="black" points="318.52,-200 261.52,-200 261.52,-164 318.52,-164 318.52,-200"/>
<text text-anchor="middle" x="290.02" y="-179.8" font-family="Times,serif" font-size="9.00">Ⓜ node3</text>
</g>
<!-- node2&#45;&gt;node3 -->
<g id="edge2" class="edge">
<title>node2&#45;&gt;node3</title>
<path fill="none" stroke="black" d="M492.68,-240.29C438.94,-225.1 370.62,-205.78 328.63,-193.91"/>
<polygon fill="black" stroke="black" points="329.37,-190.49 318.8,-191.13 327.47,-197.22 329.37,-190.49"/>
</g>
<!-- node10 -->
<g id="node10" class="node">
<title>node10</title>
<polygon fill="orange" stroke="black" points="604.52,-200 541.52,-200 541.52,-164 604.52,-164 604.52,-200"/>
<text text-anchor="middle" x="573.02" y="-179.8" font-family="Times,serif" font-size="9.00">Ⓜ node10</text>
</g>
<!-- node2&#45;&gt;node10 -->
<g id="edge9" class="edge">
<title>node2&#45;&gt;node10</title>
<path fill="none" stroke="black" d="M573.02,-235.92C573.02,-227.72 573.02,-218.72 573.02,-210.49"/>
<polygon fill="black" stroke="black" points="576.52,-210.27 573.02,-200.27 569.52,-210.27 576.52,-210.27"/>
</g>
<!-- node4 -->
<g id="node4" class="node">
<title>node4</title>
<polygon fill="gold" stroke="black" points="188.9,-128 57.06,-128 23.14,-72 154.99,-72 188.9,-128"/>
<text text-anchor="middle" x="106.02" y="-102.8" font-family="Times,serif" font-size="9.00">node4</text>
<text text-anchor="middle" x="106.02" y="-92.8" font-family="Times,serif" font-size="9.00">SuccessOnAll</text>
</g>
<!-- node3&#45;&gt;node4 -->
<g id="edge3" class="edge">
<title>node3&#45;&gt;node4</title>
<path fill="none" stroke="black" d="M261.27,-168.5C238.93,-158.78 206.93,-144.87 177.79,-132.2"/>
<polygon fill="black" stroke="black" points="179.01,-128.92 168.44,-128.14 176.22,-135.34 179.01,-128.92"/>
</g>
<!-- node7 -->
<g id="node7" class="node">
<title>node7</title>
<polygon fill="gold" stroke="black" points="372.9,-128 241.06,-128 207.14,-72 338.99,-72 372.9,-128"/>
<text text-anchor="middle" x="290.02" y="-102.8" font-family="Times,serif" font-size="9.00">node7</text>
<text text-anchor="middle" x="290.02" y="-92.8" font-family="Times,serif" font-size="9.00">SuccessOnAll</text>
</g>
<!-- node3&#45;&gt;node7 -->
<g id="edge6" class="edge">
<title>node3&#45;&gt;node7</title>
<path fill="none" stroke="black" d="M290.02,-163.64C290.02,-156.18 290.02,-147.14 290.02,-138.29"/>
<polygon fill="black" stroke="black" points="293.52,-138.08 290.02,-128.08 286.52,-138.08 293.52,-138.08"/>
</g>
<!-- Dummy -->
<g id="node5" class="node">
<title>Dummy</title>
<ellipse fill="gray" stroke="black" cx="30.02" cy="-18" rx="30.04" ry="18"/>
<text text-anchor="middle" x="30.02" y="-15.8" font-family="Times,serif" font-size="9.00">Dummy</text>
</g>
<!-- node4&#45;&gt;Dummy -->
<g id="edge4" class="edge">
<title>node4&#45;&gt;Dummy</title>
<path fill="none" stroke="black" d="M80.29,-71.92C70.87,-62 60.33,-50.9 51.33,-41.43"/>
<polygon fill="black" stroke="black" points="53.63,-38.77 44.21,-33.93 48.56,-43.59 53.63,-38.77"/>
</g>
<!-- Dummy* -->
<g id="node6" class="node">
<title>Dummy*</title>
<ellipse fill="gray" stroke="black" cx="110.02" cy="-18" rx="32.16" ry="18"/>
<text text-anchor="middle" x="110.02" y="-15.8" font-family="Times,serif" font-size="9.00">Dummy*</text>
</g>
<!-- node4&#45;&gt;Dummy* -->
<g id="edge5" class="edge">
<title>node4&#45;&gt;Dummy*</title>
<path fill="none" stroke="black" d="M107.38,-71.92C107.79,-63.72 108.24,-54.72 108.65,-46.49"/>
<polygon fill="black" stroke="black" points="112.15,-46.43 109.16,-36.27 105.16,-46.09 112.15,-46.43"/>
</g>
<!-- Dummy** -->
<g id="node8" class="node">
<title>Dummy**</title>
<ellipse fill="gray" stroke="black" cx="199.02" cy="-18" rx="35.44" ry="18"/>
<text text-anchor="middle" x="199.02" y="-15.8" font-family="Times,serif" font-size="9.00">Dummy**</text>
</g>
<!-- node7&#45;&gt;Dummy** -->
<g id="edge7" class="edge">
<title>node7&#45;&gt;Dummy**</title>
<path fill="none" stroke="black" d="M259.21,-71.92C247.6,-61.7 234.55,-50.23 223.58,-40.59"/>
<polygon fill="black" stroke="black" points="225.83,-37.9 216.01,-33.93 221.2,-43.16 225.83,-37.9"/>
</g>
<!-- Dummy*** -->
<g id="node9" class="node">
<title>Dummy***</title>
<ellipse fill="gray" stroke="black" cx="290.02" cy="-18" rx="37.56" ry="18"/>
<text text-anchor="middle" x="290.02" y="-15.8" font-family="Times,serif" font-size="9.00">Dummy***</text>
</g>
<!-- node7&#45;&gt;Dummy*** -->
<g id="edge8" class="edge">
<title>node7&#45;&gt;Dummy***</title>
<path fill="none" stroke="black" d="M290.02,-71.92C290.02,-63.72 290.02,-54.72 290.02,-46.49"/>
<polygon fill="black" stroke="black" points="293.52,-46.27 290.02,-36.27 286.52,-46.27 293.52,-46.27"/>
</g>
<!-- node11 -->
<g id="node11" class="node">
<title>node11</title>
<polygon fill="gold" stroke="black" points="563.9,-128 432.06,-128 398.14,-72 529.99,-72 563.9,-128"/>
<text text-anchor="middle" x="481.02" y="-102.8" font-family="Times,serif" font-size="9.00">node11</text>
<text text-anchor="middle" x="481.02" y="-92.8" font-family="Times,serif" font-size="9.00">SuccessOnAll</text>
</g>
<!-- node10&#45;&gt;node11 -->
<g id="edge10" class="edge">
<title>node10&#45;&gt;node11</title>
<path fill="none" stroke="black" d="M553.06,-163.64C543.36,-155.2 531.35,-144.76 519.93,-134.84"/>
<polygon fill="black" stroke="black" points="522.01,-132 512.16,-128.08 517.41,-137.28 522.01,-132"/>
</g>
<!-- node14 -->
<g id="node14" class="node">
<title>node14</title>
<polygon fill="gold" stroke="black" points="747.9,-128 616.06,-128 582.14,-72 713.99,-72 747.9,-128"/>
<text text-anchor="middle" x="665.02" y="-102.8" font-family="Times,serif" font-size="9.00">node14</text>
<text text-anchor="middle" x="665.02" y="-92.8" font-family="Times,serif" font-size="9.00">SuccessOnAll</text>
</g>
<!-- node10&#45;&gt;node14 -->
<g id="edge13" class="edge">
<title>node10&#45;&gt;node14</title>
<path fill="none" stroke="black" d="M592.98,-163.64C602.69,-155.2 614.7,-144.76 626.11,-134.84"/>
<polygon fill="black" stroke="black" points="628.63,-137.28 633.88,-128.08 624.04,-132 628.63,-137.28"/>
</g>
<!-- Dummy**** -->
<g id="node12" class="node">
<title>Dummy****</title>
<ellipse fill="gray" stroke="black" cx="386.02" cy="-18" rx="40.33" ry="18"/>
<text text-anchor="middle" x="386.02" y="-15.8" font-family="Times,serif" font-size="9.00">Dummy****</text>
</g>
<!-- node11&#45;&gt;Dummy**** -->
<g id="edge11" class="edge">
<title>node11&#45;&gt;Dummy****</title>
<path fill="none" stroke="black" d="M448.86,-71.92C436.82,-61.78 423.3,-50.39 411.9,-40.79"/>
<polygon fill="black" stroke="black" points="413.93,-37.92 404.02,-34.16 409.42,-43.28 413.93,-37.92"/>
</g>
<!-- Dummy***** -->
<g id="node13" class="node">
<title>Dummy*****</title>
<ellipse fill="gray" stroke="black" cx="487.02" cy="-18" rx="42.95" ry="18"/>
<text text-anchor="middle" x="487.02" y="-15.8" font-family="Times,serif" font-size="9.00">Dummy*****</text>
</g>
<!-- node11&#45;&gt;Dummy***** -->
<g id="edge12" class="edge">
<title>node11&#45;&gt;Dummy*****</title>
<path fill="none" stroke="black" d="M483.05,-71.92C483.67,-63.72 484.34,-54.72 484.96,-46.49"/>
<polygon fill="black" stroke="black" points="488.47,-46.51 485.73,-36.27 481.49,-45.98 488.47,-46.51"/>
</g>
<!-- Dummy****** -->
<g id="node15" class="node">
<title>Dummy******</title>
<ellipse fill="gray" stroke="black" cx="593.02" cy="-18" rx="45.72" ry="18"/>
<text text-anchor="middle" x="593.02" y="-15.8" font-family="Times,serif" font-size="9.00">Dummy******</text>
</g>
<!-- node14&#45;&gt;Dummy****** -->
<g id="edge14" class="edge">
<title>node14&#45;&gt;Dummy******</title>
<path fill="none" stroke="black" d="M640.65,-71.92C632.19,-62.52 622.78,-52.06 614.56,-42.94"/>
<polygon fill="black" stroke="black" points="617,-40.41 607.71,-35.32 611.8,-45.1 617,-40.41"/>
</g>
<!-- Dummy******* -->
<g id="node16" class="node">
<title>Dummy*******</title>
<ellipse fill="gray" stroke="black" cx="705.02" cy="-18" rx="47.84" ry="18"/>
<text text-anchor="middle" x="705.02" y="-15.8" font-family="Times,serif" font-size="9.00">Dummy*******</text>
</g>
<!-- node14&#45;&gt;Dummy******* -->
<g id="edge15" class="edge">
<title>node14&#45;&gt;Dummy*******</title>
<path fill="none" stroke="black" d="M678.56,-71.92C682.91,-63.22 687.72,-53.61 692.02,-45"/>
<polygon fill="black" stroke="black" points="695.28,-46.3 696.62,-35.79 689.02,-43.17 695.28,-46.3"/>
</g>
<!-- node18 -->
<g id="node18" class="node">
<title>node18</title>
<polygon fill="orange" stroke="black" points="1039.52,-200 976.52,-200 976.52,-164 1039.52,-164 1039.52,-200"/>
<text text-anchor="middle" x="1008.02" y="-179.8" font-family="Times,serif" font-size="9.00">Ⓜ node18</text>
</g>
<!-- node17&#45;&gt;node18 -->
<g id="edge17" class="edge">
<title>node17&#45;&gt;node18</title>
<path fill="none" stroke="black" d="M1008.02,-235.92C1008.02,-227.72 1008.02,-218.72 1008.02,-210.49"/>
<polygon fill="black" stroke="black" points="1011.52,-210.27 1008.02,-200.27 1004.52,-210.27 1011.52,-210.27"/>
</g>
<!-- node25 -->
<g id="node25" class="node">
<title>node25</title>
<polygon fill="orange" stroke="black" points="1425.52,-200 1362.52,-200 1362.52,-164 1425.52,-164 1425.52,-200"/>
<text text-anchor="middle" x="1394.02" y="-179.8" font-family="Times,serif" font-size="9.00">Ⓜ node25</text>
</g>
<!-- node17&#45;&gt;node25 -->
<g id="edge24" class="edge">
<title>node17&#45;&gt;node25</title>
<path fill="none" stroke="black" d="M1066.23,-250.94C1144.76,-234.66 1282.75,-206.06 1351.95,-191.72"/>
<polygon fill="black" stroke="black" points="1352.97,-195.08 1362.05,-189.63 1351.55,-188.23 1352.97,-195.08"/>
</g>
<!-- node19 -->
<g id="node19" class="node">
<title>node19</title>
<polygon fill="gold" stroke="black" points="998.9,-128 867.06,-128 833.14,-72 964.99,-72 998.9,-128"/>
<text text-anchor="middle" x="916.02" y="-102.8" font-family="Times,serif" font-size="9.00">node19</text>
<text text-anchor="middle" x="916.02" y="-92.8" font-family="Times,serif" font-size="9.00">SuccessOnAll</text>
</g>
<!-- node18&#45;&gt;node19 -->
<g id="edge18" class="edge">
<title>node18&#45;&gt;node19</title>
<path fill="none" stroke="black" d="M988.06,-163.64C978.36,-155.2 966.35,-144.76 954.93,-134.84"/>
<polygon fill="black" stroke="black" points="957.01,-132 947.16,-128.08 952.41,-137.28 957.01,-132"/>
</g>
<!-- node22 -->
<g id="node22" class="node">
<title>node22</title>
<polygon fill="gold" stroke="black" points="1182.9,-128 1051.06,-128 1017.14,-72 1148.99,-72 1182.9,-128"/>
<text text-anchor="middle" x="1100.02" y="-102.8" font-family="Times,serif" font-size="9.00">node22</text>
<text text-anchor="middle" x="1100.02" y="-92.8" font-family="Times,serif" font-size="9.00">SuccessOnAll</text>
</g>
<!-- node18&#45;&gt;node22 -->
<g id="edge21" class="edge">
<title>node18&#45;&gt;node22</title>
<path fill="none" stroke="black" d="M1027.98,-163.64C1037.69,-155.2 1049.7,-144.76 1061.11,-134.84"/>
<polygon fill="black" stroke="black" points="1063.63,-137.28 1068.88,-128.08 1059.04,-132 1063.63,-137.28"/>
</g>
<!-- Dummy******** -->
<g id="node20" class="node">
<title>Dummy********</title>
<ellipse fill="gray" stroke="black" cx="822.02" cy="-18" rx="50.61" ry="18"/>
<text text-anchor="middle" x="822.02" y="-15.8" font-family="Times,serif" font-size="9.00">Dummy********</text>
</g>
<!-- node19&#45;&gt;Dummy******** -->
<g id="edge19" class="edge">
<title>node19&#45;&gt;Dummy********</title>
<path fill="none" stroke="black" d="M884.2,-71.92C872.54,-61.99 859.49,-50.89 848.36,-41.42"/>
<polygon fill="black" stroke="black" points="850.53,-38.67 840.65,-34.85 846,-44 850.53,-38.67"/>
</g>
<!-- Dummy********* -->
<g id="node21" class="node">
<title>Dummy*********</title>
<ellipse fill="gray" stroke="black" cx="944.02" cy="-18" rx="53.23" ry="18"/>
<text text-anchor="middle" x="944.02" y="-15.8" font-family="Times,serif" font-size="9.00">Dummy*********</text>
</g>
<!-- node19&#45;&gt;Dummy********* -->
<g id="edge20" class="edge">
<title>node19&#45;&gt;Dummy*********</title>
<path fill="none" stroke="black" d="M925.5,-71.92C928.43,-63.54 931.66,-54.31 934.59,-45.94"/>
<polygon fill="black" stroke="black" points="937.98,-46.87 937.98,-36.27 931.37,-44.55 937.98,-46.87"/>
</g>
<!-- Dummy********** -->
<g id="node23" class="node">
<title>Dummy**********</title>
<ellipse fill="gray" stroke="black" cx="1071.02" cy="-18" rx="56.01" ry="18"/>
<text text-anchor="middle" x="1071.02" y="-15.8" font-family="Times,serif" font-size="9.00">Dummy**********</text>
</g>
<!-- node22&#45;&gt;Dummy********** -->
<g id="edge22" class="edge">
<title>node22&#45;&gt;Dummy**********</title>
<path fill="none" stroke="black" d="M1090.2,-71.92C1087.17,-63.54 1083.82,-54.31 1080.79,-45.94"/>
<polygon fill="black" stroke="black" points="1083.98,-44.48 1077.28,-36.27 1077.4,-46.87 1083.98,-44.48"/>
</g>
<!-- Dummy*********** -->
<g id="node24" class="node">
<title>Dummy***********</title>
<ellipse fill="gray" stroke="black" cx="1203.02" cy="-18" rx="58.13" ry="18"/>
<text text-anchor="middle" x="1203.02" y="-15.8" font-family="Times,serif" font-size="9.00">Dummy***********</text>
</g>
<!-- node22&#45;&gt;Dummy*********** -->
<g id="edge23" class="edge">
<title>node22&#45;&gt;Dummy***********</title>
<path fill="none" stroke="black" d="M1134.89,-71.92C1147.7,-61.97 1162.04,-50.83 1174.24,-41.35"/>
<polygon fill="black" stroke="black" points="1176.56,-43.99 1182.31,-35.09 1172.27,-38.46 1176.56,-43.99"/>
</g>
<!-- node26 -->
<g id="node26" class="node">
<title>node26</title>
<polygon fill="gold" stroke="black" points="1476.9,-128 1345.06,-128 1311.14,-72 1442.99,-72 1476.9,-128"/>
<text text-anchor="middle" x="1394.02" y="-102.8" font-family="Times,serif" font-size="9.00">node26</text>
<text text-anchor="middle" x="1394.02" y="-92.8" font-family="Times,serif" font-size="9.00">SuccessOnAll</text>
</g>
<!-- node25&#45;&gt;node26 -->
<g id="edge25" class="edge">
<title>node25&#45;&gt;node26</title>
<path fill="none" stroke="black" d="M1394.02,-163.64C1394.02,-156.18 1394.02,-147.14 1394.02,-138.29"/>
<polygon fill="black" stroke="black" points="1397.52,-138.08 1394.02,-128.08 1390.52,-138.08 1397.52,-138.08"/>
</g>
<!-- node29 -->
<g id="node29" class="node">
<title>node29</title>
<polygon fill="gold" stroke="black" points="1714.9,-128 1583.06,-128 1549.14,-72 1680.99,-72 1714.9,-128"/>
<text text-anchor="middle" x="1632.02" y="-102.8" font-family="Times,serif" font-size="9.00">node29</text>
<text text-anchor="middle" x="1632.02" y="-92.8" font-family="Times,serif" font-size="9.00">SuccessOnAll</text>
</g>
<!-- node25&#45;&gt;node29 -->
<g id="edge28" class="edge">
<title>node25&#45;&gt;node29</title>
<path fill="none" stroke="black" d="M1425.63,-170.38C1461.75,-158.23 1521.82,-138.04 1567.87,-122.57"/>
<polygon fill="black" stroke="black" points="1569.1,-125.84 1577.46,-119.34 1566.87,-119.21 1569.1,-125.84"/>
</g>
<!-- Dummy************ -->
<g id="node27" class="node">
<title>Dummy************</title>
<ellipse fill="gray" stroke="black" cx="1341.02" cy="-18" rx="61.4" ry="18"/>
<text text-anchor="middle" x="1341.02" y="-15.8" font-family="Times,serif" font-size="9.00">Dummy************</text>
</g>
<!-- node26&#45;&gt;Dummy************ -->
<g id="edge26" class="edge">
<title>node26&#45;&gt;Dummy************</title>
<path fill="none" stroke="black" d="M1376.08,-71.92C1370.13,-62.94 1363.54,-52.99 1357.7,-44.17"/>
<polygon fill="black" stroke="black" points="1360.59,-42.2 1352.15,-35.79 1354.75,-46.06 1360.59,-42.2"/>
</g>
<!-- Dummy************* -->
<g id="node28" class="node">
<title>Dummy*************</title>
<ellipse fill="gray" stroke="black" cx="1484.02" cy="-18" rx="63.52" ry="18"/>
<text text-anchor="middle" x="1484.02" y="-15.8" font-family="Times,serif" font-size="9.00">Dummy*************</text>
</g>
<!-- node26&#45;&gt;Dummy************* -->
<g id="edge27" class="edge">
<title>node26&#45;&gt;Dummy*************</title>
<path fill="none" stroke="black" d="M1424.49,-71.92C1435.38,-62.24 1447.55,-51.42 1458.02,-42.11"/>
<polygon fill="black" stroke="black" points="1460.51,-44.58 1465.66,-35.32 1455.86,-39.35 1460.51,-44.58"/>
</g>
<!-- Dummy************** -->
<g id="node30" class="node">
<title>Dummy**************</title>
<ellipse fill="gray" stroke="black" cx="1632.02" cy="-18" rx="66.29" ry="18"/>
<text text-anchor="middle" x="1632.02" y="-15.8" font-family="Times,serif" font-size="9.00">Dummy**************</text>
</g>
<!-- node29&#45;&gt;Dummy************** -->
<g id="edge29" class="edge">
<title>node29&#45;&gt;Dummy**************</title>
<path fill="none" stroke="black" d="M1632.02,-71.92C1632.02,-63.72 1632.02,-54.72 1632.02,-46.49"/>
<polygon fill="black" stroke="black" points="1635.52,-46.27 1632.02,-36.27 1628.52,-46.27 1635.52,-46.27"/>
</g>
<!-- Dummy*************** -->
<g id="node31" class="node">
<title>Dummy***************</title>
<ellipse fill="gray" stroke="black" cx="1785.02" cy="-18" rx="68.91" ry="18"/>
<text text-anchor="middle" x="1785.02" y="-15.8" font-family="Times,serif" font-size="9.00">Dummy***************</text>
</g>
<!-- node29&#45;&gt;Dummy*************** -->
<g id="edge30" class="edge">
<title>node29&#45;&gt;Dummy***************</title>
<path fill="none" stroke="black" d="M1681.7,-73.03C1702.79,-62 1726.99,-49.34 1746.67,-39.05"/>
<polygon fill="black" stroke="black" points="1748.41,-42.09 1755.65,-34.36 1745.17,-35.89 1748.41,-42.09"/>
</g>
</g>
</svg>
