<?xml version="1.0" encoding="UTF-8" standalone="no"?>
<!DOCTYPE svg PUBLIC "-//W3C//DTD SVG 1.1//EN"
 "http://www.w3.org/Graphics/SVG/1.1/DTD/svg11.dtd">
<!-- Generated by graphviz version 2.43.0 (0)
 -->
<!-- Title: pastafarianism Pages: 1 -->
<svg width="376pt" height="208pt"
 viewBox="0.00 0.00 376.47 208.00" xmlns="http://www.w3.org/2000/svg" xmlns:xlink="http://www.w3.org/1999/xlink">
<g id="graph0" class="graph" transform="scale(1 1) rotate(0) translate(4 204)">
<title>pastafarianism</title>
<polygon fill="white" stroke="transparent" points="-4,4 -4,-204 372.47,-204 372.47,4 -4,4"/>
<!-- node1 -->
<g id="node1" class="node">
<title>node1</title>
<polygon fill="cyan" stroke="black" points="203.18,-174.54 203.18,-189.46 186.64,-200 163.24,-200 146.7,-189.46 146.7,-174.54 163.24,-164 186.64,-164 203.18,-174.54"/>
<text text-anchor="middle" x="174.94" y="-179.8" font-family="Times,serif" font-size="9.00">node1</text>
</g>
<!-- node2 -->
<g id="node2" class="node">
<title>node2</title>
<polygon fill="gold" stroke="black" points="165.82,-128 33.98,-128 0.06,-72 131.9,-72 165.82,-128"/>
<text text-anchor="middle" x="82.94" y="-102.8" font-family="Times,serif" font-size="9.00">⚡ node2</text>
<text text-anchor="middle" x="82.94" y="-92.8" font-family="Times,serif" font-size="9.00">SuccessOnAll</text>
</g>
<!-- node1&#45;&gt;node2 -->
<g id="edge1" class="edge">
<title>node1&#45;&gt;node2</title>
<path fill="none" stroke="black" d="M158.49,-166.7C148.31,-157.84 134.77,-146.07 121.96,-134.93"/>
<polygon fill="black" stroke="black" points="123.97,-132.04 114.13,-128.12 119.37,-137.32 123.97,-132.04"/>
</g>
<!-- node5 -->
<g id="node5" class="node">
<title>node5</title>
<polygon fill="gold" stroke="black" points="349.82,-128 217.98,-128 184.06,-72 315.9,-72 349.82,-128"/>
<text text-anchor="middle" x="266.94" y="-102.8" font-family="Times,serif" font-size="9.00">⚡ node5</text>
<text text-anchor="middle" x="266.94" y="-92.8" font-family="Times,serif" font-size="9.00">SuccessOnAll</text>
</g>
<!-- node1&#45;&gt;node5 -->
<g id="edge4" class="edge">
<title>node1&#45;&gt;node5</title>
<path fill="none" stroke="black" d="M191.39,-166.7C201.57,-157.84 215.11,-146.07 227.92,-134.93"/>
<polygon fill="black" stroke="black" points="230.51,-137.32 235.76,-128.12 225.91,-132.04 230.51,-137.32"/>
</g>
<!-- Dummy -->
<g id="node3" class="node">
<title>Dummy</title>
<ellipse fill="gray" stroke="black" cx="46.94" cy="-18" rx="30.04" ry="18"/>
<text text-anchor="middle" x="46.94" y="-15.8" font-family="Times,serif" font-size="9.00">Dummy</text>
</g>
<!-- node2&#45;&gt;Dummy -->
<g id="edge2" class="edge">
<title>node2&#45;&gt;Dummy</title>
<path fill="none" stroke="black" d="M70.75,-71.92C66.84,-63.22 62.52,-53.61 58.64,-45"/>
<polygon fill="black" stroke="black" points="61.79,-43.48 54.5,-35.79 55.41,-46.35 61.79,-43.48"/>
</g>
<!-- Dummy* -->
<g id="node4" class="node">
<title>Dummy*</title>
<ellipse fill="gray" stroke="black" cx="126.94" cy="-18" rx="32.16" ry="18"/>
<text text-anchor="middle" x="126.94" y="-15.8" font-family="Times,serif" font-size="9.00">Dummy*</text>
</g>
<!-- node2&#45;&gt;Dummy* -->
<g id="edge3" class="edge">
<title>node2&#45;&gt;Dummy*</title>
<path fill="none" stroke="black" d="M97.84,-71.92C102.74,-62.99 108.18,-53.11 113.01,-44.33"/>
<polygon fill="black" stroke="black" points="116.21,-45.77 117.96,-35.32 110.08,-42.4 116.21,-45.77"/>
</g>
<!-- Dummy** -->
<g id="node6" class="node">
<title>Dummy**</title>
<ellipse fill="gray" stroke="black" cx="239.94" cy="-18" rx="35.44" ry="18"/>
<text text-anchor="middle" x="239.94" y="-15.8" font-family="Times,serif" font-size="9.00">Dummy**</text>
</g>
<!-- node5&#45;&gt;Dummy** -->
<g id="edge5" class="edge">
<title>node5&#45;&gt;Dummy**</title>
<path fill="none" stroke="black" d="M257.8,-71.92C254.9,-63.31 251.69,-53.82 248.81,-45.28"/>
<polygon fill="black" stroke="black" points="252.12,-44.15 245.61,-35.79 245.49,-46.39 252.12,-44.15"/>
</g>
<!-- Dummy*** -->
<g id="node7" class="node">
<title>Dummy***</title>
<ellipse fill="gray" stroke="black" cx="330.94" cy="-18" rx="37.56" ry="18"/>
<text text-anchor="middle" x="330.94" y="-15.8" font-family="Times,serif" font-size="9.00">Dummy***</text>
</g>
<!-- node5&#45;&gt;Dummy*** -->
<g id="edge6" class="edge">
<title>node5&#45;&gt;Dummy***</title>
<path fill="none" stroke="black" d="M288.61,-71.92C296.05,-62.61 304.32,-52.27 311.57,-43.21"/>
<polygon fill="black" stroke="black" points="314.37,-45.32 317.88,-35.32 308.9,-40.94 314.37,-45.32"/>
</g>
</g>
</svg>
