<?xml version="1.0" encoding="UTF-8" standalone="no"?>
<!DOCTYPE svg PUBLIC "-//W3C//DTD SVG 1.1//EN"
 "http://www.w3.org/Graphics/SVG/1.1/DTD/svg11.dtd">
<!-- Generated by graphviz version 2.43.0 (0)
 -->
<!-- Title: pastafarianism Pages: 1 -->
<svg width="1002pt" height="136pt"
 viewBox="0.00 0.00 1002.14 136.00" xmlns="http://www.w3.org/2000/svg" xmlns:xlink="http://www.w3.org/1999/xlink">
<g id="graph0" class="graph" transform="scale(1 1) rotate(0) translate(4 132)">
<title>pastafarianism</title>
<polygon fill="white" stroke="transparent" points="-4,4 -4,-132 998.14,-132 998.14,4 -4,4"/>
<!-- root -->
<g id="node1" class="node">
<title>root</title>
<polygon fill="gold" stroke="black" points="515.9,-128 384.06,-128 350.14,-72 481.99,-72 515.9,-128"/>
<text text-anchor="middle" x="433.02" y="-102.8" font-family="Times,serif" font-size="9.00">⚡ root</text>
<text text-anchor="middle" x="433.02" y="-92.8" font-family="Times,serif" font-size="9.00">SuccessOnAll</text>
</g>
<!-- Dummy -->
<g id="node2" class="node">
<title>Dummy</title>
<ellipse fill="gray" stroke="black" cx="30.02" cy="-18" rx="30.04" ry="18"/>
<text text-anchor="middle" x="30.02" y="-15.8" font-family="Times,serif" font-size="9.00">Dummy</text>
</g>
<!-- root&#45;&gt;Dummy -->
<g id="edge1" class="edge">
<title>root&#45;&gt;Dummy</title>
<path fill="none" stroke="black" d="M362.09,-91.82C287.87,-83.14 168.54,-65.83 69.02,-36 66.75,-35.32 64.44,-34.54 62.13,-33.71"/>
<polygon fill="black" stroke="black" points="63.36,-30.43 52.78,-30 60.79,-36.94 63.36,-30.43"/>
</g>
<!-- Dummy* -->
<g id="node3" class="node">
<title>Dummy*</title>
<ellipse fill="gray" stroke="black" cx="110.02" cy="-18" rx="32.16" ry="18"/>
<text text-anchor="middle" x="110.02" y="-15.8" font-family="Times,serif" font-size="9.00">Dummy*</text>
</g>
<!-- root&#45;&gt;Dummy* -->
<g id="edge2" class="edge">
<title>root&#45;&gt;Dummy*</title>
<path fill="none" stroke="black" d="M358.19,-85.69C301.07,-74.7 220.75,-57.45 152.02,-36 149.44,-35.19 146.79,-34.3 144.14,-33.35"/>
<polygon fill="black" stroke="black" points="145.24,-30.02 134.65,-29.75 142.76,-36.57 145.24,-30.02"/>
</g>
<!-- Dummy** -->
<g id="node4" class="node">
<title>Dummy**</title>
<ellipse fill="gray" stroke="black" cx="196.02" cy="-18" rx="35.44" ry="18"/>
<text text-anchor="middle" x="196.02" y="-15.8" font-family="Times,serif" font-size="9.00">Dummy**</text>
</g>
<!-- root&#45;&gt;Dummy** -->
<g id="edge3" class="edge">
<title>root&#45;&gt;Dummy**</title>
<path fill="none" stroke="black" d="M350.52,-73.13C316.21,-62.1 276.05,-48.83 240.02,-36 237.51,-35.1 234.92,-34.16 232.31,-33.19"/>
<polygon fill="black" stroke="black" points="233.52,-29.91 222.93,-29.66 231.05,-36.46 233.52,-29.91"/>
</g>
<!-- Dummy*** -->
<g id="node5" class="node">
<title>Dummy***</title>
<ellipse fill="gray" stroke="black" cx="287.02" cy="-18" rx="37.56" ry="18"/>
<text text-anchor="middle" x="287.02" y="-15.8" font-family="Times,serif" font-size="9.00">Dummy***</text>
</g>
<!-- root&#45;&gt;Dummy*** -->
<g id="edge4" class="edge">
<title>root&#45;&gt;Dummy***</title>
<path fill="none" stroke="black" d="M383.59,-71.92C362.55,-60.39 338.58,-47.25 319.78,-36.95"/>
<polygon fill="black" stroke="black" points="321.46,-33.88 311.01,-32.14 318.1,-40.02 321.46,-33.88"/>
</g>
<!-- Dummy**** -->
<g id="node6" class="node">
<title>Dummy****</title>
<ellipse fill="gray" stroke="black" cx="383.02" cy="-18" rx="40.33" ry="18"/>
<text text-anchor="middle" x="383.02" y="-15.8" font-family="Times,serif" font-size="9.00">Dummy****</text>
</g>
<!-- root&#45;&gt;Dummy**** -->
<g id="edge5" class="edge">
<title>root&#45;&gt;Dummy****</title>
<path fill="none" stroke="black" d="M416.09,-71.92C410.54,-63.03 404.4,-53.2 398.93,-44.44"/>
<polygon fill="black" stroke="black" points="401.79,-42.42 393.52,-35.79 395.85,-46.13 401.79,-42.42"/>
</g>
<!-- Dummy***** -->
<g id="node7" class="node">
<title>Dummy*****</title>
<ellipse fill="gray" stroke="black" cx="484.02" cy="-18" rx="42.95" ry="18"/>
<text text-anchor="middle" x="484.02" y="-15.8" font-family="Times,serif" font-size="9.00">Dummy*****</text>
</g>
<!-- root&#45;&gt;Dummy***** -->
<g id="edge6" class="edge">
<title>root&#45;&gt;Dummy*****</title>
<path fill="none" stroke="black" d="M450.29,-71.92C455.95,-63.03 462.22,-53.2 467.8,-44.44"/>
<polygon fill="black" stroke="black" points="470.89,-46.11 473.32,-35.79 464.99,-42.35 470.89,-46.11"/>
</g>
<!-- Dummy****** -->
<g id="node8" class="node">
<title>Dummy******</title>
<ellipse fill="gray" stroke="black" cx="590.02" cy="-18" rx="45.72" ry="18"/>
<text text-anchor="middle" x="590.02" y="-15.8" font-family="Times,serif" font-size="9.00">Dummy******</text>
</g>
<!-- root&#45;&gt;Dummy****** -->
<g id="edge7" class="edge">
<title>root&#45;&gt;Dummy******</title>
<path fill="none" stroke="black" d="M483.13,-73.47C506.27,-61.68 533.21,-47.95 554.26,-37.22"/>
<polygon fill="black" stroke="black" points="555.86,-40.33 563.18,-32.68 552.68,-34.1 555.86,-40.33"/>
</g>
<!-- Dummy******* -->
<g id="node9" class="node">
<title>Dummy*******</title>
<ellipse fill="gray" stroke="black" cx="702.02" cy="-18" rx="47.84" ry="18"/>
<text text-anchor="middle" x="702.02" y="-15.8" font-family="Times,serif" font-size="9.00">Dummy*******</text>
</g>
<!-- root&#45;&gt;Dummy******* -->
<g id="edge8" class="edge">
<title>root&#45;&gt;Dummy*******</title>
<path fill="none" stroke="black" d="M488.82,-82.43C531.58,-69.74 592.03,-51.78 645.02,-36 648.55,-34.95 652.19,-33.87 655.86,-32.77"/>
<polygon fill="black" stroke="black" points="656.95,-36.1 665.53,-29.89 654.95,-29.39 656.95,-36.1"/>
</g>
<!-- Dummy******** -->
<g id="node10" class="node">
<title>Dummy********</title>
<ellipse fill="gray" stroke="black" cx="819.02" cy="-18" rx="50.61" ry="18"/>
<text text-anchor="middle" x="819.02" y="-15.8" font-family="Times,serif" font-size="9.00">Dummy********</text>
</g>
<!-- root&#45;&gt;Dummy******** -->
<g id="edge9" class="edge">
<title>root&#45;&gt;Dummy********</title>
<path fill="none" stroke="black" d="M492.54,-89.07C558.14,-77.76 666.63,-57.97 759.02,-36 763.11,-35.03 767.34,-33.96 771.57,-32.85"/>
<polygon fill="black" stroke="black" points="772.64,-36.18 781.38,-30.19 770.82,-29.42 772.64,-36.18"/>
</g>
<!-- Dummy********* -->
<g id="node11" class="node">
<title>Dummy*********</title>
<ellipse fill="gray" stroke="black" cx="941.02" cy="-18" rx="53.23" ry="18"/>
<text text-anchor="middle" x="941.02" y="-15.8" font-family="Times,serif" font-size="9.00">Dummy*********</text>
</g>
<!-- root&#45;&gt;Dummy********* -->
<g id="edge10" class="edge">
<title>root&#45;&gt;Dummy*********</title>
<path fill="none" stroke="black" d="M494.77,-92.79C581.25,-83.53 743.1,-64.12 879.02,-36 883.38,-35.1 887.89,-34.06 892.39,-32.96"/>
<polygon fill="black" stroke="black" points="893.36,-36.33 902.18,-30.46 891.62,-29.55 893.36,-36.33"/>
</g>
</g>
</svg>
