<?xml version="1.0" encoding="UTF-8" standalone="no"?>
<!DOCTYPE svg PUBLIC "-//W3C//DTD SVG 1.1//EN"
 "http://www.w3.org/Graphics/SVG/1.1/DTD/svg11.dtd">
<!-- Generated by graphviz version 2.43.0 (0)
 -->
<!-- Title: pastafarianism Pages: 1 -->
<svg width="1407pt" height="136pt"
 viewBox="0.00 0.00 1407.22 136.00" xmlns="http://www.w3.org/2000/svg" xmlns:xlink="http://www.w3.org/1999/xlink">
<g id="graph0" class="graph" transform="scale(1 1) rotate(0) translate(4 132)">
<title>pastafarianism</title>
<polygon fill="white" stroke="transparent" points="-4,4 -4,-132 1403.22,-132 1403.22,4 -4,4"/>
<!-- root -->
<g id="node1" class="node">
<title>root</title>
<polygon fill="gold" stroke="black" points="672.9,-128 541.06,-128 507.14,-72 638.99,-72 672.9,-128"/>
<text text-anchor="middle" x="590.02" y="-102.8" font-family="Times,serif" font-size="9.00">⚡ root</text>
<text text-anchor="middle" x="590.02" y="-92.8" font-family="Times,serif" font-size="9.00">SuccessOnAll</text>
</g>
<!-- Dummy -->
<g id="node2" class="node">
<title>Dummy</title>
<ellipse fill="gray" stroke="black" cx="30.02" cy="-18" rx="30.04" ry="18"/>
<text text-anchor="middle" x="30.02" y="-15.8" font-family="Times,serif" font-size="9.00">Dummy</text>
</g>
<!-- root&#45;&gt;Dummy -->
<g id="edge1" class="edge">
<title>root&#45;&gt;Dummy</title>
<path fill="none" stroke="black" d="M522.21,-97.06C421.63,-92.79 227.71,-79.18 69.02,-36 66.74,-35.38 64.41,-34.65 62.09,-33.84"/>
<polygon fill="black" stroke="black" points="63.31,-30.56 52.72,-30.21 60.78,-37.08 63.31,-30.56"/>
</g>
<!-- Dummy* -->
<g id="node3" class="node">
<title>Dummy*</title>
<ellipse fill="gray" stroke="black" cx="110.02" cy="-18" rx="32.16" ry="18"/>
<text text-anchor="middle" x="110.02" y="-15.8" font-family="Times,serif" font-size="9.00">Dummy*</text>
</g>
<!-- root&#45;&gt;Dummy* -->
<g id="edge2" class="edge">
<title>root&#45;&gt;Dummy*</title>
<path fill="none" stroke="black" d="M520.32,-94.2C433.01,-87 279.41,-70.4 152.02,-36 149.41,-35.29 146.74,-34.47 144.07,-33.57"/>
<polygon fill="black" stroke="black" points="145.15,-30.24 134.55,-30.08 142.74,-36.81 145.15,-30.24"/>
</g>
<!-- Dummy** -->
<g id="node4" class="node">
<title>Dummy**</title>
<ellipse fill="gray" stroke="black" cx="196.02" cy="-18" rx="35.44" ry="18"/>
<text text-anchor="middle" x="196.02" y="-15.8" font-family="Times,serif" font-size="9.00">Dummy**</text>
</g>
<!-- root&#45;&gt;Dummy** -->
<g id="edge3" class="edge">
<title>root&#45;&gt;Dummy**</title>
<path fill="none" stroke="black" d="M518.06,-90.14C446.67,-80.39 334.54,-62.51 240.02,-36 237.38,-35.26 234.67,-34.42 231.97,-33.52"/>
<polygon fill="black" stroke="black" points="232.87,-30.13 222.27,-30.08 230.52,-36.72 232.87,-30.13"/>
</g>
<!-- Dummy*** -->
<g id="node5" class="node">
<title>Dummy***</title>
<ellipse fill="gray" stroke="black" cx="287.02" cy="-18" rx="37.56" ry="18"/>
<text text-anchor="middle" x="287.02" y="-15.8" font-family="Times,serif" font-size="9.00">Dummy***</text>
</g>
<!-- root&#45;&gt;Dummy*** -->
<g id="edge4" class="edge">
<title>root&#45;&gt;Dummy***</title>
<path fill="none" stroke="black" d="M513.28,-82.35C462.12,-70.7 393.6,-54.05 334.02,-36 331.13,-35.12 328.15,-34.17 325.16,-33.18"/>
<polygon fill="black" stroke="black" points="326.29,-29.86 315.69,-29.91 324.01,-36.48 326.29,-29.86"/>
</g>
<!-- Dummy**** -->
<g id="node6" class="node">
<title>Dummy****</title>
<ellipse fill="gray" stroke="black" cx="383.02" cy="-18" rx="40.33" ry="18"/>
<text text-anchor="middle" x="383.02" y="-15.8" font-family="Times,serif" font-size="9.00">Dummy****</text>
</g>
<!-- root&#45;&gt;Dummy**** -->
<g id="edge5" class="edge">
<title>root&#45;&gt;Dummy****</title>
<path fill="none" stroke="black" d="M519.94,-71.92C487.35,-59.32 449.8,-44.81 422.28,-34.17"/>
<polygon fill="black" stroke="black" points="423.21,-30.78 412.63,-30.44 420.69,-37.31 423.21,-30.78"/>
</g>
<!-- Dummy***** -->
<g id="node7" class="node">
<title>Dummy*****</title>
<ellipse fill="gray" stroke="black" cx="484.02" cy="-18" rx="42.95" ry="18"/>
<text text-anchor="middle" x="484.02" y="-15.8" font-family="Times,serif" font-size="9.00">Dummy*****</text>
</g>
<!-- root&#45;&gt;Dummy***** -->
<g id="edge6" class="edge">
<title>root&#45;&gt;Dummy*****</title>
<path fill="none" stroke="black" d="M554.14,-71.92C540.44,-61.58 525.03,-49.95 512.16,-40.24"/>
<polygon fill="black" stroke="black" points="514.2,-37.39 504.11,-34.16 509.98,-42.98 514.2,-37.39"/>
</g>
<!-- Dummy****** -->
<g id="node8" class="node">
<title>Dummy******</title>
<ellipse fill="gray" stroke="black" cx="590.02" cy="-18" rx="45.72" ry="18"/>
<text text-anchor="middle" x="590.02" y="-15.8" font-family="Times,serif" font-size="9.00">Dummy******</text>
</g>
<!-- root&#45;&gt;Dummy****** -->
<g id="edge7" class="edge">
<title>root&#45;&gt;Dummy******</title>
<path fill="none" stroke="black" d="M590.02,-71.92C590.02,-63.72 590.02,-54.72 590.02,-46.49"/>
<polygon fill="black" stroke="black" points="593.52,-46.27 590.02,-36.27 586.52,-46.27 593.52,-46.27"/>
</g>
<!-- Dummy******* -->
<g id="node9" class="node">
<title>Dummy*******</title>
<ellipse fill="gray" stroke="black" cx="702.02" cy="-18" rx="47.84" ry="18"/>
<text text-anchor="middle" x="702.02" y="-15.8" font-family="Times,serif" font-size="9.00">Dummy*******</text>
</g>
<!-- root&#45;&gt;Dummy******* -->
<g id="edge8" class="edge">
<title>root&#45;&gt;Dummy*******</title>
<path fill="none" stroke="black" d="M627.94,-71.92C642.41,-61.58 658.69,-49.95 672.29,-40.24"/>
<polygon fill="black" stroke="black" points="674.7,-42.82 680.8,-34.16 670.63,-37.12 674.7,-42.82"/>
</g>
<!-- Dummy******** -->
<g id="node10" class="node">
<title>Dummy********</title>
<ellipse fill="gray" stroke="black" cx="819.02" cy="-18" rx="50.61" ry="18"/>
<text text-anchor="middle" x="819.02" y="-15.8" font-family="Times,serif" font-size="9.00">Dummy********</text>
</g>
<!-- root&#45;&gt;Dummy******** -->
<g id="edge9" class="edge">
<title>root&#45;&gt;Dummy********</title>
<path fill="none" stroke="black" d="M644,-80.14C683.82,-66.23 737.33,-47.54 774.66,-34.5"/>
<polygon fill="black" stroke="black" points="775.98,-37.75 784.26,-31.14 773.67,-31.14 775.98,-37.75"/>
</g>
<!-- Dummy********* -->
<g id="node11" class="node">
<title>Dummy*********</title>
<ellipse fill="gray" stroke="black" cx="941.02" cy="-18" rx="53.23" ry="18"/>
<text text-anchor="middle" x="941.02" y="-15.8" font-family="Times,serif" font-size="9.00">Dummy*********</text>
</g>
<!-- root&#45;&gt;Dummy********* -->
<g id="edge10" class="edge">
<title>root&#45;&gt;Dummy*********</title>
<path fill="none" stroke="black" d="M648.35,-87.23C706.87,-75.2 799.49,-55.56 879.02,-36 883.11,-35 887.33,-33.92 891.57,-32.81"/>
<polygon fill="black" stroke="black" points="892.65,-36.15 901.41,-30.2 890.85,-29.38 892.65,-36.15"/>
</g>
<!-- Dummy********** -->
<g id="node12" class="node">
<title>Dummy**********</title>
<ellipse fill="gray" stroke="black" cx="1068.02" cy="-18" rx="56.01" ry="18"/>
<text text-anchor="middle" x="1068.02" y="-15.8" font-family="Times,serif" font-size="9.00">Dummy**********</text>
</g>
<!-- root&#45;&gt;Dummy********** -->
<g id="edge11" class="edge">
<title>root&#45;&gt;Dummy**********</title>
<path fill="none" stroke="black" d="M651.26,-91.69C732.21,-81.57 879.07,-61.59 1003.02,-36 1007.7,-35.03 1012.55,-33.94 1017.39,-32.79"/>
<polygon fill="black" stroke="black" points="1018.39,-36.15 1027.26,-30.36 1016.71,-29.35 1018.39,-36.15"/>
</g>
<!-- Dummy*********** -->
<g id="node13" class="node">
<title>Dummy***********</title>
<ellipse fill="gray" stroke="black" cx="1200.02" cy="-18" rx="58.13" ry="18"/>
<text text-anchor="middle" x="1200.02" y="-15.8" font-family="Times,serif" font-size="9.00">Dummy***********</text>
</g>
<!-- root&#45;&gt;Dummy*********** -->
<g id="edge12" class="edge">
<title>root&#45;&gt;Dummy***********</title>
<path fill="none" stroke="black" d="M652.72,-94.45C754.23,-86.48 960.58,-67.73 1133.02,-36 1137.98,-35.09 1143.12,-34.01 1148.25,-32.86"/>
<polygon fill="black" stroke="black" points="1149.1,-36.26 1158.04,-30.56 1147.5,-29.44 1149.1,-36.26"/>
</g>
<!-- Dummy************ -->
<g id="node14" class="node">
<title>Dummy************</title>
<ellipse fill="gray" stroke="black" cx="1338.02" cy="-18" rx="61.4" ry="18"/>
<text text-anchor="middle" x="1338.02" y="-15.8" font-family="Times,serif" font-size="9.00">Dummy************</text>
</g>
<!-- root&#45;&gt;Dummy************ -->
<g id="edge13" class="edge">
<title>root&#45;&gt;Dummy************</title>
<path fill="none" stroke="black" d="M653.88,-96.09C774.41,-89.93 1043.42,-72.98 1267.02,-36 1272.49,-35.1 1278.17,-34 1283.82,-32.81"/>
<polygon fill="black" stroke="black" points="1284.9,-36.16 1293.91,-30.59 1283.39,-29.32 1284.9,-36.16"/>
</g>
</g>
</svg>
