<?xml version="1.0" encoding="UTF-8" standalone="no"?>
<!DOCTYPE svg PUBLIC "-//W3C//DTD SVG 1.1//EN"
 "http://www.w3.org/Graphics/SVG/1.1/DTD/svg11.dtd">
<!-- Generated by graphviz version 2.43.0 (0)
 -->
<!-- Title: pastafarianism Pages: 1 -->
<svg width="1553pt" height="136pt"
 viewBox="0.00 0.00 1552.53 136.00" xmlns="http://www.w3.org/2000/svg" xmlns:xlink="http://www.w3.org/1999/xlink">
<g id="graph0" class="graph" transform="scale(1 1) rotate(0) translate(4 132)">
<title>pastafarianism</title>
<polygon fill="white" stroke="transparent" points="-4,4 -4,-132 1548.53,-132 1548.53,4 -4,4"/>
<!-- root -->
<g id="node1" class="node">
<title>root</title>
<polygon fill="gold" stroke="black" points="728.9,-128 597.06,-128 563.14,-72 694.99,-72 728.9,-128"/>
<text text-anchor="middle" x="646.02" y="-102.8" font-family="Times,serif" font-size="9.00">⚡ root</text>
<text text-anchor="middle" x="646.02" y="-92.8" font-family="Times,serif" font-size="9.00">SuccessOnAll</text>
</g>
<!-- Dummy -->
<g id="node2" class="node">
<title>Dummy</title>
<ellipse fill="gray" stroke="black" cx="30.02" cy="-18" rx="30.04" ry="18"/>
<text text-anchor="middle" x="30.02" y="-15.8" font-family="Times,serif" font-size="9.00">Dummy</text>
</g>
<!-- root&#45;&gt;Dummy -->
<g id="edge1" class="edge">
<title>root&#45;&gt;Dummy</title>
<path fill="none" stroke="black" d="M578.63,-98.19C469.69,-95.44 248.94,-83.84 69.02,-36 66.59,-35.35 64.11,-34.58 61.64,-33.71"/>
<polygon fill="black" stroke="black" points="62.88,-30.44 52.29,-30.08 60.34,-36.97 62.88,-30.44"/>
</g>
<!-- Dummy* -->
<g id="node3" class="node">
<title>Dummy*</title>
<ellipse fill="gray" stroke="black" cx="110.02" cy="-18" rx="32.16" ry="18"/>
<text text-anchor="middle" x="110.02" y="-15.8" font-family="Times,serif" font-size="9.00">Dummy*</text>
</g>
<!-- root&#45;&gt;Dummy* -->
<g id="edge2" class="edge">
<title>root&#45;&gt;Dummy*</title>
<path fill="none" stroke="black" d="M577.45,-95.84C481.07,-90.14 300.7,-74.87 152.02,-36 149.4,-35.31 146.73,-34.51 144.06,-33.62"/>
<polygon fill="black" stroke="black" points="145.13,-30.29 134.54,-30.15 142.73,-36.86 145.13,-30.29"/>
</g>
<!-- Dummy** -->
<g id="node4" class="node">
<title>Dummy**</title>
<ellipse fill="gray" stroke="black" cx="196.02" cy="-18" rx="35.44" ry="18"/>
<text text-anchor="middle" x="196.02" y="-15.8" font-family="Times,serif" font-size="9.00">Dummy**</text>
</g>
<!-- root&#45;&gt;Dummy** -->
<g id="edge3" class="edge">
<title>root&#45;&gt;Dummy**</title>
<path fill="none" stroke="black" d="M575.39,-92.69C493.64,-84.31 355.44,-66.87 240.02,-36 237.37,-35.29 234.66,-34.48 231.95,-33.59"/>
<polygon fill="black" stroke="black" points="232.84,-30.2 222.24,-30.19 230.52,-36.8 232.84,-30.2"/>
</g>
<!-- Dummy*** -->
<g id="node5" class="node">
<title>Dummy***</title>
<ellipse fill="gray" stroke="black" cx="287.02" cy="-18" rx="37.56" ry="18"/>
<text text-anchor="middle" x="287.02" y="-15.8" font-family="Times,serif" font-size="9.00">Dummy***</text>
</g>
<!-- root&#45;&gt;Dummy*** -->
<g id="edge4" class="edge">
<title>root&#45;&gt;Dummy***</title>
<path fill="none" stroke="black" d="M572.17,-87.26C508.48,-76.38 414.37,-58.51 334.02,-36 331.03,-35.16 327.95,-34.22 324.87,-33.23"/>
<polygon fill="black" stroke="black" points="325.73,-29.83 315.14,-29.93 323.48,-36.46 325.73,-29.83"/>
</g>
<!-- Dummy**** -->
<g id="node6" class="node">
<title>Dummy****</title>
<ellipse fill="gray" stroke="black" cx="383.02" cy="-18" rx="40.33" ry="18"/>
<text text-anchor="middle" x="383.02" y="-15.8" font-family="Times,serif" font-size="9.00">Dummy****</text>
</g>
<!-- root&#45;&gt;Dummy**** -->
<g id="edge5" class="edge">
<title>root&#45;&gt;Dummy****</title>
<path fill="none" stroke="black" d="M565.72,-76.34C525.45,-64.73 476,-50.09 432.02,-36 429.11,-35.07 426.12,-34.09 423.11,-33.08"/>
<polygon fill="black" stroke="black" points="424.12,-29.73 413.53,-29.84 421.88,-36.36 424.12,-29.73"/>
</g>
<!-- Dummy***** -->
<g id="node7" class="node">
<title>Dummy*****</title>
<ellipse fill="gray" stroke="black" cx="484.02" cy="-18" rx="42.95" ry="18"/>
<text text-anchor="middle" x="484.02" y="-15.8" font-family="Times,serif" font-size="9.00">Dummy*****</text>
</g>
<!-- root&#45;&gt;Dummy***** -->
<g id="edge6" class="edge">
<title>root&#45;&gt;Dummy*****</title>
<path fill="none" stroke="black" d="M591.18,-71.92C567.61,-60.28 540.75,-47.01 519.81,-36.67"/>
<polygon fill="black" stroke="black" points="521.15,-33.43 510.64,-32.14 518.05,-39.71 521.15,-33.43"/>
</g>
<!-- Dummy****** -->
<g id="node8" class="node">
<title>Dummy******</title>
<ellipse fill="gray" stroke="black" cx="590.02" cy="-18" rx="45.72" ry="18"/>
<text text-anchor="middle" x="590.02" y="-15.8" font-family="Times,serif" font-size="9.00">Dummy******</text>
</g>
<!-- root&#45;&gt;Dummy****** -->
<g id="edge7" class="edge">
<title>root&#45;&gt;Dummy******</title>
<path fill="none" stroke="black" d="M627.06,-71.92C620.78,-62.94 613.82,-52.99 607.64,-44.17"/>
<polygon fill="black" stroke="black" points="610.38,-41.98 601.78,-35.79 604.65,-45.99 610.38,-41.98"/>
</g>
<!-- Dummy******* -->
<g id="node9" class="node">
<title>Dummy*******</title>
<ellipse fill="gray" stroke="black" cx="702.02" cy="-18" rx="47.84" ry="18"/>
<text text-anchor="middle" x="702.02" y="-15.8" font-family="Times,serif" font-size="9.00">Dummy*******</text>
</g>
<!-- root&#45;&gt;Dummy******* -->
<g id="edge8" class="edge">
<title>root&#45;&gt;Dummy*******</title>
<path fill="none" stroke="black" d="M664.98,-71.92C671.26,-62.94 678.23,-52.99 684.4,-44.17"/>
<polygon fill="black" stroke="black" points="687.4,-45.99 690.27,-35.79 681.66,-41.98 687.4,-45.99"/>
</g>
<!-- Dummy******** -->
<g id="node10" class="node">
<title>Dummy********</title>
<ellipse fill="gray" stroke="black" cx="819.02" cy="-18" rx="50.61" ry="18"/>
<text text-anchor="middle" x="819.02" y="-15.8" font-family="Times,serif" font-size="9.00">Dummy********</text>
</g>
<!-- root&#45;&gt;Dummy******** -->
<g id="edge9" class="edge">
<title>root&#45;&gt;Dummy********</title>
<path fill="none" stroke="black" d="M697.46,-75.21C723.93,-62.98 755.66,-48.3 780.07,-37.01"/>
<polygon fill="black" stroke="black" points="781.77,-40.08 789.38,-32.71 778.83,-33.73 781.77,-40.08"/>
</g>
<!-- Dummy********* -->
<g id="node11" class="node">
<title>Dummy*********</title>
<ellipse fill="gray" stroke="black" cx="941.02" cy="-18" rx="53.23" ry="18"/>
<text text-anchor="middle" x="941.02" y="-15.8" font-family="Times,serif" font-size="9.00">Dummy*********</text>
</g>
<!-- root&#45;&gt;Dummy********* -->
<g id="edge10" class="edge">
<title>root&#45;&gt;Dummy*********</title>
<path fill="none" stroke="black" d="M702.54,-83.78C749.73,-71.05 818.78,-52.4 879.02,-36 883.02,-34.91 887.16,-33.78 891.32,-32.64"/>
<polygon fill="black" stroke="black" points="892.28,-36.01 901.01,-29.99 890.44,-29.26 892.28,-36.01"/>
</g>
<!-- Dummy********** -->
<g id="node12" class="node">
<title>Dummy**********</title>
<ellipse fill="gray" stroke="black" cx="1068.02" cy="-18" rx="56.01" ry="18"/>
<text text-anchor="middle" x="1068.02" y="-15.8" font-family="Times,serif" font-size="9.00">Dummy**********</text>
</g>
<!-- root&#45;&gt;Dummy********** -->
<g id="edge11" class="edge">
<title>root&#45;&gt;Dummy**********</title>
<path fill="none" stroke="black" d="M706.01,-89.94C777.18,-78.84 899.27,-58.68 1003.02,-36 1007.62,-34.99 1012.39,-33.88 1017.15,-32.72"/>
<polygon fill="black" stroke="black" points="1018.03,-36.11 1026.88,-30.3 1016.33,-29.32 1018.03,-36.11"/>
</g>
<!-- Dummy*********** -->
<g id="node13" class="node">
<title>Dummy***********</title>
<ellipse fill="gray" stroke="black" cx="1200.02" cy="-18" rx="58.13" ry="18"/>
<text text-anchor="middle" x="1200.02" y="-15.8" font-family="Times,serif" font-size="9.00">Dummy***********</text>
</g>
<!-- root&#45;&gt;Dummy*********** -->
<g id="edge12" class="edge">
<title>root&#45;&gt;Dummy***********</title>
<path fill="none" stroke="black" d="M708.29,-93.36C801.26,-84.39 981.66,-64.89 1133.02,-36 1137.78,-35.09 1142.71,-34.05 1147.63,-32.93"/>
<polygon fill="black" stroke="black" points="1148.73,-36.27 1157.66,-30.56 1147.12,-29.45 1148.73,-36.27"/>
</g>
<!-- Dummy************ -->
<g id="node14" class="node">
<title>Dummy************</title>
<ellipse fill="gray" stroke="black" cx="1338.02" cy="-18" rx="61.4" ry="18"/>
<text text-anchor="middle" x="1338.02" y="-15.8" font-family="Times,serif" font-size="9.00">Dummy************</text>
</g>
<!-- root&#45;&gt;Dummy************ -->
<g id="edge13" class="edge">
<title>root&#45;&gt;Dummy************</title>
<path fill="none" stroke="black" d="M709.42,-95.38C822.2,-88.32 1064.83,-70.3 1267.02,-36 1272.49,-35.07 1278.16,-33.97 1283.81,-32.77"/>
<polygon fill="black" stroke="black" points="1284.89,-36.11 1293.9,-30.53 1283.38,-29.28 1284.89,-36.11"/>
</g>
<!-- Dummy************* -->
<g id="node15" class="node">
<title>Dummy*************</title>
<ellipse fill="gray" stroke="black" cx="1481.02" cy="-18" rx="63.52" ry="18"/>
<text text-anchor="middle" x="1481.02" y="-15.8" font-family="Times,serif" font-size="9.00">Dummy*************</text>
</g>
<!-- root&#45;&gt;Dummy************* -->
<g id="edge14" class="edge">
<title>root&#45;&gt;Dummy*************</title>
<path fill="none" stroke="black" d="M710.12,-96.87C841.66,-91.8 1151.32,-76.28 1408.02,-36 1413.79,-35.1 1419.77,-33.99 1425.72,-32.77"/>
<polygon fill="black" stroke="black" points="1426.62,-36.16 1435.66,-30.65 1425.15,-29.31 1426.62,-36.16"/>
</g>
</g>
</svg>
