<?xml version="1.0" encoding="UTF-8" standalone="no"?>
<!DOCTYPE svg PUBLIC "-//W3C//DTD SVG 1.1//EN"
 "http://www.w3.org/Graphics/SVG/1.1/DTD/svg11.dtd">
<!-- Generated by graphviz version 2.43.0 (0)
 -->
<!-- Title: pastafarianism Pages: 1 -->
<svg width="1703pt" height="136pt"
 viewBox="0.00 0.00 1703.42 136.00" xmlns="http://www.w3.org/2000/svg" xmlns:xlink="http://www.w3.org/1999/xlink">
<g id="graph0" class="graph" transform="scale(1 1) rotate(0) translate(4 132)">
<title>pastafarianism</title>
<polygon fill="white" stroke="transparent" points="-4,4 -4,-132 1699.42,-132 1699.42,4 -4,4"/>
<!-- root -->
<g id="node1" class="node">
<title>root</title>
<polygon fill="gold" stroke="black" points="784.9,-128 653.06,-128 619.14,-72 750.99,-72 784.9,-128"/>
<text text-anchor="middle" x="702.02" y="-102.8" font-family="Times,serif" font-size="9.00">⚡ root</text>
<text text-anchor="middle" x="702.02" y="-92.8" font-family="Times,serif" font-size="9.00">SuccessOnAll</text>
</g>
<!-- Dummy -->
<g id="node2" class="node">
<title>Dummy</title>
<ellipse fill="gray" stroke="black" cx="30.02" cy="-18" rx="30.04" ry="18"/>
<text text-anchor="middle" x="30.02" y="-15.8" font-family="Times,serif" font-size="9.00">Dummy</text>
</g>
<!-- root&#45;&gt;Dummy -->
<g id="edge1" class="edge">
<title>root&#45;&gt;Dummy</title>
<path fill="none" stroke="black" d="M635.22,-99.13C518.45,-97.86 270.46,-88.54 69.02,-36 66.58,-35.36 64.1,-34.6 61.63,-33.74"/>
<polygon fill="black" stroke="black" points="62.87,-30.47 52.28,-30.12 60.34,-36.99 62.87,-30.47"/>
</g>
<!-- Dummy* -->
<g id="node3" class="node">
<title>Dummy*</title>
<ellipse fill="gray" stroke="black" cx="110.02" cy="-18" rx="32.16" ry="18"/>
<text text-anchor="middle" x="110.02" y="-15.8" font-family="Times,serif" font-size="9.00">Dummy*</text>
</g>
<!-- root&#45;&gt;Dummy* -->
<g id="edge2" class="edge">
<title>root&#45;&gt;Dummy*</title>
<path fill="none" stroke="black" d="M634.08,-97.11C529.14,-92.87 322,-79.28 152.02,-36 149.24,-35.29 146.39,-34.44 143.55,-33.49"/>
<polygon fill="black" stroke="black" points="144.67,-30.18 134.08,-30.03 142.27,-36.75 144.67,-30.18"/>
</g>
<!-- Dummy** -->
<g id="node4" class="node">
<title>Dummy**</title>
<ellipse fill="gray" stroke="black" cx="196.02" cy="-18" rx="35.44" ry="18"/>
<text text-anchor="middle" x="196.02" y="-15.8" font-family="Times,serif" font-size="9.00">Dummy**</text>
</g>
<!-- root&#45;&gt;Dummy** -->
<g id="edge3" class="edge">
<title>root&#45;&gt;Dummy**</title>
<path fill="none" stroke="black" d="M632.56,-94.59C541.31,-87.66 376.62,-71.19 240.02,-36 237.36,-35.32 234.65,-34.52 231.93,-33.65"/>
<polygon fill="black" stroke="black" points="232.81,-30.25 222.22,-30.27 230.51,-36.86 232.81,-30.25"/>
</g>
<!-- Dummy*** -->
<g id="node5" class="node">
<title>Dummy***</title>
<ellipse fill="gray" stroke="black" cx="287.02" cy="-18" rx="37.56" ry="18"/>
<text text-anchor="middle" x="287.02" y="-15.8" font-family="Times,serif" font-size="9.00">Dummy***</text>
</g>
<!-- root&#45;&gt;Dummy*** -->
<g id="edge4" class="edge">
<title>root&#45;&gt;Dummy***</title>
<path fill="none" stroke="black" d="M630.33,-90.56C555.57,-80.87 435.39,-62.78 334.02,-36 331.02,-35.21 327.93,-34.3 324.84,-33.33"/>
<polygon fill="black" stroke="black" points="325.69,-29.92 315.1,-30.07 323.47,-36.56 325.69,-29.92"/>
</g>
<!-- Dummy**** -->
<g id="node6" class="node">
<title>Dummy****</title>
<ellipse fill="gray" stroke="black" cx="383.02" cy="-18" rx="40.33" ry="18"/>
<text text-anchor="middle" x="383.02" y="-15.8" font-family="Times,serif" font-size="9.00">Dummy****</text>
</g>
<!-- root&#45;&gt;Dummy**** -->
<g id="edge5" class="edge">
<title>root&#45;&gt;Dummy****</title>
<path fill="none" stroke="black" d="M625.82,-83.45C571.44,-71.81 496.76,-54.73 432.02,-36 429.05,-35.14 425.99,-34.2 422.92,-33.23"/>
<polygon fill="black" stroke="black" points="423.78,-29.83 413.18,-30.02 421.59,-36.47 423.78,-29.83"/>
</g>
<!-- Dummy***** -->
<g id="node7" class="node">
<title>Dummy*****</title>
<ellipse fill="gray" stroke="black" cx="484.02" cy="-18" rx="42.95" ry="18"/>
<text text-anchor="middle" x="484.02" y="-15.8" font-family="Times,serif" font-size="9.00">Dummy*****</text>
</g>
<!-- root&#45;&gt;Dummy***** -->
<g id="edge6" class="edge">
<title>root&#45;&gt;Dummy*****</title>
<path fill="none" stroke="black" d="M628.22,-71.92C593.59,-59.21 553.66,-44.56 524.61,-33.89"/>
<polygon fill="black" stroke="black" points="525.79,-30.6 515.2,-30.44 523.38,-37.17 525.79,-30.6"/>
</g>
<!-- Dummy****** -->
<g id="node8" class="node">
<title>Dummy******</title>
<ellipse fill="gray" stroke="black" cx="590.02" cy="-18" rx="45.72" ry="18"/>
<text text-anchor="middle" x="590.02" y="-15.8" font-family="Times,serif" font-size="9.00">Dummy******</text>
</g>
<!-- root&#45;&gt;Dummy****** -->
<g id="edge7" class="edge">
<title>root&#45;&gt;Dummy******</title>
<path fill="none" stroke="black" d="M664.1,-71.92C649.63,-61.58 633.36,-49.95 619.75,-40.24"/>
<polygon fill="black" stroke="black" points="621.42,-37.12 611.24,-34.16 617.35,-42.82 621.42,-37.12"/>
</g>
<!-- Dummy******* -->
<g id="node9" class="node">
<title>Dummy*******</title>
<ellipse fill="gray" stroke="black" cx="702.02" cy="-18" rx="47.84" ry="18"/>
<text text-anchor="middle" x="702.02" y="-15.8" font-family="Times,serif" font-size="9.00">Dummy*******</text>
</g>
<!-- root&#45;&gt;Dummy******* -->
<g id="edge8" class="edge">
<title>root&#45;&gt;Dummy*******</title>
<path fill="none" stroke="black" d="M702.02,-71.92C702.02,-63.72 702.02,-54.72 702.02,-46.49"/>
<polygon fill="black" stroke="black" points="705.52,-46.27 702.02,-36.27 698.52,-46.27 705.52,-46.27"/>
</g>
<!-- Dummy******** -->
<g id="node10" class="node">
<title>Dummy********</title>
<ellipse fill="gray" stroke="black" cx="819.02" cy="-18" rx="50.61" ry="18"/>
<text text-anchor="middle" x="819.02" y="-15.8" font-family="Times,serif" font-size="9.00">Dummy********</text>
</g>
<!-- root&#45;&gt;Dummy******** -->
<g id="edge9" class="edge">
<title>root&#45;&gt;Dummy********</title>
<path fill="none" stroke="black" d="M741.63,-71.92C756.79,-61.56 773.83,-49.9 788.06,-40.17"/>
<polygon fill="black" stroke="black" points="790.24,-42.92 796.52,-34.39 786.29,-37.14 790.24,-42.92"/>
</g>
<!-- Dummy********* -->
<g id="node11" class="node">
<title>Dummy*********</title>
<ellipse fill="gray" stroke="black" cx="941.02" cy="-18" rx="53.23" ry="18"/>
<text text-anchor="middle" x="941.02" y="-15.8" font-family="Times,serif" font-size="9.00">Dummy*********</text>
</g>
<!-- root&#45;&gt;Dummy********* -->
<g id="edge10" class="edge">
<title>root&#45;&gt;Dummy*********</title>
<path fill="none" stroke="black" d="M756.55,-80.75C798.34,-66.76 855.35,-47.68 894.89,-34.44"/>
<polygon fill="black" stroke="black" points="896.17,-37.7 904.54,-31.21 893.95,-31.07 896.17,-37.7"/>
</g>
<!-- Dummy********** -->
<g id="node12" class="node">
<title>Dummy**********</title>
<ellipse fill="gray" stroke="black" cx="1068.02" cy="-18" rx="56.01" ry="18"/>
<text text-anchor="middle" x="1068.02" y="-15.8" font-family="Times,serif" font-size="9.00">Dummy**********</text>
</g>
<!-- root&#45;&gt;Dummy********** -->
<g id="edge11" class="edge">
<title>root&#45;&gt;Dummy**********</title>
<path fill="none" stroke="black" d="M760.48,-87.66C821.26,-75.65 919.09,-55.75 1003.02,-36 1007.42,-34.97 1011.98,-33.85 1016.54,-32.71"/>
<polygon fill="black" stroke="black" points="1017.66,-36.04 1026.49,-30.19 1015.93,-29.26 1017.66,-36.04"/>
</g>
<!-- Dummy*********** -->
<g id="node13" class="node">
<title>Dummy***********</title>
<ellipse fill="gray" stroke="black" cx="1200.02" cy="-18" rx="58.13" ry="18"/>
<text text-anchor="middle" x="1200.02" y="-15.8" font-family="Times,serif" font-size="9.00">Dummy***********</text>
</g>
<!-- root&#45;&gt;Dummy*********** -->
<g id="edge12" class="edge">
<title>root&#45;&gt;Dummy***********</title>
<path fill="none" stroke="black" d="M763.39,-92.06C847.29,-82.1 1002.31,-62.06 1133.02,-36 1137.77,-35.05 1142.69,-33.98 1147.61,-32.85"/>
<polygon fill="black" stroke="black" points="1148.72,-36.18 1157.64,-30.46 1147.1,-29.37 1148.72,-36.18"/>
</g>
<!-- Dummy************ -->
<g id="node14" class="node">
<title>Dummy************</title>
<ellipse fill="gray" stroke="black" cx="1338.02" cy="-18" rx="61.4" ry="18"/>
<text text-anchor="middle" x="1338.02" y="-15.8" font-family="Times,serif" font-size="9.00">Dummy************</text>
</g>
<!-- root&#45;&gt;Dummy************ -->
<g id="edge13" class="edge">
<title>root&#45;&gt;Dummy************</title>
<path fill="none" stroke="black" d="M764.67,-94.57C869.29,-86.59 1085.94,-67.65 1267.02,-36 1272.41,-35.06 1277.99,-33.95 1283.56,-32.76"/>
<polygon fill="black" stroke="black" points="1284.5,-36.14 1293.51,-30.55 1282.98,-29.3 1284.5,-36.14"/>
</g>
<!-- Dummy************* -->
<g id="node15" class="node">
<title>Dummy*************</title>
<ellipse fill="gray" stroke="black" cx="1481.02" cy="-18" rx="63.52" ry="18"/>
<text text-anchor="middle" x="1481.02" y="-15.8" font-family="Times,serif" font-size="9.00">Dummy*************</text>
</g>
<!-- root&#45;&gt;Dummy************* -->
<g id="edge14" class="edge">
<title>root&#45;&gt;Dummy*************</title>
<path fill="none" stroke="black" d="M766.16,-96.28C890.6,-90.35 1173.21,-73.63 1408.02,-36 1413.78,-35.08 1419.77,-33.96 1425.72,-32.73"/>
<polygon fill="black" stroke="black" points="1426.61,-36.12 1435.66,-30.6 1425.14,-29.28 1426.61,-36.12"/>
</g>
<!-- Dummy************** -->
<g id="node16" class="node">
<title>Dummy**************</title>
<ellipse fill="gray" stroke="black" cx="1629.02" cy="-18" rx="66.29" ry="18"/>
<text text-anchor="middle" x="1629.02" y="-15.8" font-family="Times,serif" font-size="9.00">Dummy**************</text>
</g>
<!-- root&#45;&gt;Dummy************** -->
<g id="edge15" class="edge">
<title>root&#45;&gt;Dummy**************</title>
<path fill="none" stroke="black" d="M766.51,-97.51C909.2,-93.5 1262.11,-79.63 1554.02,-36 1559.86,-35.13 1565.92,-34.05 1571.94,-32.86"/>
<polygon fill="black" stroke="black" points="1572.93,-36.23 1582.02,-30.78 1571.51,-29.38 1572.93,-36.23"/>
</g>
</g>
</svg>
