<?xml version="1.0" encoding="UTF-8" standalone="no"?>
<!DOCTYPE svg PUBLIC "-//W3C//DTD SVG 1.1//EN"
 "http://www.w3.org/Graphics/SVG/1.1/DTD/svg11.dtd">
<!-- Generated by graphviz version 2.43.0 (0)
 -->
<!-- Title: pastafarianism Pages: 1 -->
<svg width="1859pt" height="136pt"
 viewBox="0.00 0.00 1858.73 136.00" xmlns="http://www.w3.org/2000/svg" xmlns:xlink="http://www.w3.org/1999/xlink">
<g id="graph0" class="graph" transform="scale(1 1) rotate(0) translate(4 132)">
<title>pastafarianism</title>
<polygon fill="white" stroke="transparent" points="-4,4 -4,-132 1854.73,-132 1854.73,4 -4,4"/>
<!-- root -->
<g id="node1" class="node">
<title>root</title>
<polygon fill="gold" stroke="black" points="842.9,-128 711.06,-128 677.14,-72 808.99,-72 842.9,-128"/>
<text text-anchor="middle" x="760.02" y="-102.8" font-family="Times,serif" font-size="9.00">⚡ root</text>
<text text-anchor="middle" x="760.02" y="-92.8" font-family="Times,serif" font-size="9.00">SuccessOnAll</text>
</g>
<!-- Dummy -->
<g id="node2" class="node">
<title>Dummy</title>
<ellipse fill="gray" stroke="black" cx="30.02" cy="-18" rx="30.04" ry="18"/>
<text text-anchor="middle" x="30.02" y="-15.8" font-family="Times,serif" font-size="9.00">Dummy</text>
</g>
<!-- root&#45;&gt;Dummy -->
<g id="edge1" class="edge">
<title>root&#45;&gt;Dummy</title>
<path fill="none" stroke="black" d="M693.57,-99.93C569.01,-100.14 292.77,-93.37 69.02,-36 66.58,-35.37 64.1,-34.61 61.63,-33.76"/>
<polygon fill="black" stroke="black" points="62.86,-30.49 52.27,-30.15 60.34,-37.02 62.86,-30.49"/>
</g>
<!-- Dummy* -->
<g id="node3" class="node">
<title>Dummy*</title>
<ellipse fill="gray" stroke="black" cx="110.02" cy="-18" rx="32.16" ry="18"/>
<text text-anchor="middle" x="110.02" y="-15.8" font-family="Times,serif" font-size="9.00">Dummy*</text>
</g>
<!-- root&#45;&gt;Dummy* -->
<g id="edge2" class="edge">
<title>root&#45;&gt;Dummy*</title>
<path fill="none" stroke="black" d="M692.84,-98.17C579.62,-95.42 344.34,-83.86 152.02,-36 149.23,-35.31 146.38,-34.46 143.54,-33.53"/>
<polygon fill="black" stroke="black" points="144.66,-30.21 134.07,-30.08 142.27,-36.79 144.66,-30.21"/>
</g>
<!-- Dummy** -->
<g id="node4" class="node">
<title>Dummy**</title>
<ellipse fill="gray" stroke="black" cx="196.02" cy="-18" rx="35.44" ry="18"/>
<text text-anchor="middle" x="196.02" y="-15.8" font-family="Times,serif" font-size="9.00">Dummy**</text>
</g>
<!-- root&#45;&gt;Dummy** -->
<g id="edge3" class="edge">
<title>root&#45;&gt;Dummy**</title>
<path fill="none" stroke="black" d="M691.73,-96.12C591.4,-90.69 398.84,-75.65 240.02,-36 237.36,-35.33 234.64,-34.55 231.92,-33.69"/>
<polygon fill="black" stroke="black" points="232.8,-30.3 222.2,-30.33 230.51,-36.91 232.8,-30.3"/>
</g>
<!-- Dummy*** -->
<g id="node5" class="node">
<title>Dummy***</title>
<ellipse fill="gray" stroke="black" cx="287.02" cy="-18" rx="37.56" ry="18"/>
<text text-anchor="middle" x="287.02" y="-15.8" font-family="Times,serif" font-size="9.00">Dummy***</text>
</g>
<!-- root&#45;&gt;Dummy*** -->
<g id="edge4" class="edge">
<title>root&#45;&gt;Dummy***</title>
<path fill="none" stroke="black" d="M689.82,-92.97C604.68,-84.66 457.26,-67.07 334.02,-36 331.01,-35.24 327.91,-34.36 324.82,-33.41"/>
<polygon fill="black" stroke="black" points="325.66,-30 315.07,-30.18 323.46,-36.64 325.66,-30"/>
</g>
<!-- Dummy**** -->
<g id="node6" class="node">
<title>Dummy****</title>
<ellipse fill="gray" stroke="black" cx="383.02" cy="-18" rx="40.33" ry="18"/>
<text text-anchor="middle" x="383.02" y="-15.8" font-family="Times,serif" font-size="9.00">Dummy****</text>
</g>
<!-- root&#45;&gt;Dummy**** -->
<g id="edge5" class="edge">
<title>root&#45;&gt;Dummy****</title>
<path fill="none" stroke="black" d="M686.71,-88.03C619.78,-77.28 518.42,-59.15 432.02,-36 429.03,-35.2 425.96,-34.31 422.88,-33.36"/>
<polygon fill="black" stroke="black" points="423.72,-29.95 413.13,-30.21 421.57,-36.61 423.72,-29.95"/>
</g>
<!-- Dummy***** -->
<g id="node7" class="node">
<title>Dummy*****</title>
<ellipse fill="gray" stroke="black" cx="484.02" cy="-18" rx="42.95" ry="18"/>
<text text-anchor="middle" x="484.02" y="-15.8" font-family="Times,serif" font-size="9.00">Dummy*****</text>
</g>
<!-- root&#45;&gt;Dummy***** -->
<g id="edge6" class="edge">
<title>root&#45;&gt;Dummy*****</title>
<path fill="none" stroke="black" d="M680.61,-77.78C637.41,-65.98 583.11,-50.74 535.02,-36 531.94,-35.06 528.77,-34.06 525.58,-33.04"/>
<polygon fill="black" stroke="black" points="526.64,-29.7 516.05,-29.94 524.48,-36.36 526.64,-29.7"/>
</g>
<!-- Dummy****** -->
<g id="node8" class="node">
<title>Dummy******</title>
<ellipse fill="gray" stroke="black" cx="590.02" cy="-18" rx="45.72" ry="18"/>
<text text-anchor="middle" x="590.02" y="-15.8" font-family="Times,serif" font-size="9.00">Dummy******</text>
</g>
<!-- root&#45;&gt;Dummy****** -->
<g id="edge7" class="edge">
<title>root&#45;&gt;Dummy******</title>
<path fill="none" stroke="black" d="M702.47,-71.92C677.8,-60.31 649.68,-47.07 627.72,-36.74"/>
<polygon fill="black" stroke="black" points="628.96,-33.45 618.42,-32.36 625.97,-39.79 628.96,-33.45"/>
</g>
<!-- Dummy******* -->
<g id="node9" class="node">
<title>Dummy*******</title>
<ellipse fill="gray" stroke="black" cx="702.02" cy="-18" rx="47.84" ry="18"/>
<text text-anchor="middle" x="702.02" y="-15.8" font-family="Times,serif" font-size="9.00">Dummy*******</text>
</g>
<!-- root&#45;&gt;Dummy******* -->
<g id="edge8" class="edge">
<title>root&#45;&gt;Dummy*******</title>
<path fill="none" stroke="black" d="M740.39,-71.92C733.81,-62.85 726.52,-52.79 720.07,-43.89"/>
<polygon fill="black" stroke="black" points="722.9,-41.84 714.2,-35.79 717.23,-45.95 722.9,-41.84"/>
</g>
<!-- Dummy******** -->
<g id="node10" class="node">
<title>Dummy********</title>
<ellipse fill="gray" stroke="black" cx="819.02" cy="-18" rx="50.61" ry="18"/>
<text text-anchor="middle" x="819.02" y="-15.8" font-family="Times,serif" font-size="9.00">Dummy********</text>
</g>
<!-- root&#45;&gt;Dummy******** -->
<g id="edge9" class="edge">
<title>root&#45;&gt;Dummy********</title>
<path fill="none" stroke="black" d="M780,-71.92C786.69,-62.85 794.11,-52.79 800.66,-43.89"/>
<polygon fill="black" stroke="black" points="803.52,-45.92 806.64,-35.79 797.88,-41.77 803.52,-45.92"/>
</g>
<!-- Dummy********* -->
<g id="node11" class="node">
<title>Dummy*********</title>
<ellipse fill="gray" stroke="black" cx="941.02" cy="-18" rx="53.23" ry="18"/>
<text text-anchor="middle" x="941.02" y="-15.8" font-family="Times,serif" font-size="9.00">Dummy*********</text>
</g>
<!-- root&#45;&gt;Dummy********* -->
<g id="edge10" class="edge">
<title>root&#45;&gt;Dummy*********</title>
<path fill="none" stroke="black" d="M811.89,-76.08C840.17,-63.57 874.65,-48.33 900.87,-36.75"/>
<polygon fill="black" stroke="black" points="902.39,-39.9 910.13,-32.66 899.56,-33.5 902.39,-39.9"/>
</g>
<!-- Dummy********** -->
<g id="node12" class="node">
<title>Dummy**********</title>
<ellipse fill="gray" stroke="black" cx="1068.02" cy="-18" rx="56.01" ry="18"/>
<text text-anchor="middle" x="1068.02" y="-15.8" font-family="Times,serif" font-size="9.00">Dummy**********</text>
</g>
<!-- root&#45;&gt;Dummy********** -->
<g id="edge11" class="edge">
<title>root&#45;&gt;Dummy**********</title>
<path fill="none" stroke="black" d="M816.5,-84.39C865.75,-71.65 939.13,-52.64 1003.02,-36 1007.33,-34.88 1011.8,-33.71 1016.28,-32.54"/>
<polygon fill="black" stroke="black" points="1017.28,-35.9 1026.07,-29.99 1015.51,-29.13 1017.28,-35.9"/>
</g>
<!-- Dummy*********** -->
<g id="node13" class="node">
<title>Dummy***********</title>
<ellipse fill="gray" stroke="black" cx="1200.02" cy="-18" rx="58.13" ry="18"/>
<text text-anchor="middle" x="1200.02" y="-15.8" font-family="Times,serif" font-size="9.00">Dummy***********</text>
</g>
<!-- root&#45;&gt;Dummy*********** -->
<g id="edge12" class="edge">
<title>root&#45;&gt;Dummy***********</title>
<path fill="none" stroke="black" d="M820.39,-90.35C894.38,-79.38 1023.46,-59.11 1133.02,-36 1137.69,-35.01 1142.53,-33.92 1147.37,-32.79"/>
<polygon fill="black" stroke="black" points="1148.35,-36.15 1157.25,-30.4 1146.71,-29.35 1148.35,-36.15"/>
</g>
<!-- Dummy************ -->
<g id="node14" class="node">
<title>Dummy************</title>
<ellipse fill="gray" stroke="black" cx="1338.02" cy="-18" rx="61.4" ry="18"/>
<text text-anchor="middle" x="1338.02" y="-15.8" font-family="Times,serif" font-size="9.00">Dummy************</text>
</g>
<!-- root&#45;&gt;Dummy************ -->
<g id="edge13" class="edge">
<title>root&#45;&gt;Dummy************</title>
<path fill="none" stroke="black" d="M822.41,-93.51C918.42,-84.54 1107.96,-64.83 1267.02,-36 1272.4,-35.03 1277.98,-33.9 1283.54,-32.69"/>
<polygon fill="black" stroke="black" points="1284.5,-36.07 1293.49,-30.46 1282.97,-29.24 1284.5,-36.07"/>
</g>
<!-- Dummy************* -->
<g id="node15" class="node">
<title>Dummy*************</title>
<ellipse fill="gray" stroke="black" cx="1481.02" cy="-18" rx="63.52" ry="18"/>
<text text-anchor="middle" x="1481.02" y="-15.8" font-family="Times,serif" font-size="9.00">Dummy*************</text>
</g>
<!-- root&#45;&gt;Dummy************* -->
<g id="edge14" class="edge">
<title>root&#45;&gt;Dummy*************</title>
<path fill="none" stroke="black" d="M823.39,-95.62C939.8,-88.8 1195.27,-70.96 1408.02,-36 1413.7,-35.07 1419.59,-33.95 1425.46,-32.74"/>
<polygon fill="black" stroke="black" points="1426.22,-36.16 1435.26,-30.63 1424.74,-29.31 1426.22,-36.16"/>
</g>
<!-- Dummy************** -->
<g id="node16" class="node">
<title>Dummy**************</title>
<ellipse fill="gray" stroke="black" cx="1629.02" cy="-18" rx="66.29" ry="18"/>
<text text-anchor="middle" x="1629.02" y="-15.8" font-family="Times,serif" font-size="9.00">Dummy**************</text>
</g>
<!-- root&#45;&gt;Dummy************** -->
<g id="edge15" class="edge">
<title>root&#45;&gt;Dummy**************</title>
<path fill="none" stroke="black" d="M824.19,-97.04C959.7,-92.2 1284.71,-76.99 1554.02,-36 1559.86,-35.11 1565.91,-34.02 1571.94,-32.83"/>
<polygon fill="black" stroke="black" points="1572.93,-36.2 1582.01,-30.74 1571.51,-29.35 1572.93,-36.2"/>
</g>
<!-- Dummy*************** -->
<g id="node17" class="node">
<title>Dummy***************</title>
<ellipse fill="gray" stroke="black" cx="1782.02" cy="-18" rx="68.91" ry="18"/>
<text text-anchor="middle" x="1782.02" y="-15.8" font-family="Times,serif" font-size="9.00">Dummy***************</text>
</g>
<!-- root&#45;&gt;Dummy*************** -->
<g id="edge16" class="edge">
<title>root&#45;&gt;Dummy***************</title>
<path fill="none" stroke="black" d="M824.74,-97.97C978.17,-94.83 1375.71,-82.47 1704.02,-36 1710.24,-35.12 1716.69,-34.02 1723.11,-32.8"/>
<polygon fill="black" stroke="black" points="1724,-36.2 1733.12,-30.82 1722.63,-29.33 1724,-36.2"/>
</g>
</g>
</svg>
