<?xml version="1.0" encoding="UTF-8" standalone="no"?>
<!DOCTYPE svg PUBLIC "-//W3C//DTD SVG 1.1//EN"
 "http://www.w3.org/Graphics/SVG/1.1/DTD/svg11.dtd">
<!-- Generated by graphviz version 2.43.0 (0)
 -->
<!-- Title: pastafarianism Pages: 1 -->
<svg width="2185pt" height="136pt"
 viewBox="0.00 0.00 2184.92 136.00" xmlns="http://www.w3.org/2000/svg" xmlns:xlink="http://www.w3.org/1999/xlink">
<g id="graph0" class="graph" transform="scale(1 1) rotate(0) translate(4 132)">
<title>pastafarianism</title>
<polygon fill="white" stroke="transparent" points="-4,4 -4,-132 2180.92,-132 2180.92,4 -4,4"/>
<!-- root -->
<g id="node1" class="node">
<title>root</title>
<polygon fill="gold" stroke="black" points="962.9,-128 831.06,-128 797.14,-72 928.99,-72 962.9,-128"/>
<text text-anchor="middle" x="880.02" y="-102.8" font-family="Times,serif" font-size="9.00">⚡ root</text>
<text text-anchor="middle" x="880.02" y="-92.8" font-family="Times,serif" font-size="9.00">SuccessOnAll</text>
</g>
<!-- Dummy -->
<g id="node2" class="node">
<title>Dummy</title>
<ellipse fill="gray" stroke="black" cx="30.02" cy="-18" rx="30.04" ry="18"/>
<text text-anchor="middle" x="30.02" y="-15.8" font-family="Times,serif" font-size="9.00">Dummy</text>
</g>
<!-- root&#45;&gt;Dummy -->
<g id="edge1" class="edge">
<title>root&#45;&gt;Dummy</title>
<path fill="none" stroke="black" d="M811.77,-96.62C642.92,-90.25 209.13,-70.93 69.02,-36 66.58,-35.39 64.09,-34.64 61.62,-33.8"/>
<polygon fill="black" stroke="black" points="62.85,-30.52 52.26,-30.21 60.34,-37.06 62.85,-30.52"/>
</g>
<!-- Dummy* -->
<g id="node3" class="node">
<title>Dummy*</title>
<ellipse fill="gray" stroke="black" cx="110.02" cy="-18" rx="32.16" ry="18"/>
<text text-anchor="middle" x="110.02" y="-15.8" font-family="Times,serif" font-size="9.00">Dummy*</text>
</g>
<!-- root&#45;&gt;Dummy* -->
<g id="edge2" class="edge">
<title>root&#45;&gt;Dummy*</title>
<path fill="none" stroke="black" d="M813.97,-99.81C684.88,-99.97 390.88,-93.31 152.02,-36 149.23,-35.33 146.37,-34.5 143.53,-33.58"/>
<polygon fill="black" stroke="black" points="144.64,-30.26 134.05,-30.15 142.26,-36.84 144.64,-30.26"/>
</g>
<!-- Dummy** -->
<g id="node4" class="node">
<title>Dummy**</title>
<ellipse fill="gray" stroke="black" cx="196.02" cy="-18" rx="35.44" ry="18"/>
<text text-anchor="middle" x="196.02" y="-15.8" font-family="Times,serif" font-size="9.00">Dummy**</text>
</g>
<!-- root&#45;&gt;Dummy** -->
<g id="edge3" class="edge">
<title>root&#45;&gt;Dummy**</title>
<path fill="none" stroke="black" d="M812.71,-98.32C694.99,-95.83 444.77,-84.68 240.02,-36 237.35,-35.36 234.62,-34.6 231.9,-33.76"/>
<polygon fill="black" stroke="black" points="232.77,-30.36 222.18,-30.43 230.51,-36.98 232.77,-30.36"/>
</g>
<!-- Dummy*** -->
<g id="node5" class="node">
<title>Dummy***</title>
<ellipse fill="gray" stroke="black" cx="287.02" cy="-18" rx="37.56" ry="18"/>
<text text-anchor="middle" x="287.02" y="-15.8" font-family="Times,serif" font-size="9.00">Dummy***</text>
</g>
<!-- root&#45;&gt;Dummy*** -->
<g id="edge4" class="edge">
<title>root&#45;&gt;Dummy***</title>
<path fill="none" stroke="black" d="M811.48,-96.19C707.16,-90.78 502.84,-75.7 334.02,-36 330.99,-35.29 327.89,-34.44 324.8,-33.51"/>
<polygon fill="black" stroke="black" points="325.63,-30.1 315.03,-30.33 323.46,-36.76 325.63,-30.1"/>
</g>
<!-- Dummy**** -->
<g id="node6" class="node">
<title>Dummy****</title>
<ellipse fill="gray" stroke="black" cx="383.02" cy="-18" rx="40.33" ry="18"/>
<text text-anchor="middle" x="383.02" y="-15.8" font-family="Times,serif" font-size="9.00">Dummy****</text>
</g>
<!-- root&#45;&gt;Dummy**** -->
<g id="edge5" class="edge">
<title>root&#45;&gt;Dummy****</title>
<path fill="none" stroke="black" d="M809.78,-93.38C720.89,-85.29 563.54,-67.74 432.02,-36 428.87,-35.24 425.64,-34.36 422.41,-33.4"/>
<polygon fill="black" stroke="black" points="423.4,-30.04 412.81,-30.36 421.29,-36.72 423.4,-30.04"/>
</g>
<!-- Dummy***** -->
<g id="node7" class="node">
<title>Dummy*****</title>
<ellipse fill="gray" stroke="black" cx="484.02" cy="-18" rx="42.95" ry="18"/>
<text text-anchor="middle" x="484.02" y="-15.8" font-family="Times,serif" font-size="9.00">Dummy*****</text>
</g>
<!-- root&#45;&gt;Dummy***** -->
<g id="edge6" class="edge">
<title>root&#45;&gt;Dummy*****</title>
<path fill="none" stroke="black" d="M807.02,-88.73C736.74,-78.13 627.76,-59.8 535.02,-36 531.86,-35.19 528.61,-34.28 525.35,-33.32"/>
<polygon fill="black" stroke="black" points="526.23,-29.93 515.65,-30.31 524.16,-36.61 526.23,-29.93"/>
</g>
<!-- Dummy****** -->
<g id="node8" class="node">
<title>Dummy******</title>
<ellipse fill="gray" stroke="black" cx="590.02" cy="-18" rx="45.72" ry="18"/>
<text text-anchor="middle" x="590.02" y="-15.8" font-family="Times,serif" font-size="9.00">Dummy******</text>
</g>
<!-- root&#45;&gt;Dummy****** -->
<g id="edge7" class="edge">
<title>root&#45;&gt;Dummy******</title>
<path fill="none" stroke="black" d="M800.95,-78.6C755.26,-66.61 696.77,-50.93 645.02,-36 641.5,-34.98 637.86,-33.91 634.21,-32.82"/>
<polygon fill="black" stroke="black" points="635.17,-29.45 624.58,-29.9 633.14,-36.15 635.17,-29.45"/>
</g>
<!-- Dummy******* -->
<g id="node9" class="node">
<title>Dummy*******</title>
<ellipse fill="gray" stroke="black" cx="702.02" cy="-18" rx="47.84" ry="18"/>
<text text-anchor="middle" x="702.02" y="-15.8" font-family="Times,serif" font-size="9.00">Dummy*******</text>
</g>
<!-- root&#45;&gt;Dummy******* -->
<g id="edge8" class="edge">
<title>root&#45;&gt;Dummy*******</title>
<path fill="none" stroke="black" d="M819.76,-71.92C793.7,-60.2 763.95,-46.83 740.88,-36.47"/>
<polygon fill="black" stroke="black" points="742.31,-33.27 731.75,-32.36 739.44,-39.65 742.31,-33.27"/>
</g>
<!-- Dummy******** -->
<g id="node10" class="node">
<title>Dummy********</title>
<ellipse fill="gray" stroke="black" cx="819.02" cy="-18" rx="50.61" ry="18"/>
<text text-anchor="middle" x="819.02" y="-15.8" font-family="Times,serif" font-size="9.00">Dummy********</text>
</g>
<!-- root&#45;&gt;Dummy******** -->
<g id="edge9" class="edge">
<title>root&#45;&gt;Dummy********</title>
<path fill="none" stroke="black" d="M859.37,-71.92C852.46,-62.85 844.78,-52.79 838,-43.89"/>
<polygon fill="black" stroke="black" points="840.68,-41.62 831.83,-35.79 835.11,-45.87 840.68,-41.62"/>
</g>
<!-- Dummy********* -->
<g id="node11" class="node">
<title>Dummy*********</title>
<ellipse fill="gray" stroke="black" cx="941.02" cy="-18" rx="53.23" ry="18"/>
<text text-anchor="middle" x="941.02" y="-15.8" font-family="Times,serif" font-size="9.00">Dummy*********</text>
</g>
<!-- root&#45;&gt;Dummy********* -->
<g id="edge10" class="edge">
<title>root&#45;&gt;Dummy*********</title>
<path fill="none" stroke="black" d="M900.67,-71.92C907.59,-62.85 915.26,-52.79 922.04,-43.89"/>
<polygon fill="black" stroke="black" points="924.94,-45.87 928.22,-35.79 919.37,-41.62 924.94,-45.87"/>
</g>
<!-- Dummy********** -->
<g id="node12" class="node">
<title>Dummy**********</title>
<ellipse fill="gray" stroke="black" cx="1068.02" cy="-18" rx="56.01" ry="18"/>
<text text-anchor="middle" x="1068.02" y="-15.8" font-family="Times,serif" font-size="9.00">Dummy**********</text>
</g>
<!-- root&#45;&gt;Dummy********** -->
<g id="edge11" class="edge">
<title>root&#45;&gt;Dummy**********</title>
<path fill="none" stroke="black" d="M932.39,-76.72C962.03,-64.1 998.6,-48.54 1026.29,-36.76"/>
<polygon fill="black" stroke="black" points="1027.86,-39.9 1035.69,-32.76 1025.12,-33.45 1027.86,-39.9"/>
</g>
<!-- Dummy*********** -->
<g id="node13" class="node">
<title>Dummy***********</title>
<ellipse fill="gray" stroke="black" cx="1200.02" cy="-18" rx="58.13" ry="18"/>
<text text-anchor="middle" x="1200.02" y="-15.8" font-family="Times,serif" font-size="9.00">Dummy***********</text>
</g>
<!-- root&#45;&gt;Dummy*********** -->
<g id="edge12" class="edge">
<title>root&#45;&gt;Dummy***********</title>
<path fill="none" stroke="black" d="M937.06,-84.87C988.35,-72.15 1065.75,-52.91 1133.02,-36 1137.4,-34.9 1141.93,-33.76 1146.48,-32.61"/>
<polygon fill="black" stroke="black" points="1147.58,-35.94 1156.42,-30.09 1145.87,-29.15 1147.58,-35.94"/>
</g>
<!-- Dummy************ -->
<g id="node14" class="node">
<title>Dummy************</title>
<ellipse fill="gray" stroke="black" cx="1338.02" cy="-18" rx="61.4" ry="18"/>
<text text-anchor="middle" x="1338.02" y="-15.8" font-family="Times,serif" font-size="9.00">Dummy************</text>
</g>
<!-- root&#45;&gt;Dummy************ -->
<g id="edge13" class="edge">
<title>root&#45;&gt;Dummy************</title>
<path fill="none" stroke="black" d="M940.27,-90.6C1016.6,-79.63 1152.06,-59.09 1267.02,-36 1272.3,-34.94 1277.79,-33.76 1283.26,-32.54"/>
<polygon fill="black" stroke="black" points="1284.09,-35.94 1293.06,-30.29 1282.53,-29.11 1284.09,-35.94"/>
</g>
<!-- Dummy************* -->
<g id="node15" class="node">
<title>Dummy*************</title>
<ellipse fill="gray" stroke="black" cx="1481.02" cy="-18" rx="63.52" ry="18"/>
<text text-anchor="middle" x="1481.02" y="-15.8" font-family="Times,serif" font-size="9.00">Dummy*************</text>
</g>
<!-- root&#45;&gt;Dummy************* -->
<g id="edge14" class="edge">
<title>root&#45;&gt;Dummy*************</title>
<path fill="none" stroke="black" d="M942.53,-93.79C1041.69,-85.01 1240.94,-65.33 1408.02,-36 1413.69,-35.01 1419.57,-33.85 1425.43,-32.61"/>
<polygon fill="black" stroke="black" points="1426.21,-36.03 1435.23,-30.48 1424.71,-29.19 1426.21,-36.03"/>
</g>
<!-- Dummy************** -->
<g id="node16" class="node">
<title>Dummy**************</title>
<ellipse fill="gray" stroke="black" cx="1629.02" cy="-18" rx="66.29" ry="18"/>
<text text-anchor="middle" x="1629.02" y="-15.8" font-family="Times,serif" font-size="9.00">Dummy**************</text>
</g>
<!-- root&#45;&gt;Dummy************** -->
<g id="edge15" class="edge">
<title>root&#45;&gt;Dummy**************</title>
<path fill="none" stroke="black" d="M943.55,-95.82C1063.48,-89.2 1331.19,-71.52 1554.02,-36 1559.77,-35.08 1565.73,-33.99 1571.66,-32.8"/>
<polygon fill="black" stroke="black" points="1572.52,-36.2 1581.59,-30.73 1571.09,-29.34 1572.52,-36.2"/>
</g>
<!-- Dummy*************** -->
<g id="node17" class="node">
<title>Dummy***************</title>
<ellipse fill="gray" stroke="black" cx="1782.02" cy="-18" rx="68.91" ry="18"/>
<text text-anchor="middle" x="1782.02" y="-15.8" font-family="Times,serif" font-size="9.00">Dummy***************</text>
</g>
<!-- root&#45;&gt;Dummy*************** -->
<g id="edge16" class="edge">
<title>root&#45;&gt;Dummy***************</title>
<path fill="none" stroke="black" d="M944.2,-97.11C1083.31,-92.36 1422.77,-77.2 1704.02,-36 1710.23,-35.09 1716.68,-33.97 1723.1,-32.74"/>
<polygon fill="black" stroke="black" points="1723.99,-36.13 1733.11,-30.74 1722.62,-29.27 1723.99,-36.13"/>
</g>
<!-- Dummy**************** -->
<g id="node18" class="node">
<title>Dummy****************</title>
<ellipse fill="gray" stroke="black" cx="1940.02" cy="-18" rx="71.68" ry="18"/>
<text text-anchor="middle" x="1940.02" y="-15.8" font-family="Times,serif" font-size="9.00">Dummy****************</text>
</g>
<!-- root&#45;&gt;Dummy**************** -->
<g id="edge17" class="edge">
<title>root&#45;&gt;Dummy****************</title>
<path fill="none" stroke="black" d="M944.85,-98.08C1102.34,-95.14 1517.37,-83.17 1860.02,-36 1866.3,-35.14 1872.82,-34.06 1879.31,-32.86"/>
<polygon fill="black" stroke="black" points="1880.28,-36.24 1889.43,-30.91 1878.95,-29.37 1880.28,-36.24"/>
</g>
<!-- Dummy***************** -->
<g id="node19" class="node">
<title>Dummy*****************</title>
<ellipse fill="gray" stroke="black" cx="2103.02" cy="-18" rx="73.8" ry="18"/>
<text text-anchor="middle" x="2103.02" y="-15.8" font-family="Times,serif" font-size="9.00">Dummy*****************</text>
</g>
<!-- root&#45;&gt;Dummy***************** -->
<g id="edge18" class="edge">
<title>root&#45;&gt;Dummy*****************</title>
<path fill="none" stroke="black" d="M945.3,-98.8C1120.32,-97.52 1614.3,-89.09 2021.02,-36 2027.61,-35.14 2034.46,-34.05 2041.26,-32.83"/>
<polygon fill="black" stroke="black" points="2041.98,-36.25 2051.17,-30.97 2040.69,-29.37 2041.98,-36.25"/>
</g>
</g>
</svg>
