<?xml version="1.0" encoding="UTF-8" standalone="no"?>
<!DOCTYPE svg PUBLIC "-//W3C//DTD SVG 1.1//EN"
 "http://www.w3.org/Graphics/SVG/1.1/DTD/svg11.dtd">
<!-- Generated by graphviz version 2.43.0 (0)
 -->
<!-- Title: pastafarianism Pages: 1 -->
<svg width="2357pt" height="136pt"
 viewBox="0.00 0.00 2356.81 136.00" xmlns="http://www.w3.org/2000/svg" xmlns:xlink="http://www.w3.org/1999/xlink">
<g id="graph0" class="graph" transform="scale(1 1) rotate(0) translate(4 132)">
<title>pastafarianism</title>
<polygon fill="white" stroke="transparent" points="-4,4 -4,-132 2352.81,-132 2352.81,4 -4,4"/>
<!-- root -->
<g id="node1" class="node">
<title>root</title>
<polygon fill="gold" stroke="black" points="1023.9,-128 892.06,-128 858.14,-72 989.99,-72 1023.9,-128"/>
<text text-anchor="middle" x="941.02" y="-102.8" font-family="Times,serif" font-size="9.00">⚡ root</text>
<text text-anchor="middle" x="941.02" y="-92.8" font-family="Times,serif" font-size="9.00">SuccessOnAll</text>
</g>
<!-- Dummy -->
<g id="node2" class="node">
<title>Dummy</title>
<ellipse fill="gray" stroke="black" cx="30.02" cy="-18" rx="30.04" ry="18"/>
<text text-anchor="middle" x="30.02" y="-15.8" font-family="Times,serif" font-size="9.00">Dummy</text>
</g>
<!-- root&#45;&gt;Dummy -->
<g id="edge1" class="edge">
<title>root&#45;&gt;Dummy</title>
<path fill="none" stroke="black" d="M873.21,-97.06C695.82,-91.51 221.28,-73.52 69.02,-36 66.57,-35.4 64.09,-34.65 61.61,-33.82"/>
<polygon fill="black" stroke="black" points="62.84,-30.54 52.25,-30.23 60.34,-37.08 62.84,-30.54"/>
</g>
<!-- Dummy* -->
<g id="node3" class="node">
<title>Dummy*</title>
<ellipse fill="gray" stroke="black" cx="110.02" cy="-18" rx="32.16" ry="18"/>
<text text-anchor="middle" x="110.02" y="-15.8" font-family="Times,serif" font-size="9.00">Dummy*</text>
</g>
<!-- root&#45;&gt;Dummy* -->
<g id="edge2" class="edge">
<title>root&#45;&gt;Dummy*</title>
<path fill="none" stroke="black" d="M872.56,-96.21C706.92,-89.03 288.18,-68.19 152.02,-36 149.22,-35.34 146.37,-34.52 143.53,-33.6"/>
<polygon fill="black" stroke="black" points="144.63,-30.28 134.04,-30.18 142.26,-36.86 144.63,-30.28"/>
</g>
<!-- Dummy** -->
<g id="node4" class="node">
<title>Dummy**</title>
<ellipse fill="gray" stroke="black" cx="196.02" cy="-18" rx="35.44" ry="18"/>
<text text-anchor="middle" x="196.02" y="-15.8" font-family="Times,serif" font-size="9.00">Dummy**</text>
</g>
<!-- root&#45;&gt;Dummy** -->
<g id="edge3" class="edge">
<title>root&#45;&gt;Dummy**</title>
<path fill="none" stroke="black" d="M874.33,-99.15C748.57,-98.08 468.5,-89.29 240.02,-36 237.35,-35.38 234.62,-34.62 231.9,-33.79"/>
<polygon fill="black" stroke="black" points="232.76,-30.39 222.17,-30.47 230.51,-37.01 232.76,-30.39"/>
</g>
<!-- Dummy*** -->
<g id="node5" class="node">
<title>Dummy***</title>
<ellipse fill="gray" stroke="black" cx="287.02" cy="-18" rx="37.56" ry="18"/>
<text text-anchor="middle" x="287.02" y="-15.8" font-family="Times,serif" font-size="9.00">Dummy***</text>
</g>
<!-- root&#45;&gt;Dummy*** -->
<g id="edge4" class="edge">
<title>root&#45;&gt;Dummy***</title>
<path fill="none" stroke="black" d="M873.23,-97.33C760.13,-93.36 526.37,-80.07 334.02,-36 330.99,-35.31 327.89,-34.47 324.79,-33.55"/>
<polygon fill="black" stroke="black" points="325.61,-30.14 315.02,-30.39 323.45,-36.8 325.61,-30.14"/>
</g>
<!-- Dummy**** -->
<g id="node6" class="node">
<title>Dummy****</title>
<ellipse fill="gray" stroke="black" cx="383.02" cy="-18" rx="40.33" ry="18"/>
<text text-anchor="middle" x="383.02" y="-15.8" font-family="Times,serif" font-size="9.00">Dummy****</text>
</g>
<!-- root&#45;&gt;Dummy**** -->
<g id="edge5" class="edge">
<title>root&#45;&gt;Dummy****</title>
<path fill="none" stroke="black" d="M871.88,-95.08C773.22,-88.43 586.83,-72.01 432.02,-36 428.82,-35.26 425.54,-34.38 422.26,-33.42"/>
<polygon fill="black" stroke="black" points="423.12,-30.02 412.53,-30.36 421.02,-36.7 423.12,-30.02"/>
</g>
<!-- Dummy***** -->
<g id="node7" class="node">
<title>Dummy*****</title>
<ellipse fill="gray" stroke="black" cx="484.02" cy="-18" rx="42.95" ry="18"/>
<text text-anchor="middle" x="484.02" y="-15.8" font-family="Times,serif" font-size="9.00">Dummy*****</text>
</g>
<!-- root&#45;&gt;Dummy***** -->
<g id="edge6" class="edge">
<title>root&#45;&gt;Dummy*****</title>
<path fill="none" stroke="black" d="M869.91,-91.63C788.29,-82.32 650.79,-64.07 535.02,-36 531.8,-35.22 528.49,-34.33 525.19,-33.37"/>
<polygon fill="black" stroke="black" points="525.93,-29.94 515.34,-30.36 523.88,-36.63 525.93,-29.94"/>
</g>
<!-- Dummy****** -->
<g id="node8" class="node">
<title>Dummy******</title>
<ellipse fill="gray" stroke="black" cx="590.02" cy="-18" rx="45.72" ry="18"/>
<text text-anchor="middle" x="590.02" y="-15.8" font-family="Times,serif" font-size="9.00">Dummy******</text>
</g>
<!-- root&#45;&gt;Dummy****** -->
<g id="edge7" class="edge">
<title>root&#45;&gt;Dummy******</title>
<path fill="none" stroke="black" d="M865.77,-84.93C805.68,-73.22 719.51,-55.4 645.02,-36 641.43,-35.06 637.71,-34.04 633.99,-32.98"/>
<polygon fill="black" stroke="black" points="634.79,-29.56 624.21,-30.09 632.81,-36.28 634.79,-29.56"/>
</g>
<!-- Dummy******* -->
<g id="node9" class="node">
<title>Dummy*******</title>
<ellipse fill="gray" stroke="black" cx="702.02" cy="-18" rx="47.84" ry="18"/>
<text text-anchor="middle" x="702.02" y="-15.8" font-family="Times,serif" font-size="9.00">Dummy*******</text>
</g>
<!-- root&#45;&gt;Dummy******* -->
<g id="edge8" class="edge">
<title>root&#45;&gt;Dummy*******</title>
<path fill="none" stroke="black" d="M860.11,-71.92C821.94,-59.14 777.89,-44.39 746,-33.72"/>
<polygon fill="black" stroke="black" points="747.11,-30.4 736.51,-30.54 744.88,-37.04 747.11,-30.4"/>
</g>
<!-- Dummy******** -->
<g id="node10" class="node">
<title>Dummy********</title>
<ellipse fill="gray" stroke="black" cx="819.02" cy="-18" rx="50.61" ry="18"/>
<text text-anchor="middle" x="819.02" y="-15.8" font-family="Times,serif" font-size="9.00">Dummy********</text>
</g>
<!-- root&#45;&gt;Dummy******** -->
<g id="edge9" class="edge">
<title>root&#45;&gt;Dummy********</title>
<path fill="none" stroke="black" d="M899.72,-71.92C883.65,-61.38 865.55,-49.51 850.56,-39.68"/>
<polygon fill="black" stroke="black" points="852.42,-36.72 842.14,-34.16 848.58,-42.57 852.42,-36.72"/>
</g>
<!-- Dummy********* -->
<g id="node11" class="node">
<title>Dummy*********</title>
<ellipse fill="gray" stroke="black" cx="941.02" cy="-18" rx="53.23" ry="18"/>
<text text-anchor="middle" x="941.02" y="-15.8" font-family="Times,serif" font-size="9.00">Dummy*********</text>
</g>
<!-- root&#45;&gt;Dummy********* -->
<g id="edge10" class="edge">
<title>root&#45;&gt;Dummy*********</title>
<path fill="none" stroke="black" d="M941.02,-71.92C941.02,-63.72 941.02,-54.72 941.02,-46.49"/>
<polygon fill="black" stroke="black" points="944.52,-46.27 941.02,-36.27 937.52,-46.27 944.52,-46.27"/>
</g>
<!-- Dummy********** -->
<g id="node12" class="node">
<title>Dummy**********</title>
<ellipse fill="gray" stroke="black" cx="1068.02" cy="-18" rx="56.01" ry="18"/>
<text text-anchor="middle" x="1068.02" y="-15.8" font-family="Times,serif" font-size="9.00">Dummy**********</text>
</g>
<!-- root&#45;&gt;Dummy********** -->
<g id="edge11" class="edge">
<title>root&#45;&gt;Dummy**********</title>
<path fill="none" stroke="black" d="M984.02,-71.92C1000.62,-61.46 1019.32,-49.68 1034.85,-39.89"/>
<polygon fill="black" stroke="black" points="1037,-42.68 1043.59,-34.39 1033.27,-36.76 1037,-42.68"/>
</g>
<!-- Dummy*********** -->
<g id="node13" class="node">
<title>Dummy***********</title>
<ellipse fill="gray" stroke="black" cx="1200.02" cy="-18" rx="58.13" ry="18"/>
<text text-anchor="middle" x="1200.02" y="-15.8" font-family="Times,serif" font-size="9.00">Dummy***********</text>
</g>
<!-- root&#45;&gt;Dummy*********** -->
<g id="edge12" class="edge">
<title>root&#45;&gt;Dummy***********</title>
<path fill="none" stroke="black" d="M996.27,-81.94C1041.98,-67.81 1106.35,-47.93 1150.43,-34.32"/>
<polygon fill="black" stroke="black" points="1151.55,-37.64 1160.07,-31.34 1149.48,-30.95 1151.55,-37.64"/>
</g>
<!-- Dummy************ -->
<g id="node14" class="node">
<title>Dummy************</title>
<ellipse fill="gray" stroke="black" cx="1338.02" cy="-18" rx="61.4" ry="18"/>
<text text-anchor="middle" x="1338.02" y="-15.8" font-family="Times,serif" font-size="9.00">Dummy************</text>
</g>
<!-- root&#45;&gt;Dummy************ -->
<g id="edge13" class="edge">
<title>root&#45;&gt;Dummy************</title>
<path fill="none" stroke="black" d="M1000.07,-88.4C1065.5,-76.46 1174.06,-56.1 1267.02,-36 1272.08,-34.91 1277.33,-33.73 1282.58,-32.52"/>
<polygon fill="black" stroke="black" points="1283.69,-35.86 1292.64,-30.18 1282.11,-29.04 1283.69,-35.86"/>
</g>
<!-- Dummy************* -->
<g id="node15" class="node">
<title>Dummy*************</title>
<ellipse fill="gray" stroke="black" cx="1481.02" cy="-18" rx="63.52" ry="18"/>
<text text-anchor="middle" x="1481.02" y="-15.8" font-family="Times,serif" font-size="9.00">Dummy*************</text>
</g>
<!-- root&#45;&gt;Dummy************* -->
<g id="edge14" class="edge">
<title>root&#45;&gt;Dummy*************</title>
<path fill="none" stroke="black" d="M1002.51,-92.58C1092.1,-82.81 1263.58,-62.5 1408.02,-36 1413.46,-35 1419.11,-33.87 1424.74,-32.67"/>
<polygon fill="black" stroke="black" points="1425.8,-36.02 1434.82,-30.46 1424.3,-29.18 1425.8,-36.02"/>
</g>
<!-- Dummy************** -->
<g id="node16" class="node">
<title>Dummy**************</title>
<ellipse fill="gray" stroke="black" cx="1629.02" cy="-18" rx="66.29" ry="18"/>
<text text-anchor="middle" x="1629.02" y="-15.8" font-family="Times,serif" font-size="9.00">Dummy**************</text>
</g>
<!-- root&#45;&gt;Dummy************** -->
<g id="edge15" class="edge">
<title>root&#45;&gt;Dummy**************</title>
<path fill="none" stroke="black" d="M1004.01,-95.04C1115.46,-87.48 1354.49,-68.74 1554.02,-36 1559.76,-35.06 1565.72,-33.94 1571.66,-32.74"/>
<polygon fill="black" stroke="black" points="1572.51,-36.14 1581.58,-30.66 1571.08,-29.29 1572.51,-36.14"/>
</g>
<!-- Dummy*************** -->
<g id="node17" class="node">
<title>Dummy***************</title>
<ellipse fill="gray" stroke="black" cx="1782.02" cy="-18" rx="68.91" ry="18"/>
<text text-anchor="middle" x="1782.02" y="-15.8" font-family="Times,serif" font-size="9.00">Dummy***************</text>
</g>
<!-- root&#45;&gt;Dummy*************** -->
<g id="edge16" class="edge">
<title>root&#45;&gt;Dummy***************</title>
<path fill="none" stroke="black" d="M1004.91,-96.58C1136.39,-90.97 1446.54,-74.52 1704.02,-36 1710.23,-35.07 1716.68,-33.94 1723.1,-32.71"/>
<polygon fill="black" stroke="black" points="1723.99,-36.1 1733.11,-30.7 1722.61,-29.23 1723.99,-36.1"/>
</g>
<!-- Dummy**************** -->
<g id="node18" class="node">
<title>Dummy****************</title>
<ellipse fill="gray" stroke="black" cx="1940.02" cy="-18" rx="71.68" ry="18"/>
<text text-anchor="middle" x="1940.02" y="-15.8" font-family="Times,serif" font-size="9.00">Dummy****************</text>
</g>
<!-- root&#45;&gt;Dummy**************** -->
<g id="edge17" class="edge">
<title>root&#45;&gt;Dummy****************</title>
<path fill="none" stroke="black" d="M1005.69,-97.7C1156.22,-93.98 1541.48,-80.54 1860.02,-36 1866.3,-35.12 1872.82,-34.03 1879.3,-32.84"/>
<polygon fill="black" stroke="black" points="1880.28,-36.21 1889.43,-30.88 1878.95,-29.34 1880.28,-36.21"/>
</g>
<!-- Dummy***************** -->
<g id="node19" class="node">
<title>Dummy*****************</title>
<ellipse fill="gray" stroke="black" cx="2103.02" cy="-18" rx="73.8" ry="18"/>
<text text-anchor="middle" x="2103.02" y="-15.8" font-family="Times,serif" font-size="9.00">Dummy*****************</text>
</g>
<!-- root&#45;&gt;Dummy***************** -->
<g id="edge18" class="edge">
<title>root&#45;&gt;Dummy*****************</title>
<path fill="none" stroke="black" d="M1006.16,-98.51C1174.69,-96.53 1638.61,-86.52 2021.02,-36 2027.61,-35.13 2034.45,-34.03 2041.26,-32.81"/>
<polygon fill="black" stroke="black" points="2041.98,-36.23 2051.16,-30.94 2040.69,-29.35 2041.98,-36.23"/>
</g>
<!-- Dummy****************** -->
<g id="node20" class="node">
<title>Dummy******************</title>
<ellipse fill="gray" stroke="black" cx="2272.02" cy="-18" rx="76.58" ry="18"/>
<text text-anchor="middle" x="2272.02" y="-15.8" font-family="Times,serif" font-size="9.00">Dummy******************</text>
</g>
<!-- root&#45;&gt;Dummy****************** -->
<g id="edge19" class="edge">
<title>root&#45;&gt;Dummy******************</title>
<path fill="none" stroke="black" d="M1006.45,-99.01C1192.02,-98.34 1737.38,-91.4 2186.02,-36 2193.19,-35.12 2200.65,-33.97 2208.05,-32.7"/>
<polygon fill="black" stroke="black" points="2208.86,-36.12 2218.08,-30.9 2207.62,-29.23 2208.86,-36.12"/>
</g>
</g>
</svg>
