<?xml version="1.0" encoding="UTF-8" standalone="no"?>
<!DOCTYPE svg PUBLIC "-//W3C//DTD SVG 1.1//EN"
 "http://www.w3.org/Graphics/SVG/1.1/DTD/svg11.dtd">
<!-- Generated by graphviz version 2.43.0 (0)
 -->
<!-- Title: pastafarianism Pages: 1 -->
<svg width="2533pt" height="136pt"
 viewBox="0.00 0.00 2533.12 136.00" xmlns="http://www.w3.org/2000/svg" xmlns:xlink="http://www.w3.org/1999/xlink">
<g id="graph0" class="graph" transform="scale(1 1) rotate(0) translate(4 132)">
<title>pastafarianism</title>
<polygon fill="white" stroke="transparent" points="-4,4 -4,-132 2529.12,-132 2529.12,4 -4,4"/>
<!-- root -->
<g id="node1" class="node">
<title>root</title>
<polygon fill="gold" stroke="black" points="1086.9,-128 955.06,-128 921.14,-72 1052.99,-72 1086.9,-128"/>
<text text-anchor="middle" x="1004.02" y="-102.8" font-family="Times,serif" font-size="9.00">⚡ root</text>
<text text-anchor="middle" x="1004.02" y="-92.8" font-family="Times,serif" font-size="9.00">SuccessOnAll</text>
</g>
<!-- Dummy -->
<g id="node2" class="node">
<title>Dummy</title>
<ellipse fill="gray" stroke="black" cx="30.02" cy="-18" rx="30.04" ry="18"/>
<text text-anchor="middle" x="30.02" y="-15.8" font-family="Times,serif" font-size="9.00">Dummy</text>
</g>
<!-- root&#45;&gt;Dummy -->
<g id="edge1" class="edge">
<title>root&#45;&gt;Dummy</title>
<path fill="none" stroke="black" d="M936.42,-97.45C750.39,-92.7 233.8,-76.18 69.02,-36 66.57,-35.4 64.08,-34.66 61.61,-33.83"/>
<polygon fill="black" stroke="black" points="62.84,-30.55 52.25,-30.25 60.34,-37.09 62.84,-30.55"/>
</g>
<!-- Dummy* -->
<g id="node3" class="node">
<title>Dummy*</title>
<ellipse fill="gray" stroke="black" cx="110.02" cy="-18" rx="32.16" ry="18"/>
<text text-anchor="middle" x="110.02" y="-15.8" font-family="Times,serif" font-size="9.00">Dummy*</text>
</g>
<!-- root&#45;&gt;Dummy* -->
<g id="edge2" class="edge">
<title>root&#45;&gt;Dummy*</title>
<path fill="none" stroke="black" d="M935.92,-96.69C761.27,-90.33 300.71,-70.69 152.02,-36 149.22,-35.35 146.36,-34.53 143.52,-33.62"/>
<polygon fill="black" stroke="black" points="144.63,-30.3 134.03,-30.21 142.26,-36.88 144.63,-30.3"/>
</g>
<!-- Dummy** -->
<g id="node4" class="node">
<title>Dummy**</title>
<ellipse fill="gray" stroke="black" cx="196.02" cy="-18" rx="35.44" ry="18"/>
<text text-anchor="middle" x="196.02" y="-15.8" font-family="Times,serif" font-size="9.00">Dummy**</text>
</g>
<!-- root&#45;&gt;Dummy** -->
<g id="edge3" class="edge">
<title>root&#45;&gt;Dummy**</title>
<path fill="none" stroke="black" d="M937.9,-99.86C804.25,-100.21 493.14,-94.06 240.02,-36 237.18,-35.35 234.27,-34.55 231.38,-33.65"/>
<polygon fill="black" stroke="black" points="232.29,-30.26 221.69,-30.33 230.02,-36.89 232.29,-30.26"/>
</g>
<!-- Dummy*** -->
<g id="node5" class="node">
<title>Dummy***</title>
<ellipse fill="gray" stroke="black" cx="287.02" cy="-18" rx="37.56" ry="18"/>
<text text-anchor="middle" x="287.02" y="-15.8" font-family="Times,serif" font-size="9.00">Dummy***</text>
</g>
<!-- root&#45;&gt;Dummy*** -->
<g id="edge4" class="edge">
<title>root&#45;&gt;Dummy***</title>
<path fill="none" stroke="black" d="M937.06,-98.28C815.47,-95.76 550.92,-84.6 334.02,-36 330.8,-35.28 327.51,-34.4 324.22,-33.42"/>
<polygon fill="black" stroke="black" points="325.1,-30.02 314.51,-30.26 322.94,-36.68 325.1,-30.02"/>
</g>
<!-- Dummy**** -->
<g id="node6" class="node">
<title>Dummy****</title>
<ellipse fill="gray" stroke="black" cx="383.02" cy="-18" rx="40.33" ry="18"/>
<text text-anchor="middle" x="383.02" y="-15.8" font-family="Times,serif" font-size="9.00">Dummy****</text>
</g>
<!-- root&#45;&gt;Dummy**** -->
<g id="edge5" class="edge">
<title>root&#45;&gt;Dummy****</title>
<path fill="none" stroke="black" d="M935.85,-96.43C827.8,-91.25 611.1,-76.39 432.02,-36 428.82,-35.28 425.53,-34.41 422.25,-33.47"/>
<polygon fill="black" stroke="black" points="423.1,-30.07 412.51,-30.42 421.01,-36.75 423.1,-30.07"/>
</g>
<!-- Dummy***** -->
<g id="node7" class="node">
<title>Dummy*****</title>
<ellipse fill="gray" stroke="black" cx="484.02" cy="-18" rx="42.95" ry="18"/>
<text text-anchor="middle" x="484.02" y="-15.8" font-family="Times,serif" font-size="9.00">Dummy*****</text>
</g>
<!-- root&#45;&gt;Dummy***** -->
<g id="edge6" class="edge">
<title>root&#45;&gt;Dummy*****</title>
<path fill="none" stroke="black" d="M934.15,-93.75C841.86,-85.87 674.68,-68.35 535.02,-36 531.79,-35.25 528.48,-34.39 525.17,-33.45"/>
<polygon fill="black" stroke="black" points="525.9,-30.01 515.32,-30.46 523.87,-36.71 525.9,-30.01"/>
</g>
<!-- Dummy****** -->
<g id="node8" class="node">
<title>Dummy******</title>
<ellipse fill="gray" stroke="black" cx="590.02" cy="-18" rx="45.72" ry="18"/>
<text text-anchor="middle" x="590.02" y="-15.8" font-family="Times,serif" font-size="9.00">Dummy******</text>
</g>
<!-- root&#45;&gt;Dummy****** -->
<g id="edge7" class="edge">
<title>root&#45;&gt;Dummy******</title>
<path fill="none" stroke="black" d="M931.27,-88.98C858.35,-78.3 743.14,-59.67 645.02,-36 641.36,-35.12 637.58,-34.12 633.8,-33.07"/>
<polygon fill="black" stroke="black" points="634.45,-29.62 623.87,-30.19 632.5,-36.34 634.45,-29.62"/>
</g>
<!-- Dummy******* -->
<g id="node9" class="node">
<title>Dummy*******</title>
<ellipse fill="gray" stroke="black" cx="702.02" cy="-18" rx="47.84" ry="18"/>
<text text-anchor="middle" x="702.02" y="-15.8" font-family="Times,serif" font-size="9.00">Dummy*******</text>
</g>
<!-- root&#45;&gt;Dummy******* -->
<g id="edge8" class="edge">
<title>root&#45;&gt;Dummy*******</title>
<path fill="none" stroke="black" d="M925.76,-79.68C877.55,-67.59 814.57,-51.42 759.02,-36 755.43,-35 751.71,-33.95 747.98,-32.87"/>
<polygon fill="black" stroke="black" points="748.73,-29.44 738.15,-30 746.76,-36.16 748.73,-29.44"/>
</g>
<!-- Dummy******** -->
<g id="node10" class="node">
<title>Dummy********</title>
<ellipse fill="gray" stroke="black" cx="819.02" cy="-18" rx="50.61" ry="18"/>
<text text-anchor="middle" x="819.02" y="-15.8" font-family="Times,serif" font-size="9.00">Dummy********</text>
</g>
<!-- root&#45;&gt;Dummy******** -->
<g id="edge9" class="edge">
<title>root&#45;&gt;Dummy********</title>
<path fill="none" stroke="black" d="M941.39,-71.92C914.3,-60.2 883.39,-46.83 859.41,-36.47"/>
<polygon fill="black" stroke="black" points="860.49,-33.12 849.92,-32.36 857.71,-39.54 860.49,-33.12"/>
</g>
<!-- Dummy********* -->
<g id="node11" class="node">
<title>Dummy*********</title>
<ellipse fill="gray" stroke="black" cx="941.02" cy="-18" rx="53.23" ry="18"/>
<text text-anchor="middle" x="941.02" y="-15.8" font-family="Times,serif" font-size="9.00">Dummy*********</text>
</g>
<!-- root&#45;&gt;Dummy********* -->
<g id="edge10" class="edge">
<title>root&#45;&gt;Dummy*********</title>
<path fill="none" stroke="black" d="M982.69,-71.92C975.55,-62.85 967.63,-52.79 960.63,-43.89"/>
<polygon fill="black" stroke="black" points="963.18,-41.49 954.25,-35.79 957.69,-45.82 963.18,-41.49"/>
</g>
<!-- Dummy********** -->
<g id="node12" class="node">
<title>Dummy**********</title>
<ellipse fill="gray" stroke="black" cx="1068.02" cy="-18" rx="56.01" ry="18"/>
<text text-anchor="middle" x="1068.02" y="-15.8" font-family="Times,serif" font-size="9.00">Dummy**********</text>
</g>
<!-- root&#45;&gt;Dummy********** -->
<g id="edge11" class="edge">
<title>root&#45;&gt;Dummy**********</title>
<path fill="none" stroke="black" d="M1025.69,-71.92C1033.02,-62.75 1041.16,-52.58 1048.33,-43.62"/>
<polygon fill="black" stroke="black" points="1051.07,-45.79 1054.59,-35.79 1045.61,-41.42 1051.07,-45.79"/>
</g>
<!-- Dummy*********** -->
<g id="node13" class="node">
<title>Dummy***********</title>
<ellipse fill="gray" stroke="black" cx="1200.02" cy="-18" rx="58.13" ry="18"/>
<text text-anchor="middle" x="1200.02" y="-15.8" font-family="Times,serif" font-size="9.00">Dummy***********</text>
</g>
<!-- root&#45;&gt;Dummy*********** -->
<g id="edge12" class="edge">
<title>root&#45;&gt;Dummy***********</title>
<path fill="none" stroke="black" d="M1056.55,-77.56C1087.82,-64.8 1127.04,-48.79 1156.56,-36.74"/>
<polygon fill="black" stroke="black" points="1158.24,-39.83 1166.18,-32.81 1155.6,-33.35 1158.24,-39.83"/>
</g>
<!-- Dummy************ -->
<g id="node14" class="node">
<title>Dummy************</title>
<ellipse fill="gray" stroke="black" cx="1338.02" cy="-18" rx="61.4" ry="18"/>
<text text-anchor="middle" x="1338.02" y="-15.8" font-family="Times,serif" font-size="9.00">Dummy************</text>
</g>
<!-- root&#45;&gt;Dummy************ -->
<g id="edge13" class="edge">
<title>root&#45;&gt;Dummy************</title>
<path fill="none" stroke="black" d="M1061.44,-85.25C1123.28,-70.44 1221,-47.03 1282.21,-32.37"/>
<polygon fill="black" stroke="black" points="1283.17,-35.74 1292.08,-30 1281.54,-28.93 1283.17,-35.74"/>
</g>
<!-- Dummy************* -->
<g id="node15" class="node">
<title>Dummy*************</title>
<ellipse fill="gray" stroke="black" cx="1481.02" cy="-18" rx="63.52" ry="18"/>
<text text-anchor="middle" x="1481.02" y="-15.8" font-family="Times,serif" font-size="9.00">Dummy*************</text>
</g>
<!-- root&#45;&gt;Dummy************* -->
<g id="edge14" class="edge">
<title>root&#45;&gt;Dummy*************</title>
<path fill="none" stroke="black" d="M1064.5,-90.99C1143.71,-80.18 1286.77,-59.54 1408.02,-36 1413.37,-34.96 1418.92,-33.81 1424.47,-32.6"/>
<polygon fill="black" stroke="black" points="1425.4,-35.98 1434.4,-30.4 1423.88,-29.15 1425.4,-35.98"/>
</g>
<!-- Dummy************** -->
<g id="node16" class="node">
<title>Dummy**************</title>
<ellipse fill="gray" stroke="black" cx="1629.02" cy="-18" rx="66.29" ry="18"/>
<text text-anchor="middle" x="1629.02" y="-15.8" font-family="Times,serif" font-size="9.00">Dummy**************</text>
</g>
<!-- root&#45;&gt;Dummy************** -->
<g id="edge15" class="edge">
<title>root&#45;&gt;Dummy**************</title>
<path fill="none" stroke="black" d="M1066.61,-94.06C1169,-85.49 1378.5,-65.85 1554.02,-36 1559.53,-35.06 1565.25,-33.98 1570.95,-32.82"/>
<polygon fill="black" stroke="black" points="1572.1,-36.15 1581.16,-30.66 1570.66,-29.3 1572.1,-36.15"/>
</g>
<!-- Dummy*************** -->
<g id="node17" class="node">
<title>Dummy***************</title>
<ellipse fill="gray" stroke="black" cx="1782.02" cy="-18" rx="68.91" ry="18"/>
<text text-anchor="middle" x="1782.02" y="-15.8" font-family="Times,serif" font-size="9.00">Dummy***************</text>
</g>
<!-- root&#45;&gt;Dummy*************** -->
<g id="edge16" class="edge">
<title>root&#45;&gt;Dummy***************</title>
<path fill="none" stroke="black" d="M1067.57,-95.94C1190.87,-89.42 1470.95,-71.74 1704.02,-36 1710.23,-35.05 1716.67,-33.9 1723.09,-32.66"/>
<polygon fill="black" stroke="black" points="1723.99,-36.05 1733.1,-30.64 1722.6,-29.19 1723.99,-36.05"/>
</g>
<!-- Dummy**************** -->
<g id="node18" class="node">
<title>Dummy****************</title>
<ellipse fill="gray" stroke="black" cx="1940.02" cy="-18" rx="71.68" ry="18"/>
<text text-anchor="middle" x="1940.02" y="-15.8" font-family="Times,serif" font-size="9.00">Dummy****************</text>
</g>
<!-- root&#45;&gt;Dummy**************** -->
<g id="edge17" class="edge">
<title>root&#45;&gt;Dummy****************</title>
<path fill="none" stroke="black" d="M1068.5,-97.25C1211.59,-92.7 1566.26,-77.82 1860.02,-36 1866.3,-35.11 1872.81,-34.01 1879.3,-32.8"/>
<polygon fill="black" stroke="black" points="1880.27,-36.18 1889.42,-30.84 1878.94,-29.31 1880.27,-36.18"/>
</g>
<!-- Dummy***************** -->
<g id="node19" class="node">
<title>Dummy*****************</title>
<ellipse fill="gray" stroke="black" cx="2103.02" cy="-18" rx="73.8" ry="18"/>
<text text-anchor="middle" x="2103.02" y="-15.8" font-family="Times,serif" font-size="9.00">Dummy*****************</text>
</g>
<!-- root&#45;&gt;Dummy***************** -->
<g id="edge18" class="edge">
<title>root&#45;&gt;Dummy*****************</title>
<path fill="none" stroke="black" d="M1068.88,-98.18C1230.44,-95.45 1663.56,-83.88 2021.02,-36 2027.61,-35.12 2034.45,-34.01 2041.26,-32.78"/>
<polygon fill="black" stroke="black" points="2041.98,-36.21 2051.16,-30.92 2040.68,-29.33 2041.98,-36.21"/>
</g>
<!-- Dummy****************** -->
<g id="node20" class="node">
<title>Dummy******************</title>
<ellipse fill="gray" stroke="black" cx="2272.02" cy="-18" rx="76.58" ry="18"/>
<text text-anchor="middle" x="2272.02" y="-15.8" font-family="Times,serif" font-size="9.00">Dummy******************</text>
</g>
<!-- root&#45;&gt;Dummy****************** -->
<g id="edge19" class="edge">
<title>root&#45;&gt;Dummy******************</title>
<path fill="none" stroke="black" d="M1069.34,-98.76C1248.52,-97.42 1762.64,-88.86 2186.02,-36 2193.19,-35.11 2200.65,-33.96 2208.05,-32.68"/>
<polygon fill="black" stroke="black" points="2208.86,-36.1 2218.08,-30.88 2207.62,-29.21 2208.86,-36.1"/>
</g>
<!-- Dummy******************* -->
<g id="node21" class="node">
<title>Dummy*******************</title>
<ellipse fill="gray" stroke="black" cx="2446.02" cy="-18" rx="79.19" ry="18"/>
<text text-anchor="middle" x="2446.02" y="-15.8" font-family="Times,serif" font-size="9.00">Dummy*******************</text>
</g>
<!-- root&#45;&gt;Dummy******************* -->
<g id="edge20" class="edge">
<title>root&#45;&gt;Dummy*******************</title>
<path fill="none" stroke="black" d="M1069.82,-99.29C1266.29,-99.45 1865.56,-94.71 2358.02,-36 2365.43,-35.12 2373.16,-33.97 2380.82,-32.68"/>
<polygon fill="black" stroke="black" points="2381.58,-36.1 2390.82,-30.93 2380.37,-29.21 2381.58,-36.1"/>
</g>
</g>
</svg>
