<?xml version="1.0" encoding="UTF-8" standalone="no"?>
<!DOCTYPE svg PUBLIC "-//W3C//DTD SVG 1.1//EN"
 "http://www.w3.org/Graphics/SVG/1.1/DTD/svg11.dtd">
<!-- Generated by graphviz version 2.43.0 (0)
 -->
<!-- Title: pastafarianism Pages: 1 -->
<svg width="333pt" height="188pt"
 viewBox="0.00 0.00 332.55 188.00" xmlns="http://www.w3.org/2000/svg" xmlns:xlink="http://www.w3.org/1999/xlink">
<g id="graph0" class="graph" transform="scale(1 1) rotate(0) translate(4 184)">
<title>pastafarianism</title>
<polygon fill="white" stroke="transparent" points="-4,4 -4,-184 328.55,-184 328.55,4 -4,4"/>
<!-- node1 -->
<g id="node1" class="node">
<title>node1</title>
<polygon fill="orange" stroke="black" points="181.52,-180 124.52,-180 124.52,-144 181.52,-144 181.52,-180"/>
<text text-anchor="middle" x="153.02" y="-159.8" font-family="Times,serif" font-size="9.00">Ⓜ node1</text>
</g>
<!-- node2 -->
<g id="node2" class="node">
<title>node2</title>
<polygon fill="orange" stroke="black" points="138.52,-108 81.52,-108 81.52,-72 138.52,-72 138.52,-108"/>
<text text-anchor="middle" x="110.02" y="-87.8" font-family="Times,serif" font-size="9.00">Ⓜ node2</text>
</g>
<!-- node1&#45;&gt;node2 -->
<g id="edge1" class="edge">
<title>node1&#45;&gt;node2</title>
<path fill="none" stroke="black" d="M142.39,-143.7C137.39,-135.56 131.33,-125.69 125.81,-116.7"/>
<polygon fill="black" stroke="black" points="128.75,-114.79 120.53,-108.1 122.78,-118.46 128.75,-114.79"/>
</g>
<!-- node5 -->
<g id="node5" class="node">
<title>node5</title>
<polygon fill="orange" stroke="black" points="224.52,-108 167.52,-108 167.52,-72 224.52,-72 224.52,-108"/>
<text text-anchor="middle" x="196.02" y="-87.8" font-family="Times,serif" font-size="9.00">Ⓜ node5</text>
</g>
<!-- node1&#45;&gt;node5 -->
<g id="edge4" class="edge">
<title>node1&#45;&gt;node5</title>
<path fill="none" stroke="black" d="M163.65,-143.7C168.65,-135.56 174.71,-125.69 180.23,-116.7"/>
<polygon fill="black" stroke="black" points="183.26,-118.46 185.52,-108.1 177.3,-114.79 183.26,-118.46"/>
</g>
<!-- Dummy -->
<g id="node3" class="node">
<title>Dummy</title>
<ellipse fill="gray" stroke="black" cx="30.02" cy="-18" rx="30.04" ry="18"/>
<text text-anchor="middle" x="30.02" y="-15.8" font-family="Times,serif" font-size="9.00">Dummy</text>
</g>
<!-- node2&#45;&gt;Dummy -->
<g id="edge2" class="edge">
<title>node2&#45;&gt;Dummy</title>
<path fill="none" stroke="black" d="M90.25,-71.7C79.27,-62.09 65.53,-50.07 53.95,-39.94"/>
<polygon fill="black" stroke="black" points="56.17,-37.23 46.34,-33.28 51.56,-42.5 56.17,-37.23"/>
</g>
<!-- Dummy* -->
<g id="node4" class="node">
<title>Dummy*</title>
<ellipse fill="gray" stroke="black" cx="110.02" cy="-18" rx="32.16" ry="18"/>
<text text-anchor="middle" x="110.02" y="-15.8" font-family="Times,serif" font-size="9.00">Dummy*</text>
</g>
<!-- node2&#45;&gt;Dummy* -->
<g id="edge3" class="edge">
<title>node2&#45;&gt;Dummy*</title>
<path fill="none" stroke="black" d="M110.02,-71.7C110.02,-63.98 110.02,-54.71 110.02,-46.11"/>
<polygon fill="black" stroke="black" points="113.52,-46.1 110.02,-36.1 106.52,-46.1 113.52,-46.1"/>
</g>
<!-- Dummy** -->
<g id="node6" class="node">
<title>Dummy**</title>
<ellipse fill="gray" stroke="black" cx="196.02" cy="-18" rx="35.44" ry="18"/>
<text text-anchor="middle" x="196.02" y="-15.8" font-family="Times,serif" font-size="9.00">Dummy**</text>
</g>
<!-- node5&#45;&gt;Dummy** -->
<g id="edge5" class="edge">
<title>node5&#45;&gt;Dummy**</title>
<path fill="none" stroke="black" d="M196.02,-71.7C196.02,-63.98 196.02,-54.71 196.02,-46.11"/>
<polygon fill="black" stroke="black" points="199.52,-46.1 196.02,-36.1 192.52,-46.1 199.52,-46.1"/>
</g>
<!-- Dummy*** -->
<g id="node7" class="node">
<title>Dummy***</title>
<ellipse fill="gray" stroke="black" cx="287.02" cy="-18" rx="37.56" ry="18"/>
<text text-anchor="middle" x="287.02" y="-15.8" font-family="Times,serif" font-size="9.00">Dummy***</text>
</g>
<!-- node5&#45;&gt;Dummy*** -->
<g id="edge6" class="edge">
<title>node5&#45;&gt;Dummy***</title>
<path fill="none" stroke="black" d="M218.52,-71.7C230.95,-62.13 246.5,-50.17 259.63,-40.07"/>
<polygon fill="black" stroke="black" points="262.07,-42.61 267.86,-33.74 257.8,-37.06 262.07,-42.61"/>
</g>
</g>
</svg>
