<?xml version="1.0" encoding="UTF-8" standalone="no"?>
<!DOCTYPE svg PUBLIC "-//W3C//DTD SVG 1.1//EN"
 "http://www.w3.org/Graphics/SVG/1.1/DTD/svg11.dtd">
<!-- Generated by graphviz version 2.43.0 (0)
 -->
<!-- Title: pastafarianism Pages: 1 -->
<svg width="758pt" height="260pt"
 viewBox="0.00 0.00 757.94 260.00" xmlns="http://www.w3.org/2000/svg" xmlns:xlink="http://www.w3.org/1999/xlink">
<g id="graph0" class="graph" transform="scale(1 1) rotate(0) translate(4 256)">
<title>pastafarianism</title>
<polygon fill="white" stroke="transparent" points="-4,4 -4,-256 753.94,-256 753.94,4 -4,4"/>
<!-- node1 -->
<g id="node1" class="node">
<title>node1</title>
<polygon fill="orange" stroke="black" points="362.52,-252 305.52,-252 305.52,-216 362.52,-216 362.52,-252"/>
<text text-anchor="middle" x="334.02" y="-231.8" font-family="Times,serif" font-size="9.00">Ⓜ node1</text>
</g>
<!-- node2 -->
<g id="node2" class="node">
<title>node2</title>
<polygon fill="orange" stroke="black" points="269.52,-180 212.52,-180 212.52,-144 269.52,-144 269.52,-180"/>
<text text-anchor="middle" x="241.02" y="-159.8" font-family="Times,serif" font-size="9.00">Ⓜ node2</text>
</g>
<!-- node1&#45;&gt;node2 -->
<g id="edge1" class="edge">
<title>node1&#45;&gt;node2</title>
<path fill="none" stroke="black" d="M311.03,-215.7C299.21,-206.8 284.63,-195.82 271.84,-186.2"/>
<polygon fill="black" stroke="black" points="273.84,-183.32 263.75,-180.1 269.63,-188.91 273.84,-183.32"/>
</g>
<!-- node9 -->
<g id="node9" class="node">
<title>node9</title>
<polygon fill="orange" stroke="black" points="461.52,-180 404.52,-180 404.52,-144 461.52,-144 461.52,-180"/>
<text text-anchor="middle" x="433.02" y="-159.8" font-family="Times,serif" font-size="9.00">Ⓜ node9</text>
</g>
<!-- node1&#45;&gt;node9 -->
<g id="edge8" class="edge">
<title>node1&#45;&gt;node9</title>
<path fill="none" stroke="black" d="M358.24,-215.88C370.94,-206.89 386.69,-195.76 400.45,-186.03"/>
<polygon fill="black" stroke="black" points="402.57,-188.82 408.71,-180.19 398.53,-183.11 402.57,-188.82"/>
</g>
<!-- node3 -->
<g id="node3" class="node">
<title>node3</title>
<polygon fill="orange" stroke="black" points="138.52,-108 81.52,-108 81.52,-72 138.52,-72 138.52,-108"/>
<text text-anchor="middle" x="110.02" y="-87.8" font-family="Times,serif" font-size="9.00">Ⓜ node3</text>
</g>
<!-- node2&#45;&gt;node3 -->
<g id="edge2" class="edge">
<title>node2&#45;&gt;node3</title>
<path fill="none" stroke="black" d="M212.27,-145.64C193.33,-135.52 168.33,-122.16 147.79,-111.18"/>
<polygon fill="black" stroke="black" points="149.17,-107.95 138.7,-106.33 145.87,-114.13 149.17,-107.95"/>
</g>
<!-- node6 -->
<g id="node6" class="node">
<title>node6</title>
<polygon fill="orange" stroke="black" points="269.52,-108 212.52,-108 212.52,-72 269.52,-72 269.52,-108"/>
<text text-anchor="middle" x="241.02" y="-87.8" font-family="Times,serif" font-size="9.00">Ⓜ node6</text>
</g>
<!-- node2&#45;&gt;node6 -->
<g id="edge5" class="edge">
<title>node2&#45;&gt;node6</title>
<path fill="none" stroke="black" d="M241.02,-143.7C241.02,-135.98 241.02,-126.71 241.02,-118.11"/>
<polygon fill="black" stroke="black" points="244.52,-118.1 241.02,-108.1 237.52,-118.1 244.52,-118.1"/>
</g>
<!-- Dummy -->
<g id="node4" class="node">
<title>Dummy</title>
<ellipse fill="gray" stroke="black" cx="30.02" cy="-18" rx="30.04" ry="18"/>
<text text-anchor="middle" x="30.02" y="-15.8" font-family="Times,serif" font-size="9.00">Dummy</text>
</g>
<!-- node3&#45;&gt;Dummy -->
<g id="edge3" class="edge">
<title>node3&#45;&gt;Dummy</title>
<path fill="none" stroke="black" d="M90.25,-71.7C79.27,-62.09 65.53,-50.07 53.95,-39.94"/>
<polygon fill="black" stroke="black" points="56.17,-37.23 46.34,-33.28 51.56,-42.5 56.17,-37.23"/>
</g>
<!-- Dummy* -->
<g id="node5" class="node">
<title>Dummy*</title>
<ellipse fill="gray" stroke="black" cx="110.02" cy="-18" rx="32.16" ry="18"/>
<text text-anchor="middle" x="110.02" y="-15.8" font-family="Times,serif" font-size="9.00">Dummy*</text>
</g>
<!-- node3&#45;&gt;Dummy* -->
<g id="edge4" class="edge">
<title>node3&#45;&gt;Dummy*</title>
<path fill="none" stroke="black" d="M110.02,-71.7C110.02,-63.98 110.02,-54.71 110.02,-46.11"/>
<polygon fill="black" stroke="black" points="113.52,-46.1 110.02,-36.1 106.52,-46.1 113.52,-46.1"/>
</g>
<!-- Dummy** -->
<g id="node7" class="node">
<title>Dummy**</title>
<ellipse fill="gray" stroke="black" cx="196.02" cy="-18" rx="35.44" ry="18"/>
<text text-anchor="middle" x="196.02" y="-15.8" font-family="Times,serif" font-size="9.00">Dummy**</text>
</g>
<!-- node6&#45;&gt;Dummy** -->
<g id="edge6" class="edge">
<title>node6&#45;&gt;Dummy**</title>
<path fill="none" stroke="black" d="M229.9,-71.7C224.59,-63.44 218.13,-53.39 212.29,-44.3"/>
<polygon fill="black" stroke="black" points="215.06,-42.14 206.71,-35.62 209.17,-45.93 215.06,-42.14"/>
</g>
<!-- Dummy*** -->
<g id="node8" class="node">
<title>Dummy***</title>
<ellipse fill="gray" stroke="black" cx="287.02" cy="-18" rx="37.56" ry="18"/>
<text text-anchor="middle" x="287.02" y="-15.8" font-family="Times,serif" font-size="9.00">Dummy***</text>
</g>
<!-- node6&#45;&gt;Dummy*** -->
<g id="edge7" class="edge">
<title>node6&#45;&gt;Dummy***</title>
<path fill="none" stroke="black" d="M252.39,-71.7C257.88,-63.35 264.56,-53.18 270.58,-44.02"/>
<polygon fill="black" stroke="black" points="273.53,-45.9 276.1,-35.62 267.68,-42.06 273.53,-45.9"/>
</g>
<!-- node10 -->
<g id="node10" class="node">
<title>node10</title>
<polygon fill="orange" stroke="black" points="464.52,-108 401.52,-108 401.52,-72 464.52,-72 464.52,-108"/>
<text text-anchor="middle" x="433.02" y="-87.8" font-family="Times,serif" font-size="9.00">Ⓜ node10</text>
</g>
<!-- node9&#45;&gt;node10 -->
<g id="edge9" class="edge">
<title>node9&#45;&gt;node10</title>
<path fill="none" stroke="black" d="M433.02,-143.7C433.02,-135.98 433.02,-126.71 433.02,-118.11"/>
<polygon fill="black" stroke="black" points="436.52,-118.1 433.02,-108.1 429.52,-118.1 436.52,-118.1"/>
</g>
<!-- node13 -->
<g id="node13" class="node">
<title>node13</title>
<polygon fill="orange" stroke="black" points="621.52,-108 558.52,-108 558.52,-72 621.52,-72 621.52,-108"/>
<text text-anchor="middle" x="590.02" y="-87.8" font-family="Times,serif" font-size="9.00">Ⓜ node13</text>
</g>
<!-- node9&#45;&gt;node13 -->
<g id="edge12" class="edge">
<title>node9&#45;&gt;node13</title>
<path fill="none" stroke="black" d="M461.82,-148.16C486.29,-137.25 521.7,-121.46 549.11,-109.24"/>
<polygon fill="black" stroke="black" points="550.73,-112.35 558.44,-105.08 547.88,-105.96 550.73,-112.35"/>
</g>
<!-- Dummy**** -->
<g id="node11" class="node">
<title>Dummy****</title>
<ellipse fill="gray" stroke="black" cx="383.02" cy="-18" rx="40.33" ry="18"/>
<text text-anchor="middle" x="383.02" y="-15.8" font-family="Times,serif" font-size="9.00">Dummy****</text>
</g>
<!-- node10&#45;&gt;Dummy**** -->
<g id="edge10" class="edge">
<title>node10&#45;&gt;Dummy****</title>
<path fill="none" stroke="black" d="M420.66,-71.7C414.7,-63.35 407.44,-53.18 400.89,-44.02"/>
<polygon fill="black" stroke="black" points="403.56,-41.73 394.9,-35.62 397.86,-45.79 403.56,-41.73"/>
</g>
<!-- Dummy***** -->
<g id="node12" class="node">
<title>Dummy*****</title>
<ellipse fill="gray" stroke="black" cx="484.02" cy="-18" rx="42.95" ry="18"/>
<text text-anchor="middle" x="484.02" y="-15.8" font-family="Times,serif" font-size="9.00">Dummy*****</text>
</g>
<!-- node10&#45;&gt;Dummy***** -->
<g id="edge11" class="edge">
<title>node10&#45;&gt;Dummy*****</title>
<path fill="none" stroke="black" d="M445.63,-71.7C451.77,-63.27 459.27,-52.97 466,-43.73"/>
<polygon fill="black" stroke="black" points="468.85,-45.77 471.91,-35.62 463.19,-41.64 468.85,-45.77"/>
</g>
<!-- Dummy****** -->
<g id="node14" class="node">
<title>Dummy******</title>
<ellipse fill="gray" stroke="black" cx="590.02" cy="-18" rx="45.72" ry="18"/>
<text text-anchor="middle" x="590.02" y="-15.8" font-family="Times,serif" font-size="9.00">Dummy******</text>
</g>
<!-- node13&#45;&gt;Dummy****** -->
<g id="edge13" class="edge">
<title>node13&#45;&gt;Dummy******</title>
<path fill="none" stroke="black" d="M590.02,-71.7C590.02,-63.98 590.02,-54.71 590.02,-46.11"/>
<polygon fill="black" stroke="black" points="593.52,-46.1 590.02,-36.1 586.52,-46.1 593.52,-46.1"/>
</g>
<!-- Dummy******* -->
<g id="node15" class="node">
<title>Dummy*******</title>
<ellipse fill="gray" stroke="black" cx="702.02" cy="-18" rx="47.84" ry="18"/>
<text text-anchor="middle" x="702.02" y="-15.8" font-family="Times,serif" font-size="9.00">Dummy*******</text>
</g>
<!-- node13&#45;&gt;Dummy******* -->
<g id="edge14" class="edge">
<title>node13&#45;&gt;Dummy*******</title>
<path fill="none" stroke="black" d="M617.42,-71.88C633.16,-62.04 653.01,-49.63 669.53,-39.31"/>
<polygon fill="black" stroke="black" points="671.7,-42.08 678.32,-33.81 667.99,-36.15 671.7,-42.08"/>
</g>
</g>
</svg>
