<?xml version="1.0" encoding="UTF-8" standalone="no"?>
<!DOCTYPE svg PUBLIC "-//W3C//DTD SVG 1.1//EN"
 "http://www.w3.org/Graphics/SVG/1.1/DTD/svg11.dtd">
<!-- Generated by graphviz version 2.43.0 (0)
 -->
<!-- Title: pastafarianism Pages: 1 -->
<svg width="1859pt" height="332pt"
 viewBox="0.00 0.00 1858.73 332.00" xmlns="http://www.w3.org/2000/svg" xmlns:xlink="http://www.w3.org/1999/xlink">
<g id="graph0" class="graph" transform="scale(1 1) rotate(0) translate(4 328)">
<title>pastafarianism</title>
<polygon fill="white" stroke="transparent" points="-4,4 -4,-328 1854.73,-328 1854.73,4 -4,4"/>
<!-- node1 -->
<g id="node1" class="node">
<title>node1</title>
<polygon fill="orange" stroke="black" points="740.52,-324 683.52,-324 683.52,-288 740.52,-288 740.52,-324"/>
<text text-anchor="middle" x="712.02" y="-303.8" font-family="Times,serif" font-size="9.00">Ⓜ node1</text>
</g>
<!-- node2 -->
<g id="node2" class="node">
<title>node2</title>
<polygon fill="orange" stroke="black" points="565.52,-252 508.52,-252 508.52,-216 565.52,-216 565.52,-252"/>
<text text-anchor="middle" x="537.02" y="-231.8" font-family="Times,serif" font-size="9.00">Ⓜ node2</text>
</g>
<!-- node1&#45;&gt;node2 -->
<g id="edge1" class="edge">
<title>node1&#45;&gt;node2</title>
<path fill="none" stroke="black" d="M683.52,-293.6C654.11,-281.84 608.07,-263.42 575.46,-250.38"/>
<polygon fill="black" stroke="black" points="576.39,-246.98 565.81,-246.51 573.79,-253.48 576.39,-246.98"/>
</g>
<!-- node17 -->
<g id="node17" class="node">
<title>node17</title>
<polygon fill="orange" stroke="black" points="1035.52,-252 972.52,-252 972.52,-216 1035.52,-216 1035.52,-252"/>
<text text-anchor="middle" x="1004.02" y="-231.8" font-family="Times,serif" font-size="9.00">Ⓜ node17</text>
</g>
<!-- node1&#45;&gt;node17 -->
<g id="edge16" class="edge">
<title>node1&#45;&gt;node17</title>
<path fill="none" stroke="black" d="M740.55,-298.16C792.37,-285.74 902.16,-259.42 962.36,-244.99"/>
<polygon fill="black" stroke="black" points="963.38,-248.34 972.29,-242.61 961.75,-241.53 963.38,-248.34"/>
</g>
<!-- node3 -->
<g id="node3" class="node">
<title>node3</title>
<polygon fill="orange" stroke="black" points="270.52,-180 213.52,-180 213.52,-144 270.52,-144 270.52,-180"/>
<text text-anchor="middle" x="242.02" y="-159.8" font-family="Times,serif" font-size="9.00">Ⓜ node3</text>
</g>
<!-- node2&#45;&gt;node3 -->
<g id="edge2" class="edge">
<title>node2&#45;&gt;node3</title>
<path fill="none" stroke="black" d="M508.47,-226.22C455.16,-213.57 340.47,-186.36 280.44,-172.12"/>
<polygon fill="black" stroke="black" points="281.13,-168.68 270.59,-169.78 279.51,-175.49 281.13,-168.68"/>
</g>
<!-- node10 -->
<g id="node10" class="node">
<title>node10</title>
<polygon fill="orange" stroke="black" points="568.52,-180 505.52,-180 505.52,-144 568.52,-144 568.52,-180"/>
<text text-anchor="middle" x="537.02" y="-159.8" font-family="Times,serif" font-size="9.00">Ⓜ node10</text>
</g>
<!-- node2&#45;&gt;node10 -->
<g id="edge9" class="edge">
<title>node2&#45;&gt;node10</title>
<path fill="none" stroke="black" d="M537.02,-215.7C537.02,-207.98 537.02,-198.71 537.02,-190.11"/>
<polygon fill="black" stroke="black" points="540.52,-190.1 537.02,-180.1 533.52,-190.1 540.52,-190.1"/>
</g>
<!-- node4 -->
<g id="node4" class="node">
<title>node4</title>
<polygon fill="orange" stroke="black" points="138.52,-108 81.52,-108 81.52,-72 138.52,-72 138.52,-108"/>
<text text-anchor="middle" x="110.02" y="-87.8" font-family="Times,serif" font-size="9.00">Ⓜ node4</text>
</g>
<!-- node3&#45;&gt;node4 -->
<g id="edge3" class="edge">
<title>node3&#45;&gt;node4</title>
<path fill="none" stroke="black" d="M213.38,-145.81C194.09,-135.58 168.46,-121.99 147.55,-110.9"/>
<polygon fill="black" stroke="black" points="149.08,-107.75 138.61,-106.16 145.8,-113.94 149.08,-107.75"/>
</g>
<!-- node7 -->
<g id="node7" class="node">
<title>node7</title>
<polygon fill="orange" stroke="black" points="270.52,-108 213.52,-108 213.52,-72 270.52,-72 270.52,-108"/>
<text text-anchor="middle" x="242.02" y="-87.8" font-family="Times,serif" font-size="9.00">Ⓜ node7</text>
</g>
<!-- node3&#45;&gt;node7 -->
<g id="edge6" class="edge">
<title>node3&#45;&gt;node7</title>
<path fill="none" stroke="black" d="M242.02,-143.7C242.02,-135.98 242.02,-126.71 242.02,-118.11"/>
<polygon fill="black" stroke="black" points="245.52,-118.1 242.02,-108.1 238.52,-118.1 245.52,-118.1"/>
</g>
<!-- Dummy -->
<g id="node5" class="node">
<title>Dummy</title>
<ellipse fill="gray" stroke="black" cx="30.02" cy="-18" rx="30.04" ry="18"/>
<text text-anchor="middle" x="30.02" y="-15.8" font-family="Times,serif" font-size="9.00">Dummy</text>
</g>
<!-- node4&#45;&gt;Dummy -->
<g id="edge4" class="edge">
<title>node4&#45;&gt;Dummy</title>
<path fill="none" stroke="black" d="M90.25,-71.7C79.27,-62.09 65.53,-50.07 53.95,-39.94"/>
<polygon fill="black" stroke="black" points="56.17,-37.23 46.34,-33.28 51.56,-42.5 56.17,-37.23"/>
</g>
<!-- Dummy* -->
<g id="node6" class="node">
<title>Dummy*</title>
<ellipse fill="gray" stroke="black" cx="110.02" cy="-18" rx="32.16" ry="18"/>
<text text-anchor="middle" x="110.02" y="-15.8" font-family="Times,serif" font-size="9.00">Dummy*</text>
</g>
<!-- node4&#45;&gt;Dummy* -->
<g id="edge5" class="edge">
<title>node4&#45;&gt;Dummy*</title>
<path fill="none" stroke="black" d="M110.02,-71.7C110.02,-63.98 110.02,-54.71 110.02,-46.11"/>
<polygon fill="black" stroke="black" points="113.52,-46.1 110.02,-36.1 106.52,-46.1 113.52,-46.1"/>
</g>
<!-- Dummy** -->
<g id="node8" class="node">
<title>Dummy**</title>
<ellipse fill="gray" stroke="black" cx="196.02" cy="-18" rx="35.44" ry="18"/>
<text text-anchor="middle" x="196.02" y="-15.8" font-family="Times,serif" font-size="9.00">Dummy**</text>
</g>
<!-- node7&#45;&gt;Dummy** -->
<g id="edge7" class="edge">
<title>node7&#45;&gt;Dummy**</title>
<path fill="none" stroke="black" d="M230.65,-71.7C225.17,-63.35 218.49,-53.18 212.46,-44.02"/>
<polygon fill="black" stroke="black" points="215.36,-42.06 206.95,-35.62 209.51,-45.9 215.36,-42.06"/>
</g>
<!-- Dummy*** -->
<g id="node9" class="node">
<title>Dummy***</title>
<ellipse fill="gray" stroke="black" cx="287.02" cy="-18" rx="37.56" ry="18"/>
<text text-anchor="middle" x="287.02" y="-15.8" font-family="Times,serif" font-size="9.00">Dummy***</text>
</g>
<!-- node7&#45;&gt;Dummy*** -->
<g id="edge8" class="edge">
<title>node7&#45;&gt;Dummy***</title>
<path fill="none" stroke="black" d="M253.15,-71.7C258.46,-63.44 264.91,-53.39 270.76,-44.3"/>
<polygon fill="black" stroke="black" points="273.87,-45.93 276.34,-35.62 267.98,-42.14 273.87,-45.93"/>
</g>
<!-- node11 -->
<g id="node11" class="node">
<title>node11</title>
<polygon fill="orange" stroke="black" points="515.52,-108 452.52,-108 452.52,-72 515.52,-72 515.52,-108"/>
<text text-anchor="middle" x="484.02" y="-87.8" font-family="Times,serif" font-size="9.00">Ⓜ node11</text>
</g>
<!-- node10&#45;&gt;node11 -->
<g id="edge10" class="edge">
<title>node10&#45;&gt;node11</title>
<path fill="none" stroke="black" d="M523.92,-143.7C517.63,-135.39 509.97,-125.28 503.06,-116.14"/>
<polygon fill="black" stroke="black" points="505.8,-113.96 496.97,-108.1 500.22,-118.19 505.8,-113.96"/>
</g>
<!-- node14 -->
<g id="node14" class="node">
<title>node14</title>
<polygon fill="orange" stroke="black" points="621.52,-108 558.52,-108 558.52,-72 621.52,-72 621.52,-108"/>
<text text-anchor="middle" x="590.02" y="-87.8" font-family="Times,serif" font-size="9.00">Ⓜ node14</text>
</g>
<!-- node10&#45;&gt;node14 -->
<g id="edge13" class="edge">
<title>node10&#45;&gt;node14</title>
<path fill="none" stroke="black" d="M550.12,-143.7C556.41,-135.39 564.07,-125.28 570.99,-116.14"/>
<polygon fill="black" stroke="black" points="573.83,-118.19 577.07,-108.1 568.24,-113.96 573.83,-118.19"/>
</g>
<!-- Dummy**** -->
<g id="node12" class="node">
<title>Dummy****</title>
<ellipse fill="gray" stroke="black" cx="383.02" cy="-18" rx="40.33" ry="18"/>
<text text-anchor="middle" x="383.02" y="-15.8" font-family="Times,serif" font-size="9.00">Dummy****</text>
</g>
<!-- node11&#45;&gt;Dummy**** -->
<g id="edge11" class="edge">
<title>node11&#45;&gt;Dummy****</title>
<path fill="none" stroke="black" d="M459.31,-71.88C445.16,-62.06 427.3,-49.69 412.43,-39.38"/>
<polygon fill="black" stroke="black" points="414.27,-36.4 404.06,-33.58 410.29,-42.15 414.27,-36.4"/>
</g>
<!-- Dummy***** -->
<g id="node13" class="node">
<title>Dummy*****</title>
<ellipse fill="gray" stroke="black" cx="484.02" cy="-18" rx="42.95" ry="18"/>
<text text-anchor="middle" x="484.02" y="-15.8" font-family="Times,serif" font-size="9.00">Dummy*****</text>
</g>
<!-- node11&#45;&gt;Dummy***** -->
<g id="edge12" class="edge">
<title>node11&#45;&gt;Dummy*****</title>
<path fill="none" stroke="black" d="M484.02,-71.7C484.02,-63.98 484.02,-54.71 484.02,-46.11"/>
<polygon fill="black" stroke="black" points="487.52,-46.1 484.02,-36.1 480.52,-46.1 487.52,-46.1"/>
</g>
<!-- Dummy****** -->
<g id="node15" class="node">
<title>Dummy******</title>
<ellipse fill="gray" stroke="black" cx="590.02" cy="-18" rx="45.72" ry="18"/>
<text text-anchor="middle" x="590.02" y="-15.8" font-family="Times,serif" font-size="9.00">Dummy******</text>
</g>
<!-- node14&#45;&gt;Dummy****** -->
<g id="edge14" class="edge">
<title>node14&#45;&gt;Dummy******</title>
<path fill="none" stroke="black" d="M590.02,-71.7C590.02,-63.98 590.02,-54.71 590.02,-46.11"/>
<polygon fill="black" stroke="black" points="593.52,-46.1 590.02,-36.1 586.52,-46.1 593.52,-46.1"/>
</g>
<!-- Dummy******* -->
<g id="node16" class="node">
<title>Dummy*******</title>
<ellipse fill="gray" stroke="black" cx="702.02" cy="-18" rx="47.84" ry="18"/>
<text text-anchor="middle" x="702.02" y="-15.8" font-family="Times,serif" font-size="9.00">Dummy*******</text>
</g>
<!-- node14&#45;&gt;Dummy******* -->
<g id="edge15" class="edge">
<title>node14&#45;&gt;Dummy*******</title>
<path fill="none" stroke="black" d="M617.42,-71.88C633.16,-62.04 653.01,-49.63 669.53,-39.31"/>
<polygon fill="black" stroke="black" points="671.7,-42.08 678.32,-33.81 667.99,-36.15 671.7,-42.08"/>
</g>
<!-- node18 -->
<g id="node18" class="node">
<title>node18</title>
<polygon fill="orange" stroke="black" points="1035.52,-180 972.52,-180 972.52,-144 1035.52,-144 1035.52,-180"/>
<text text-anchor="middle" x="1004.02" y="-159.8" font-family="Times,serif" font-size="9.00">Ⓜ node18</text>
</g>
<!-- node17&#45;&gt;node18 -->
<g id="edge17" class="edge">
<title>node17&#45;&gt;node18</title>
<path fill="none" stroke="black" d="M1004.02,-215.7C1004.02,-207.98 1004.02,-198.71 1004.02,-190.11"/>
<polygon fill="black" stroke="black" points="1007.52,-190.1 1004.02,-180.1 1000.52,-190.1 1007.52,-190.1"/>
</g>
<!-- node25 -->
<g id="node25" class="node">
<title>node25</title>
<polygon fill="orange" stroke="black" points="1440.52,-180 1377.52,-180 1377.52,-144 1440.52,-144 1440.52,-180"/>
<text text-anchor="middle" x="1409.02" y="-159.8" font-family="Times,serif" font-size="9.00">Ⓜ node25</text>
</g>
<!-- node17&#45;&gt;node25 -->
<g id="edge24" class="edge">
<title>node17&#45;&gt;node25</title>
<path fill="none" stroke="black" d="M1035.8,-227.51C1108.41,-214.96 1286.41,-184.19 1367.53,-170.17"/>
<polygon fill="black" stroke="black" points="1368.13,-173.62 1377.39,-168.47 1366.94,-166.72 1368.13,-173.62"/>
</g>
<!-- node19 -->
<g id="node19" class="node">
<title>node19</title>
<polygon fill="orange" stroke="black" points="972.52,-108 909.52,-108 909.52,-72 972.52,-72 972.52,-108"/>
<text text-anchor="middle" x="941.02" y="-87.8" font-family="Times,serif" font-size="9.00">Ⓜ node19</text>
</g>
<!-- node18&#45;&gt;node19 -->
<g id="edge18" class="edge">
<title>node18&#45;&gt;node19</title>
<path fill="none" stroke="black" d="M988.45,-143.7C980.82,-135.22 971.5,-124.86 963.15,-115.58"/>
<polygon fill="black" stroke="black" points="965.71,-113.2 956.42,-108.1 960.5,-117.88 965.71,-113.2"/>
</g>
<!-- node22 -->
<g id="node22" class="node">
<title>node22</title>
<polygon fill="orange" stroke="black" points="1099.52,-108 1036.52,-108 1036.52,-72 1099.52,-72 1099.52,-108"/>
<text text-anchor="middle" x="1068.02" y="-87.8" font-family="Times,serif" font-size="9.00">Ⓜ node22</text>
</g>
<!-- node18&#45;&gt;node22 -->
<g id="edge21" class="edge">
<title>node18&#45;&gt;node22</title>
<path fill="none" stroke="black" d="M1019.84,-143.7C1027.59,-135.22 1037.06,-124.86 1045.55,-115.58"/>
<polygon fill="black" stroke="black" points="1048.22,-117.85 1052.38,-108.1 1043.05,-113.12 1048.22,-117.85"/>
</g>
<!-- Dummy******** -->
<g id="node20" class="node">
<title>Dummy********</title>
<ellipse fill="gray" stroke="black" cx="819.02" cy="-18" rx="50.61" ry="18"/>
<text text-anchor="middle" x="819.02" y="-15.8" font-family="Times,serif" font-size="9.00">Dummy********</text>
</g>
<!-- node19&#45;&gt;Dummy******** -->
<g id="edge19" class="edge">
<title>node19&#45;&gt;Dummy********</title>
<path fill="none" stroke="black" d="M911.18,-71.88C893.88,-61.95 872.01,-49.4 853.91,-39.02"/>
<polygon fill="black" stroke="black" points="855.25,-35.75 844.84,-33.81 851.77,-41.83 855.25,-35.75"/>
</g>
<!-- Dummy********* -->
<g id="node21" class="node">
<title>Dummy*********</title>
<ellipse fill="gray" stroke="black" cx="941.02" cy="-18" rx="53.23" ry="18"/>
<text text-anchor="middle" x="941.02" y="-15.8" font-family="Times,serif" font-size="9.00">Dummy*********</text>
</g>
<!-- node19&#45;&gt;Dummy********* -->
<g id="edge20" class="edge">
<title>node19&#45;&gt;Dummy*********</title>
<path fill="none" stroke="black" d="M941.02,-71.7C941.02,-63.98 941.02,-54.71 941.02,-46.11"/>
<polygon fill="black" stroke="black" points="944.52,-46.1 941.02,-36.1 937.52,-46.1 944.52,-46.1"/>
</g>
<!-- Dummy********** -->
<g id="node23" class="node">
<title>Dummy**********</title>
<ellipse fill="gray" stroke="black" cx="1068.02" cy="-18" rx="56.01" ry="18"/>
<text text-anchor="middle" x="1068.02" y="-15.8" font-family="Times,serif" font-size="9.00">Dummy**********</text>
</g>
<!-- node22&#45;&gt;Dummy********** -->
<g id="edge22" class="edge">
<title>node22&#45;&gt;Dummy**********</title>
<path fill="none" stroke="black" d="M1068.02,-71.7C1068.02,-63.98 1068.02,-54.71 1068.02,-46.11"/>
<polygon fill="black" stroke="black" points="1071.52,-46.1 1068.02,-36.1 1064.52,-46.1 1071.52,-46.1"/>
</g>
<!-- Dummy*********** -->
<g id="node24" class="node">
<title>Dummy***********</title>
<ellipse fill="gray" stroke="black" cx="1200.02" cy="-18" rx="58.13" ry="18"/>
<text text-anchor="middle" x="1200.02" y="-15.8" font-family="Times,serif" font-size="9.00">Dummy***********</text>
</g>
<!-- node22&#45;&gt;Dummy*********** -->
<g id="edge23" class="edge">
<title>node22&#45;&gt;Dummy***********</title>
<path fill="none" stroke="black" d="M1099.64,-72.23C1118.6,-62.18 1142.82,-49.33 1162.72,-38.78"/>
<polygon fill="black" stroke="black" points="1164.61,-41.74 1171.81,-33.96 1161.33,-35.56 1164.61,-41.74"/>
</g>
<!-- node26 -->
<g id="node26" class="node">
<title>node26</title>
<polygon fill="orange" stroke="black" points="1440.52,-108 1377.52,-108 1377.52,-72 1440.52,-72 1440.52,-108"/>
<text text-anchor="middle" x="1409.02" y="-87.8" font-family="Times,serif" font-size="9.00">Ⓜ node26</text>
</g>
<!-- node25&#45;&gt;node26 -->
<g id="edge25" class="edge">
<title>node25&#45;&gt;node26</title>
<path fill="none" stroke="black" d="M1409.02,-143.7C1409.02,-135.98 1409.02,-126.71 1409.02,-118.11"/>
<polygon fill="black" stroke="black" points="1412.52,-118.1 1409.02,-108.1 1405.52,-118.1 1412.52,-118.1"/>
</g>
<!-- node29 -->
<g id="node29" class="node">
<title>node29</title>
<polygon fill="orange" stroke="black" points="1660.52,-108 1597.52,-108 1597.52,-72 1660.52,-72 1660.52,-108"/>
<text text-anchor="middle" x="1629.02" y="-87.8" font-family="Times,serif" font-size="9.00">Ⓜ node29</text>
</g>
<!-- node25&#45;&gt;node29 -->
<g id="edge28" class="edge">
<title>node25&#45;&gt;node29</title>
<path fill="none" stroke="black" d="M1440.54,-150.97C1479.23,-138.66 1544.95,-117.75 1587.66,-104.16"/>
<polygon fill="black" stroke="black" points="1588.74,-107.49 1597.2,-101.12 1586.61,-100.82 1588.74,-107.49"/>
</g>
<!-- Dummy************ -->
<g id="node27" class="node">
<title>Dummy************</title>
<ellipse fill="gray" stroke="black" cx="1338.02" cy="-18" rx="61.4" ry="18"/>
<text text-anchor="middle" x="1338.02" y="-15.8" font-family="Times,serif" font-size="9.00">Dummy************</text>
</g>
<!-- node26&#45;&gt;Dummy************ -->
<g id="edge26" class="edge">
<title>node26&#45;&gt;Dummy************</title>
<path fill="none" stroke="black" d="M1391.47,-71.7C1382.66,-63.01 1371.84,-52.34 1362.25,-42.89"/>
<polygon fill="black" stroke="black" points="1364.46,-40.15 1354.88,-35.62 1359.55,-45.14 1364.46,-40.15"/>
</g>
<!-- Dummy************* -->
<g id="node28" class="node">
<title>Dummy*************</title>
<ellipse fill="gray" stroke="black" cx="1481.02" cy="-18" rx="63.52" ry="18"/>
<text text-anchor="middle" x="1481.02" y="-15.8" font-family="Times,serif" font-size="9.00">Dummy*************</text>
</g>
<!-- node26&#45;&gt;Dummy************* -->
<g id="edge27" class="edge">
<title>node26&#45;&gt;Dummy*************</title>
<path fill="none" stroke="black" d="M1426.82,-71.7C1435.85,-62.92 1446.94,-52.13 1456.74,-42.61"/>
<polygon fill="black" stroke="black" points="1459.19,-45.1 1463.92,-35.62 1454.32,-40.08 1459.19,-45.1"/>
</g>
<!-- Dummy************** -->
<g id="node30" class="node">
<title>Dummy**************</title>
<ellipse fill="gray" stroke="black" cx="1629.02" cy="-18" rx="66.29" ry="18"/>
<text text-anchor="middle" x="1629.02" y="-15.8" font-family="Times,serif" font-size="9.00">Dummy**************</text>
</g>
<!-- node29&#45;&gt;Dummy************** -->
<g id="edge29" class="edge">
<title>node29&#45;&gt;Dummy**************</title>
<path fill="none" stroke="black" d="M1629.02,-71.7C1629.02,-63.98 1629.02,-54.71 1629.02,-46.11"/>
<polygon fill="black" stroke="black" points="1632.52,-46.1 1629.02,-36.1 1625.52,-46.1 1632.52,-46.1"/>
</g>
<!-- Dummy*************** -->
<g id="node31" class="node">
<title>Dummy***************</title>
<ellipse fill="gray" stroke="black" cx="1782.02" cy="-18" rx="68.91" ry="18"/>
<text text-anchor="middle" x="1782.02" y="-15.8" font-family="Times,serif" font-size="9.00">Dummy***************</text>
</g>
<!-- node29&#45;&gt;Dummy*************** -->
<g id="edge30" class="edge">
<title>node29&#45;&gt;Dummy***************</title>
<path fill="none" stroke="black" d="M1660.72,-74.5C1683.7,-63.99 1714.99,-49.67 1740.04,-38.21"/>
<polygon fill="black" stroke="black" points="1741.67,-41.31 1749.31,-33.97 1738.76,-34.95 1741.67,-41.31"/>
</g>
</g>
</svg>
