<?xml version="1.0" encoding="UTF-8" standalone="no"?>
<!DOCTYPE svg PUBLIC "-//W3C//DTD SVG 1.1//EN"
 "http://www.w3.org/Graphics/SVG/1.1/DTD/svg11.dtd">
<!-- Generated by graphviz version 2.43.0 (0)
 -->
<!-- Title: pastafarianism Pages: 1 -->
<svg width="3934pt" height="464pt"
 viewBox="0.00 0.00 3934.20 464.00" xmlns="http://www.w3.org/2000/svg" xmlns:xlink="http://www.w3.org/1999/xlink">
<g id="graph0" class="graph" transform="scale(1 1) rotate(0) translate(4 460)">
<title>pastafarianism</title>
<polygon fill="white" stroke="transparent" points="-4,4 -4,-460 3930.2,-460 3930.2,4 -4,4"/>
<!-- BlueROV -->
<g id="node1" class="node">
<title>BlueROV</title>
<polygon fill="gold" stroke="black" points="1896.14,-456 1764.3,-456 1730.38,-400 1862.22,-400 1896.14,-456"/>
<text text-anchor="middle" x="1813.26" y="-430.8" font-family="Times,serif" font-size="9.00">⚡ BlueROV</text>
<text text-anchor="middle" x="1813.26" y="-420.8" font-family="Times,serif" font-size="9.00">SuccessOnAll</text>
</g>
<!-- topics2bb -->
<g id="node2" class="node">
<title>topics2bb</title>
<polygon fill="gold" stroke="black" points="1089.14,-364 957.3,-364 923.38,-308 1055.22,-308 1089.14,-364"/>
<text text-anchor="middle" x="1006.26" y="-338.8" font-family="Times,serif" font-size="9.00">⚡ topics2bb</text>
<text text-anchor="middle" x="1006.26" y="-328.8" font-family="Times,serif" font-size="9.00">SuccessOnAll</text>
</g>
<!-- BlueROV&#45;&gt;topics2bb -->
<g id="edge1" class="edge">
<title>BlueROV&#45;&gt;topics2bb</title>
<path fill="none" stroke="black" d="M1741.64,-419.01C1591.79,-402.3 1245.99,-363.74 1087.86,-346.1"/>
<polygon fill="black" stroke="black" points="1088.04,-342.6 1077.72,-344.97 1087.27,-349.56 1088.04,-342.6"/>
</g>
<!-- dd_tasks_serene -->
<g id="node20" class="node">
<title>dd_tasks_serene</title>
<ellipse fill="gray" stroke="black" cx="1693.26" cy="-336" rx="53.23" ry="18"/>
<text text-anchor="middle" x="1693.26" y="-333.8" font-family="Times,serif" font-size="9.00">dd_tasks_serene</text>
</g>
<!-- BlueROV&#45;&gt;dd_tasks_serene -->
<g id="edge19" class="edge">
<title>BlueROV&#45;&gt;dd_tasks_serene</title>
<path fill="none" stroke="black" d="M1777.26,-400C1759.74,-386.86 1738.95,-371.27 1722.44,-358.88"/>
<polygon fill="black" stroke="black" points="1724.33,-355.93 1714.23,-352.73 1720.13,-361.53 1724.33,-355.93"/>
</g>
<!-- mission_server -->
<g id="node21" class="node">
<title>mission_server</title>
<ellipse fill="gray" stroke="black" cx="1813.26" cy="-336" rx="49.15" ry="18"/>
<text text-anchor="middle" x="1813.26" y="-333.8" font-family="Times,serif" font-size="9.00">mission_server</text>
</g>
<!-- BlueROV&#45;&gt;mission_server -->
<g id="edge20" class="edge">
<title>BlueROV&#45;&gt;mission_server</title>
<path fill="none" stroke="black" d="M1813.26,-400C1813.26,-388.7 1813.26,-375.58 1813.26,-364.26"/>
<polygon fill="black" stroke="black" points="1816.76,-364.06 1813.26,-354.06 1809.76,-364.06 1816.76,-364.06"/>
</g>
<!-- obstacle_avoidance -->
<g id="node22" class="node">
<title>obstacle_avoidance</title>
<ellipse fill="gray" stroke="black" cx="1941.26" cy="-336" rx="61.4" ry="18"/>
<text text-anchor="middle" x="1941.26" y="-333.8" font-family="Times,serif" font-size="9.00">obstacle_avoidance</text>
</g>
<!-- BlueROV&#45;&gt;obstacle_avoidance -->
<g id="edge21" class="edge">
<title>BlueROV&#45;&gt;obstacle_avoidance</title>
<path fill="none" stroke="black" d="M1851.66,-400C1870.4,-386.83 1892.63,-371.19 1910.26,-358.79"/>
<polygon fill="black" stroke="black" points="1912.35,-361.61 1918.51,-352.99 1908.32,-355.88 1912.35,-361.61"/>
</g>
<!-- priorities -->
<g id="node23" class="node">
<title>priorities</title>
<polygon fill="cyan" stroke="black" points="2705,-328.54 2705,-343.46 2683.48,-354 2653.04,-354 2631.52,-343.46 2631.52,-328.54 2653.04,-318 2683.48,-318 2705,-328.54"/>
<text text-anchor="middle" x="2668.26" y="-333.8" font-family="Times,serif" font-size="9.00">priorities</text>
</g>
<!-- BlueROV&#45;&gt;priorities -->
<g id="edge22" class="edge">
<title>BlueROV&#45;&gt;priorities</title>
<path fill="none" stroke="black" d="M1874.75,-420.53C2037.24,-403.42 2475.52,-357.29 2620.77,-342"/>
<polygon fill="black" stroke="black" points="2621.54,-345.44 2631.12,-340.91 2620.81,-338.48 2621.54,-345.44"/>
</g>
<!-- battery2bb -->
<g id="node3" class="node">
<title>battery2bb</title>
<ellipse fill="gray" stroke="black" cx="39.26" cy="-254" rx="39.02" ry="18"/>
<text text-anchor="middle" x="39.26" y="-251.8" font-family="Times,serif" font-size="9.00">battery2bb</text>
</g>
<!-- topics2bb&#45;&gt;battery2bb -->
<g id="edge2" class="edge">
<title>topics2bb&#45;&gt;battery2bb</title>
<path fill="none" stroke="black" d="M938.05,-332.66C754.12,-325.99 250.85,-305.17 88.26,-272 84.8,-271.29 81.26,-270.41 77.73,-269.41"/>
<polygon fill="black" stroke="black" points="78.51,-265.99 67.92,-266.37 76.44,-272.67 78.51,-265.99"/>
</g>
<!-- rth2bb -->
<g id="node4" class="node">
<title>rth2bb</title>
<ellipse fill="gray" stroke="black" cx="125.26" cy="-254" rx="28.08" ry="18"/>
<text text-anchor="middle" x="125.26" y="-251.8" font-family="Times,serif" font-size="9.00">rth2bb</text>
</g>
<!-- topics2bb&#45;&gt;rth2bb -->
<g id="edge3" class="edge">
<title>topics2bb&#45;&gt;rth2bb</title>
<path fill="none" stroke="black" d="M938.39,-333.04C764.9,-327.53 308.62,-309.78 162.26,-272 160.09,-271.44 157.89,-270.76 155.7,-269.99"/>
<polygon fill="black" stroke="black" points="156.89,-266.7 146.3,-266.23 154.29,-273.2 156.89,-266.7"/>
</g>
<!-- geofence2bb -->
<g id="node5" class="node">
<title>geofence2bb</title>
<ellipse fill="gray" stroke="black" cx="215.26" cy="-254" rx="43.76" ry="18"/>
<text text-anchor="middle" x="215.26" y="-251.8" font-family="Times,serif" font-size="9.00">geofence2bb</text>
</g>
<!-- topics2bb&#45;&gt;geofence2bb -->
<g id="edge4" class="edge">
<title>topics2bb&#45;&gt;geofence2bb</title>
<path fill="none" stroke="black" d="M939.15,-334.31C808.64,-331.85 512.08,-320.86 268.26,-272 264.59,-271.26 260.81,-270.36 257.04,-269.36"/>
<polygon fill="black" stroke="black" points="257.76,-265.92 247.19,-266.52 255.83,-272.65 257.76,-265.92"/>
</g>
<!-- lec2_am_r_2bb -->
<g id="node6" class="node">
<title>lec2_am_r_2bb</title>
<ellipse fill="gray" stroke="black" cx="327.26" cy="-254" rx="49.8" ry="18"/>
<text text-anchor="middle" x="327.26" y="-251.8" font-family="Times,serif" font-size="9.00">lec2_am_r_2bb</text>
</g>
<!-- topics2bb&#45;&gt;lec2_am_r_2bb -->
<g id="edge5" class="edge">
<title>topics2bb&#45;&gt;lec2_am_r_2bb</title>
<path fill="none" stroke="black" d="M937.79,-332.06C822.89,-326.22 584.37,-310.29 386.26,-272 381.9,-271.16 377.4,-270.14 372.92,-269.03"/>
<polygon fill="black" stroke="black" points="373.77,-265.63 363.21,-266.47 371.98,-272.4 373.77,-265.63"/>
</g>
<!-- lec2_am_l_2bb -->
<g id="node7" class="node">
<title>lec2_am_l_2bb</title>
<ellipse fill="gray" stroke="black" cx="443.26" cy="-254" rx="48.49" ry="18"/>
<text text-anchor="middle" x="443.26" y="-251.8" font-family="Times,serif" font-size="9.00">lec2_am_l_2bb</text>
</g>
<!-- topics2bb&#45;&gt;lec2_am_l_2bb -->
<g id="edge6" class="edge">
<title>topics2bb&#45;&gt;lec2_am_l_2bb</title>
<path fill="none" stroke="black" d="M936.5,-330C838.35,-322.13 654.26,-304.32 500.26,-272 496.39,-271.19 492.4,-270.24 488.42,-269.21"/>
<polygon fill="black" stroke="black" points="489.17,-265.79 478.6,-266.53 487.33,-272.54 489.17,-265.79"/>
</g>
<!-- pipe_lost2bb -->
<g id="node8" class="node">
<title>pipe_lost2bb</title>
<ellipse fill="gray" stroke="black" cx="553.26" cy="-254" rx="43.76" ry="18"/>
<text text-anchor="middle" x="553.26" y="-251.8" font-family="Times,serif" font-size="9.00">pipe_lost2bb</text>
</g>
<!-- topics2bb&#45;&gt;pipe_lost2bb -->
<g id="edge7" class="edge">
<title>topics2bb&#45;&gt;pipe_lost2bb</title>
<path fill="none" stroke="black" d="M934.8,-327.12C854.28,-317.46 719.8,-298.98 606.26,-272 602.66,-271.15 598.96,-270.17 595.26,-269.12"/>
<polygon fill="black" stroke="black" points="596.13,-265.73 585.55,-266.23 594.14,-272.44 596.13,-265.73"/>
</g>
<!-- sensor_failure2bb -->
<g id="node9" class="node">
<title>sensor_failure2bb</title>
<ellipse fill="gray" stroke="black" cx="672.26" cy="-254" rx="57.32" ry="18"/>
<text text-anchor="middle" x="672.26" y="-251.8" font-family="Times,serif" font-size="9.00">sensor_failure2bb</text>
</g>
<!-- topics2bb&#45;&gt;sensor_failure2bb -->
<g id="edge8" class="edge">
<title>topics2bb&#45;&gt;sensor_failure2bb</title>
<path fill="none" stroke="black" d="M928.77,-317.08C875.44,-304.65 802.98,-287.6 739.26,-272 734.62,-270.86 729.81,-269.67 724.99,-268.47"/>
<polygon fill="black" stroke="black" points="725.68,-265.03 715.12,-265.99 723.97,-271.82 725.68,-265.03"/>
</g>
<!-- waypoints_completed2bb -->
<g id="node10" class="node">
<title>waypoints_completed2bb</title>
<ellipse fill="gray" stroke="black" cx="825.26" cy="-254" rx="77.23" ry="18"/>
<text text-anchor="middle" x="825.26" y="-251.8" font-family="Times,serif" font-size="9.00">waypoints_completed2bb</text>
</g>
<!-- topics2bb&#45;&gt;waypoints_completed2bb -->
<g id="edge9" class="edge">
<title>topics2bb&#45;&gt;waypoints_completed2bb</title>
<path fill="none" stroke="black" d="M944.98,-307.92C920.03,-296.89 891.77,-284.4 868.97,-274.32"/>
<polygon fill="black" stroke="black" points="870.12,-271 859.56,-270.16 867.29,-277.4 870.12,-271"/>
</g>
<!-- mission2bb -->
<g id="node11" class="node">
<title>mission2bb</title>
<ellipse fill="gray" stroke="black" cx="960.26" cy="-254" rx="39.67" ry="18"/>
<text text-anchor="middle" x="960.26" y="-251.8" font-family="Times,serif" font-size="9.00">mission2bb</text>
</g>
<!-- topics2bb&#45;&gt;mission2bb -->
<g id="edge10" class="edge">
<title>topics2bb&#45;&gt;mission2bb</title>
<path fill="none" stroke="black" d="M990.69,-307.92C985.63,-299.13 980.04,-289.41 975.05,-280.72"/>
<polygon fill="black" stroke="black" points="977.94,-278.72 969.92,-271.79 971.87,-282.21 977.94,-278.72"/>
</g>
<!-- ddlec2bb -->
<g id="node12" class="node">
<title>ddlec2bb</title>
<ellipse fill="gray" stroke="black" cx="1052.26" cy="-254" rx="34.78" ry="18"/>
<text text-anchor="middle" x="1052.26" y="-251.8" font-family="Times,serif" font-size="9.00">ddlec2bb</text>
</g>
<!-- topics2bb&#45;&gt;ddlec2bb -->
<g id="edge11" class="edge">
<title>topics2bb&#45;&gt;ddlec2bb</title>
<path fill="none" stroke="black" d="M1021.83,-307.92C1026.89,-299.13 1032.48,-289.41 1037.47,-280.72"/>
<polygon fill="black" stroke="black" points="1040.65,-282.21 1042.6,-271.79 1034.58,-278.72 1040.65,-282.21"/>
</g>
<!-- fls2bb -->
<g id="node13" class="node">
<title>fls2bb</title>
<ellipse fill="gray" stroke="black" cx="1132.26" cy="-254" rx="27" ry="18"/>
<text text-anchor="middle" x="1132.26" y="-251.8" font-family="Times,serif" font-size="9.00">fls2bb</text>
</g>
<!-- topics2bb&#45;&gt;fls2bb -->
<g id="edge12" class="edge">
<title>topics2bb&#45;&gt;fls2bb</title>
<path fill="none" stroke="black" d="M1048.92,-307.92C1067.35,-296.21 1088.39,-282.86 1104.71,-272.49"/>
<polygon fill="black" stroke="black" points="1106.69,-275.38 1113.25,-267.07 1102.93,-269.47 1106.69,-275.38"/>
</g>
<!-- fls_warning2bb -->
<g id="node14" class="node">
<title>fls_warning2bb</title>
<ellipse fill="gray" stroke="black" cx="1228.26" cy="-254" rx="50.61" ry="18"/>
<text text-anchor="middle" x="1228.26" y="-251.8" font-family="Times,serif" font-size="9.00">fls_warning2bb</text>
</g>
<!-- topics2bb&#45;&gt;fls_warning2bb -->
<g id="edge13" class="edge">
<title>topics2bb&#45;&gt;fls_warning2bb</title>
<path fill="none" stroke="black" d="M1060,-315.63C1098.12,-301.9 1148.65,-283.69 1184.35,-270.82"/>
<polygon fill="black" stroke="black" points="1185.79,-274.03 1194.01,-267.34 1183.42,-267.44 1185.79,-274.03"/>
</g>
<!-- hsd_pipe2bb -->
<g id="node15" class="node">
<title>hsd_pipe2bb</title>
<ellipse fill="gray" stroke="black" cx="1341.26" cy="-254" rx="43.76" ry="18"/>
<text text-anchor="middle" x="1341.26" y="-251.8" font-family="Times,serif" font-size="9.00">hsd_pipe2bb</text>
</g>
<!-- topics2bb&#45;&gt;hsd_pipe2bb -->
<g id="edge14" class="edge">
<title>topics2bb&#45;&gt;hsd_pipe2bb</title>
<path fill="none" stroke="black" d="M1064.7,-323.56C1121.99,-311.96 1211.65,-292.8 1288.26,-272 1291.63,-271.09 1295.1,-270.09 1298.57,-269.06"/>
<polygon fill="black" stroke="black" points="1299.78,-272.35 1308.32,-266.08 1297.73,-265.66 1299.78,-272.35"/>
</g>
<!-- hsd_wp2bb -->
<g id="node16" class="node">
<title>hsd_wp2bb</title>
<ellipse fill="gray" stroke="black" cx="1443.26" cy="-254" rx="39.67" ry="18"/>
<text text-anchor="middle" x="1443.26" y="-251.8" font-family="Times,serif" font-size="9.00">hsd_wp2bb</text>
</g>
<!-- topics2bb&#45;&gt;hsd_wp2bb -->
<g id="edge15" class="edge">
<title>topics2bb&#45;&gt;hsd_wp2bb</title>
<path fill="none" stroke="black" d="M1067.75,-328.35C1144.82,-319.25 1280.62,-300.71 1394.26,-272 1397.45,-271.19 1400.72,-270.27 1403.99,-269.29"/>
<polygon fill="black" stroke="black" points="1405.25,-272.56 1413.71,-266.17 1403.12,-265.89 1405.25,-272.56"/>
</g>
<!-- hsd_rth2bb -->
<g id="node17" class="node">
<title>hsd_rth2bb</title>
<ellipse fill="gray" stroke="black" cx="1541.26" cy="-254" rx="40.33" ry="18"/>
<text text-anchor="middle" x="1541.26" y="-251.8" font-family="Times,serif" font-size="9.00">hsd_rth2bb</text>
</g>
<!-- topics2bb&#45;&gt;hsd_rth2bb -->
<g id="edge16" class="edge">
<title>topics2bb&#45;&gt;hsd_rth2bb</title>
<path fill="none" stroke="black" d="M1069.53,-330.96C1162.98,-324.05 1342.99,-307.18 1492.26,-272 1495.46,-271.25 1498.74,-270.36 1502.02,-269.4"/>
<polygon fill="black" stroke="black" points="1503.26,-272.68 1511.75,-266.33 1501.16,-266 1503.26,-272.68"/>
</g>
<!-- hsd_surface2bb -->
<g id="node18" class="node">
<title>hsd_surface2bb</title>
<ellipse fill="gray" stroke="black" cx="1651.26" cy="-254" rx="51.27" ry="18"/>
<text text-anchor="middle" x="1651.26" y="-251.8" font-family="Times,serif" font-size="9.00">hsd_surface2bb</text>
</g>
<!-- topics2bb&#45;&gt;hsd_surface2bb -->
<g id="edge17" class="edge">
<title>topics2bb&#45;&gt;hsd_surface2bb</title>
<path fill="none" stroke="black" d="M1069.85,-331.57C1177.69,-324.99 1402.98,-307.94 1590.26,-272 1594.69,-271.15 1599.27,-270.13 1603.84,-269.03"/>
<polygon fill="black" stroke="black" points="1604.92,-272.36 1613.74,-266.5 1603.19,-265.58 1604.92,-272.36"/>
</g>
<!-- rtreach2bb -->
<g id="node19" class="node">
<title>rtreach2bb</title>
<ellipse fill="gray" stroke="black" cx="1760.26" cy="-254" rx="39.67" ry="18"/>
<text text-anchor="middle" x="1760.26" y="-251.8" font-family="Times,serif" font-size="9.00">rtreach2bb</text>
</g>
<!-- topics2bb&#45;&gt;rtreach2bb -->
<g id="edge18" class="edge">
<title>topics2bb&#45;&gt;rtreach2bb</title>
<path fill="none" stroke="black" d="M1071.69,-334.47C1197.16,-332.29 1479.68,-321.73 1711.26,-272 1714.62,-271.28 1718.07,-270.39 1721.5,-269.41"/>
<polygon fill="black" stroke="black" points="1722.55,-272.75 1731.05,-266.44 1720.47,-266.07 1722.55,-272.75"/>
</g>
<!-- battery_check_SIF -->
<g id="node24" class="node">
<title>battery_check_SIF</title>
<ellipse fill="ghostwhite" stroke="black" cx="1877.26" cy="-254" rx="58.78" ry="18"/>
<text text-anchor="middle" x="1877.26" y="-251.8" font-family="Times,serif" font-size="9.00">battery_check_SIF</text>
</g>
<!-- priorities&#45;&gt;battery_check_SIF -->
<g id="edge23" class="edge">
<title>priorities&#45;&gt;battery_check_SIF</title>
<path fill="none" stroke="black" d="M2631.46,-333.9C2524.57,-330.25 2205.19,-316.16 1944.26,-272 1939.28,-271.16 1934.14,-270.13 1929.01,-269.01"/>
<polygon fill="black" stroke="black" points="1929.74,-265.59 1919.21,-266.75 1928.17,-272.41 1929.74,-265.59"/>
</g>
<!-- sensor_failure_selector_SIF -->
<g id="node28" class="node">
<title>sensor_failure_selector_SIF</title>
<ellipse fill="ghostwhite" stroke="black" cx="2036.26" cy="-254" rx="82.62" ry="18"/>
<text text-anchor="middle" x="2036.26" y="-251.8" font-family="Times,serif" font-size="9.00">sensor_failure_selector_SIF</text>
</g>
<!-- priorities&#45;&gt;sensor_failure_selector_SIF -->
<g id="edge27" class="edge">
<title>priorities&#45;&gt;sensor_failure_selector_SIF</title>
<path fill="none" stroke="black" d="M2631.41,-331.59C2543.77,-323.29 2316.11,-300.6 2127.26,-272 2120.16,-270.92 2112.76,-269.71 2105.39,-268.43"/>
<polygon fill="black" stroke="black" points="2105.85,-264.95 2095.39,-266.66 2104.63,-271.85 2105.85,-264.95"/>
</g>
<!-- emergency_stop_check_SIF -->
<g id="node32" class="node">
<title>emergency_stop_check_SIF</title>
<ellipse fill="ghostwhite" stroke="black" cx="2219.26" cy="-254" rx="82.62" ry="18"/>
<text text-anchor="middle" x="2219.26" y="-251.8" font-family="Times,serif" font-size="9.00">emergency_stop_check_SIF</text>
</g>
<!-- priorities&#45;&gt;emergency_stop_check_SIF -->
<g id="edge31" class="edge">
<title>priorities&#45;&gt;emergency_stop_check_SIF</title>
<path fill="none" stroke="black" d="M2631.39,-328.64C2566.45,-317.42 2427.46,-293.26 2310.26,-272 2303.57,-270.79 2296.6,-269.51 2289.63,-268.22"/>
<polygon fill="black" stroke="black" points="2289.92,-264.72 2279.45,-266.34 2288.65,-271.6 2289.92,-264.72"/>
</g>
<!-- home_reached_selector_SIF -->
<g id="node38" class="node">
<title>home_reached_selector_SIF</title>
<ellipse fill="ghostwhite" stroke="black" cx="2403.26" cy="-254" rx="83.93" ry="18"/>
<text text-anchor="middle" x="2403.26" y="-251.8" font-family="Times,serif" font-size="9.00">home_reached_selector_SIF</text>
</g>
<!-- priorities&#45;&gt;home_reached_selector_SIF -->
<g id="edge37" class="edge">
<title>priorities&#45;&gt;home_reached_selector_SIF</title>
<path fill="none" stroke="black" d="M2637.34,-325.67C2593.9,-312.55 2514.04,-288.44 2459.81,-272.07"/>
<polygon fill="black" stroke="black" points="2460.59,-268.65 2450,-269.11 2458.56,-275.35 2460.59,-268.65"/>
</g>
<!-- obstacle_standoff_check_SIF -->
<g id="node42" class="node">
<title>obstacle_standoff_check_SIF</title>
<ellipse fill="ghostwhite" stroke="black" cx="2590.26" cy="-254" rx="85.4" ry="18"/>
<text text-anchor="middle" x="2590.26" y="-251.8" font-family="Times,serif" font-size="9.00">obstacle_standoff_check_SIF</text>
</g>
<!-- priorities&#45;&gt;obstacle_standoff_check_SIF -->
<g id="edge41" class="edge">
<title>priorities&#45;&gt;obstacle_standoff_check_SIF</title>
<path fill="none" stroke="black" d="M2652.1,-318.42C2641.09,-307.13 2626.32,-291.99 2613.98,-279.33"/>
<polygon fill="black" stroke="black" points="2616.16,-276.55 2606.67,-271.83 2611.14,-281.43 2616.16,-276.55"/>
</g>
<!-- rth_selector_SIF -->
<g id="node46" class="node">
<title>rth_selector_SIF</title>
<ellipse fill="ghostwhite" stroke="black" cx="2747.26" cy="-254" rx="53.23" ry="18"/>
<text text-anchor="middle" x="2747.26" y="-251.8" font-family="Times,serif" font-size="9.00">rth_selector_SIF</text>
</g>
<!-- priorities&#45;&gt;rth_selector_SIF -->
<g id="edge45" class="edge">
<title>priorities&#45;&gt;rth_selector_SIF</title>
<path fill="none" stroke="black" d="M2684.63,-318.42C2696.04,-306.87 2711.42,-291.29 2724.09,-278.46"/>
<polygon fill="black" stroke="black" points="2726.65,-280.86 2731.18,-271.28 2721.67,-275.94 2726.65,-280.86"/>
</g>
<!-- geofence_selector_SIF -->
<g id="node52" class="node">
<title>geofence_selector_SIF</title>
<ellipse fill="ghostwhite" stroke="black" cx="2887.26" cy="-254" rx="68.91" ry="18"/>
<text text-anchor="middle" x="2887.26" y="-251.8" font-family="Times,serif" font-size="9.00">geofence_selector_SIF</text>
</g>
<!-- priorities&#45;&gt;geofence_selector_SIF -->
<g id="edge51" class="edge">
<title>priorities&#45;&gt;geofence_selector_SIF</title>
<path fill="none" stroke="black" d="M2696.89,-324.54C2733,-311.35 2795.62,-288.48 2839.14,-272.58"/>
<polygon fill="black" stroke="black" points="2840.47,-275.82 2848.66,-269.1 2838.07,-269.24 2840.47,-275.82"/>
</g>
<!-- pipe_lost_selector_SIF -->
<g id="node58" class="node">
<title>pipe_lost_selector_SIF</title>
<ellipse fill="ghostwhite" stroke="black" cx="3042.26" cy="-254" rx="68.91" ry="18"/>
<text text-anchor="middle" x="3042.26" y="-251.8" font-family="Times,serif" font-size="9.00">pipe_lost_selector_SIF</text>
</g>
<!-- priorities&#45;&gt;pipe_lost_selector_SIF -->
<g id="edge57" class="edge">
<title>priorities&#45;&gt;pipe_lost_selector_SIF</title>
<path fill="none" stroke="black" d="M2703.48,-327.63C2759.12,-315.96 2870.73,-292.46 2965.26,-272 2970.61,-270.84 2976.17,-269.63 2981.74,-268.41"/>
<polygon fill="black" stroke="black" points="2982.72,-271.78 2991.74,-266.22 2981.22,-264.94 2982.72,-271.78"/>
</g>
<!-- track_pipe_mission -->
<g id="node62" class="node">
<title>track_pipe_mission</title>
<polygon fill="orange" stroke="black" points="3360.26,-272 3244.26,-272 3244.26,-236 3360.26,-236 3360.26,-272"/>
<text text-anchor="middle" x="3302.26" y="-251.8" font-family="Times,serif" font-size="9.00">Ⓜ track_pipe_mission</text>
</g>
<!-- priorities&#45;&gt;track_pipe_mission -->
<g id="edge61" class="edge">
<title>priorities&#45;&gt;track_pipe_mission</title>
<path fill="none" stroke="black" d="M2705.09,-330.35C2808.11,-317.35 3100.46,-280.46 3234.1,-263.6"/>
<polygon fill="black" stroke="black" points="3234.73,-267.05 3244.21,-262.32 3233.85,-260.1 3234.73,-267.05"/>
</g>
<!-- waypoint_mission -->
<g id="node67" class="node">
<title>waypoint_mission</title>
<polygon fill="orange" stroke="black" points="3613.26,-272 3503.26,-272 3503.26,-236 3613.26,-236 3613.26,-272"/>
<text text-anchor="middle" x="3558.26" y="-251.8" font-family="Times,serif" font-size="9.00">Ⓜ waypoint_mission</text>
</g>
<!-- priorities&#45;&gt;waypoint_mission -->
<g id="edge66" class="edge">
<title>priorities&#45;&gt;waypoint_mission</title>
<path fill="none" stroke="black" d="M2705.12,-331.69C2809.37,-322.32 3115.21,-294.84 3369.26,-272 3410.35,-268.31 3456.46,-264.16 3492.86,-260.88"/>
<polygon fill="black" stroke="black" points="3493.2,-264.37 3502.85,-259.98 3492.58,-257.4 3493.2,-264.37"/>
</g>
<!-- loiter_task -->
<g id="node70" class="node">
<title>loiter_task</title>
<ellipse fill="gray" stroke="black" cx="3669.26" cy="-254" rx="37.56" ry="18"/>
<text text-anchor="middle" x="3669.26" y="-251.8" font-family="Times,serif" font-size="9.00">loiter_task</text>
</g>
<!-- priorities&#45;&gt;loiter_task -->
<g id="edge69" class="edge">
<title>priorities&#45;&gt;loiter_task</title>
<path fill="none" stroke="black" d="M2705.25,-333.95C2858.26,-329.37 3442.13,-309.73 3622.26,-272 3625.49,-271.32 3628.79,-270.47 3632.08,-269.52"/>
<polygon fill="black" stroke="black" points="3633.35,-272.78 3641.8,-266.39 3631.21,-266.12 3633.35,-272.78"/>
</g>
<!-- battery_check -->
<g id="node25" class="node">
<title>battery_check</title>
<polygon fill="cyan" stroke="black" points="1640.75,-174.54 1640.75,-189.46 1610.59,-200 1567.93,-200 1537.77,-189.46 1537.77,-174.54 1567.93,-164 1610.59,-164 1640.75,-174.54"/>
<text text-anchor="middle" x="1589.26" y="-179.8" font-family="Times,serif" font-size="9.00">battery_check</text>
</g>
<!-- battery_check_SIF&#45;&gt;battery_check -->
<g id="edge24" class="edge">
<title>battery_check_SIF&#45;&gt;battery_check</title>
<path fill="none" stroke="black" d="M1833.38,-241.97C1825.36,-239.97 1817.06,-237.91 1809.26,-236 1751.62,-221.85 1685.39,-205.94 1640.79,-195.28"/>
<polygon fill="black" stroke="black" points="1641.59,-191.88 1631.05,-192.96 1639.96,-198.68 1641.59,-191.88"/>
</g>
<!-- battery_low_fs -->
<g id="node26" class="node">
<title>battery_low_fs</title>
<ellipse fill="gray" stroke="black" cx="1480.26" cy="-100" rx="47.84" ry="18"/>
<text text-anchor="middle" x="1480.26" y="-97.8" font-family="Times,serif" font-size="9.00">battery_low_fs</text>
</g>
<!-- battery_check&#45;&gt;battery_low_fs -->
<g id="edge25" class="edge">
<title>battery_check&#45;&gt;battery_low_fs</title>
<path fill="none" stroke="black" d="M1566.67,-164.42C1550.17,-152.31 1527.64,-135.77 1509.72,-122.62"/>
<polygon fill="black" stroke="black" points="1511.47,-119.56 1501.34,-116.47 1507.33,-125.21 1511.47,-119.56"/>
</g>
<!-- surface_task -->
<g id="node27" class="node">
<title>surface_task</title>
<ellipse fill="gray" stroke="black" cx="1589.26" cy="-100" rx="42.95" ry="18"/>
<text text-anchor="middle" x="1589.26" y="-97.8" font-family="Times,serif" font-size="9.00">surface_task</text>
</g>
<!-- battery_check&#45;&gt;surface_task -->
<g id="edge26" class="edge">
<title>battery_check&#45;&gt;surface_task</title>
<path fill="none" stroke="black" d="M1589.26,-163.64C1589.26,-153.3 1589.26,-139.94 1589.26,-128.22"/>
<polygon fill="black" stroke="black" points="1592.76,-128.05 1589.26,-118.05 1585.76,-128.05 1592.76,-128.05"/>
</g>
<!-- sensor_failure_selector -->
<g id="node29" class="node">
<title>sensor_failure_selector</title>
<polygon fill="cyan" stroke="black" points="1920.74,-174.54 1920.74,-189.46 1875.94,-200 1812.58,-200 1767.78,-189.46 1767.78,-174.54 1812.58,-164 1875.94,-164 1920.74,-174.54"/>
<text text-anchor="middle" x="1844.26" y="-179.8" font-family="Times,serif" font-size="9.00">sensor_failure_selector</text>
</g>
<!-- sensor_failure_selector_SIF&#45;&gt;sensor_failure_selector -->
<g id="edge28" class="edge">
<title>sensor_failure_selector_SIF&#45;&gt;sensor_failure_selector</title>
<path fill="none" stroke="black" d="M1995.54,-238.15C1966.11,-227.43 1926.17,-212.86 1894.72,-201.4"/>
<polygon fill="black" stroke="black" points="1895.84,-198.08 1885.25,-197.94 1893.45,-204.66 1895.84,-198.08"/>
</g>
<!-- check_sensor_failure -->
<g id="node30" class="node">
<title>check_sensor_failure</title>
<ellipse fill="gray" stroke="black" cx="1715.26" cy="-100" rx="65.48" ry="18"/>
<text text-anchor="middle" x="1715.26" y="-97.8" font-family="Times,serif" font-size="9.00">check_sensor_failure</text>
</g>
<!-- sensor_failure_selector&#45;&gt;check_sensor_failure -->
<g id="edge29" class="edge">
<title>sensor_failure_selector&#45;&gt;check_sensor_failure</title>
<path fill="none" stroke="black" d="M1816.59,-163.84C1796.89,-151.63 1770.31,-135.14 1749.32,-122.12"/>
<polygon fill="black" stroke="black" points="1751.04,-119.07 1740.7,-116.78 1747.35,-125.02 1751.04,-119.07"/>
</g>
<!-- surface_task1 -->
<g id="node31" class="node">
<title>surface_task1</title>
<ellipse fill="gray" stroke="black" cx="1844.26" cy="-100" rx="46.38" ry="18"/>
<text text-anchor="middle" x="1844.26" y="-97.8" font-family="Times,serif" font-size="9.00">surface_task1</text>
</g>
<!-- sensor_failure_selector&#45;&gt;surface_task1 -->
<g id="edge30" class="edge">
<title>sensor_failure_selector&#45;&gt;surface_task1</title>
<path fill="none" stroke="black" d="M1844.26,-163.64C1844.26,-153.3 1844.26,-139.94 1844.26,-128.22"/>
<polygon fill="black" stroke="black" points="1847.76,-128.05 1844.26,-118.05 1840.76,-128.05 1847.76,-128.05"/>
</g>
<!-- emergency_stop_check -->
<g id="node33" class="node">
<title>emergency_stop_check</title>
<polygon fill="cyan" stroke="black" points="2188.99,-174.54 2188.99,-189.46 2144.04,-200 2080.48,-200 2035.53,-189.46 2035.53,-174.54 2080.48,-164 2144.04,-164 2188.99,-174.54"/>
<text text-anchor="middle" x="2112.26" y="-179.8" font-family="Times,serif" font-size="9.00">emergency_stop_check</text>
</g>
<!-- emergency_stop_check_SIF&#45;&gt;emergency_stop_check -->
<g id="edge32" class="edge">
<title>emergency_stop_check_SIF&#45;&gt;emergency_stop_check</title>
<path fill="none" stroke="black" d="M2194.44,-236.76C2180.41,-227.58 2162.63,-215.95 2147.2,-205.86"/>
<polygon fill="black" stroke="black" points="2148.72,-202.67 2138.43,-200.12 2144.89,-208.53 2148.72,-202.67"/>
</g>
<!-- emergency_stop_fs -->
<g id="node34" class="node">
<title>emergency_stop_fs</title>
<ellipse fill="gray" stroke="black" cx="1968.26" cy="-100" rx="60.09" ry="18"/>
<text text-anchor="middle" x="1968.26" y="-97.8" font-family="Times,serif" font-size="9.00">emergency_stop_fs</text>
</g>
<!-- emergency_stop_check&#45;&gt;emergency_stop_fs -->
<g id="edge33" class="edge">
<title>emergency_stop_check&#45;&gt;emergency_stop_fs</title>
<path fill="none" stroke="black" d="M2081.37,-163.84C2058.9,-151.35 2028.39,-134.41 2004.73,-121.26"/>
<polygon fill="black" stroke="black" points="2006.14,-118.04 1995.7,-116.24 2002.74,-124.16 2006.14,-118.04"/>
</g>
<!-- emergency_stop_tasks -->
<g id="node35" class="node">
<title>emergency_stop_tasks</title>
<polygon fill="orange" stroke="black" points="2177.76,-118 2046.76,-118 2046.76,-82 2177.76,-82 2177.76,-118"/>
<text text-anchor="middle" x="2112.26" y="-97.8" font-family="Times,serif" font-size="9.00">Ⓜ emergency_stop_tasks</text>
</g>
<!-- emergency_stop_check&#45;&gt;emergency_stop_tasks -->
<g id="edge34" class="edge">
<title>emergency_stop_check&#45;&gt;emergency_stop_tasks</title>
<path fill="none" stroke="black" d="M2112.26,-163.64C2112.26,-153.3 2112.26,-139.94 2112.26,-128.22"/>
<polygon fill="black" stroke="black" points="2115.76,-128.05 2112.26,-118.05 2108.76,-128.05 2115.76,-128.05"/>
</g>
<!-- emergency_stop_task -->
<g id="node36" class="node">
<title>emergency_stop_task</title>
<ellipse fill="gray" stroke="black" cx="2046.26" cy="-18" rx="66.29" ry="18"/>
<text text-anchor="middle" x="2046.26" y="-15.8" font-family="Times,serif" font-size="9.00">emergency_stop_task</text>
</g>
<!-- emergency_stop_tasks&#45;&gt;emergency_stop_task -->
<g id="edge35" class="edge">
<title>emergency_stop_tasks&#45;&gt;emergency_stop_task</title>
<path fill="none" stroke="black" d="M2097.94,-81.64C2088.82,-70.59 2076.87,-56.1 2066.75,-43.84"/>
<polygon fill="black" stroke="black" points="2069.16,-41.26 2060.1,-35.78 2063.76,-45.72 2069.16,-41.26"/>
</g>
<!-- surface_task2 -->
<g id="node37" class="node">
<title>surface_task2</title>
<ellipse fill="gray" stroke="black" cx="2177.26" cy="-18" rx="46.38" ry="18"/>
<text text-anchor="middle" x="2177.26" y="-15.8" font-family="Times,serif" font-size="9.00">surface_task2</text>
</g>
<!-- emergency_stop_tasks&#45;&gt;surface_task2 -->
<g id="edge36" class="edge">
<title>emergency_stop_tasks&#45;&gt;surface_task2</title>
<path fill="none" stroke="black" d="M2126.36,-81.64C2135.4,-70.51 2147.28,-55.9 2157.28,-43.59"/>
<polygon fill="black" stroke="black" points="2160.26,-45.47 2163.85,-35.5 2154.83,-41.06 2160.26,-45.47"/>
</g>
<!-- home_reached_selector -->
<g id="node39" class="node">
<title>home_reached_selector</title>
<polygon fill="cyan" stroke="black" points="2433.49,-174.54 2433.49,-189.46 2387.66,-200 2322.86,-200 2277.03,-189.46 2277.03,-174.54 2322.86,-164 2387.66,-164 2433.49,-174.54"/>
<text text-anchor="middle" x="2355.26" y="-179.8" font-family="Times,serif" font-size="9.00">home_reached_selector</text>
</g>
<!-- home_reached_selector_SIF&#45;&gt;home_reached_selector -->
<g id="edge38" class="edge">
<title>home_reached_selector_SIF&#45;&gt;home_reached_selector</title>
<path fill="none" stroke="black" d="M2391.64,-236.05C2386.01,-227.84 2379.12,-217.79 2372.86,-208.66"/>
<polygon fill="black" stroke="black" points="2375.65,-206.54 2367.11,-200.28 2369.87,-210.5 2375.65,-206.54"/>
</g>
<!-- check_surface -->
<g id="node40" class="node">
<title>check_surface</title>
<ellipse fill="gray" stroke="black" cx="2243.26" cy="-100" rx="47.19" ry="18"/>
<text text-anchor="middle" x="2243.26" y="-97.8" font-family="Times,serif" font-size="9.00">check_surface</text>
</g>
<!-- home_reached_selector&#45;&gt;check_surface -->
<g id="edge39" class="edge">
<title>home_reached_selector&#45;&gt;check_surface</title>
<path fill="none" stroke="black" d="M2331.23,-163.84C2314.22,-151.69 2291.29,-135.3 2273.1,-122.31"/>
<polygon fill="black" stroke="black" points="2274.77,-119.21 2264.6,-116.24 2270.7,-124.9 2274.77,-119.21"/>
</g>
<!-- surface_task3 -->
<g id="node41" class="node">
<title>surface_task3</title>
<ellipse fill="gray" stroke="black" cx="2355.26" cy="-100" rx="46.38" ry="18"/>
<text text-anchor="middle" x="2355.26" y="-97.8" font-family="Times,serif" font-size="9.00">surface_task3</text>
</g>
<!-- home_reached_selector&#45;&gt;surface_task3 -->
<g id="edge40" class="edge">
<title>home_reached_selector&#45;&gt;surface_task3</title>
<path fill="none" stroke="black" d="M2355.26,-163.64C2355.26,-153.3 2355.26,-139.94 2355.26,-128.22"/>
<polygon fill="black" stroke="black" points="2358.76,-128.05 2355.26,-118.05 2351.76,-128.05 2358.76,-128.05"/>
</g>
<!-- obstacle_standoff_check -->
<g id="node43" class="node">
<title>obstacle_standoff_check</title>
<polygon fill="cyan" stroke="black" points="2670.24,-174.54 2670.24,-189.46 2623.39,-200 2557.13,-200 2510.28,-189.46 2510.28,-174.54 2557.13,-164 2623.39,-164 2670.24,-174.54"/>
<text text-anchor="middle" x="2590.26" y="-179.8" font-family="Times,serif" font-size="9.00">obstacle_standoff_check</text>
</g>
<!-- obstacle_standoff_check_SIF&#45;&gt;obstacle_standoff_check -->
<g id="edge42" class="edge">
<title>obstacle_standoff_check_SIF&#45;&gt;obstacle_standoff_check</title>
<path fill="none" stroke="black" d="M2590.26,-235.7C2590.26,-227.98 2590.26,-218.71 2590.26,-210.11"/>
<polygon fill="black" stroke="black" points="2593.76,-210.1 2590.26,-200.1 2586.76,-210.1 2593.76,-210.1"/>
</g>
<!-- obstacle_standoff_fs -->
<g id="node44" class="node">
<title>obstacle_standoff_fs</title>
<ellipse fill="gray" stroke="black" cx="2482.26" cy="-100" rx="62.21" ry="18"/>
<text text-anchor="middle" x="2482.26" y="-97.8" font-family="Times,serif" font-size="9.00">obstacle_standoff_fs</text>
</g>
<!-- obstacle_standoff_check&#45;&gt;obstacle_standoff_fs -->
<g id="edge43" class="edge">
<title>obstacle_standoff_check&#45;&gt;obstacle_standoff_fs</title>
<path fill="none" stroke="black" d="M2567.09,-163.84C2551.01,-151.92 2529.43,-135.94 2512.06,-123.08"/>
<polygon fill="black" stroke="black" points="2514.04,-120.18 2503.92,-117.04 2509.87,-125.81 2514.04,-120.18"/>
</g>
<!-- surface_task4 -->
<g id="node45" class="node">
<title>surface_task4</title>
<ellipse fill="gray" stroke="black" cx="2609.26" cy="-100" rx="46.38" ry="18"/>
<text text-anchor="middle" x="2609.26" y="-97.8" font-family="Times,serif" font-size="9.00">surface_task4</text>
</g>
<!-- obstacle_standoff_check&#45;&gt;surface_task4 -->
<g id="edge44" class="edge">
<title>obstacle_standoff_check&#45;&gt;surface_task4</title>
<path fill="none" stroke="black" d="M2594.38,-163.64C2596.86,-153.19 2600.08,-139.67 2602.88,-127.86"/>
<polygon fill="black" stroke="black" points="2606.3,-128.59 2605.21,-118.05 2599.49,-126.97 2606.3,-128.59"/>
</g>
<!-- rth_selector -->
<g id="node47" class="node">
<title>rth_selector</title>
<polygon fill="cyan" stroke="black" points="2792.25,-174.54 2792.25,-189.46 2765.89,-200 2728.63,-200 2702.27,-189.46 2702.27,-174.54 2728.63,-164 2765.89,-164 2792.25,-174.54"/>
<text text-anchor="middle" x="2747.26" y="-179.8" font-family="Times,serif" font-size="9.00">rth_selector</text>
</g>
<!-- rth_selector_SIF&#45;&gt;rth_selector -->
<g id="edge46" class="edge">
<title>rth_selector_SIF&#45;&gt;rth_selector</title>
<path fill="none" stroke="black" d="M2747.26,-235.7C2747.26,-227.98 2747.26,-218.71 2747.26,-210.11"/>
<polygon fill="black" stroke="black" points="2750.76,-210.1 2747.26,-200.1 2743.76,-210.1 2750.76,-210.1"/>
</g>
<!-- check_rth -->
<g id="node48" class="node">
<title>check_rth</title>
<ellipse fill="gray" stroke="black" cx="2709.26" cy="-100" rx="35.59" ry="18"/>
<text text-anchor="middle" x="2709.26" y="-97.8" font-family="Times,serif" font-size="9.00">check_rth</text>
</g>
<!-- rth_selector&#45;&gt;check_rth -->
<g id="edge47" class="edge">
<title>rth_selector&#45;&gt;check_rth</title>
<path fill="none" stroke="black" d="M2739.01,-163.64C2733.92,-152.91 2727.28,-138.93 2721.56,-126.9"/>
<polygon fill="black" stroke="black" points="2724.68,-125.31 2717.23,-117.78 2718.36,-128.31 2724.68,-125.31"/>
</g>
<!-- rth_par -->
<g id="node49" class="node">
<title>rth_par</title>
<polygon fill="gold" stroke="black" points="2929.14,-128 2797.3,-128 2763.38,-72 2895.22,-72 2929.14,-128"/>
<text text-anchor="middle" x="2846.26" y="-102.8" font-family="Times,serif" font-size="9.00">⚡ rth_par</text>
<text text-anchor="middle" x="2846.26" y="-92.8" font-family="Times,serif" font-size="9.00">SuccessOnAll</text>
</g>
<!-- rth_selector&#45;&gt;rth_par -->
<g id="edge48" class="edge">
<title>rth_selector&#45;&gt;rth_par</title>
<path fill="none" stroke="black" d="M2767.77,-164.42C2778.47,-155.78 2791.95,-144.89 2804.7,-134.58"/>
<polygon fill="black" stroke="black" points="2806.94,-137.27 2812.52,-128.26 2802.54,-131.83 2806.94,-137.27"/>
</g>
<!-- rth_task -->
<g id="node50" class="node">
<title>rth_task</title>
<ellipse fill="gray" stroke="black" cx="2804.26" cy="-18" rx="31.35" ry="18"/>
<text text-anchor="middle" x="2804.26" y="-15.8" font-family="Times,serif" font-size="9.00">rth_task</text>
</g>
<!-- rth_par&#45;&gt;rth_task -->
<g id="edge49" class="edge">
<title>rth_par&#45;&gt;rth_task</title>
<path fill="none" stroke="black" d="M2832.04,-71.92C2827.36,-62.99 2822.17,-53.11 2817.56,-44.33"/>
<polygon fill="black" stroke="black" points="2820.58,-42.55 2812.83,-35.32 2814.38,-45.8 2820.58,-42.55"/>
</g>
<!-- home2bb -->
<g id="node51" class="node">
<title>home2bb</title>
<ellipse fill="gray" stroke="black" cx="2887.26" cy="-18" rx="34.13" ry="18"/>
<text text-anchor="middle" x="2887.26" y="-15.8" font-family="Times,serif" font-size="9.00">home2bb</text>
</g>
<!-- rth_par&#45;&gt;home2bb -->
<g id="edge50" class="edge">
<title>rth_par&#45;&gt;home2bb</title>
<path fill="none" stroke="black" d="M2860.14,-71.92C2864.64,-63.13 2869.63,-53.41 2874.08,-44.72"/>
<polygon fill="black" stroke="black" points="2877.21,-46.29 2878.65,-35.79 2870.98,-43.1 2877.21,-46.29"/>
</g>
<!-- geofence_selector -->
<g id="node53" class="node">
<title>geofence_selector</title>
<polygon fill="cyan" stroke="black" points="2961.99,-174.54 2961.99,-189.46 2925.83,-200 2874.69,-200 2838.53,-189.46 2838.53,-174.54 2874.69,-164 2925.83,-164 2961.99,-174.54"/>
<text text-anchor="middle" x="2900.26" y="-179.8" font-family="Times,serif" font-size="9.00">geofence_selector</text>
</g>
<!-- geofence_selector_SIF&#45;&gt;geofence_selector -->
<g id="edge52" class="edge">
<title>geofence_selector_SIF&#45;&gt;geofence_selector</title>
<path fill="none" stroke="black" d="M2890.47,-235.7C2891.91,-227.98 2893.63,-218.71 2895.22,-210.11"/>
<polygon fill="black" stroke="black" points="2898.7,-210.58 2897.08,-200.1 2891.82,-209.3 2898.7,-210.58"/>
</g>
<!-- check_geofence -->
<g id="node54" class="node">
<title>check_geofence</title>
<ellipse fill="gray" stroke="black" cx="2998.26" cy="-100" rx="51.27" ry="18"/>
<text text-anchor="middle" x="2998.26" y="-97.8" font-family="Times,serif" font-size="9.00">check_geofence</text>
</g>
<!-- geofence_selector&#45;&gt;check_geofence -->
<g id="edge53" class="edge">
<title>geofence_selector&#45;&gt;check_geofence</title>
<path fill="none" stroke="black" d="M2921.52,-163.64C2936.1,-151.74 2955.55,-135.86 2971.22,-123.07"/>
<polygon fill="black" stroke="black" points="2973.5,-125.73 2979.03,-116.7 2969.07,-120.31 2973.5,-125.73"/>
</g>
<!-- rth_par1 -->
<g id="node55" class="node">
<title>rth_par1</title>
<polygon fill="gold" stroke="black" points="3233.14,-128 3101.3,-128 3067.38,-72 3199.22,-72 3233.14,-128"/>
<text text-anchor="middle" x="3150.26" y="-102.8" font-family="Times,serif" font-size="9.00">⚡ rth_par1</text>
<text text-anchor="middle" x="3150.26" y="-92.8" font-family="Times,serif" font-size="9.00">SuccessOnAll</text>
</g>
<!-- geofence_selector&#45;&gt;rth_par1 -->
<g id="edge54" class="edge">
<title>geofence_selector&#45;&gt;rth_par1</title>
<path fill="none" stroke="black" d="M2940.43,-168.15C2979.6,-155.61 3039.82,-136.34 3085.72,-121.65"/>
<polygon fill="black" stroke="black" points="3086.82,-124.97 3095.28,-118.59 3084.69,-118.31 3086.82,-124.97"/>
</g>
<!-- rth_task1 -->
<g id="node56" class="node">
<title>rth_task1</title>
<ellipse fill="gray" stroke="black" cx="3105.26" cy="-18" rx="34.78" ry="18"/>
<text text-anchor="middle" x="3105.26" y="-15.8" font-family="Times,serif" font-size="9.00">rth_task1</text>
</g>
<!-- rth_par1&#45;&gt;rth_task1 -->
<g id="edge55" class="edge">
<title>rth_par1&#45;&gt;rth_task1</title>
<path fill="none" stroke="black" d="M3135.02,-71.92C3130.08,-63.13 3124.61,-53.41 3119.73,-44.72"/>
<polygon fill="black" stroke="black" points="3122.66,-42.79 3114.71,-35.79 3116.56,-46.23 3122.66,-42.79"/>
</g>
<!-- home2bb1 -->
<g id="node57" class="node">
<title>home2bb1</title>
<ellipse fill="gray" stroke="black" cx="3195.26" cy="-18" rx="37.56" ry="18"/>
<text text-anchor="middle" x="3195.26" y="-15.8" font-family="Times,serif" font-size="9.00">home2bb1</text>
</g>
<!-- rth_par1&#45;&gt;home2bb1 -->
<g id="edge56" class="edge">
<title>rth_par1&#45;&gt;home2bb1</title>
<path fill="none" stroke="black" d="M3165.49,-71.92C3170.44,-63.13 3175.91,-53.41 3180.79,-44.72"/>
<polygon fill="black" stroke="black" points="3183.96,-46.23 3185.81,-35.79 3177.86,-42.79 3183.96,-46.23"/>
</g>
<!-- pipe_lost_selector -->
<g id="node59" class="node">
<title>pipe_lost_selector</title>
<polygon fill="cyan" stroke="black" points="3103.99,-174.54 3103.99,-189.46 3067.83,-200 3016.69,-200 2980.53,-189.46 2980.53,-174.54 3016.69,-164 3067.83,-164 3103.99,-174.54"/>
<text text-anchor="middle" x="3042.26" y="-179.8" font-family="Times,serif" font-size="9.00">pipe_lost_selector</text>
</g>
<!-- pipe_lost_selector_SIF&#45;&gt;pipe_lost_selector -->
<g id="edge58" class="edge">
<title>pipe_lost_selector_SIF&#45;&gt;pipe_lost_selector</title>
<path fill="none" stroke="black" d="M3042.26,-235.7C3042.26,-227.98 3042.26,-218.71 3042.26,-210.11"/>
<polygon fill="black" stroke="black" points="3045.76,-210.1 3042.26,-200.1 3038.76,-210.1 3045.76,-210.1"/>
</g>
<!-- check_pipe_post -->
<g id="node60" class="node">
<title>check_pipe_post</title>
<ellipse fill="gray" stroke="black" cx="3304.26" cy="-100" rx="53.23" ry="18"/>
<text text-anchor="middle" x="3304.26" y="-97.8" font-family="Times,serif" font-size="9.00">check_pipe_post</text>
</g>
<!-- pipe_lost_selector&#45;&gt;check_pipe_post -->
<g id="edge59" class="edge">
<title>pipe_lost_selector&#45;&gt;check_pipe_post</title>
<path fill="none" stroke="black" d="M3088.15,-169.7C3137.91,-157.29 3214.02,-137.83 3242.26,-128 3249.82,-125.37 3257.76,-122.22 3265.33,-119.02"/>
<polygon fill="black" stroke="black" points="3266.88,-122.16 3274.67,-114.98 3264.1,-115.74 3266.88,-122.16"/>
</g>
<!-- loiter_task1 -->
<g id="node61" class="node">
<title>loiter_task1</title>
<ellipse fill="gray" stroke="black" cx="3416.26" cy="-100" rx="40.98" ry="18"/>
<text text-anchor="middle" x="3416.26" y="-97.8" font-family="Times,serif" font-size="9.00">loiter_task1</text>
</g>
<!-- pipe_lost_selector&#45;&gt;loiter_task1 -->
<g id="edge60" class="edge">
<title>pipe_lost_selector&#45;&gt;loiter_task1</title>
<path fill="none" stroke="black" d="M3087.19,-169.57C3095.81,-167.57 3104.79,-165.61 3113.26,-164 3224.83,-142.75 3258.39,-163.54 3366.26,-128 3372.41,-125.97 3378.69,-123.21 3384.63,-120.23"/>
<polygon fill="black" stroke="black" points="3386.46,-123.22 3393.63,-115.42 3383.16,-117.05 3386.46,-123.22"/>
</g>
<!-- is_track_pipe_mission_requested -->
<g id="node63" class="node">
<title>is_track_pipe_mission_requested</title>
<ellipse fill="gray" stroke="black" cx="3218.26" cy="-182" rx="96.34" ry="18"/>
<text text-anchor="middle" x="3218.26" y="-179.8" font-family="Times,serif" font-size="9.00">is_track_pipe_mission_requested</text>
</g>
<!-- track_pipe_mission&#45;&gt;is_track_pipe_mission_requested -->
<g id="edge62" class="edge">
<title>track_pipe_mission&#45;&gt;is_track_pipe_mission_requested</title>
<path fill="none" stroke="black" d="M3281.5,-235.7C3270.76,-226.75 3257.51,-215.71 3245.92,-206.05"/>
<polygon fill="black" stroke="black" points="3248.13,-203.34 3238.21,-199.62 3243.65,-208.71 3248.13,-203.34"/>
</g>
<!-- tracking_serene -->
<g id="node64" class="node">
<title>tracking_serene</title>
<ellipse fill="gray" stroke="black" cx="3385.26" cy="-182" rx="52.58" ry="18"/>
<text text-anchor="middle" x="3385.26" y="-179.8" font-family="Times,serif" font-size="9.00">tracking_serene</text>
</g>
<!-- track_pipe_mission&#45;&gt;tracking_serene -->
<g id="edge63" class="edge">
<title>track_pipe_mission&#45;&gt;tracking_serene</title>
<path fill="none" stroke="black" d="M3322.78,-235.7C3333.62,-226.55 3347.06,-215.22 3358.69,-205.41"/>
<polygon fill="black" stroke="black" points="3361.01,-208.03 3366.4,-198.91 3356.5,-202.68 3361.01,-208.03"/>
</g>
<!-- track_pipe_mission_end -->
<g id="node65" class="node">
<title>track_pipe_mission_end</title>
<polygon fill="orange" stroke="black" points="3594.26,-200 3456.26,-200 3456.26,-164 3594.26,-164 3594.26,-200"/>
<text text-anchor="middle" x="3525.26" y="-179.8" font-family="Times,serif" font-size="9.00">Ⓜ track_pipe_mission_end</text>
</g>
<!-- track_pipe_mission&#45;&gt;track_pipe_mission_end -->
<g id="edge64" class="edge">
<title>track_pipe_mission&#45;&gt;track_pipe_mission_end</title>
<path fill="none" stroke="black" d="M3356.53,-235.97C3388.09,-226.06 3428.05,-213.51 3461.16,-203.12"/>
<polygon fill="black" stroke="black" points="3462.26,-206.45 3470.75,-200.11 3460.16,-199.77 3462.26,-206.45"/>
</g>
<!-- evaluate -->
<g id="node66" class="node">
<title>evaluate</title>
<ellipse fill="gray" stroke="black" cx="3525.26" cy="-100" rx="32.16" ry="18"/>
<text text-anchor="middle" x="3525.26" y="-97.8" font-family="Times,serif" font-size="9.00">evaluate</text>
</g>
<!-- track_pipe_mission_end&#45;&gt;evaluate -->
<g id="edge65" class="edge">
<title>track_pipe_mission_end&#45;&gt;evaluate</title>
<path fill="none" stroke="black" d="M3525.26,-163.64C3525.26,-153.3 3525.26,-139.94 3525.26,-128.22"/>
<polygon fill="black" stroke="black" points="3528.76,-128.05 3525.26,-118.05 3521.76,-128.05 3528.76,-128.05"/>
</g>
<!-- is_waypoint_requested -->
<g id="node68" class="node">
<title>is_waypoint_requested</title>
<ellipse fill="gray" stroke="black" cx="3682.26" cy="-182" rx="70.37" ry="18"/>
<text text-anchor="middle" x="3682.26" y="-179.8" font-family="Times,serif" font-size="9.00">is_waypoint_requested</text>
</g>
<!-- waypoint_mission&#45;&gt;is_waypoint_requested -->
<g id="edge67" class="edge">
<title>waypoint_mission&#45;&gt;is_waypoint_requested</title>
<path fill="none" stroke="black" d="M3588.59,-235.88C3605.69,-226.23 3627.18,-214.1 3645.26,-203.89"/>
<polygon fill="black" stroke="black" points="3647.37,-206.71 3654.36,-198.75 3643.93,-200.62 3647.37,-206.71"/>
</g>
<!-- waypoint_selector_serene -->
<g id="node69" class="node">
<title>waypoint_selector_serene</title>
<ellipse fill="gray" stroke="black" cx="3848.26" cy="-182" rx="77.88" ry="18"/>
<text text-anchor="middle" x="3848.26" y="-179.8" font-family="Times,serif" font-size="9.00">waypoint_selector_serene</text>
</g>
<!-- waypoint_mission&#45;&gt;waypoint_selector_serene -->
<g id="edge68" class="edge">
<title>waypoint_mission&#45;&gt;waypoint_selector_serene</title>
<path fill="none" stroke="black" d="M3613.39,-238.25C3616.39,-237.48 3619.36,-236.72 3622.26,-236 3676.96,-222.32 3739.38,-207.76 3784.74,-197.37"/>
<polygon fill="black" stroke="black" points="3785.76,-200.73 3794.73,-195.09 3784.2,-193.91 3785.76,-200.73"/>
</g>
</g>
</svg>
