<?xml version="1.0" encoding="UTF-8" standalone="no"?>
<!DOCTYPE svg PUBLIC "-//W3C//DTD SVG 1.1//EN"
 "http://www.w3.org/Graphics/SVG/1.1/DTD/svg11.dtd">
<!-- Generated by graphviz version 2.43.0 (0)
 -->
<!-- Title: pastafarianism Pages: 1 -->
<svg width="821pt" height="320pt"
 viewBox="0.00 0.00 820.94 320.00" xmlns="http://www.w3.org/2000/svg" xmlns:xlink="http://www.w3.org/1999/xlink">
<g id="graph0" class="graph" transform="scale(1 1) rotate(0) translate(4 316)">
<title>pastafarianism</title>
<polygon fill="white" stroke="transparent" points="-4,4 -4,-316 816.94,-316 816.94,4 -4,4"/>
<!-- node1 -->
<g id="node1" class="node">
<title>node1</title>
<polygon fill="gold" stroke="black" points="463.9,-312 332.06,-312 298.14,-256 429.99,-256 463.9,-312"/>
<text text-anchor="middle" x="381.02" y="-286.8" font-family="Times,serif" font-size="9.00">node1</text>
<text text-anchor="middle" x="381.02" y="-276.8" font-family="Times,serif" font-size="9.00">SuccessOnAll</text>
</g>
<!-- node2 -->
<g id="node2" class="node">
<title>node2</title>
<polygon fill="gold" stroke="black" points="371.9,-220 240.06,-220 206.14,-164 337.99,-164 371.9,-220"/>
<text text-anchor="middle" x="289.02" y="-194.8" font-family="Times,serif" font-size="9.00">node2</text>
<text text-anchor="middle" x="289.02" y="-184.8" font-family="Times,serif" font-size="9.00">SuccessOnAll</text>
</g>
<!-- node1&#45;&gt;node2 -->
<g id="edge1" class="edge">
<title>node1&#45;&gt;node2</title>
<path fill="none" stroke="black" d="M353.42,-256C344.22,-247 333.86,-236.86 324.17,-227.38"/>
<polygon fill="black" stroke="black" points="326.52,-224.79 316.92,-220.29 321.62,-229.79 326.52,-224.79"/>
</g>
<!-- node9 -->
<g id="node9" class="node">
<title>node9</title>
<polygon fill="gold" stroke="black" points="555.9,-220 424.06,-220 390.14,-164 521.99,-164 555.9,-220"/>
<text text-anchor="middle" x="473.02" y="-194.8" font-family="Times,serif" font-size="9.00">node9</text>
<text text-anchor="middle" x="473.02" y="-184.8" font-family="Times,serif" font-size="9.00">SuccessOnAll</text>
</g>
<!-- node1&#45;&gt;node9 -->
<g id="edge8" class="edge">
<title>node1&#45;&gt;node9</title>
<path fill="none" stroke="black" d="M408.63,-256C417.82,-247 428.19,-236.86 437.88,-227.38"/>
<polygon fill="black" stroke="black" points="440.42,-229.79 445.12,-220.29 435.52,-224.79 440.42,-229.79"/>
</g>
<!-- node3 -->
<g id="node3" class="node">
<title>node3</title>
<polygon fill="gold" stroke="black" points="187.9,-128 56.06,-128 22.14,-72 153.99,-72 187.9,-128"/>
<text text-anchor="middle" x="105.02" y="-102.8" font-family="Times,serif" font-size="9.00">node3</text>
<text text-anchor="middle" x="105.02" y="-92.8" font-family="Times,serif" font-size="9.00">SuccessOnAll</text>
</g>
<!-- node2&#45;&gt;node3 -->
<g id="edge2" class="edge">
<title>node2&#45;&gt;node3</title>
<path fill="none" stroke="black" d="M233.82,-164C213.62,-154.12 190.6,-142.86 169.65,-132.61"/>
<polygon fill="black" stroke="black" points="171.03,-129.39 160.51,-128.14 167.95,-135.68 171.03,-129.39"/>
</g>
<!-- node6 -->
<g id="node6" class="node">
<title>node6</title>
<polygon fill="gold" stroke="black" points="371.9,-128 240.06,-128 206.14,-72 337.99,-72 371.9,-128"/>
<text text-anchor="middle" x="289.02" y="-102.8" font-family="Times,serif" font-size="9.00">node6</text>
<text text-anchor="middle" x="289.02" y="-92.8" font-family="Times,serif" font-size="9.00">SuccessOnAll</text>
</g>
<!-- node2&#45;&gt;node6 -->
<g id="edge5" class="edge">
<title>node2&#45;&gt;node6</title>
<path fill="none" stroke="black" d="M289.02,-164C289.02,-155.97 289.02,-147.03 289.02,-138.47"/>
<polygon fill="black" stroke="black" points="292.52,-138.29 289.02,-128.29 285.52,-138.3 292.52,-138.29"/>
</g>
<!-- Dummy -->
<g id="node4" class="node">
<title>Dummy</title>
<ellipse fill="gray" stroke="black" cx="30.02" cy="-18" rx="30.04" ry="18"/>
<text text-anchor="middle" x="30.02" y="-15.8" font-family="Times,serif" font-size="9.00">Dummy</text>
</g>
<!-- node3&#45;&gt;Dummy -->
<g id="edge3" class="edge">
<title>node3&#45;&gt;Dummy</title>
<path fill="none" stroke="black" d="M79.63,-71.92C70.33,-62 59.93,-50.9 51.05,-41.43"/>
<polygon fill="black" stroke="black" points="53.41,-38.83 44.02,-33.93 48.31,-43.62 53.41,-38.83"/>
</g>
<!-- Dummy* -->
<g id="node5" class="node">
<title>Dummy*</title>
<ellipse fill="gray" stroke="black" cx="110.02" cy="-18" rx="32.16" ry="18"/>
<text text-anchor="middle" x="110.02" y="-15.8" font-family="Times,serif" font-size="9.00">Dummy*</text>
</g>
<!-- node3&#45;&gt;Dummy* -->
<g id="edge4" class="edge">
<title>node3&#45;&gt;Dummy*</title>
<path fill="none" stroke="black" d="M106.71,-71.92C107.23,-63.72 107.79,-54.72 108.3,-46.49"/>
<polygon fill="black" stroke="black" points="111.81,-46.47 108.94,-36.27 104.83,-46.03 111.81,-46.47"/>
</g>
<!-- Dummy** -->
<g id="node7" class="node">
<title>Dummy**</title>
<ellipse fill="gray" stroke="black" cx="232.02" cy="-18" rx="35.44" ry="18"/>
<text text-anchor="middle" x="232.02" y="-15.8" font-family="Times,serif" font-size="9.00">Dummy**</text>
</g>
<!-- node6&#45;&gt;Dummy** -->
<g id="edge6" class="edge">
<title>node6&#45;&gt;Dummy**</title>
<path fill="none" stroke="black" d="M269.72,-71.92C263.17,-62.71 255.88,-52.48 249.47,-43.49"/>
<polygon fill="black" stroke="black" points="252.3,-41.44 243.65,-35.32 246.6,-45.5 252.3,-41.44"/>
</g>
<!-- Dummy*** -->
<g id="node8" class="node">
<title>Dummy***</title>
<ellipse fill="gray" stroke="black" cx="323.02" cy="-18" rx="37.56" ry="18"/>
<text text-anchor="middle" x="323.02" y="-15.8" font-family="Times,serif" font-size="9.00">Dummy***</text>
</g>
<!-- node6&#45;&gt;Dummy*** -->
<g id="edge7" class="edge">
<title>node6&#45;&gt;Dummy***</title>
<path fill="none" stroke="black" d="M300.53,-71.92C304.23,-63.22 308.31,-53.61 311.97,-45"/>
<polygon fill="black" stroke="black" points="315.19,-46.37 315.88,-35.79 308.75,-43.63 315.19,-46.37"/>
</g>
<!-- node10 -->
<g id="node10" class="node">
<title>node10</title>
<polygon fill="gold" stroke="black" points="555.9,-128 424.06,-128 390.14,-72 521.99,-72 555.9,-128"/>
<text text-anchor="middle" x="473.02" y="-102.8" font-family="Times,serif" font-size="9.00">node10</text>
<text text-anchor="middle" x="473.02" y="-92.8" font-family="Times,serif" font-size="9.00">SuccessOnAll</text>
</g>
<!-- node9&#45;&gt;node10 -->
<g id="edge9" class="edge">
<title>node9&#45;&gt;node10</title>
<path fill="none" stroke="black" d="M473.02,-164C473.02,-155.97 473.02,-147.03 473.02,-138.47"/>
<polygon fill="black" stroke="black" points="476.52,-138.29 473.02,-128.29 469.52,-138.3 476.52,-138.29"/>
</g>
<!-- node13 -->
<g id="node13" class="node">
<title>node13</title>
<polygon fill="gold" stroke="black" points="739.9,-128 608.06,-128 574.14,-72 705.99,-72 739.9,-128"/>
<text text-anchor="middle" x="657.02" y="-102.8" font-family="Times,serif" font-size="9.00">node13</text>
<text text-anchor="middle" x="657.02" y="-92.8" font-family="Times,serif" font-size="9.00">SuccessOnAll</text>
</g>
<!-- node9&#45;&gt;node13 -->
<g id="edge12" class="edge">
<title>node9&#45;&gt;node13</title>
<path fill="none" stroke="black" d="M523.79,-166.17C546.51,-155.05 573.47,-141.87 597.17,-130.27"/>
<polygon fill="black" stroke="black" points="598.98,-133.29 606.42,-125.75 595.9,-127 598.98,-133.29"/>
</g>
<!-- Dummy**** -->
<g id="node11" class="node">
<title>Dummy****</title>
<ellipse fill="gray" stroke="black" cx="437.02" cy="-18" rx="40.33" ry="18"/>
<text text-anchor="middle" x="437.02" y="-15.8" font-family="Times,serif" font-size="9.00">Dummy****</text>
</g>
<!-- node10&#45;&gt;Dummy**** -->
<g id="edge10" class="edge">
<title>node10&#45;&gt;Dummy****</title>
<path fill="none" stroke="black" d="M460.83,-71.92C456.92,-63.22 452.6,-53.61 448.72,-45"/>
<polygon fill="black" stroke="black" points="451.88,-43.48 444.58,-35.79 445.49,-46.35 451.88,-43.48"/>
</g>
<!-- Dummy***** -->
<g id="node12" class="node">
<title>Dummy*****</title>
<ellipse fill="gray" stroke="black" cx="538.02" cy="-18" rx="42.95" ry="18"/>
<text text-anchor="middle" x="538.02" y="-15.8" font-family="Times,serif" font-size="9.00">Dummy*****</text>
</g>
<!-- node10&#45;&gt;Dummy***** -->
<g id="edge11" class="edge">
<title>node10&#45;&gt;Dummy*****</title>
<path fill="none" stroke="black" d="M495.03,-71.92C502.59,-62.61 510.99,-52.27 518.35,-43.21"/>
<polygon fill="black" stroke="black" points="521.17,-45.29 524.76,-35.32 515.74,-40.88 521.17,-45.29"/>
</g>
<!-- Dummy****** -->
<g id="node14" class="node">
<title>Dummy******</title>
<ellipse fill="gray" stroke="black" cx="653.02" cy="-18" rx="45.72" ry="18"/>
<text text-anchor="middle" x="653.02" y="-15.8" font-family="Times,serif" font-size="9.00">Dummy******</text>
</g>
<!-- node13&#45;&gt;Dummy****** -->
<g id="edge13" class="edge">
<title>node13&#45;&gt;Dummy******</title>
<path fill="none" stroke="black" d="M655.67,-71.92C655.26,-63.72 654.81,-54.72 654.4,-46.49"/>
<polygon fill="black" stroke="black" points="657.88,-46.09 653.89,-36.27 650.89,-46.43 657.88,-46.09"/>
</g>
<!-- Dummy******* -->
<g id="node15" class="node">
<title>Dummy*******</title>
<ellipse fill="gray" stroke="black" cx="765.02" cy="-18" rx="47.84" ry="18"/>
<text text-anchor="middle" x="765.02" y="-15.8" font-family="Times,serif" font-size="9.00">Dummy*******</text>
</g>
<!-- node13&#45;&gt;Dummy******* -->
<g id="edge14" class="edge">
<title>node13&#45;&gt;Dummy*******</title>
<path fill="none" stroke="black" d="M693.59,-71.92C707.44,-61.65 723.01,-50.12 736.07,-40.45"/>
<polygon fill="black" stroke="black" points="738.29,-43.15 744.25,-34.39 734.13,-37.53 738.29,-43.15"/>
</g>
</g>
</svg>
