<?xml version="1.0" encoding="UTF-8" standalone="no"?>
<!DOCTYPE svg PUBLIC "-//W3C//DTD SVG 1.1//EN"
 "http://www.w3.org/Graphics/SVG/1.1/DTD/svg11.dtd">
<!-- Generated by graphviz version 2.43.0 (0)
 -->
<!-- Title: pastafarianism Pages: 1 -->
<svg width="1862pt" height="412pt"
 viewBox="0.00 0.00 1861.73 412.00" xmlns="http://www.w3.org/2000/svg" xmlns:xlink="http://www.w3.org/1999/xlink">
<g id="graph0" class="graph" transform="scale(1 1) rotate(0) translate(4 408)">
<title>pastafarianism</title>
<polygon fill="white" stroke="transparent" points="-4,4 -4,-408 1857.73,-408 1857.73,4 -4,4"/>
<!-- node1 -->
<g id="node1" class="node">
<title>node1</title>
<polygon fill="gold" stroke="black" points="889.9,-404 758.06,-404 724.14,-348 855.99,-348 889.9,-404"/>
<text text-anchor="middle" x="807.02" y="-378.8" font-family="Times,serif" font-size="9.00">node1</text>
<text text-anchor="middle" x="807.02" y="-368.8" font-family="Times,serif" font-size="9.00">SuccessOnAll</text>
</g>
<!-- node2 -->
<g id="node2" class="node">
<title>node2</title>
<polygon fill="gold" stroke="black" points="654.9,-312 523.06,-312 489.14,-256 620.99,-256 654.9,-312"/>
<text text-anchor="middle" x="572.02" y="-286.8" font-family="Times,serif" font-size="9.00">node2</text>
<text text-anchor="middle" x="572.02" y="-276.8" font-family="Times,serif" font-size="9.00">SuccessOnAll</text>
</g>
<!-- node1&#45;&gt;node2 -->
<g id="edge1" class="edge">
<title>node1&#45;&gt;node2</title>
<path fill="none" stroke="black" d="M736.51,-348C710.03,-337.85 679.73,-326.25 652.41,-315.79"/>
<polygon fill="black" stroke="black" points="653.48,-312.45 642.89,-312.14 650.97,-318.98 653.48,-312.45"/>
</g>
<!-- node17 -->
<g id="node17" class="node">
<title>node17</title>
<polygon fill="gold" stroke="black" points="1090.9,-312 959.06,-312 925.14,-256 1056.99,-256 1090.9,-312"/>
<text text-anchor="middle" x="1008.02" y="-286.8" font-family="Times,serif" font-size="9.00">node17</text>
<text text-anchor="middle" x="1008.02" y="-276.8" font-family="Times,serif" font-size="9.00">SuccessOnAll</text>
</g>
<!-- node1&#45;&gt;node17 -->
<g id="edge16" class="edge">
<title>node1&#45;&gt;node17</title>
<path fill="none" stroke="black" d="M858.52,-351.94C885.49,-339.87 918.68,-325.01 946.93,-312.35"/>
<polygon fill="black" stroke="black" points="948.61,-315.44 956.31,-308.16 945.75,-309.05 948.61,-315.44"/>
</g>
<!-- node3 -->
<g id="node3" class="node">
<title>node3</title>
<polygon fill="gold" stroke="black" points="372.9,-220 241.06,-220 207.14,-164 338.99,-164 372.9,-220"/>
<text text-anchor="middle" x="290.02" y="-194.8" font-family="Times,serif" font-size="9.00">node3</text>
<text text-anchor="middle" x="290.02" y="-184.8" font-family="Times,serif" font-size="9.00">SuccessOnAll</text>
</g>
<!-- node2&#45;&gt;node3 -->
<g id="edge2" class="edge">
<title>node2&#45;&gt;node3</title>
<path fill="none" stroke="black" d="M489.32,-256.61C455.75,-245.89 416.82,-233.47 382.33,-222.46"/>
<polygon fill="black" stroke="black" points="383.32,-219.1 372.72,-219.39 381.19,-225.77 383.32,-219.1"/>
</g>
<!-- node10 -->
<g id="node10" class="node">
<title>node10</title>
<polygon fill="gold" stroke="black" points="654.9,-220 523.06,-220 489.14,-164 620.99,-164 654.9,-220"/>
<text text-anchor="middle" x="572.02" y="-194.8" font-family="Times,serif" font-size="9.00">node10</text>
<text text-anchor="middle" x="572.02" y="-184.8" font-family="Times,serif" font-size="9.00">SuccessOnAll</text>
</g>
<!-- node2&#45;&gt;node10 -->
<g id="edge9" class="edge">
<title>node2&#45;&gt;node10</title>
<path fill="none" stroke="black" d="M572.02,-256C572.02,-247.97 572.02,-239.03 572.02,-230.47"/>
<polygon fill="black" stroke="black" points="575.52,-230.29 572.02,-220.29 568.52,-230.3 575.52,-230.29"/>
</g>
<!-- node4 -->
<g id="node4" class="node">
<title>node4</title>
<polygon fill="gold" stroke="black" points="188.9,-128 57.06,-128 23.14,-72 154.99,-72 188.9,-128"/>
<text text-anchor="middle" x="106.02" y="-102.8" font-family="Times,serif" font-size="9.00">node4</text>
<text text-anchor="middle" x="106.02" y="-92.8" font-family="Times,serif" font-size="9.00">SuccessOnAll</text>
</g>
<!-- node3&#45;&gt;node4 -->
<g id="edge3" class="edge">
<title>node3&#45;&gt;node4</title>
<path fill="none" stroke="black" d="M234.82,-164C214.62,-154.12 191.6,-142.86 170.65,-132.61"/>
<polygon fill="black" stroke="black" points="172.03,-129.39 161.51,-128.14 168.95,-135.68 172.03,-129.39"/>
</g>
<!-- node7 -->
<g id="node7" class="node">
<title>node7</title>
<polygon fill="gold" stroke="black" points="372.9,-128 241.06,-128 207.14,-72 338.99,-72 372.9,-128"/>
<text text-anchor="middle" x="290.02" y="-102.8" font-family="Times,serif" font-size="9.00">node7</text>
<text text-anchor="middle" x="290.02" y="-92.8" font-family="Times,serif" font-size="9.00">SuccessOnAll</text>
</g>
<!-- node3&#45;&gt;node7 -->
<g id="edge6" class="edge">
<title>node3&#45;&gt;node7</title>
<path fill="none" stroke="black" d="M290.02,-164C290.02,-155.97 290.02,-147.03 290.02,-138.47"/>
<polygon fill="black" stroke="black" points="293.52,-138.29 290.02,-128.29 286.52,-138.3 293.52,-138.29"/>
</g>
<!-- Dummy -->
<g id="node5" class="node">
<title>Dummy</title>
<ellipse fill="gray" stroke="black" cx="30.02" cy="-18" rx="30.04" ry="18"/>
<text text-anchor="middle" x="30.02" y="-15.8" font-family="Times,serif" font-size="9.00">Dummy</text>
</g>
<!-- node4&#45;&gt;Dummy -->
<g id="edge4" class="edge">
<title>node4&#45;&gt;Dummy</title>
<path fill="none" stroke="black" d="M80.29,-71.92C70.87,-62 60.33,-50.9 51.33,-41.43"/>
<polygon fill="black" stroke="black" points="53.63,-38.77 44.21,-33.93 48.56,-43.59 53.63,-38.77"/>
</g>
<!-- Dummy* -->
<g id="node6" class="node">
<title>Dummy*</title>
<ellipse fill="gray" stroke="black" cx="110.02" cy="-18" rx="32.16" ry="18"/>
<text text-anchor="middle" x="110.02" y="-15.8" font-family="Times,serif" font-size="9.00">Dummy*</text>
</g>
<!-- node4&#45;&gt;Dummy* -->
<g id="edge5" class="edge">
<title>node4&#45;&gt;Dummy*</title>
<path fill="none" stroke="black" d="M107.38,-71.92C107.79,-63.72 108.24,-54.72 108.65,-46.49"/>
<polygon fill="black" stroke="black" points="112.15,-46.43 109.16,-36.27 105.16,-46.09 112.15,-46.43"/>
</g>
<!-- Dummy** -->
<g id="node8" class="node">
<title>Dummy**</title>
<ellipse fill="gray" stroke="black" cx="199.02" cy="-18" rx="35.44" ry="18"/>
<text text-anchor="middle" x="199.02" y="-15.8" font-family="Times,serif" font-size="9.00">Dummy**</text>
</g>
<!-- node7&#45;&gt;Dummy** -->
<g id="edge7" class="edge">
<title>node7&#45;&gt;Dummy**</title>
<path fill="none" stroke="black" d="M259.21,-71.92C247.6,-61.7 234.55,-50.23 223.58,-40.59"/>
<polygon fill="black" stroke="black" points="225.83,-37.9 216.01,-33.93 221.2,-43.16 225.83,-37.9"/>
</g>
<!-- Dummy*** -->
<g id="node9" class="node">
<title>Dummy***</title>
<ellipse fill="gray" stroke="black" cx="290.02" cy="-18" rx="37.56" ry="18"/>
<text text-anchor="middle" x="290.02" y="-15.8" font-family="Times,serif" font-size="9.00">Dummy***</text>
</g>
<!-- node7&#45;&gt;Dummy*** -->
<g id="edge8" class="edge">
<title>node7&#45;&gt;Dummy***</title>
<path fill="none" stroke="black" d="M290.02,-71.92C290.02,-63.72 290.02,-54.72 290.02,-46.49"/>
<polygon fill="black" stroke="black" points="293.52,-46.27 290.02,-36.27 286.52,-46.27 293.52,-46.27"/>
</g>
<!-- node11 -->
<g id="node11" class="node">
<title>node11</title>
<polygon fill="gold" stroke="black" points="562.9,-128 431.06,-128 397.14,-72 528.99,-72 562.9,-128"/>
<text text-anchor="middle" x="480.02" y="-102.8" font-family="Times,serif" font-size="9.00">node11</text>
<text text-anchor="middle" x="480.02" y="-92.8" font-family="Times,serif" font-size="9.00">SuccessOnAll</text>
</g>
<!-- node10&#45;&gt;node11 -->
<g id="edge10" class="edge">
<title>node10&#45;&gt;node11</title>
<path fill="none" stroke="black" d="M544.42,-164C535.22,-155 524.86,-144.86 515.17,-135.38"/>
<polygon fill="black" stroke="black" points="517.52,-132.79 507.92,-128.29 512.62,-137.79 517.52,-132.79"/>
</g>
<!-- node14 -->
<g id="node14" class="node">
<title>node14</title>
<polygon fill="gold" stroke="black" points="746.9,-128 615.06,-128 581.14,-72 712.99,-72 746.9,-128"/>
<text text-anchor="middle" x="664.02" y="-102.8" font-family="Times,serif" font-size="9.00">node14</text>
<text text-anchor="middle" x="664.02" y="-92.8" font-family="Times,serif" font-size="9.00">SuccessOnAll</text>
</g>
<!-- node10&#45;&gt;node14 -->
<g id="edge13" class="edge">
<title>node10&#45;&gt;node14</title>
<path fill="none" stroke="black" d="M599.63,-164C608.82,-155 619.19,-144.86 628.88,-135.38"/>
<polygon fill="black" stroke="black" points="631.42,-137.79 636.12,-128.29 626.52,-132.79 631.42,-137.79"/>
</g>
<!-- Dummy**** -->
<g id="node12" class="node">
<title>Dummy****</title>
<ellipse fill="gray" stroke="black" cx="386.02" cy="-18" rx="40.33" ry="18"/>
<text text-anchor="middle" x="386.02" y="-15.8" font-family="Times,serif" font-size="9.00">Dummy****</text>
</g>
<!-- node11&#45;&gt;Dummy**** -->
<g id="edge11" class="edge">
<title>node11&#45;&gt;Dummy****</title>
<path fill="none" stroke="black" d="M448.2,-71.92C436.28,-61.78 422.91,-50.39 411.63,-40.79"/>
<polygon fill="black" stroke="black" points="413.72,-37.97 403.83,-34.16 409.18,-43.31 413.72,-37.97"/>
</g>
<!-- Dummy***** -->
<g id="node13" class="node">
<title>Dummy*****</title>
<ellipse fill="gray" stroke="black" cx="487.02" cy="-18" rx="42.95" ry="18"/>
<text text-anchor="middle" x="487.02" y="-15.8" font-family="Times,serif" font-size="9.00">Dummy*****</text>
</g>
<!-- node11&#45;&gt;Dummy***** -->
<g id="edge12" class="edge">
<title>node11&#45;&gt;Dummy*****</title>
<path fill="none" stroke="black" d="M482.39,-71.92C483.11,-63.72 483.9,-54.72 484.62,-46.49"/>
<polygon fill="black" stroke="black" points="488.13,-46.54 485.51,-36.27 481.15,-45.93 488.13,-46.54"/>
</g>
<!-- Dummy****** -->
<g id="node15" class="node">
<title>Dummy******</title>
<ellipse fill="gray" stroke="black" cx="593.02" cy="-18" rx="45.72" ry="18"/>
<text text-anchor="middle" x="593.02" y="-15.8" font-family="Times,serif" font-size="9.00">Dummy******</text>
</g>
<!-- node14&#45;&gt;Dummy****** -->
<g id="edge14" class="edge">
<title>node14&#45;&gt;Dummy******</title>
<path fill="none" stroke="black" d="M639.98,-71.92C631.65,-62.52 622.36,-52.06 614.26,-42.94"/>
<polygon fill="black" stroke="black" points="616.76,-40.48 607.51,-35.32 611.53,-45.12 616.76,-40.48"/>
</g>
<!-- Dummy******* -->
<g id="node16" class="node">
<title>Dummy*******</title>
<ellipse fill="gray" stroke="black" cx="705.02" cy="-18" rx="47.84" ry="18"/>
<text text-anchor="middle" x="705.02" y="-15.8" font-family="Times,serif" font-size="9.00">Dummy*******</text>
</g>
<!-- node14&#45;&gt;Dummy******* -->
<g id="edge15" class="edge">
<title>node14&#45;&gt;Dummy*******</title>
<path fill="none" stroke="black" d="M677.9,-71.92C682.41,-63.13 687.39,-53.41 691.84,-44.72"/>
<polygon fill="black" stroke="black" points="694.97,-46.29 696.41,-35.79 688.74,-43.1 694.97,-46.29"/>
</g>
<!-- node18 -->
<g id="node18" class="node">
<title>node18</title>
<polygon fill="gold" stroke="black" points="1090.9,-220 959.06,-220 925.14,-164 1056.99,-164 1090.9,-220"/>
<text text-anchor="middle" x="1008.02" y="-194.8" font-family="Times,serif" font-size="9.00">node18</text>
<text text-anchor="middle" x="1008.02" y="-184.8" font-family="Times,serif" font-size="9.00">SuccessOnAll</text>
</g>
<!-- node17&#45;&gt;node18 -->
<g id="edge17" class="edge">
<title>node17&#45;&gt;node18</title>
<path fill="none" stroke="black" d="M1008.02,-256C1008.02,-247.97 1008.02,-239.03 1008.02,-230.47"/>
<polygon fill="black" stroke="black" points="1011.52,-230.29 1008.02,-220.29 1004.52,-230.3 1011.52,-230.29"/>
</g>
<!-- node25 -->
<g id="node25" class="node">
<title>node25</title>
<polygon fill="gold" stroke="black" points="1476.9,-220 1345.06,-220 1311.14,-164 1442.99,-164 1476.9,-220"/>
<text text-anchor="middle" x="1394.02" y="-194.8" font-family="Times,serif" font-size="9.00">node25</text>
<text text-anchor="middle" x="1394.02" y="-184.8" font-family="Times,serif" font-size="9.00">SuccessOnAll</text>
</g>
<!-- node17&#45;&gt;node25 -->
<g id="edge24" class="edge">
<title>node17&#45;&gt;node25</title>
<path fill="none" stroke="black" d="M1065.39,-269.62C1135.1,-253.37 1252.52,-225.99 1326.51,-208.74"/>
<polygon fill="black" stroke="black" points="1327.71,-212.06 1336.65,-206.38 1326.12,-205.24 1327.71,-212.06"/>
</g>
<!-- node19 -->
<g id="node19" class="node">
<title>node19</title>
<polygon fill="gold" stroke="black" points="998.9,-128 867.06,-128 833.14,-72 964.99,-72 998.9,-128"/>
<text text-anchor="middle" x="916.02" y="-102.8" font-family="Times,serif" font-size="9.00">node19</text>
<text text-anchor="middle" x="916.02" y="-92.8" font-family="Times,serif" font-size="9.00">SuccessOnAll</text>
</g>
<!-- node18&#45;&gt;node19 -->
<g id="edge18" class="edge">
<title>node18&#45;&gt;node19</title>
<path fill="none" stroke="black" d="M980.42,-164C971.22,-155 960.86,-144.86 951.17,-135.38"/>
<polygon fill="black" stroke="black" points="953.52,-132.79 943.92,-128.29 948.62,-137.79 953.52,-132.79"/>
</g>
<!-- node22 -->
<g id="node22" class="node">
<title>node22</title>
<polygon fill="gold" stroke="black" points="1182.9,-128 1051.06,-128 1017.14,-72 1148.99,-72 1182.9,-128"/>
<text text-anchor="middle" x="1100.02" y="-102.8" font-family="Times,serif" font-size="9.00">node22</text>
<text text-anchor="middle" x="1100.02" y="-92.8" font-family="Times,serif" font-size="9.00">SuccessOnAll</text>
</g>
<!-- node18&#45;&gt;node22 -->
<g id="edge21" class="edge">
<title>node18&#45;&gt;node22</title>
<path fill="none" stroke="black" d="M1035.63,-164C1044.82,-155 1055.19,-144.86 1064.88,-135.38"/>
<polygon fill="black" stroke="black" points="1067.42,-137.79 1072.12,-128.29 1062.52,-132.79 1067.42,-137.79"/>
</g>
<!-- Dummy******** -->
<g id="node20" class="node">
<title>Dummy********</title>
<ellipse fill="gray" stroke="black" cx="822.02" cy="-18" rx="50.61" ry="18"/>
<text text-anchor="middle" x="822.02" y="-15.8" font-family="Times,serif" font-size="9.00">Dummy********</text>
</g>
<!-- node19&#45;&gt;Dummy******** -->
<g id="edge19" class="edge">
<title>node19&#45;&gt;Dummy********</title>
<path fill="none" stroke="black" d="M884.2,-71.92C872.54,-61.99 859.49,-50.89 848.36,-41.42"/>
<polygon fill="black" stroke="black" points="850.53,-38.67 840.65,-34.85 846,-44 850.53,-38.67"/>
</g>
<!-- Dummy********* -->
<g id="node21" class="node">
<title>Dummy*********</title>
<ellipse fill="gray" stroke="black" cx="944.02" cy="-18" rx="53.23" ry="18"/>
<text text-anchor="middle" x="944.02" y="-15.8" font-family="Times,serif" font-size="9.00">Dummy*********</text>
</g>
<!-- node19&#45;&gt;Dummy********* -->
<g id="edge20" class="edge">
<title>node19&#45;&gt;Dummy*********</title>
<path fill="none" stroke="black" d="M925.5,-71.92C928.43,-63.54 931.66,-54.31 934.59,-45.94"/>
<polygon fill="black" stroke="black" points="937.98,-46.87 937.98,-36.27 931.37,-44.55 937.98,-46.87"/>
</g>
<!-- Dummy********** -->
<g id="node23" class="node">
<title>Dummy**********</title>
<ellipse fill="gray" stroke="black" cx="1071.02" cy="-18" rx="56.01" ry="18"/>
<text text-anchor="middle" x="1071.02" y="-15.8" font-family="Times,serif" font-size="9.00">Dummy**********</text>
</g>
<!-- node22&#45;&gt;Dummy********** -->
<g id="edge22" class="edge">
<title>node22&#45;&gt;Dummy**********</title>
<path fill="none" stroke="black" d="M1090.2,-71.92C1087.17,-63.54 1083.82,-54.31 1080.79,-45.94"/>
<polygon fill="black" stroke="black" points="1083.98,-44.48 1077.28,-36.27 1077.4,-46.87 1083.98,-44.48"/>
</g>
<!-- Dummy*********** -->
<g id="node24" class="node">
<title>Dummy***********</title>
<ellipse fill="gray" stroke="black" cx="1203.02" cy="-18" rx="58.13" ry="18"/>
<text text-anchor="middle" x="1203.02" y="-15.8" font-family="Times,serif" font-size="9.00">Dummy***********</text>
</g>
<!-- node22&#45;&gt;Dummy*********** -->
<g id="edge23" class="edge">
<title>node22&#45;&gt;Dummy***********</title>
<path fill="none" stroke="black" d="M1134.89,-71.92C1147.7,-61.97 1162.04,-50.83 1174.24,-41.35"/>
<polygon fill="black" stroke="black" points="1176.56,-43.99 1182.31,-35.09 1172.27,-38.46 1176.56,-43.99"/>
</g>
<!-- node26 -->
<g id="node26" class="node">
<title>node26</title>
<polygon fill="gold" stroke="black" points="1476.9,-128 1345.06,-128 1311.14,-72 1442.99,-72 1476.9,-128"/>
<text text-anchor="middle" x="1394.02" y="-102.8" font-family="Times,serif" font-size="9.00">node26</text>
<text text-anchor="middle" x="1394.02" y="-92.8" font-family="Times,serif" font-size="9.00">SuccessOnAll</text>
</g>
<!-- node25&#45;&gt;node26 -->
<g id="edge25" class="edge">
<title>node25&#45;&gt;node26</title>
<path fill="none" stroke="black" d="M1394.02,-164C1394.02,-155.97 1394.02,-147.03 1394.02,-138.47"/>
<polygon fill="black" stroke="black" points="1397.52,-138.29 1394.02,-128.29 1390.52,-138.3 1397.52,-138.29"/>
</g>
<!-- node29 -->
<g id="node29" class="node">
<title>node29</title>
<polygon fill="gold" stroke="black" points="1714.9,-128 1583.06,-128 1549.14,-72 1680.99,-72 1714.9,-128"/>
<text text-anchor="middle" x="1632.02" y="-102.8" font-family="Times,serif" font-size="9.00">node29</text>
<text text-anchor="middle" x="1632.02" y="-92.8" font-family="Times,serif" font-size="9.00">SuccessOnAll</text>
</g>
<!-- node25&#45;&gt;node29 -->
<g id="edge28" class="edge">
<title>node25&#45;&gt;node29</title>
<path fill="none" stroke="black" d="M1447.43,-170.8C1483.57,-157.14 1531.44,-139.04 1569.37,-124.69"/>
<polygon fill="black" stroke="black" points="1570.67,-127.94 1578.79,-121.13 1568.2,-121.39 1570.67,-127.94"/>
</g>
<!-- Dummy************ -->
<g id="node27" class="node">
<title>Dummy************</title>
<ellipse fill="gray" stroke="black" cx="1341.02" cy="-18" rx="61.4" ry="18"/>
<text text-anchor="middle" x="1341.02" y="-15.8" font-family="Times,serif" font-size="9.00">Dummy************</text>
</g>
<!-- node26&#45;&gt;Dummy************ -->
<g id="edge26" class="edge">
<title>node26&#45;&gt;Dummy************</title>
<path fill="none" stroke="black" d="M1376.08,-71.92C1370.13,-62.94 1363.54,-52.99 1357.7,-44.17"/>
<polygon fill="black" stroke="black" points="1360.59,-42.2 1352.15,-35.79 1354.75,-46.06 1360.59,-42.2"/>
</g>
<!-- Dummy************* -->
<g id="node28" class="node">
<title>Dummy*************</title>
<ellipse fill="gray" stroke="black" cx="1484.02" cy="-18" rx="63.52" ry="18"/>
<text text-anchor="middle" x="1484.02" y="-15.8" font-family="Times,serif" font-size="9.00">Dummy*************</text>
</g>
<!-- node26&#45;&gt;Dummy************* -->
<g id="edge27" class="edge">
<title>node26&#45;&gt;Dummy*************</title>
<path fill="none" stroke="black" d="M1424.49,-71.92C1435.38,-62.24 1447.55,-51.42 1458.02,-42.11"/>
<polygon fill="black" stroke="black" points="1460.51,-44.58 1465.66,-35.32 1455.86,-39.35 1460.51,-44.58"/>
</g>
<!-- Dummy************** -->
<g id="node30" class="node">
<title>Dummy**************</title>
<ellipse fill="gray" stroke="black" cx="1632.02" cy="-18" rx="66.29" ry="18"/>
<text text-anchor="middle" x="1632.02" y="-15.8" font-family="Times,serif" font-size="9.00">Dummy**************</text>
</g>
<!-- node29&#45;&gt;Dummy************** -->
<g id="edge29" class="edge">
<title>node29&#45;&gt;Dummy**************</title>
<path fill="none" stroke="black" d="M1632.02,-71.92C1632.02,-63.72 1632.02,-54.72 1632.02,-46.49"/>
<polygon fill="black" stroke="black" points="1635.52,-46.27 1632.02,-36.27 1628.52,-46.27 1635.52,-46.27"/>
</g>
<!-- Dummy*************** -->
<g id="node31" class="node">
<title>Dummy***************</title>
<ellipse fill="gray" stroke="black" cx="1785.02" cy="-18" rx="68.91" ry="18"/>
<text text-anchor="middle" x="1785.02" y="-15.8" font-family="Times,serif" font-size="9.00">Dummy***************</text>
</g>
<!-- node29&#45;&gt;Dummy*************** -->
<g id="edge30" class="edge">
<title>node29&#45;&gt;Dummy***************</title>
<path fill="none" stroke="black" d="M1681.7,-73.03C1702.79,-62 1726.99,-49.34 1746.67,-39.05"/>
<polygon fill="black" stroke="black" points="1748.41,-42.09 1755.65,-34.36 1745.17,-35.89 1748.41,-42.09"/>
</g>
</g>
</svg>
