<?xml version="1.0" encoding="UTF-8" standalone="no"?>
<!DOCTYPE svg PUBLIC "-//W3C//DTD SVG 1.1//EN"
 "http://www.w3.org/Graphics/SVG/1.1/DTD/svg11.dtd">
<!-- Generated by graphviz version 2.43.0 (0)
 -->
<!-- Title: pastafarianism Pages: 1 -->
<svg width="150pt" height="116pt"
 viewBox="0.00 0.00 150.35 116.00" xmlns="http://www.w3.org/2000/svg" xmlns:xlink="http://www.w3.org/1999/xlink">
<g id="graph0" class="graph" transform="scale(1 1) rotate(0) translate(4 112)">
<title>pastafarianism</title>
<polygon fill="white" stroke="transparent" points="-4,4 -4,-112 146.35,-112 146.35,4 -4,4"/>
<!-- node1 -->
<g id="node1" class="node">
<title>node1</title>
<polygon fill="cyan" stroke="black" points="98.27,-82.54 98.27,-97.46 81.72,-108 58.32,-108 41.78,-97.46 41.78,-82.54 58.32,-72 81.72,-72 98.27,-82.54"/>
<text text-anchor="middle" x="70.02" y="-87.8" font-family="Times,serif" font-size="9.00">node1</text>
</g>
<!-- Dummy -->
<g id="node2" class="node">
<title>Dummy</title>
<ellipse fill="gray" stroke="black" cx="30.02" cy="-18" rx="30.04" ry="18"/>
<text text-anchor="middle" x="30.02" y="-15.8" font-family="Times,serif" font-size="9.00">Dummy</text>
</g>
<!-- node1&#45;&gt;Dummy -->
<g id="edge1" class="edge">
<title>node1&#45;&gt;Dummy</title>
<path fill="none" stroke="black" d="M60.13,-71.7C55.35,-63.32 49.51,-53.1 44.25,-43.9"/>
<polygon fill="black" stroke="black" points="47.25,-42.09 39.25,-35.14 41.17,-45.56 47.25,-42.09"/>
</g>
<!-- Dummy* -->
<g id="node3" class="node">
<title>Dummy*</title>
<ellipse fill="gray" stroke="black" cx="110.02" cy="-18" rx="32.16" ry="18"/>
<text text-anchor="middle" x="110.02" y="-15.8" font-family="Times,serif" font-size="9.00">Dummy*</text>
</g>
<!-- node1&#45;&gt;Dummy* -->
<g id="edge2" class="edge">
<title>node1&#45;&gt;Dummy*</title>
<path fill="none" stroke="black" d="M79.91,-71.7C84.58,-63.52 90.25,-53.6 95.4,-44.58"/>
<polygon fill="black" stroke="black" points="98.6,-46.04 100.52,-35.62 92.52,-42.57 98.6,-46.04"/>
</g>
</g>
</svg>
