<?xml version="1.0" encoding="UTF-8" standalone="no"?>
<!DOCTYPE svg PUBLIC "-//W3C//DTD SVG 1.1//EN"
 "http://www.w3.org/Graphics/SVG/1.1/DTD/svg11.dtd">
<!-- Generated by graphviz version 2.43.0 (0)
 -->
<!-- Title: pastafarianism Pages: 1 -->
<svg width="333pt" height="188pt"
 viewBox="0.00 0.00 332.55 188.00" xmlns="http://www.w3.org/2000/svg" xmlns:xlink="http://www.w3.org/1999/xlink">
<g id="graph0" class="graph" transform="scale(1 1) rotate(0) translate(4 184)">
<title>pastafarianism</title>
<polygon fill="white" stroke="transparent" points="-4,4 -4,-184 328.55,-184 328.55,4 -4,4"/>
<!-- node1 -->
<g id="node1" class="node">
<title>node1</title>
<polygon fill="cyan" stroke="black" points="181.27,-154.54 181.27,-169.46 164.72,-180 141.32,-180 124.78,-169.46 124.78,-154.54 141.32,-144 164.72,-144 181.27,-154.54"/>
<text text-anchor="middle" x="153.02" y="-159.8" font-family="Times,serif" font-size="9.00">node1</text>
</g>
<!-- node2 -->
<g id="node2" class="node">
<title>node2</title>
<polygon fill="cyan" stroke="black" points="138.27,-82.54 138.27,-97.46 121.72,-108 98.32,-108 81.78,-97.46 81.78,-82.54 98.32,-72 121.72,-72 138.27,-82.54"/>
<text text-anchor="middle" x="110.02" y="-87.8" font-family="Times,serif" font-size="9.00">node2</text>
</g>
<!-- node1&#45;&gt;node2 -->
<g id="edge1" class="edge">
<title>node1&#45;&gt;node2</title>
<path fill="none" stroke="black" d="M142.39,-143.7C137.39,-135.56 131.33,-125.69 125.81,-116.7"/>
<polygon fill="black" stroke="black" points="128.75,-114.79 120.53,-108.1 122.78,-118.46 128.75,-114.79"/>
</g>
<!-- node5 -->
<g id="node5" class="node">
<title>node5</title>
<polygon fill="cyan" stroke="black" points="224.27,-82.54 224.27,-97.46 207.72,-108 184.32,-108 167.78,-97.46 167.78,-82.54 184.32,-72 207.72,-72 224.27,-82.54"/>
<text text-anchor="middle" x="196.02" y="-87.8" font-family="Times,serif" font-size="9.00">node5</text>
</g>
<!-- node1&#45;&gt;node5 -->
<g id="edge4" class="edge">
<title>node1&#45;&gt;node5</title>
<path fill="none" stroke="black" d="M163.65,-143.7C168.65,-135.56 174.71,-125.69 180.23,-116.7"/>
<polygon fill="black" stroke="black" points="183.26,-118.46 185.52,-108.1 177.3,-114.79 183.26,-118.46"/>
</g>
<!-- Dummy -->
<g id="node3" class="node">
<title>Dummy</title>
<ellipse fill="gray" stroke="black" cx="30.02" cy="-18" rx="30.04" ry="18"/>
<text text-anchor="middle" x="30.02" y="-15.8" font-family="Times,serif" font-size="9.00">Dummy</text>
</g>
<!-- node2&#45;&gt;Dummy -->
<g id="edge2" class="edge">
<title>node2&#45;&gt;Dummy</title>
<path fill="none" stroke="black" d="M93.83,-74.83C82.41,-64.84 66.93,-51.29 54.07,-40.04"/>
<polygon fill="black" stroke="black" points="56.29,-37.34 46.46,-33.38 51.68,-42.6 56.29,-37.34"/>
</g>
<!-- Dummy* -->
<g id="node4" class="node">
<title>Dummy*</title>
<ellipse fill="gray" stroke="black" cx="110.02" cy="-18" rx="32.16" ry="18"/>
<text text-anchor="middle" x="110.02" y="-15.8" font-family="Times,serif" font-size="9.00">Dummy*</text>
</g>
<!-- node2&#45;&gt;Dummy* -->
<g id="edge3" class="edge">
<title>node2&#45;&gt;Dummy*</title>
<path fill="none" stroke="black" d="M110.02,-71.7C110.02,-63.98 110.02,-54.71 110.02,-46.11"/>
<polygon fill="black" stroke="black" points="113.52,-46.1 110.02,-36.1 106.52,-46.1 113.52,-46.1"/>
</g>
<!-- Dummy** -->
<g id="node6" class="node">
<title>Dummy**</title>
<ellipse fill="gray" stroke="black" cx="196.02" cy="-18" rx="35.44" ry="18"/>
<text text-anchor="middle" x="196.02" y="-15.8" font-family="Times,serif" font-size="9.00">Dummy**</text>
</g>
<!-- node5&#45;&gt;Dummy** -->
<g id="edge5" class="edge">
<title>node5&#45;&gt;Dummy**</title>
<path fill="none" stroke="black" d="M196.02,-71.7C196.02,-63.98 196.02,-54.71 196.02,-46.11"/>
<polygon fill="black" stroke="black" points="199.52,-46.1 196.02,-36.1 192.52,-46.1 199.52,-46.1"/>
</g>
<!-- Dummy*** -->
<g id="node7" class="node">
<title>Dummy***</title>
<ellipse fill="gray" stroke="black" cx="287.02" cy="-18" rx="37.56" ry="18"/>
<text text-anchor="middle" x="287.02" y="-15.8" font-family="Times,serif" font-size="9.00">Dummy***</text>
</g>
<!-- node5&#45;&gt;Dummy*** -->
<g id="edge6" class="edge">
<title>node5&#45;&gt;Dummy***</title>
<path fill="none" stroke="black" d="M213.57,-75.5C226.73,-65.38 244.98,-51.34 260,-39.79"/>
<polygon fill="black" stroke="black" points="262.17,-42.53 267.96,-33.66 257.9,-36.99 262.17,-42.53"/>
</g>
</g>
</svg>
