<?xml version="1.0" encoding="UTF-8" standalone="no"?>
<!DOCTYPE svg PUBLIC "-//W3C//DTD SVG 1.1//EN"
 "http://www.w3.org/Graphics/SVG/1.1/DTD/svg11.dtd">
<!-- Generated by graphviz version 2.43.0 (0)
 -->
<!-- Title: pastafarianism Pages: 1 -->
<svg width="758pt" height="260pt"
 viewBox="0.00 0.00 757.94 260.00" xmlns="http://www.w3.org/2000/svg" xmlns:xlink="http://www.w3.org/1999/xlink">
<g id="graph0" class="graph" transform="scale(1 1) rotate(0) translate(4 256)">
<title>pastafarianism</title>
<polygon fill="white" stroke="transparent" points="-4,4 -4,-256 753.94,-256 753.94,4 -4,4"/>
<!-- node1 -->
<g id="node1" class="node">
<title>node1</title>
<polygon fill="cyan" stroke="black" points="362.27,-226.54 362.27,-241.46 345.72,-252 322.32,-252 305.78,-241.46 305.78,-226.54 322.32,-216 345.72,-216 362.27,-226.54"/>
<text text-anchor="middle" x="334.02" y="-231.8" font-family="Times,serif" font-size="9.00">node1</text>
</g>
<!-- node2 -->
<g id="node2" class="node">
<title>node2</title>
<polygon fill="cyan" stroke="black" points="269.27,-154.54 269.27,-169.46 252.72,-180 229.32,-180 212.78,-169.46 212.78,-154.54 229.32,-144 252.72,-144 269.27,-154.54"/>
<text text-anchor="middle" x="241.02" y="-159.8" font-family="Times,serif" font-size="9.00">node2</text>
</g>
<!-- node1&#45;&gt;node2 -->
<g id="edge1" class="edge">
<title>node1&#45;&gt;node2</title>
<path fill="none" stroke="black" d="M316.09,-219.5C302.2,-209.04 282.74,-194.4 267.12,-182.65"/>
<polygon fill="black" stroke="black" points="268.99,-179.67 258.9,-176.46 264.78,-185.27 268.99,-179.67"/>
</g>
<!-- node9 -->
<g id="node9" class="node">
<title>node9</title>
<polygon fill="cyan" stroke="black" points="461.27,-154.54 461.27,-169.46 444.72,-180 421.32,-180 404.78,-169.46 404.78,-154.54 421.32,-144 444.72,-144 461.27,-154.54"/>
<text text-anchor="middle" x="433.02" y="-159.8" font-family="Times,serif" font-size="9.00">node9</text>
</g>
<!-- node1&#45;&gt;node9 -->
<g id="edge8" class="edge">
<title>node1&#45;&gt;node9</title>
<path fill="none" stroke="black" d="M352.64,-219.83C367.81,-209.11 389.42,-193.83 406.41,-181.82"/>
<polygon fill="black" stroke="black" points="408.67,-184.5 414.82,-175.87 404.63,-178.79 408.67,-184.5"/>
</g>
<!-- node3 -->
<g id="node3" class="node">
<title>node3</title>
<polygon fill="cyan" stroke="black" points="138.27,-82.54 138.27,-97.46 121.72,-108 98.32,-108 81.78,-97.46 81.78,-82.54 98.32,-72 121.72,-72 138.27,-82.54"/>
<text text-anchor="middle" x="110.02" y="-87.8" font-family="Times,serif" font-size="9.00">node3</text>
</g>
<!-- node2&#45;&gt;node3 -->
<g id="edge2" class="edge">
<title>node2&#45;&gt;node3</title>
<path fill="none" stroke="black" d="M219.97,-149.75C198.3,-138.17 164.32,-120.02 139.88,-106.95"/>
<polygon fill="black" stroke="black" points="141.49,-103.84 131.02,-102.22 138.19,-110.02 141.49,-103.84"/>
</g>
<!-- node6 -->
<g id="node6" class="node">
<title>node6</title>
<polygon fill="cyan" stroke="black" points="269.27,-82.54 269.27,-97.46 252.72,-108 229.32,-108 212.78,-97.46 212.78,-82.54 229.32,-72 252.72,-72 269.27,-82.54"/>
<text text-anchor="middle" x="241.02" y="-87.8" font-family="Times,serif" font-size="9.00">node6</text>
</g>
<!-- node2&#45;&gt;node6 -->
<g id="edge5" class="edge">
<title>node2&#45;&gt;node6</title>
<path fill="none" stroke="black" d="M241.02,-143.7C241.02,-135.98 241.02,-126.71 241.02,-118.11"/>
<polygon fill="black" stroke="black" points="244.52,-118.1 241.02,-108.1 237.52,-118.1 244.52,-118.1"/>
</g>
<!-- Dummy -->
<g id="node4" class="node">
<title>Dummy</title>
<ellipse fill="gray" stroke="black" cx="30.02" cy="-18" rx="30.04" ry="18"/>
<text text-anchor="middle" x="30.02" y="-15.8" font-family="Times,serif" font-size="9.00">Dummy</text>
</g>
<!-- node3&#45;&gt;Dummy -->
<g id="edge3" class="edge">
<title>node3&#45;&gt;Dummy</title>
<path fill="none" stroke="black" d="M93.83,-74.83C82.41,-64.84 66.93,-51.29 54.07,-40.04"/>
<polygon fill="black" stroke="black" points="56.29,-37.34 46.46,-33.38 51.68,-42.6 56.29,-37.34"/>
</g>
<!-- Dummy* -->
<g id="node5" class="node">
<title>Dummy*</title>
<ellipse fill="gray" stroke="black" cx="110.02" cy="-18" rx="32.16" ry="18"/>
<text text-anchor="middle" x="110.02" y="-15.8" font-family="Times,serif" font-size="9.00">Dummy*</text>
</g>
<!-- node3&#45;&gt;Dummy* -->
<g id="edge4" class="edge">
<title>node3&#45;&gt;Dummy*</title>
<path fill="none" stroke="black" d="M110.02,-71.7C110.02,-63.98 110.02,-54.71 110.02,-46.11"/>
<polygon fill="black" stroke="black" points="113.52,-46.1 110.02,-36.1 106.52,-46.1 113.52,-46.1"/>
</g>
<!-- Dummy** -->
<g id="node7" class="node">
<title>Dummy**</title>
<ellipse fill="gray" stroke="black" cx="196.02" cy="-18" rx="35.44" ry="18"/>
<text text-anchor="middle" x="196.02" y="-15.8" font-family="Times,serif" font-size="9.00">Dummy**</text>
</g>
<!-- node6&#45;&gt;Dummy** -->
<g id="edge6" class="edge">
<title>node6&#45;&gt;Dummy**</title>
<path fill="none" stroke="black" d="M229.9,-71.7C224.59,-63.44 218.13,-53.39 212.29,-44.3"/>
<polygon fill="black" stroke="black" points="215.06,-42.14 206.71,-35.62 209.17,-45.93 215.06,-42.14"/>
</g>
<!-- Dummy*** -->
<g id="node8" class="node">
<title>Dummy***</title>
<ellipse fill="gray" stroke="black" cx="287.02" cy="-18" rx="37.56" ry="18"/>
<text text-anchor="middle" x="287.02" y="-15.8" font-family="Times,serif" font-size="9.00">Dummy***</text>
</g>
<!-- node6&#45;&gt;Dummy*** -->
<g id="edge7" class="edge">
<title>node6&#45;&gt;Dummy***</title>
<path fill="none" stroke="black" d="M252.39,-71.7C257.88,-63.35 264.56,-53.18 270.58,-44.02"/>
<polygon fill="black" stroke="black" points="273.53,-45.9 276.1,-35.62 267.68,-42.06 273.53,-45.9"/>
</g>
<!-- node10 -->
<g id="node10" class="node">
<title>node10</title>
<polygon fill="cyan" stroke="black" points="464.76,-82.54 464.76,-97.46 446.17,-108 419.87,-108 401.28,-97.46 401.28,-82.54 419.87,-72 446.17,-72 464.76,-82.54"/>
<text text-anchor="middle" x="433.02" y="-87.8" font-family="Times,serif" font-size="9.00">node10</text>
</g>
<!-- node9&#45;&gt;node10 -->
<g id="edge9" class="edge">
<title>node9&#45;&gt;node10</title>
<path fill="none" stroke="black" d="M433.02,-143.7C433.02,-135.98 433.02,-126.71 433.02,-118.11"/>
<polygon fill="black" stroke="black" points="436.52,-118.1 433.02,-108.1 429.52,-118.1 436.52,-118.1"/>
</g>
<!-- node13 -->
<g id="node13" class="node">
<title>node13</title>
<polygon fill="cyan" stroke="black" points="621.76,-82.54 621.76,-97.46 603.17,-108 576.87,-108 558.28,-97.46 558.28,-82.54 576.87,-72 603.17,-72 621.76,-82.54"/>
<text text-anchor="middle" x="590.02" y="-87.8" font-family="Times,serif" font-size="9.00">node13</text>
</g>
<!-- node9&#45;&gt;node13 -->
<g id="edge12" class="edge">
<title>node9&#45;&gt;node13</title>
<path fill="none" stroke="black" d="M455.85,-150.82C482.33,-139.02 526.21,-119.45 556.54,-105.93"/>
<polygon fill="black" stroke="black" points="558.17,-109.03 565.88,-101.77 555.32,-102.64 558.17,-109.03"/>
</g>
<!-- Dummy**** -->
<g id="node11" class="node">
<title>Dummy****</title>
<ellipse fill="gray" stroke="black" cx="383.02" cy="-18" rx="40.33" ry="18"/>
<text text-anchor="middle" x="383.02" y="-15.8" font-family="Times,serif" font-size="9.00">Dummy****</text>
</g>
<!-- node10&#45;&gt;Dummy**** -->
<g id="edge10" class="edge">
<title>node10&#45;&gt;Dummy****</title>
<path fill="none" stroke="black" d="M420.66,-71.7C414.7,-63.35 407.44,-53.18 400.89,-44.02"/>
<polygon fill="black" stroke="black" points="403.56,-41.73 394.9,-35.62 397.86,-45.79 403.56,-41.73"/>
</g>
<!-- Dummy***** -->
<g id="node12" class="node">
<title>Dummy*****</title>
<ellipse fill="gray" stroke="black" cx="484.02" cy="-18" rx="42.95" ry="18"/>
<text text-anchor="middle" x="484.02" y="-15.8" font-family="Times,serif" font-size="9.00">Dummy*****</text>
</g>
<!-- node10&#45;&gt;Dummy***** -->
<g id="edge11" class="edge">
<title>node10&#45;&gt;Dummy*****</title>
<path fill="none" stroke="black" d="M445.63,-71.7C451.77,-63.27 459.27,-52.97 466,-43.73"/>
<polygon fill="black" stroke="black" points="468.85,-45.77 471.91,-35.62 463.19,-41.64 468.85,-45.77"/>
</g>
<!-- Dummy****** -->
<g id="node14" class="node">
<title>Dummy******</title>
<ellipse fill="gray" stroke="black" cx="590.02" cy="-18" rx="45.72" ry="18"/>
<text text-anchor="middle" x="590.02" y="-15.8" font-family="Times,serif" font-size="9.00">Dummy******</text>
</g>
<!-- node13&#45;&gt;Dummy****** -->
<g id="edge13" class="edge">
<title>node13&#45;&gt;Dummy******</title>
<path fill="none" stroke="black" d="M590.02,-71.7C590.02,-63.98 590.02,-54.71 590.02,-46.11"/>
<polygon fill="black" stroke="black" points="593.52,-46.1 590.02,-36.1 586.52,-46.1 593.52,-46.1"/>
</g>
<!-- Dummy******* -->
<g id="node15" class="node">
<title>Dummy*******</title>
<ellipse fill="gray" stroke="black" cx="702.02" cy="-18" rx="47.84" ry="18"/>
<text text-anchor="middle" x="702.02" y="-15.8" font-family="Times,serif" font-size="9.00">Dummy*******</text>
</g>
<!-- node13&#45;&gt;Dummy******* -->
<g id="edge14" class="edge">
<title>node13&#45;&gt;Dummy*******</title>
<path fill="none" stroke="black" d="M610.56,-76.16C627.14,-65.8 650.75,-51.05 669.83,-39.12"/>
<polygon fill="black" stroke="black" points="671.88,-41.96 678.51,-33.7 668.17,-36.03 671.88,-41.96"/>
</g>
</g>
</svg>
