<?xml version="1.0" encoding="UTF-8" standalone="no"?>
<!DOCTYPE svg PUBLIC "-//W3C//DTD SVG 1.1//EN"
 "http://www.w3.org/Graphics/SVG/1.1/DTD/svg11.dtd">
<!-- Generated by graphviz version 2.43.0 (0)
 -->
<!-- Title: pastafarianism Pages: 1 -->
<svg width="1859pt" height="332pt"
 viewBox="0.00 0.00 1858.73 332.00" xmlns="http://www.w3.org/2000/svg" xmlns:xlink="http://www.w3.org/1999/xlink">
<g id="graph0" class="graph" transform="scale(1 1) rotate(0) translate(4 328)">
<title>pastafarianism</title>
<polygon fill="white" stroke="transparent" points="-4,4 -4,-328 1854.73,-328 1854.73,4 -4,4"/>
<!-- node1 -->
<g id="node1" class="node">
<title>node1</title>
<polygon fill="cyan" stroke="black" points="740.27,-298.54 740.27,-313.46 723.72,-324 700.32,-324 683.78,-313.46 683.78,-298.54 700.32,-288 723.72,-288 740.27,-298.54"/>
<text text-anchor="middle" x="712.02" y="-303.8" font-family="Times,serif" font-size="9.00">node1</text>
</g>
<!-- node2 -->
<g id="node2" class="node">
<title>node2</title>
<polygon fill="cyan" stroke="black" points="565.27,-226.54 565.27,-241.46 548.72,-252 525.32,-252 508.78,-241.46 508.78,-226.54 525.32,-216 548.72,-216 565.27,-226.54"/>
<text text-anchor="middle" x="537.02" y="-231.8" font-family="Times,serif" font-size="9.00">node2</text>
</g>
<!-- node1&#45;&gt;node2 -->
<g id="edge1" class="edge">
<title>node1&#45;&gt;node2</title>
<path fill="none" stroke="black" d="M688.42,-295.56C658.02,-283.4 605,-262.19 570.46,-248.37"/>
<polygon fill="black" stroke="black" points="571.39,-244.98 560.81,-244.51 568.79,-251.48 571.39,-244.98"/>
</g>
<!-- node17 -->
<g id="node17" class="node">
<title>node17</title>
<polygon fill="cyan" stroke="black" points="1035.76,-226.54 1035.76,-241.46 1017.17,-252 990.87,-252 972.28,-241.46 972.28,-226.54 990.87,-216 1017.17,-216 1035.76,-226.54"/>
<text text-anchor="middle" x="1004.02" y="-231.8" font-family="Times,serif" font-size="9.00">node17</text>
</g>
<!-- node1&#45;&gt;node17 -->
<g id="edge16" class="edge">
<title>node1&#45;&gt;node17</title>
<path fill="none" stroke="black" d="M740.02,-298.29C791.97,-285.83 903.46,-259.11 963.6,-244.69"/>
<polygon fill="black" stroke="black" points="964.59,-248.05 973.49,-242.32 962.95,-241.25 964.59,-248.05"/>
</g>
<!-- node3 -->
<g id="node3" class="node">
<title>node3</title>
<polygon fill="cyan" stroke="black" points="270.27,-154.54 270.27,-169.46 253.72,-180 230.32,-180 213.78,-169.46 213.78,-154.54 230.32,-144 253.72,-144 270.27,-154.54"/>
<text text-anchor="middle" x="242.02" y="-159.8" font-family="Times,serif" font-size="9.00">node3</text>
</g>
<!-- node2&#45;&gt;node3 -->
<g id="edge2" class="edge">
<title>node2&#45;&gt;node3</title>
<path fill="none" stroke="black" d="M509,-226.35C455.84,-213.74 340.3,-186.32 280.15,-172.05"/>
<polygon fill="black" stroke="black" points="280.82,-168.61 270.29,-169.71 279.21,-175.42 280.82,-168.61"/>
</g>
<!-- node10 -->
<g id="node10" class="node">
<title>node10</title>
<polygon fill="cyan" stroke="black" points="568.76,-154.54 568.76,-169.46 550.17,-180 523.87,-180 505.28,-169.46 505.28,-154.54 523.87,-144 550.17,-144 568.76,-154.54"/>
<text text-anchor="middle" x="537.02" y="-159.8" font-family="Times,serif" font-size="9.00">node10</text>
</g>
<!-- node2&#45;&gt;node10 -->
<g id="edge9" class="edge">
<title>node2&#45;&gt;node10</title>
<path fill="none" stroke="black" d="M537.02,-215.7C537.02,-207.98 537.02,-198.71 537.02,-190.11"/>
<polygon fill="black" stroke="black" points="540.52,-190.1 537.02,-180.1 533.52,-190.1 540.52,-190.1"/>
</g>
<!-- node4 -->
<g id="node4" class="node">
<title>node4</title>
<polygon fill="cyan" stroke="black" points="138.27,-82.54 138.27,-97.46 121.72,-108 98.32,-108 81.78,-97.46 81.78,-82.54 98.32,-72 121.72,-72 138.27,-82.54"/>
<text text-anchor="middle" x="110.02" y="-87.8" font-family="Times,serif" font-size="9.00">node4</text>
</g>
<!-- node3&#45;&gt;node4 -->
<g id="edge3" class="edge">
<title>node3&#45;&gt;node4</title>
<path fill="none" stroke="black" d="M220.81,-149.75C198.97,-138.17 164.74,-120.02 140.1,-106.95"/>
<polygon fill="black" stroke="black" points="141.65,-103.81 131.18,-102.22 138.37,-110 141.65,-103.81"/>
</g>
<!-- node7 -->
<g id="node7" class="node">
<title>node7</title>
<polygon fill="cyan" stroke="black" points="270.27,-82.54 270.27,-97.46 253.72,-108 230.32,-108 213.78,-97.46 213.78,-82.54 230.32,-72 253.72,-72 270.27,-82.54"/>
<text text-anchor="middle" x="242.02" y="-87.8" font-family="Times,serif" font-size="9.00">node7</text>
</g>
<!-- node3&#45;&gt;node7 -->
<g id="edge6" class="edge">
<title>node3&#45;&gt;node7</title>
<path fill="none" stroke="black" d="M242.02,-143.7C242.02,-135.98 242.02,-126.71 242.02,-118.11"/>
<polygon fill="black" stroke="black" points="245.52,-118.1 242.02,-108.1 238.52,-118.1 245.52,-118.1"/>
</g>
<!-- Dummy -->
<g id="node5" class="node">
<title>Dummy</title>
<ellipse fill="gray" stroke="black" cx="30.02" cy="-18" rx="30.04" ry="18"/>
<text text-anchor="middle" x="30.02" y="-15.8" font-family="Times,serif" font-size="9.00">Dummy</text>
</g>
<!-- node4&#45;&gt;Dummy -->
<g id="edge4" class="edge">
<title>node4&#45;&gt;Dummy</title>
<path fill="none" stroke="black" d="M93.83,-74.83C82.41,-64.84 66.93,-51.29 54.07,-40.04"/>
<polygon fill="black" stroke="black" points="56.29,-37.34 46.46,-33.38 51.68,-42.6 56.29,-37.34"/>
</g>
<!-- Dummy* -->
<g id="node6" class="node">
<title>Dummy*</title>
<ellipse fill="gray" stroke="black" cx="110.02" cy="-18" rx="32.16" ry="18"/>
<text text-anchor="middle" x="110.02" y="-15.8" font-family="Times,serif" font-size="9.00">Dummy*</text>
</g>
<!-- node4&#45;&gt;Dummy* -->
<g id="edge5" class="edge">
<title>node4&#45;&gt;Dummy*</title>
<path fill="none" stroke="black" d="M110.02,-71.7C110.02,-63.98 110.02,-54.71 110.02,-46.11"/>
<polygon fill="black" stroke="black" points="113.52,-46.1 110.02,-36.1 106.52,-46.1 113.52,-46.1"/>
</g>
<!-- Dummy** -->
<g id="node8" class="node">
<title>Dummy**</title>
<ellipse fill="gray" stroke="black" cx="196.02" cy="-18" rx="35.44" ry="18"/>
<text text-anchor="middle" x="196.02" y="-15.8" font-family="Times,serif" font-size="9.00">Dummy**</text>
</g>
<!-- node7&#45;&gt;Dummy** -->
<g id="edge7" class="edge">
<title>node7&#45;&gt;Dummy**</title>
<path fill="none" stroke="black" d="M230.65,-71.7C225.17,-63.35 218.49,-53.18 212.46,-44.02"/>
<polygon fill="black" stroke="black" points="215.36,-42.06 206.95,-35.62 209.51,-45.9 215.36,-42.06"/>
</g>
<!-- Dummy*** -->
<g id="node9" class="node">
<title>Dummy***</title>
<ellipse fill="gray" stroke="black" cx="287.02" cy="-18" rx="37.56" ry="18"/>
<text text-anchor="middle" x="287.02" y="-15.8" font-family="Times,serif" font-size="9.00">Dummy***</text>
</g>
<!-- node7&#45;&gt;Dummy*** -->
<g id="edge8" class="edge">
<title>node7&#45;&gt;Dummy***</title>
<path fill="none" stroke="black" d="M253.15,-71.7C258.46,-63.44 264.91,-53.39 270.76,-44.3"/>
<polygon fill="black" stroke="black" points="273.87,-45.93 276.34,-35.62 267.98,-42.14 273.87,-45.93"/>
</g>
<!-- node11 -->
<g id="node11" class="node">
<title>node11</title>
<polygon fill="cyan" stroke="black" points="515.76,-82.54 515.76,-97.46 497.17,-108 470.87,-108 452.28,-97.46 452.28,-82.54 470.87,-72 497.17,-72 515.76,-82.54"/>
<text text-anchor="middle" x="484.02" y="-87.8" font-family="Times,serif" font-size="9.00">node11</text>
</g>
<!-- node10&#45;&gt;node11 -->
<g id="edge10" class="edge">
<title>node10&#45;&gt;node11</title>
<path fill="none" stroke="black" d="M523.92,-143.7C517.63,-135.39 509.97,-125.28 503.06,-116.14"/>
<polygon fill="black" stroke="black" points="505.8,-113.96 496.97,-108.1 500.22,-118.19 505.8,-113.96"/>
</g>
<!-- node14 -->
<g id="node14" class="node">
<title>node14</title>
<polygon fill="cyan" stroke="black" points="621.76,-82.54 621.76,-97.46 603.17,-108 576.87,-108 558.28,-97.46 558.28,-82.54 576.87,-72 603.17,-72 621.76,-82.54"/>
<text text-anchor="middle" x="590.02" y="-87.8" font-family="Times,serif" font-size="9.00">node14</text>
</g>
<!-- node10&#45;&gt;node14 -->
<g id="edge13" class="edge">
<title>node10&#45;&gt;node14</title>
<path fill="none" stroke="black" d="M550.12,-143.7C556.41,-135.39 564.07,-125.28 570.99,-116.14"/>
<polygon fill="black" stroke="black" points="573.83,-118.19 577.07,-108.1 568.24,-113.96 573.83,-118.19"/>
</g>
<!-- Dummy**** -->
<g id="node12" class="node">
<title>Dummy****</title>
<ellipse fill="gray" stroke="black" cx="383.02" cy="-18" rx="40.33" ry="18"/>
<text text-anchor="middle" x="383.02" y="-15.8" font-family="Times,serif" font-size="9.00">Dummy****</text>
</g>
<!-- node11&#45;&gt;Dummy**** -->
<g id="edge11" class="edge">
<title>node11&#45;&gt;Dummy****</title>
<path fill="none" stroke="black" d="M464.55,-75.5C449.81,-65.29 429.31,-51.08 412.55,-39.46"/>
<polygon fill="black" stroke="black" points="414.39,-36.48 404.18,-33.66 410.41,-42.24 414.39,-36.48"/>
</g>
<!-- Dummy***** -->
<g id="node13" class="node">
<title>Dummy*****</title>
<ellipse fill="gray" stroke="black" cx="484.02" cy="-18" rx="42.95" ry="18"/>
<text text-anchor="middle" x="484.02" y="-15.8" font-family="Times,serif" font-size="9.00">Dummy*****</text>
</g>
<!-- node11&#45;&gt;Dummy***** -->
<g id="edge12" class="edge">
<title>node11&#45;&gt;Dummy*****</title>
<path fill="none" stroke="black" d="M484.02,-71.7C484.02,-63.98 484.02,-54.71 484.02,-46.11"/>
<polygon fill="black" stroke="black" points="487.52,-46.1 484.02,-36.1 480.52,-46.1 487.52,-46.1"/>
</g>
<!-- Dummy****** -->
<g id="node15" class="node">
<title>Dummy******</title>
<ellipse fill="gray" stroke="black" cx="590.02" cy="-18" rx="45.72" ry="18"/>
<text text-anchor="middle" x="590.02" y="-15.8" font-family="Times,serif" font-size="9.00">Dummy******</text>
</g>
<!-- node14&#45;&gt;Dummy****** -->
<g id="edge14" class="edge">
<title>node14&#45;&gt;Dummy******</title>
<path fill="none" stroke="black" d="M590.02,-71.7C590.02,-63.98 590.02,-54.71 590.02,-46.11"/>
<polygon fill="black" stroke="black" points="593.52,-46.1 590.02,-36.1 586.52,-46.1 593.52,-46.1"/>
</g>
<!-- Dummy******* -->
<g id="node16" class="node">
<title>Dummy*******</title>
<ellipse fill="gray" stroke="black" cx="702.02" cy="-18" rx="47.84" ry="18"/>
<text text-anchor="middle" x="702.02" y="-15.8" font-family="Times,serif" font-size="9.00">Dummy*******</text>
</g>
<!-- node14&#45;&gt;Dummy******* -->
<g id="edge15" class="edge">
<title>node14&#45;&gt;Dummy*******</title>
<path fill="none" stroke="black" d="M610.56,-76.16C627.14,-65.8 650.75,-51.05 669.83,-39.12"/>
<polygon fill="black" stroke="black" points="671.88,-41.96 678.51,-33.7 668.17,-36.03 671.88,-41.96"/>
</g>
<!-- node18 -->
<g id="node18" class="node">
<title>node18</title>
<polygon fill="cyan" stroke="black" points="1035.76,-154.54 1035.76,-169.46 1017.17,-180 990.87,-180 972.28,-169.46 972.28,-154.54 990.87,-144 1017.17,-144 1035.76,-154.54"/>
<text text-anchor="middle" x="1004.02" y="-159.8" font-family="Times,serif" font-size="9.00">node18</text>
</g>
<!-- node17&#45;&gt;node18 -->
<g id="edge17" class="edge">
<title>node17&#45;&gt;node18</title>
<path fill="none" stroke="black" d="M1004.02,-215.7C1004.02,-207.98 1004.02,-198.71 1004.02,-190.11"/>
<polygon fill="black" stroke="black" points="1007.52,-190.1 1004.02,-180.1 1000.52,-190.1 1007.52,-190.1"/>
</g>
<!-- node25 -->
<g id="node25" class="node">
<title>node25</title>
<polygon fill="cyan" stroke="black" points="1440.76,-154.54 1440.76,-169.46 1422.17,-180 1395.87,-180 1377.28,-169.46 1377.28,-154.54 1395.87,-144 1422.17,-144 1440.76,-154.54"/>
<text text-anchor="middle" x="1409.02" y="-159.8" font-family="Times,serif" font-size="9.00">node25</text>
</g>
<!-- node17&#45;&gt;node25 -->
<g id="edge24" class="edge">
<title>node17&#45;&gt;node25</title>
<path fill="none" stroke="black" d="M1035.8,-227.51C1108.32,-214.97 1285.97,-184.27 1367.23,-170.22"/>
<polygon fill="black" stroke="black" points="1367.85,-173.67 1377.11,-168.52 1366.66,-166.77 1367.85,-173.67"/>
</g>
<!-- node19 -->
<g id="node19" class="node">
<title>node19</title>
<polygon fill="cyan" stroke="black" points="972.76,-82.54 972.76,-97.46 954.17,-108 927.87,-108 909.28,-97.46 909.28,-82.54 927.87,-72 954.17,-72 972.76,-82.54"/>
<text text-anchor="middle" x="941.02" y="-87.8" font-family="Times,serif" font-size="9.00">node19</text>
</g>
<!-- node18&#45;&gt;node19 -->
<g id="edge18" class="edge">
<title>node18&#45;&gt;node19</title>
<path fill="none" stroke="black" d="M989.41,-144.76C981.49,-135.97 971.56,-124.93 962.75,-115.14"/>
<polygon fill="black" stroke="black" points="965.28,-112.72 955.99,-107.63 960.08,-117.41 965.28,-112.72"/>
</g>
<!-- node22 -->
<g id="node22" class="node">
<title>node22</title>
<polygon fill="cyan" stroke="black" points="1099.76,-82.54 1099.76,-97.46 1081.17,-108 1054.87,-108 1036.28,-97.46 1036.28,-82.54 1054.87,-72 1081.17,-72 1099.76,-82.54"/>
<text text-anchor="middle" x="1068.02" y="-87.8" font-family="Times,serif" font-size="9.00">node22</text>
</g>
<!-- node18&#45;&gt;node22 -->
<g id="edge21" class="edge">
<title>node18&#45;&gt;node22</title>
<path fill="none" stroke="black" d="M1018.87,-144.76C1027.02,-135.84 1037.3,-124.61 1046.34,-114.72"/>
<polygon fill="black" stroke="black" points="1049.09,-116.89 1053.26,-107.15 1043.93,-112.17 1049.09,-116.89"/>
</g>
<!-- Dummy******** -->
<g id="node20" class="node">
<title>Dummy********</title>
<ellipse fill="gray" stroke="black" cx="819.02" cy="-18" rx="50.61" ry="18"/>
<text text-anchor="middle" x="819.02" y="-15.8" font-family="Times,serif" font-size="9.00">Dummy********</text>
</g>
<!-- node19&#45;&gt;Dummy******** -->
<g id="edge19" class="edge">
<title>node19&#45;&gt;Dummy********</title>
<path fill="none" stroke="black" d="M919.49,-76.65C901.18,-66.14 874.54,-50.85 853.3,-38.67"/>
<polygon fill="black" stroke="black" points="854.98,-35.59 844.56,-33.65 851.49,-41.67 854.98,-35.59"/>
</g>
<!-- Dummy********* -->
<g id="node21" class="node">
<title>Dummy*********</title>
<ellipse fill="gray" stroke="black" cx="941.02" cy="-18" rx="53.23" ry="18"/>
<text text-anchor="middle" x="941.02" y="-15.8" font-family="Times,serif" font-size="9.00">Dummy*********</text>
</g>
<!-- node19&#45;&gt;Dummy********* -->
<g id="edge20" class="edge">
<title>node19&#45;&gt;Dummy*********</title>
<path fill="none" stroke="black" d="M941.02,-71.7C941.02,-63.98 941.02,-54.71 941.02,-46.11"/>
<polygon fill="black" stroke="black" points="944.52,-46.1 941.02,-36.1 937.52,-46.1 944.52,-46.1"/>
</g>
<!-- Dummy********** -->
<g id="node23" class="node">
<title>Dummy**********</title>
<ellipse fill="gray" stroke="black" cx="1068.02" cy="-18" rx="56.01" ry="18"/>
<text text-anchor="middle" x="1068.02" y="-15.8" font-family="Times,serif" font-size="9.00">Dummy**********</text>
</g>
<!-- node22&#45;&gt;Dummy********** -->
<g id="edge22" class="edge">
<title>node22&#45;&gt;Dummy**********</title>
<path fill="none" stroke="black" d="M1068.02,-71.7C1068.02,-63.98 1068.02,-54.71 1068.02,-46.11"/>
<polygon fill="black" stroke="black" points="1071.52,-46.1 1068.02,-36.1 1064.52,-46.1 1071.52,-46.1"/>
</g>
<!-- Dummy*********** -->
<g id="node24" class="node">
<title>Dummy***********</title>
<ellipse fill="gray" stroke="black" cx="1200.02" cy="-18" rx="58.13" ry="18"/>
<text text-anchor="middle" x="1200.02" y="-15.8" font-family="Times,serif" font-size="9.00">Dummy***********</text>
</g>
<!-- node22&#45;&gt;Dummy*********** -->
<g id="edge23" class="edge">
<title>node22&#45;&gt;Dummy***********</title>
<path fill="none" stroke="black" d="M1090.41,-77.13C1110.28,-66.59 1139.7,-50.99 1163.06,-38.6"/>
<polygon fill="black" stroke="black" points="1164.81,-41.64 1172,-33.86 1161.53,-35.45 1164.81,-41.64"/>
</g>
<!-- node26 -->
<g id="node26" class="node">
<title>node26</title>
<polygon fill="cyan" stroke="black" points="1440.76,-82.54 1440.76,-97.46 1422.17,-108 1395.87,-108 1377.28,-97.46 1377.28,-82.54 1395.87,-72 1422.17,-72 1440.76,-82.54"/>
<text text-anchor="middle" x="1409.02" y="-87.8" font-family="Times,serif" font-size="9.00">node26</text>
</g>
<!-- node25&#45;&gt;node26 -->
<g id="edge25" class="edge">
<title>node25&#45;&gt;node26</title>
<path fill="none" stroke="black" d="M1409.02,-143.7C1409.02,-135.98 1409.02,-126.71 1409.02,-118.11"/>
<polygon fill="black" stroke="black" points="1412.52,-118.1 1409.02,-108.1 1405.52,-118.1 1412.52,-118.1"/>
</g>
<!-- node29 -->
<g id="node29" class="node">
<title>node29</title>
<polygon fill="cyan" stroke="black" points="1660.76,-82.54 1660.76,-97.46 1642.17,-108 1615.87,-108 1597.28,-97.46 1597.28,-82.54 1615.87,-72 1642.17,-72 1660.76,-82.54"/>
<text text-anchor="middle" x="1629.02" y="-87.8" font-family="Times,serif" font-size="9.00">node29</text>
</g>
<!-- node25&#45;&gt;node29 -->
<g id="edge28" class="edge">
<title>node25&#45;&gt;node29</title>
<path fill="none" stroke="black" d="M1436.89,-152.13C1476.15,-139.64 1547.84,-116.83 1591.68,-102.88"/>
<polygon fill="black" stroke="black" points="1592.92,-106.16 1601.39,-99.79 1590.79,-99.49 1592.92,-106.16"/>
</g>
<!-- Dummy************ -->
<g id="node27" class="node">
<title>Dummy************</title>
<ellipse fill="gray" stroke="black" cx="1338.02" cy="-18" rx="61.4" ry="18"/>
<text text-anchor="middle" x="1338.02" y="-15.8" font-family="Times,serif" font-size="9.00">Dummy************</text>
</g>
<!-- node26&#45;&gt;Dummy************ -->
<g id="edge26" class="edge">
<title>node26&#45;&gt;Dummy************</title>
<path fill="none" stroke="black" d="M1393.27,-73.46C1384.06,-64.39 1372.26,-52.75 1361.93,-42.57"/>
<polygon fill="black" stroke="black" points="1364.3,-40 1354.72,-35.47 1359.39,-44.98 1364.3,-40"/>
</g>
<!-- Dummy************* -->
<g id="node28" class="node">
<title>Dummy*************</title>
<ellipse fill="gray" stroke="black" cx="1481.02" cy="-18" rx="63.52" ry="18"/>
<text text-anchor="middle" x="1481.02" y="-15.8" font-family="Times,serif" font-size="9.00">Dummy*************</text>
</g>
<!-- node26&#45;&gt;Dummy************* -->
<g id="edge27" class="edge">
<title>node26&#45;&gt;Dummy*************</title>
<path fill="none" stroke="black" d="M1425,-73.46C1434.34,-64.39 1446.3,-52.75 1456.78,-42.57"/>
<polygon fill="black" stroke="black" points="1459.35,-44.95 1464.08,-35.47 1454.47,-39.93 1459.35,-44.95"/>
</g>
<!-- Dummy************** -->
<g id="node30" class="node">
<title>Dummy**************</title>
<ellipse fill="gray" stroke="black" cx="1629.02" cy="-18" rx="66.29" ry="18"/>
<text text-anchor="middle" x="1629.02" y="-15.8" font-family="Times,serif" font-size="9.00">Dummy**************</text>
</g>
<!-- node29&#45;&gt;Dummy************** -->
<g id="edge29" class="edge">
<title>node29&#45;&gt;Dummy**************</title>
<path fill="none" stroke="black" d="M1629.02,-71.7C1629.02,-63.98 1629.02,-54.71 1629.02,-46.11"/>
<polygon fill="black" stroke="black" points="1632.52,-46.1 1629.02,-36.1 1625.52,-46.1 1632.52,-46.1"/>
</g>
<!-- Dummy*************** -->
<g id="node31" class="node">
<title>Dummy***************</title>
<ellipse fill="gray" stroke="black" cx="1782.02" cy="-18" rx="68.91" ry="18"/>
<text text-anchor="middle" x="1782.02" y="-15.8" font-family="Times,serif" font-size="9.00">Dummy***************</text>
</g>
<!-- node29&#45;&gt;Dummy*************** -->
<g id="edge30" class="edge">
<title>node29&#45;&gt;Dummy***************</title>
<path fill="none" stroke="black" d="M1652.93,-78.06C1676.26,-67.39 1712.24,-50.92 1740.3,-38.09"/>
<polygon fill="black" stroke="black" points="1741.84,-41.23 1749.48,-33.89 1738.93,-34.87 1741.84,-41.23"/>
</g>
</g>
</svg>
